<?xml version="1.0" standalone="no"?>
<!DOCTYPE svg PUBLIC "-//W3C//DTD SVG 20010904//EN"
 "http://www.w3.org/TR/2001/REC-SVG-20010904/DTD/svg10.dtd">
<svg version="1.0" xmlns="http://www.w3.org/2000/svg"
 width="500.000000pt" height="500.000000pt" viewBox="0 0 500.000000 500.000000"
 preserveAspectRatio="xMidYMid meet">
<metadata>
Created by potrace 1.11, written by Peter Selinger 2001-2013
</metadata>
<g transform="translate(0.000000,500.000000) scale(0.100000,-0.100000)"
fill="#000000" stroke="none">
<path d="M0 2500 l0 -2500 2500 0 2500 0 0 2500 0 2500 -2500 0 -2500 0 0
-2500z m1976 1844 c8 -18 14 -65 14 -104 0 -119 -56 -450 -115 -683 -57 -226
-66 -287 -40 -287 23 0 52 38 107 140 28 52 67 120 86 150 19 30 91 154 160
275 68 121 140 241 159 267 45 62 89 99 110 91 38 -15 -13 -272 -100 -510 -73
-196 -196 -424 -338 -625 l-48 -66 30 -74 c34 -81 62 -112 115 -127 41 -11 31
-14 202 56 217 89 297 107 487 106 247 0 425 -45 629 -159 135 -75 201 -128
331 -260 89 -90 121 -131 168 -215 112 -199 154 -369 144 -578 -5 -118 -25
-197 -63 -258 -83 -129 -155 -206 -266 -281 -25 -18 -66 -60 -90 -94 -85 -122
-181 -172 -373 -194 -66 -8 -140 -18 -165 -24 -67 -14 -448 -34 -500 -26 -25
3 -60 15 -78 26 -28 17 -32 25 -32 64 0 63 25 89 125 127 93 35 108 47 103 81
-3 21 -12 25 -106 40 -113 19 -208 44 -346 90 -72 25 -97 29 -139 24 -81 -11
-110 -29 -201 -123 -263 -270 -267 -273 -359 -280 -72 -6 -103 5 -117 42 -13
35 23 134 83 228 44 69 50 86 54 145 7 100 -18 157 -116 266 -44 49 -96 118
-115 155 -35 68 -76 195 -76 241 0 41 -13 50 -91 66 -41 8 -112 33 -158 55
-68 32 -98 54 -166 123 -112 115 -121 157 -70 311 28 84 114 252 162 315 57
77 212 231 270 269 37 25 137 71 204 94 11 4 33 55 64 149 26 79 81 224 122
323 42 99 98 243 125 320 70 193 124 314 155 347 30 31 40 29 59 -18z"/>
</g>
</svg>
