<?xml version="1.0" standalone="no"?>
<!DOCTYPE svg PUBLIC "-//W3C//DTD SVG 1.1//EN" "http://www.w3.org/Graphics/SVG/1.1/DTD/svg11.dtd" >
<svg xmlns="http://www.w3.org/2000/svg">
<metadata></metadata>
<defs>
<font id="sweetmix_3regular" horiz-adv-x="931" >
<font-face units-per-em="2048" ascent="1638" descent="-410" />
<missing-glyph horiz-adv-x="370" />
<glyph horiz-adv-x="0" />
<glyph horiz-adv-x="682" />
<glyph unicode=" "  horiz-adv-x="370" />
<glyph unicode="&#x09;" horiz-adv-x="370" />
<glyph unicode="&#xa0;" horiz-adv-x="370" />
<glyph unicode="!" horiz-adv-x="491" d="M35 70q0 -27 31 -58q15 -17 25 -21.5t32 -4.5q21 0 35.5 3.5t23 6.5t15 14t8.5 17t7.5 25t8.5 28q15 22 15 59t-38 62.5t-77 25.5q-24 0 -43 -12.5t-23 -34.5q-12 -42 -12 -61q-2 -10 -4 -17t-2.5 -8.5t-1 -7t-0.5 -16.5zM134.5 430q-1.5 13 4.5 35q2 7 7 20t8 27 q23 84 52.5 188.5t38 134t26 100t32.5 138t43 197.5q5 24 29 38.5t61 6.5l12 -4q12 -4 25 -11t26.5 -17.5t20.5 -28.5t4 -40q-18 -106 -78 -313q-33 -115 -56.5 -213.5t-59.5 -218.5q-17 -55 -41.5 -77.5t-61.5 -22.5q-51 0 -77 32q-14 16 -15.5 29z" />
<glyph unicode="&#x22;" horiz-adv-x="714" d="M165 957l1 6q2 9 4 20t4 19.5t6 19.5l68 225q1 2 2 7q5 19 9 30.5t11 28.5t16 26.5t19 10.5q63 6 103 2q15 -2 18.5 -21t-1 -39t-11.5 -39l-82 -209q-28 -76 -49 -95q-10 -7 -19 -9q-8 -2 -15.5 -4t-10.5 -2.5t-8.5 -0.5t-16.5 1h-4q-43 5 -44 23zM472 957l1 6q2 9 4 20 t4 19.5t6 19.5l68 225q1 2 2 7q5 19 9 30.5t11 28.5t16 26.5t19 10.5q63 6 103 2q15 -2 18.5 -21t-1 -39t-11.5 -39l-82 -209q-28 -76 -49 -95q-9 -7 -19 -9q-8 -2 -15.5 -4t-10.5 -2.5t-8.5 -0.5t-16.5 1h-4q-43 5 -44 23z" />
<glyph unicode="#" horiz-adv-x="1019" d="M69 484q0 6 0.5 15t0.5 11q2 14 18 68q13 36 113 36h51l39 187h-74q-13 0 -30 1t-29 1q-24 2 -17 55q1 14 17 68q13 37 112 37h54l32 153q23 101 60 109q51 14 69 14h6h7.5h8t8.5 -1t7 -1.5t6.5 -2.5l5 -4t3.5 -5.5t0 -7.5q-7 -43 -11 -60l-41 -194h166l33 153 q23 101 59 109q51 14 70 14h6h7.5h7.5t8 -1t7.5 -1.5t7 -2.5t4.5 -4t3 -5.5t0 -7.5q-9 -55 -10 -60l-41 -194h45q22 0 39 -1.5t34.5 -10t16.5 -23.5q-5 -49 -20 -101q-1 -5 -4 -8.5t-8.5 -6.5t-10.5 -5t-13.5 -3t-13.5 -1.5t-15.5 -1t-14.5 -0.5h-14.5h-12.5h-41l-39 -187 h47q16 0 28 -1t29 -3.5t26 -10t8 -19.5q-4 -44 -21 -101q-1 -5 -4 -8.5t-8.5 -6.5t-10.5 -5t-13.5 -3t-13.5 -1.5t-15 -1t-14 -0.5h-14.5h-12.5h-45v-4l-43 -203q-5 -23 -7.5 -32t-9.5 -29.5t-15.5 -31t-19.5 -12.5q-49 -11 -102 -14q-32 0 -14 94l49 228v4h-166v-4 l-43 -203q-18 -77 -35 -95q-8 -8 -16 -10q-49 -11 -103 -14q-32 0 -14 94l49 228v4h-70q-13 0 -30 1t-29 1q-7 1 -11.5 5t-6 11t-1.5 13zM414 614h166l38 187h-165z" />
<glyph unicode="$" d="M4 174q0 28 35.5 71.5t62.5 43.5q10 0 28 -18t38.5 -40t59 -42t83.5 -23l17 55q23 76 74 231.5t61 188.5q-188 132 -223 215q-15 39 -15 92q0 72 27 134t71.5 106t104.5 77.5t124 52.5t132 28q4 14 13.5 40t13.5 39q10 30 14.5 41t12.5 19.5t20 9.5q14 3 29.5 -23.5 t13.5 -37.5q3 -3 3.5 -21.5t-3.5 -36.5l-6 -24q57 -1 106 -18t84 -58t35 -100q0 -34 -4 -58t-14.5 -46.5t-33 -34t-57.5 -11.5q-34 0 -50 21.5t-18 48t-16.5 51t-44.5 29.5q-24 4 -37 4l-4 -11q-20 -50 -38.5 -111.5t-40 -140.5t-35.5 -126l-9 -27q4 -4 19 -14 q52 -35 84.5 -62t62 -64t43 -82.5t13.5 -103.5q0 -95 -38 -175t-102.5 -133.5t-146 -86.5t-172.5 -43q-4 -14 -10.5 -36t-8.5 -30q-7 -22 -20 -40q-6 -9 -18.5 -14.5t-22.5 -4.5q-66 26 -41 115v8q-55 3 -104 20q-61 23 -106.5 63t-45.5 93zM422 979q0 -38 26 -78.5 t60 -60.5l14 -9q21 65 61 189t48 149q-35 -9 -61.5 -17.5t-56 -24t-48 -34.5t-31 -48.5t-12.5 -65.5zM436 180l10 2q77 15 139 89t62 155q0 86 -88 149q-97 -310 -123 -395z" />
<glyph unicode="%" horiz-adv-x="1294" d="M123 999q0 92 35.5 160.5t109.5 132.5q29 26 101.5 48.5t134.5 15.5q25 -3 35 -16.5t8.5 -25.5t-6.5 -20q121 -62 121 -198q0 -131 -80 -238t-207 -127q-20 -4 -31 -4q-98 0 -159.5 85t-61.5 187zM228 108q1 2 1 3q11 25 131 208q41 64 118 181.5t128 197.5 q245 373 303 463q77 123 95 148q23 36 37 48.5t36 12.5h2q18 0 32.5 -26.5t10.5 -36.5q5 -4 3 -23.5t-11 -32.5q-5 -8 -39.5 -69.5t-73.5 -120.5q-62 -94 -190 -299q-62 -98 -194.5 -304t-208.5 -329q-41 -64 -52 -86q-14 -21 -34 -37q-20 -14 -58 -10q-78 33 -36 112z M266 1010q-6 -44 14.5 -81t55.5 -48q28 -8 63 6q54 24 79.5 84t25.5 129q0 50 -27 100q-25 30 -88 2q-52 -21 -76 -55q-37 -55 -47 -137zM676 262q0 92 35.5 160.5t109.5 132.5q29 25 101.5 47.5t134.5 15.5q25 -3 35 -16t8.5 -25t-6.5 -20q120 -61 120 -199 q0 -131 -80 -237.5t-206 -126.5q-20 -4 -31 -4q-98 0 -159.5 85t-61.5 187zM819 272q-6 -44 14.5 -81t55.5 -48q27 -8 63 7q54 24 79.5 84t25.5 128q0 52 -27 101q-25 30 -88 2q-52 -21 -76 -55q-37 -55 -47 -138z" />
<glyph unicode="&#x26;" d="M63 315q3 134 127 273q16 17 37.5 36.5t37.5 32.5t43.5 34.5t39.5 31.5q39 32 25 57q-116 140 -113 273q1 8 1 23t1 22q4 66 36 117.5t82.5 82t109 45.5t122.5 15q58 0 111.5 -18.5t88.5 -47t59 -63t22.5 -66.5t-21.5 -57q-3 -4 -9.5 -6t-15 -4t-9.5 -2q-22 -4 -42.5 7 t-37.5 29.5t-36.5 36.5t-48.5 27.5t-65 3.5q-24 1 -51.5 -5t-57 -20.5t-47.5 -46t-14 -73.5q3 -36 37.5 -98.5t63.5 -86.5q30 -39 39 -72t-4 -62t-30.5 -50t-51.5 -51q-20 -12 -72 -64q-77 -69 -100 -97q-64 -77 -64 -167q0 -35 14 -62t37 -43.5t43.5 -25.5t42.5 -14 q50 -9 110 -5.5t118.5 34.5t76.5 81q6 15 7.5 45t-4 68.5t-32.5 71t-73 43.5q-13 11 -19.5 19t-7 11.5t0.5 10.5t1 10q0 32 58 84q8 8 20 11.5t20.5 4.5t35.5 2l184 13q102 6 102 -27q-3 -52 -14 -94q-1 -5 -4 -9t-8.5 -6.5l-11 -5t-14 -4t-15 -2.5t-17 -1.5t-16 -1t-16 -1 t-13.5 -0.5l-53 -2q79 -76 76 -186q-2 -76 -46.5 -141t-112 -105.5t-145 -63t-149.5 -22.5q-95 0 -179.5 39t-138 114.5t-51.5 169.5z" />
<glyph unicode="'" horiz-adv-x="417" d="M165 957l1 6q2 9 4 20t4 19.5t6 19.5l68 225q1 2 2 7q5 19 9 30.5t11 28.5t16 26.5t19 10.5q63 6 103 2q15 -2 18.5 -21t-1 -39t-11.5 -39l-82 -209q-28 -76 -49 -95q-10 -7 -19 -9q-8 -2 -15.5 -4t-10.5 -2.5t-8.5 -0.5t-16.5 1h-4q-43 5 -44 23z" />
<glyph unicode="(" horiz-adv-x="679" d="M106 334q0 149 37.5 286.5t109 259t158 224.5t201.5 211q72 65 88 76q34 24 79 -11q35 -26 35 -52q0 -9 -7 -15q-21 -17 -36 -30.5t-26.5 -25t-17.5 -16.5q-33 -31 -65 -70t-49 -64t-51.5 -79t-47.5 -74q-54 -83 -76 -123q-78 -145 -112.5 -267.5t-34.5 -319.5 q0 -125 49 -287q17 -51 27 -96q16 -64 -13 -78l-69 -16h-4q-49 0 -117 219q-45 147 -53 268q-5 67 -5 80z" />
<glyph unicode=")" horiz-adv-x="679" d="M-64 -170q1 9 7 14q21 17 36 30.5t26.5 25t17.5 16.5q33 31 65 70t49 64t51.5 79t47.5 74q49 74 75 123q78 146 113 268t35 319q0 125 -49 287q-17 51 -27 96q-16 64 12 78l70 17h4q49 0 117 -220q45 -147 53 -268q4 -54 4 -80q0 -149 -37.5 -286.5t-109 -259 t-158 -224.5t-201.5 -211q-67 -61 -88 -75q-34 -24 -80 11q-34 26 -33 52z" />
<glyph unicode="*" horiz-adv-x="806" d="M121 1004q-5 15 20 28t54 19l135 26l-72 72l-10.5 10.5l-12.5 12.5t-12.5 13t-10.5 12.5t-8 12.5t-4.5 11.5t1.5 9.5q21 47 28 57q11 12 36 -3.5t44 -37.5l90 -102l25 98q1 3 3 11t3 12.5t3.5 13t4.5 13.5t4.5 12t5 11t5.5 8t6.5 6.5t7.5 2.5q40 5 63 2q12 -2 14.5 -18.5 t-0.5 -34.5t-9 -35l-43 -129l96 27q4 1 14.5 4t16.5 4.5t16.5 3.5t17.5 3t14.5 1t12.5 -2t8 -6q7 -9 15 -18t11.5 -15.5t8.5 -19.5q7 -17 -18.5 -30t-55.5 -19l-135 -27l72 -70q67 -61 57 -84q-12 -32 -29 -55q-11 -14 -36.5 2t-42.5 37l-91 102l-24 -96q-1 -3 -3 -11 t-3 -12.5t-3.5 -13t-4.5 -13.5t-4.5 -12t-5 -11.5t-5.5 -9t-6.5 -6.5t-7.5 -3q-33 -4 -64 0q-29 2 -4 86l43 129l-96 -27q-3 -1 -14 -4t-17 -4.5t-16.5 -3.5t-17 -2.5t-14.5 -0.5t-13 2.5t-8 6.5q-6 8 -12 15.5t-8.5 11t-6.5 10.5t-8 17z" />
<glyph unicode="+" horiz-adv-x="1032" d="M115 566.5v8v7.5v6q0 26 12 67q9 37 109 37h206l27 199q11 97 51 108q51 15 68 15q55 0 53 -23q-3 -43 -6 -59l-31 -240h219q95 0 95 -35q0 -33 -13 -100q-2 -10 -12 -16t-31 -8t-29 -2.5t-32 -0.5h-217l-27 -202q-11 -99 -41 -105q-49 -11 -102 -14q-35 0 -23 94l31 227 h-225q-35 0 -60 2q-4 0 -7.5 1.5t-5.5 4t-4 5.5t-2.5 7.5t-1.5 7.5t-1 8.5z" />
<glyph unicode="," horiz-adv-x="299" d="M-12.5 -169.5q0.5 3.5 0.5 7.5q2 9 4 20t4 20t6 20l68 225q23 79 43 95q7 6 14 7q73 7 123 2q15 -2 19 -20.5t-0.5 -40t-12.5 -37.5l-86 -188q-51 -119 -84 -125q-8 -2 -15.5 -4t-10.5 -2.5t-8.5 -0.5t-16.5 1q-2 0 -6 0.5t-7 1t-8 1t-7.5 1.5t-7 2.5t-6 3.5t-4 4.5t-2 6 z" />
<glyph unicode="-" horiz-adv-x="604" d="M74 464v7.5v7.5v6q0 27 12 68q9 37 109 37h280q94 0 94 -35q0 -39 -12 -100q-2 -10 -12 -16t-31 -8t-29 -2.5t-32 -0.5h-297q-35 0 -60 2q-4 0 -7.5 1.5t-5.5 4l-4 5t-2.5 7t-1.5 8t-1 8.5z" />
<glyph unicode="." horiz-adv-x="309" d="M61 88q0 36 15 59q3 9 8 28t7.5 25t9 17.5t15 14.5t23 6.5t35.5 3.5q22 0 32 -5t25 -22q31 -31 31 -57q0 -11 -0.5 -16.5t-1 -7t-2.5 -8.5t-4 -17q0 -20 -12 -62q-4 -22 -23 -34.5t-43 -12.5q-39 0 -77 25.5t-38 62.5z" />
<glyph unicode="/" horiz-adv-x="555" d="M-25 31q3 13 93 211q84 180 204 440q193 410 238 510q9 19 31.5 69.5t36.5 79.5q16 36 28.5 49t34.5 13h2q18 0 37.5 -27t17.5 -37q5 -5 5.5 -22.5t-5.5 -32.5q-6 -14 -16.5 -43t-25 -66t-35.5 -81q-44 -91 -156 -346q-209 -459 -315 -697l-21 -49t-16 -37 q-8 -18 -27 -37q-19 -16 -55 -12q-84 32 -56 115z" />
<glyph unicode="0" d="M82 408q0 156 49 320t133 304q26 45 57.5 88t74 90t92 76t94.5 29q9 0 29 -9.5t22 -9.5q5 0 27.5 22.5t35.5 22.5q65 0 129 -100q93 -145 93 -373q0 -156 -40.5 -309.5t-117.5 -284.5q-68 -112 -153.5 -179t-205.5 -89q-5 -1 -14.5 -2.5t-17.5 -2.5t-15 -1 q-104 0 -186 104q-86 109 -86 304zM291 367q0 -174 88 -174q42 0 53 14q69 26 127.5 103.5t93.5 174t54.5 192.5t19.5 171q0 47 -6.5 109t-31.5 129t-64 67q-32 0 -80.5 -58.5t-77 -107.5t-51.5 -94q-125 -250 -125 -526z" />
<glyph unicode="1" horiz-adv-x="636" d="M76 106q0 38 49 195q41 134 203 641q35 114 41 152q-10 -3 -62 -34.5t-69 -31.5q-25 0 -37 4q-17 6 -37.5 38.5t-20.5 51.5q0 13 8.5 26.5t24.5 26.5t32.5 24t39.5 23.5t38 20t36 17.5t26 12q21 10 51.5 25.5t44 22t32.5 15t29.5 12t22.5 6.5t23 3q34 2 53 -29.5t2 -97.5 q-4 -17 -9.5 -43t-10.5 -45t-11 -37q-14 -41 -57 -215q-15 -59 -96 -330l-92 -313q-5 -18 -21 -77t-26 -91q-8 -24 -13 -35.5t-14.5 -26t-24.5 -20.5t-36 -6q-15 0 -27 6q-41 3 -66.5 35t-25.5 75z" />
<glyph unicode="2" d="M20 109q6 35 19 65.5t34.5 67.5t24.5 43q28 53 115 158t182.5 213t122.5 145q5 7 29 38t34.5 45.5t30 45.5t29 53.5t18 52.5t9.5 58q1 42 -19 59.5t-65 20.5q-51 4 -105 -15t-88.5 -44t-64 -46.5t-37.5 -21.5q-32 0 -60 28.5t-34 61.5q-6 25 13.5 54t51 53t62.5 42.5 t53 26.5q18 7 33.5 12.5t35 9.5t29 6.5t33.5 5t30 3t36.5 3.5t35.5 3q54 4 137 -33q78 -36 104.5 -94.5t14.5 -153.5q-30 -205 -301 -493q-195 -211 -260 -313q-30 -46 -39 -76q83 10 199 16q45 2 163.5 -11t168.5 -34q5 -2 15 -5.5t15 -5.5t13.5 -6.5t11.5 -7.5t8.5 -9 t4 -12t-0.5 -16q-2 -15 -10.5 -45t-15.5 -37q-17 -20 -52 -20q-15 0 -49.5 6.5t-38.5 7.5q-18 2 -58 9t-71 10.5t-59 3.5q-110 0 -209 -8q-25 -2 -103.5 -13.5t-111.5 -11.5q-25 0 -47 40.5t-17 64.5z" />
<glyph unicode="3" d="M-27 152q0 67 21.5 102t87.5 39q76 4 84 -100q11 -41 51 -41q92 0 186.5 59.5t154.5 150.5t60 177q0 35 -12 61.5t-33.5 41.5t-48 25t-58.5 14t-61.5 5.5t-60.5 1.5h-20h-15q-69 0 -69 103q0 26 93 54q4 2 6.5 2.5t7 2l7.5 2.5q58 17 100 36.5t64.5 35.5t61.5 47 q41 33 62.5 83.5t21.5 82.5q0 11 -6.5 24t-18.5 17q-6 6 -29 11.5t-82 -0.5t-129 -34q-32 -9 -72 -27.5t-48 -21.5q-15 -6 -31 5t-23 34l-4 9q-4 9 -7 19t-3 19v7.5v8.5t1 8t2.5 9t5 8.5t8 9t12 8.5t16.5 9q42 28 128 58t165 30h65q44 0 103 -23q127 -56 127 -199 q0 -111 -133 -241q-25 -25 -37 -35q-7 -6 -22.5 -18.5t-22.5 -18.5q92 -38 138 -117.5t46 -179.5q0 -215 -213 -379q-85 -66 -187 -108t-202 -43q-103 0 -170.5 40.5t-67.5 125.5z" />
<glyph unicode="4" horiz-adv-x="901" d="M47 545q10 22 28 60.5t23.5 51t17 38.5t18.5 45t18 48t24 68q17 48 38 98t35 92t32 117q17 81 36 144q10 38 20.5 52t43.5 21q16 3 51 -9t41 -25q8 -3 13.5 -15t5.5 -22q0 -55 -29 -154q-10 -32 -26.5 -90t-29.5 -96.5t-34 -87.5q-20 -49 -53.5 -129t-55.5 -134 q-13 -32 18 -39t64 1h2q3 0 193 18q81 295 100 354q20 57 45 81.5t62 27.5q19 2 28.5 -2.5t26.5 -22.5q14 -15 16 -25.5t-2 -33.5q-3 -9 -6.5 -26t-7.5 -31q-23 -78 -47 -182t-33 -134l61 2q19 2 40.5 1.5t39 -3.5t28 -14.5t7.5 -30.5q-15 -73 -29 -90q-4 -3 -10 -8.5 t-8 -7.5t-6.5 -5t-8 -4t-8.5 -2.5t-12 -1.5q-93 -6 -143 -6q-30 -109 -92 -368q-5 -24 -30.5 -41t-62.5 -11q-1 0 -12.5 3.5t-24.5 9.5t-26.5 16t-20 28t-2.5 40q7 40 12.5 63.5t8.5 34t14 42t19 56.5q5 18 18.5 58.5t18.5 60.5q-43 -6 -129 -12q-197 -9 -276.5 19.5 t-41.5 111.5z" />
<glyph unicode="5" d="M43 178q-4 72 14.5 109t81.5 41q21 2 37 -7t24.5 -19.5t15 -30.5t8 -27.5t3.5 -22.5q14 -41 54 -41q89 0 177 63t141 159t48 186q-1 24 -8 43.5t-15 34t-25.5 26.5t-29 19.5t-36 13t-36.5 8.5t-41.5 5t-38.5 2t-39.5 0.5t-35.5 0.5q-114 3 -117 109q-2 25 25 102 q31 86 47 162q3 17 9 50t9 50q8 48 30 87t61 40q26 0 76.5 -9t68.5 -11q82 -6 168 -6q56 0 158 20q9 1 35 9t40 8q34 0 37 -31q0 -37 -6 -72q-2 -12 -6.5 -20.5t-15 -15.5t-14 -9t-21 -8.5t-19.5 -7.5q-45 -18 -130 -31.5t-144 -15.5q-21 0 -119 10q-11 -34 -33.5 -112.5 t-38.5 -129.5q104 0 181 -26q101 -35 156 -120.5t61 -197.5q11 -223 -189 -397q-179 -157 -366 -160q-101 -2 -169.5 40t-72.5 130z" />
<glyph unicode="6" d="M66 301q0 125 42.5 257t115.5 250.5t159 221.5t184 191q161 145 221 145q33 0 71 -36t38 -68q-15 -25 -86 -76q-61 -44 -117 -96q-182 -164 -311 -402q9 3 26.5 6t22.5 4q6 1 18.5 5.5t16.5 5.5q73 18 147 18q115 0 186.5 -72.5t71.5 -187.5q0 -126 -67 -239.5 t-179.5 -182t-238.5 -68.5q-140 0 -230.5 92t-90.5 232zM272 311q0 -36 5 -62.5t17 -51t36.5 -37.5t60.5 -13q48 0 64 7l31.5 13.5t39 17.5t36.5 21.5t38 31.5q47 47 64 88q28 71 18 141q-11 74 -94 74q-30 0 -89 -9.5t-89 -9.5q-68 0 -68 58q-28 -32 -49 -122t-21 -147z " />
<glyph unicode="7" d="M96 1231q10 71 21 82q14 20 49 20q15 0 49.5 -6.5t38.5 -7.5q15 -2 58.5 -8.5t73.5 -9.5t58 -3q98 0 209 9q25 2 102.5 13t110.5 11q25 0 50 -40t22 -64q-4 -35 -14 -66t-27 -66.5t-20 -43.5q-22 -52 -103 -157.5t-165 -211t-107 -147.5q-59 -113 -85.5 -244.5 t-21.5 -229.5q-1 -23 -21 -40t-48 -22t-56 -1t-49 25.5t-24 56.5q-13 138 68 352t173 322q163 195 220 292q36 60 44 97q-92 -12 -196 -17q-43 -2 -163 11t-173 32q-5 2 -18 6.5t-19 7t-15 7.5t-13 10t-7 13t-2 18z" />
<glyph unicode="8" d="M70 315q0 135 120 273q20 22 44 43.5t62 52.5t48 39q19 13 39 37q-133 156 -133 293v45q3 66 33.5 117.5t80 82t108 45.5t122.5 15q35 0 83 -7t102 -22t91 -44.5t37 -67.5q0 -6 -18 -33q1 -11 4.5 -40t3.5 -44q0 -43 -18.5 -87t-54.5 -86.5t-64 -70.5t-70 -65 q-49 -44 -59 -60q11 -14 44.5 -52t56 -67.5t36.5 -56.5q61 -119 61 -229q0 -76 -39.5 -141t-102 -106t-136 -64t-145.5 -23q-144 0 -240 89.5t-96 233.5zM258 279q3 -42 36.5 -69t76.5 -38q76 -20 152 2.5t102 95.5q14 43 14 92q0 105 -150 271q-11 -7 -22 -16.5t-28.5 -28 t-18.5 -19.5q-37 -34 -60 -58.5t-51.5 -63t-41.5 -81t-9 -87.5zM428 1053q5 -37 40 -99.5t64 -85.5q7 7 24 19.5t24 19.5q49 41 98 107q15 21 41 66.5t26 56.5q0 21 -18 30q-55 31 -90 31h-43q-40 0 -69.5 -6t-54.5 -21t-35.5 -44.5t-6.5 -73.5z" />
<glyph unicode="9" d="M98 74q15 25 86 76q62 44 117 96q104 94 195 208.5t139 223.5q-7 -3 -24 -21t-33 -26q-22 -13 -68 -21q-25 -3 -44 -3.5t-45 0.5t-40 1q-115 0 -186.5 72.5t-71.5 187.5q0 126 67 239.5t179.5 182t238.5 68.5q140 0 231 -92t91 -232q0 -125 -43 -257t-116 -250.5 t-159 -221t-184 -190.5q-162 -146 -221 -146q-33 0 -71 36.5t-38 68.5zM308 922q-4 -31 5 -54q9 -37 46.5 -65.5t74.5 -30.5q64 -4 114 8.5t142 55.5q33 109 33 188q0 36 -5 62.5t-17 51t-36.5 37.5t-60.5 13q-49 0 -63 -6l-31.5 -13.5t-39.5 -17.5t-37 -21.5t-38 -31.5 q-46 -46 -63 -88q-12 -30 -16 -43.5t-8 -44.5z" />
<glyph unicode=":" horiz-adv-x="309" d="M61 88q0 36 15 59q3 9 8 28t7.5 25t9 17.5t15 14.5t23 6.5t35.5 3.5q22 0 32 -5t25 -22q31 -31 31 -57q0 -11 -0.5 -16.5t-1 -7t-2.5 -8.5t-4 -17q0 -20 -12 -62q-4 -22 -23 -34.5t-43 -12.5q-39 0 -77 25.5t-38 62.5zM184 621q0 37 15 59q3 9 8.5 28t7.5 25t8.5 17 t15 14t23 6.5t35.5 3.5q22 0 32 -4.5t25 -21.5q31 -31 31 -58q0 -11 -0.5 -16.5t-1 -7t-2.5 -8.5t-4 -17q0 -19 -12 -61q-4 -22 -23 -35t-43 -13q-39 0 -77 26t-38 63z" />
<glyph unicode=";" horiz-adv-x="299" d="M-12.5 -169.5q0.5 3.5 0.5 7.5q2 9 4 20t4 20t6 20l68 225q23 79 43 95q7 6 14 7q73 7 123 2q15 -2 19 -20.5t-0.5 -40t-12.5 -37.5l-86 -188q-51 -119 -84 -125q-8 -2 -15.5 -4t-10.5 -2.5t-8.5 -0.5t-16.5 1q-2 0 -6 0.5t-7 1t-8 1t-7.5 1.5t-7 2.5t-6 3.5t-4 4.5t-2 6 zM184 621q0 37 15 59q3 9 8.5 28t7.5 25t8.5 17t15 14t23 6.5t35.5 3.5q22 0 32 -4.5t25 -21.5q31 -31 31 -58q0 -11 -0.5 -16.5t-1 -7t-2.5 -8.5t-4 -17q0 -19 -12 -61q-4 -22 -23 -35t-43 -13q-39 0 -77 26t-38 63z" />
<glyph unicode="&#x3c;" horiz-adv-x="1032" d="M57 690q22 23 61 57.5t60 47.5q180 113 345 188t354 113q24 7 42.5 -1t25.5 -19.5t11 -24.5q19 -38 14 -58q-9 -34 -71 -51q-115 -31 -210.5 -69t-239.5 -105q-1 -1 -16.5 -8t-30 -14.5t-36 -18.5t-39 -21.5t-34.5 -22t-27 -22t-12 -18.5q-3 -15 13 -34t50 -40 t47.5 -28.5t38.5 -20.5q16 -7 88 -46t87 -46l221 -104q37 -18 39 -56q3 -5 0.5 -16.5t-9.5 -30t-8 -22.5q-7 -19 -16.5 -31.5t-21.5 -16.5t-22 -5t-25 4.5t-23.5 9.5t-23 12t-19.5 10q-216 105 -281 144l-29 16q-28 17 -56.5 34.5t-65.5 41.5t-72 50t-60 48 q-115 103 -49 174z" />
<glyph unicode="=" horiz-adv-x="1032" d="M115 403v7.5v7.5v6q0 28 12 68q9 36 109 36h587q95 0 95 -34t-13 -101q-6 -27 -95 -26h-3h-3h-3h-604q-35 0 -60 2q-4 0 -7.5 1.5t-5.5 4l-4 5t-2.5 7t-1.5 8t-1 8.5zM176 752q0 26 12 67q9 37 109 37h588q94 0 94 -35q0 -39 -12 -100q-6 -27 -99 -27h-6h-604 q-34 0 -59 2q-23 0 -23 56z" />
<glyph unicode="&#x3e;" horiz-adv-x="1032" d="M60 246.5q0 12.5 7 21t23 18.5t41 17q97 26 176 55t123.5 49.5t151.5 71.5q2 1 19.5 9t34.5 16.5t40.5 21t41 23.5t31 23.5t15.5 21.5q-1 28 -31.5 58.5t-57.5 47t-48 25.5q-17 7 -88 47t-86 47l-222 105q-33 17 -38 55q-4 8 16 68q8 22 20.5 34.5t23.5 16t29 -0.5 t27.5 -8t28 -14t22.5 -12q225 -109 281 -143q22 -12 65 -36.5t111 -71t107 -83.5q43 -39 48 -81t-18 -95q-9 -26 -48 -64t-66 -55q-190 -114 -342.5 -179.5t-343.5 -104.5q-53 -16 -80 45q-1 2 -6 14t-6.5 18.5t-1.5 19z" />
<glyph unicode="?" horiz-adv-x="735" d="M117 70q0 -28 30 -58q15 -17 25.5 -21.5t32.5 -4.5q21 0 35.5 3.5t23 6.5t15 14t8.5 17t7.5 25t8.5 28q14 21 14 59q0 37 -37.5 62.5t-76.5 25.5q-24 0 -43 -12.5t-23 -34.5q-12 -42 -12 -61q-2 -10 -4 -17t-2.5 -8.5t-1 -7t-0.5 -16.5zM133 1155q0 29 2.5 40t16.5 36 q16 31 90 69q121 62 250 62q124 0 206 -93t82 -220q0 -58 -24 -112t-61 -93.5t-81.5 -79t-84.5 -70.5t-72 -67.5t-41 -69.5q0 -1 -4.5 -12t-9.5 -24.5t-10 -27.5t-7.5 -23.5t-1.5 -10.5q-6 -79 -59 -88q-21 -3 -50 5t-43 25q-5 6 -10 10.5t-7 5.5t-3 5t-0.5 8t2.5 14 q4 12 9.5 37t6.5 31q15 65 44.5 123t64.5 99t73.5 78.5t73 68t61.5 60t41 62.5t9 68q-6 42 -21 66q-18 30 -39 40.5t-59 12.5q-53 1 -102.5 -15t-79.5 -36t-57 -37t-39 -17q-15 0 -21.5 1t-13 6t-12.5 16q-19 13 -19 47z" />
<glyph unicode="@" horiz-adv-x="1523" d="M86 453q0 117 33.5 232.5t93 214.5t143.5 184t182.5 145.5t213.5 94.5t233 34q258 0 403.5 -137t145.5 -394q0 -267 -125 -456q-63 -94 -113 -131q-58 -44 -114.5 -64t-126.5 -20q-78 0 -129 33.5t-47 107.5q-41 -29 -82 -47q-88 -43 -170 -43q-91 0 -145 72.5t-54 166.5 q0 179 106.5 303.5t284.5 192.5q73 29 123 29q30 0 62.5 -11.5t50.5 -31.5q8 -8 12 -10q5 4 29.5 35.5t42.5 31.5q33 0 63.5 -27t30.5 -59q0 -7 -25 -70q-53 -110 -84 -206q-47 -158 -61 -265q-6 -48 -6 -49q0 -41 30 -41q58 0 107.5 44.5t85.5 107.5q48 85 76 191t28 202 q0 192 -110.5 306t-306.5 114q-271 0 -496 -232q-231 -234 -231 -581q0 -83 12.5 -150t42 -128.5t85 -105t134.5 -65.5q87 -24 156 -24q107 1 188 8.5t140 23.5t97 30t90.5 37t88.5 36q20 9 41 -20q27 -37 7 -72q-10 -18 -32 -29q-318 -161 -633 -143q-154 8 -266 58.5 t-177.5 136.5t-96.5 195t-31 245zM604 453q0 -42 16 -64t56 -22q59 0 139 45q51 27 77.5 56t39.5 79q22 87 76 233q3 12 6 27v2q-25 -2 -80 -14q-6 -2 -26 -7.5t-25 -7t-21 -6t-22 -7t-19.5 -8t-21.5 -9.5t-19.5 -10.5t-22 -13.5l-22.5 -15q-98 -76 -123 -199q-8 -40 -8 -59 z" />
<glyph unicode="A" horiz-adv-x="1091" d="M-25 74q0 49 80 229q89 200 154 303q5 9 16.5 26.5t16.5 26.5q130 242 295 428q45 52 68.5 78.5t80 83.5t104 86t84.5 29q28 0 57.5 -16.5t49.5 -40.5q22 -26 44 -84t22 -90q0 -1 5.5 -55t4.5 -58q4 -63 4 -182q0 -359 -74 -787q-3 -14 -14 -28.5t-34 -28.5 q-22 -14 -55 -14h-2q-34 0 -81 18q-11 6 -22 17.5t-11 23.5q0 17 5.5 44t6.5 36q14 40 29 188q17 120 27 213l-459 -14q-8 -15 -25 -46.5t-26 -49.5q-53 -99 -129 -318q-8 -23 -13 -38.5t-10 -28.5q-11 -30 -44 -35q-9 -1 -18 -1q-24 -1 -49 9q-34 14 -61 36t-27 40z M473 670l381 14l2 18q2 27 2 78q0 30 4 92t4 93q0 88 -10 149q-4 8 -14 8q-16 0 -53.5 -36.5t-83.5 -93t-73 -92t-50 -66.5q-56 -77 -109 -164z" />
<glyph unicode="B" horiz-adv-x="1169" d="M55 59q2 6 32 99.5t32 99.5q36 96 121 365q32 101 63 237q56 254 57 256q-39 -9 -59 -12q-7 -1 -22.5 -5.5t-24.5 -6t-20.5 -2.5t-20 2.5t-14.5 11.5q-15 0 -25 33t-10 57q0 22 16.5 40t40.5 28.5t49.5 18.5t45.5 13q7 1 10 2q225 54 389 54q114 0 201.5 -23.5 t140.5 -93.5q57 -75 57 -174q0 -89 -88 -180t-197 -121h14q97 0 180 -77q89 -83 89 -177q0 -95 -68.5 -187.5t-160.5 -154.5q-53 -36 -92.5 -58t-103.5 -49.5t-140.5 -41t-165.5 -13.5q-35 0 -61.5 16.5t-36.5 29.5t-11 11q-18 -33 -87 -54q-38 -12 -66 -12q-31 0 -50 15 q-16 12 -16 35q0 8 2 18zM301 186q19 -8 68 -12q23 -3 46 -3q89 1 187 37q124 46 211 121t98 146q2 10 2 29q0 160 -270 160q-47 0 -111 -8.5t-98 -22.5q-1 -5 -8 -30t-8 -30q-4 -20 -25 -88q-8 -25 -30.5 -100.5t-36.5 -116.5q-14 -36 -25 -82zM467 791q111 6 221.5 48.5 t181 104t70.5 119.5q0 34 -22.5 56t-64 30t-68 10t-66.5 2q-22 0 -55.5 -3t-73.5 -7.5t-51 -5.5q-3 -32 -12.5 -83.5t-18.5 -92t-23 -100t-18 -78.5z" />
<glyph unicode="C" horiz-adv-x="989" d="M39 352q0 5 1 15.5t1 15.5q15 181 77.5 330.5t180.5 302.5q262 340 545 340q92 0 151.5 -42t59.5 -130q0 -71 -21 -108.5t-84 -41.5h-5q-69 0 -77 107q-12 43 -51 43q-47 0 -104.5 -32.5t-110 -84t-92.5 -97.5t-72 -91q-205 -292 -205 -513v-20q3 -74 39 -117 q21 -27 60.5 -44t77.5 -17q42 0 84 8.5t72.5 18.5t73 32t64.5 35t69.5 43.5t66.5 42.5q13 10 31 -3.5t18 -31.5q2 -6 3.5 -14.5t3.5 -30.5t-5 -28q-36 -60 -127 -121q-97 -65 -190.5 -96t-204.5 -31q-3 0 -10.5 1t-10.5 1q-146 13 -227.5 111t-81.5 247z" />
<glyph unicode="D" horiz-adv-x="1146" d="M83 50q0 3 1 6v5q0 45 51 195q57 171 146 467q23 80 55 204t51 191q-20 -5 -60 -16t-68 -18t-44 -7q-25 0 -35 14.5t-14 41.5q-6 42 -6 43q0 12 4 32q4 26 14.5 35t38.5 19q2 1 34 14.5t64 23.5t86 23t131.5 21t169.5 10h17q218 0 347 -122q134 -127 134 -358 q0 -136 -50 -261.5t-137.5 -225t-193.5 -177t-231 -134.5q-153 -70 -244 -70q-11 0 -61 12q-17 -34 -21 -38q-24 -17 -67 -17q-20 4 -37 9.5t-28.5 12t-20 13t-13 13.5t-8.5 13t-4 13zM315 197q83 9 183 45q85 33 173 94.5t162.5 139.5t124.5 173.5t56 186.5q1 14 1 27 q0 35 -6 69q-8 46 -42 127q-29 52 -110 80t-150 28q-49 0 -113 -6q-5 -31 -27 -106q-12 -36 -37.5 -152t-64.5 -246q-29 -97 -78.5 -242.5t-71.5 -217.5z" />
<glyph unicode="E" horiz-adv-x="993" d="M47 158q0 37 7 85.5t13.5 83t24.5 100.5t23.5 86t29 95t23.5 76q117 385 139 463q-7 0 -20 1t-23 1q-4 0 -7.5 1.5t-5.5 4l-4 5t-2.5 7t-1.5 8t-1 8.5v7.5v7.5v6q0 28 12 68q9 39 108 39l629 10q94 0 94 -33q0 -38 -12 -100q-6 -29 -104 -29l-463 -8q-17 -64 -21 -76 q-14 -48 -39 -145.5t-40 -145.5l262 9h5q18 0 28.5 -0.5t27 -3t25 -9.5t8.5 -18q0 -38 -12 -103q-2 -8 -9 -13.5t-21.5 -8.5t-23.5 -4t-28.5 -1.5t-22.5 -0.5l-291 -10q-96 -292 -96 -404q0 -25 13.5 -36t33.5 -10t41 1q164 4 248 4q109 0 188 -8q6 0 23 -1t24.5 -2t21.5 -3 t21.5 -5.5t15.5 -9t11.5 -14.5t3.5 -20q0 -20 -5 -49.5t-13 -38.5q-3 -3 -7.5 -7t-6.5 -6t-5 -4.5t-5.5 -3.5t-6.5 -2t-8 -1.5t-10 -0.5q-30 0 -104 5t-105 5q-168 0 -246 -6q-44 -3 -82 -3q-117 0 -175 28q-76 37 -77 129z" />
<glyph unicode="F" horiz-adv-x="903" d="M1 71q0 3 1 6v5q0 22 51 194q57 196 101 347h-9q-4 0 -7.5 1.5t-5.5 4l-4 5t-2.5 7t-1.5 8t-1 8.5v7.5v7.5v6q0 26 12 67q9 29 66 37q59 189 106 365q-7 0 -20 1t-23 1q-4 0 -7.5 1.5t-5.5 4l-4 5t-2.5 7t-1.5 8t-1 8.5v7.5v7.5v6q0 28 12 68q9 39 108 39l568 10 q94 0 94 -33q0 -38 -12 -100q-6 -29 -105 -29l-401 -8q-6 -29 -21 -76q-15 -49 -41.5 -148t-37.5 -139l262 5h5q18 0 28.5 -0.5t27 -3t25 -9.5t8.5 -18q0 -38 -12 -103q-6 -28 -105 -28l-285 -6q-132 -483 -139 -512q-13 -57 -20 -78q-4 -18 -21 -35q-22 -16 -67 -16 q-20 4 -37 9.5t-28.5 12t-20 13t-13 13.5t-8.5 13t-4 13z" />
<glyph unicode="G" horiz-adv-x="1110" d="M39 352q0 5 1 15.5t1 15.5q15 181 77.5 330.5t180.5 302.5q262 340 545 340q61 0 115.5 -16t95.5 -56.5t41 -99.5q0 -71 -21 -108.5t-84 -41.5h-5q-69 0 -77 107q-5 19 -36.5 31t-55.5 12q-47 0 -104.5 -32.5t-110 -84t-92.5 -97.5t-72 -91q-205 -292 -205 -513v-20 q3 -74 39 -117q21 -27 60.5 -44t77.5 -17q90 0 178.5 35t161 108t96.5 170l16 66l-119 -8h-59q-4 0 -7.5 1.5t-5.5 4.5t-4 5.5t-2.5 7t-1.5 7.5t-1 8v7.5v7.5v6q0 28 12 68q8 34 108 40l275 13h16q25 0 48 -5q30 -6 30 -28q0 -38 -12 -100q-3 -13 -29 -20.5t-51 -9.5l-25 -1 l-20 -74v-2q-17 -66 -44 -122.5t-51 -90.5t-57 -66t-49 -43.5t-40 -27.5l-9 -6q-97 -65 -190.5 -96t-204.5 -31q-3 0 -10.5 1t-10.5 1q-146 13 -227.5 111t-81.5 247z" />
<glyph unicode="H" horiz-adv-x="1214" d="M42 77l1 5q0 22 51 194q15 49 55 188.5t64 219.5q130 444 137 471q15 58 39 137q10 35 21 47.5t39 12.5h4q23 0 56.5 -22t35.5 -30q8 -5 14.5 -20.5t3.5 -28.5q-2 -10 -6 -39.5t-11 -62t-20 -74.5q-16 -53 -44.5 -158.5t-39.5 -144.5h11l485 12h2q104 359 107 371 q24 90 38 137q10 35 21 47.5t39 12.5h4q23 0 56.5 -22t35.5 -30q8 -4 15 -20q5 -11 5 -21q0 -4 -1 -8q-2 -10 -6 -39.5t-11 -62t-20 -74.5q-17 -55 -46 -165t-42 -154q-26 -96 -86.5 -313t-90.5 -330q-13 -57 -20 -78q-4 -19 -20 -35q-22 -16 -68 -16q-20 4 -37 9.5 t-28.5 12t-20 13t-13 13.5t-8 13t-4 13t-1 10.5t-0.5 8.5l1 5q0 19 52 194q19 65 100 345l-477 -13h-17q-22 -82 -67.5 -246.5t-67.5 -248.5q-13 -57 -20 -78q-4 -18 -21 -35q-22 -16 -67 -16q-20 4 -37 9.5t-28.5 12t-20 13t-13 13.5t-8 13t-4 13t-1 10.5t-0.5 8.5z" />
<glyph unicode="I" horiz-adv-x="522" d="M42 77l1 5q0 22 51 194q15 49 55 188.5t64 219.5q130 444 137 471q15 58 39 137q10 35 21 47.5t39 12.5h4q23 0 56.5 -22t35.5 -30q9 -4 15 -20q4 -11 4 -21q0 -4 -1 -8q-2 -10 -6 -39.5t-11 -62t-20 -74.5q-17 -55 -46 -165t-42 -154q-20 -74 -82 -299.5t-94 -343.5 q-13 -57 -20 -78q-4 -18 -21 -35q-22 -16 -67 -16q-20 4 -37 9.5t-28.5 12t-20 13t-13 13.5t-8 13t-4 13t-1 10.5t-0.5 8.5z" />
<glyph unicode="J" horiz-adv-x="944" d="M70 160q0 35 3 57.5t13.5 44.5t32 33.5t55.5 13.5h5q69 0 77 -106q12 -43 51 -43h7q60 0 102 16q43 18 98 64q37 31 67.5 92t47.5 123q8 32 86 319t102 381q33 122 37 137q10 35 20.5 47.5t38.5 12.5h5q23 0 56.5 -22t35.5 -30q8 -5 14 -20q5 -11 5 -21q0 -4 -1 -8 q-1 -8 -4 -31t-5 -38t-9 -44.5t-17 -62.5q-16 -53 -72 -289t-69 -286q-23 -87 -69.5 -187.5t-100.5 -162.5q-69 -82 -143 -114t-183 -44q-50 -4 -73 -4q-91 0 -151.5 42t-61.5 130z" />
<glyph unicode="K" horiz-adv-x="1144" d="M42 77l1 5q0 22 51 194q15 49 55 188.5t64 219.5q130 444 137 471q15 58 39 137q10 35 21 47.5t39 12.5h4q23 0 56.5 -22t35.5 -30q8 -5 14.5 -20.5t3.5 -28.5q-2 -10 -6 -39.5t-11 -62t-20 -74.5q-15 -50 -67 -244q114 64 203 125q21 14 46 30t35 23t26 19t32.5 25.5 t42.5 36.5q46 41 115 110.5t85 83.5q46 54 76 62q32 0 54 -37q24 -44 24 -72q0 -44 -90 -141q-15 -17 -52 -54t-52 -49q-70 -63 -140.5 -114.5t-105 -73t-105.5 -62.5q145 -236 146 -237q59 -100 131 -215q37 -58 57 -86q19 -32 53 -101q8 -18 8 -35q0 -27 -22 -49 q-14 -14 -61 -14q-5 0 -28 -2.5t-24 -3.5q-11 3 -20 7t-14.5 7.5t-10 10t-6.5 9.5t-5.5 11t-4.5 10q-14 26 -31.5 58t-25 47t-18.5 35t-15.5 27.5t-11.5 20.5t-10 18t-8.5 14.5t-9.5 16t-11 17.5q-36 54 -217 342l-101 -55q-78 -279 -131 -483q-13 -57 -20 -78 q-4 -18 -21 -35q-22 -16 -67 -16q-20 4 -37 9.5t-28.5 12t-20 13t-13 13.5t-8 13t-4 13t-1 10.5t-0.5 8.5z" />
<glyph unicode="L" horiz-adv-x="980" d="M68 158q0 32 3.5 67.5t13 80.5t16 75t22 85t21 74t24 79t20.5 65q12 39 64.5 209t77.5 262q22 82 39 137q6 20 8.5 27.5t9.5 17t17.5 12.5t27.5 3q18 0 51.5 -18.5t40.5 -33.5q19 -13 19 -40q0 -29 -13 -88.5t-24 -96.5q-16 -52 -43.5 -159t-44.5 -160q-3 -10 -23.5 -74 t-31.5 -97.5t-29.5 -97.5t-28.5 -105.5t-18 -88t-8 -76.5q0 -25 13.5 -36t33.5 -10t41 1q164 4 247 4q110 0 189 -8q6 0 23 -1t24.5 -2t21.5 -3t21.5 -5.5t15.5 -9t11.5 -14.5t3.5 -20q0 -19 -5.5 -49t-13.5 -39q-3 -3 -7.5 -7t-6.5 -6t-5 -4.5t-5.5 -3.5t-6.5 -2t-8 -1.5 t-10 -0.5q-30 0 -104 5t-105 5q-168 0 -246 -6q-44 -3 -82 -3q-117 0 -175 28q-76 37 -76 129z" />
<glyph unicode="M" horiz-adv-x="1511" d="M-23 82q4 53 43 159t74 183q34 78 156 328q9 19 57 120t76 154q50 93 184 297q19 31 43 31q50 0 78 -31q31 -36 43 -154q5 -45 16 -136.5t17 -147.5t11.5 -134.5t6.5 -144.5q7 14 19.5 42t19.5 42q99 196 312 449q2 2 26.5 33t44.5 55t47 54.5t48.5 47.5t33.5 17 q58 0 94.5 -38t36.5 -96q0 -11 -10 -61q-20 -104 -33 -219q-27 -204 -35 -365q-10 -170 -10 -205q0 -22 -2 -60q-1 -29 -1 -53q0 -7 1 -15q0 -30 4 -62q6 -55 15 -106q0 -7 3 -23t3 -23q3 -15 -13.5 -22t-40 -6.5t-43 2.5t-26.5 4q-21 7 -30.5 11.5t-18.5 15t-15 28.5 q-18 55 -18 148q0 13 2 50t2 50q0 154 23 424q21 245 28 301q-30 -38 -90 -125q-150 -216 -264 -422q-18 -31 -76 -145q-23 -52 -33 -72q-7 -15 -17.5 -21.5t-18 -7t-27.5 -0.5q-15 0 -41 17q-12 9 -18 15.5t-7.5 9.5t-3 15t-2.5 19l-2 15q-1 0 -4 16q-3 21 -6 66t-4 59 q-12 120 -27 240q-15 126 -16 139q-6 115 -17 155q-95 -153 -258 -528q-75 -175 -153 -436q-9 -30 -18.5 -38.5t-39.5 -16.5h-5q-9 0 -29 2q-28 2 -31 2q-35 0 -51 27q-14 23 -13 58v13z" />
<glyph unicode="N" horiz-adv-x="1175" d="M-1 57.5q0 7.5 1 16.5l2 8q0 22 51 194q15 49 55 188.5t64 219.5q130 444 137 471q15 58 39 137q10 35 21 47.5t39 12.5h4l80 -2q28 0 38.5 -12.5t20.5 -47.5q24 -79 39 -137q48 -177 125 -442q21 -69 51 -209t39 -211q11 38 47 186t45 180q55 207 83.5 322.5t45.5 175.5 q15 58 39 137q10 35 20.5 47.5t38.5 12.5h4q23 0 57 -22t36 -30q9 -4 15 -20q4 -11 4 -21q0 -4 -1 -8q-2 -10 -6 -39.5t-11 -62t-20 -74.5q-17 -55 -46 -165t-42 -154q-20 -74 -82 -299.5t-94 -343.5q-13 -57 -20 -78q-4 -18 -21 -35q-17 -12 -68 -16q-23 1 -37 -1 q-4 -1 -8 -1q-10 0 -18 3q-12 4 -18 5t-13 6.5t-9 8t-7 10t-8 10.5q-17 17 -21 34q-7 21 -20 78q-149 554 -150 559q-9 35 -32 173t-31 167q-4 -18 -20 -83.5t-30.5 -125t-21.5 -86.5q-23 -87 -88.5 -317.5t-87.5 -310.5q-11 -48 -21 -78q-4 -19 -20 -35q-22 -16 -68 -16 q-30 6 -51 15.5t-31 18.5t-14.5 20.5t-4.5 19z" />
<glyph unicode="O" horiz-adv-x="1046" d="M80 467q0 332 176 592q60 89 115 144.5t139 109.5q35 22 83 41.5t81 19.5q126 0 203 -69q20 -17 20 -76q10 11 36 9.5t44 -15.5q100 -84 100 -375q0 -281 -162 -547q-41 -66 -89.5 -123t-109 -106.5t-133.5 -78t-149 -28.5q-67 0 -127.5 30.5t-103.5 80.5t-72 111.5 t-39 125.5q-12 82 -12 154zM281 436q0 -57 18 -149q16 -47 46.5 -76.5t64.5 -38.5t62.5 -9t49.5 7q79 26 149 109.5t115 187.5t71 211t26 188q0 42 -10 89.5t-29.5 94.5t-56 78t-82.5 31q-12 0 -53 -5t-44 -9q-10 -4 -21 -9.5t-19 -10.5t-18.5 -14t-16.5 -14t-17.5 -16.5 t-15.5 -16l-16 -18t-15 -16.5q-97 -108 -142.5 -263.5t-45.5 -330.5z" />
<glyph unicode="P" horiz-adv-x="1134" d="M103 71q0 3 1 6v5q0 19 52 194q16 53 55 191.5t63 216.5q13 45 56 187.5t65 220.5q-11 -4 -45 -18t-47 -17q-5 -1 -17 -5.5t-17.5 -5.5t-15.5 0t-17 8t-16.5 22t-18.5 38q-8 19 -8 45q0 9 4 25q8 25 43 41q27 14 59.5 25.5t74 24t62.5 19.5q29 9 111 29q130 30 227 30 q21 0 41 -1q77 -5 144.5 -23t128.5 -53t97 -95t36 -139q0 -161 -183 -321q-35 -31 -86.5 -62.5t-128 -67.5t-180.5 -59t-213 -24q-17 -63 -52 -194.5t-54 -200.5q-11 -48 -21 -78q-4 -19 -20 -35q-22 -16 -68 -16q-20 4 -37 9.5t-28.5 12t-20 13t-13 13.5t-8.5 13t-4 13z M475 668q138 7 268 65.5t208.5 143.5t78.5 167q0 34 -28.5 61.5t-70.5 42.5t-82 22.5t-71 7.5q-26 0 -56 -4.5t-70.5 -14t-43.5 -10.5q-3 -11 -10 -37t-10 -37q-17 -55 -46 -165t-42 -154z" />
<glyph unicode="Q" horiz-adv-x="1046" d="M80 467q0 332 176 592q60 89 115 144.5t139 109.5q35 22 83 41.5t81 19.5q126 0 203 -69q20 -17 20 -76q10 11 36 9.5t44 -15.5q100 -84 100 -375q0 -281 -162 -547q-113 -183 -260 -272q5 -2 27 -13l293 -157q94 -48 96 -86q1 -21 1 -42q0 -50 -7 -93q-1 -6 -5 -8 q-3 -1 -7 -1h-4q-7 1 -14.5 3.5t-18 7.5t-18.5 9t-19 10t-16 9l-310 166q-12 7 -29.5 17.5t-29.5 17.5q-6 3 -10.5 9t-7 11t-4.5 13t-2.5 13t-1.5 12.5t-1 9.5q0 33 2 51q-71 -23 -135 -23q-67 0 -127.5 30.5t-103.5 80.5t-72 111.5t-39 125.5q-12 82 -12 154zM281 436 q0 -57 18 -149q16 -47 46.5 -76.5t64.5 -38.5t62.5 -9t49.5 7q79 26 149 109.5t115 187.5t71 211t26 188q0 42 -10 89.5t-29.5 94.5t-56 78t-82.5 31q-8 0 -36.5 -8t-31.5 -12q-44 -15 -91 -45.5t-77 -63.5q-97 -108 -142.5 -263.5t-45.5 -330.5z" />
<glyph unicode="R" horiz-adv-x="1173" d="M103 71q0 3 1 6v5q0 19 52 194q16 53 55 191.5t63 216.5q13 45 56 187.5t65 220.5q-11 -4 -45 -18t-47 -17q-5 -1 -17 -5.5t-17.5 -5.5t-15.5 0t-17 8t-16.5 22t-18.5 38q-8 19 -8 45q0 9 4 25q8 25 43 41q27 14 59.5 25.5t74 24t62.5 19.5q37 12 125 33q107 25 254 25 q59 0 115.5 -11t109.5 -35t93 -59t64 -88t24 -117q0 -161 -183 -321q-80 -71 -200 -125q47 -82 51 -90q27 -52 119 -215q15 -26 31 -52.5t20 -33.5q21 -36 47 -101q7 -17 7 -32q0 -29 -26 -52q-14 -14 -61 -14q-5 0 -27.5 -2.5t-23.5 -3.5q-13 3 -23 7.5t-16 11.5t-8.5 10.5 t-7 13.5t-5.5 12q-94 197 -127 254q-62 105 -172 297q-7 13 -8 15q-2 2 -6 10q-4 9 -4 18q0 34 61 53q156 47 263.5 146t107.5 196q0 34 -27.5 59.5t-70.5 37.5t-81 17t-71 5q-65 0 -172 -14q-3 -11 -10 -37t-10 -37q-17 -55 -46 -165t-42 -154q-20 -74 -82 -299.5 t-94 -343.5q-11 -48 -21 -78q-4 -19 -20 -35q-22 -16 -68 -16q-20 4 -37 9.5t-28.5 12t-20 13t-13 13.5t-8.5 13t-4 13z" />
<glyph unicode="S" d="M4 174q0 28 35.5 71.5t62.5 43.5q9 0 22.5 -12.5t31 -30.5t40 -36.5t58 -31t76.5 -12.5q54 0 116 16q78 19 139.5 91.5t61.5 152.5q0 60 -32 98t-93 78q-241 156 -282 254q-15 39 -15 92q0 83 35.5 152.5t92.5 115t132 77t150.5 45.5t150.5 14q59 0 109.5 -16.5t87.5 -58 t37 -101.5q0 -34 -4 -58t-14.5 -46.5t-33 -34t-57.5 -11.5q-34 0 -50 21.5t-18 48t-16.5 51t-44.5 29.5q-34 6 -67 6q-23 0 -82 -13q-46 -11 -77.5 -23t-65 -33t-51 -55t-17.5 -79q0 -38 26 -78t60 -61q25 -16 68.5 -47t60.5 -43q52 -35 84.5 -62t62 -64t43 -82.5 t13.5 -103.5q0 -104 -46 -190t-121.5 -140t-169.5 -83t-194 -29q-93 0 -153 22q-61 23 -106.5 63t-45.5 93z" />
<glyph unicode="T" horiz-adv-x="985" d="M168 1201.5v8v7.5v6q0 27 12 67q9 35 109 41l772 25q94 0 94 -33q0 -39 -12 -100q-1 -6 -5.5 -10.5t-12 -7.5t-15 -5t-18.5 -3t-18.5 -1.5t-19 -1t-16.5 -0.5l-260 -10q-6 -43 -26 -109q-17 -55 -46 -165t-42 -154q-26 -96 -86.5 -313t-90.5 -330q-13 -57 -20 -78 q-4 -18 -21 -35q-22 -16 -67 -16q-20 4 -37 9.5t-28.5 12t-20 13t-13 13.5t-8 13t-4 13t-1 10.5t0.5 8.5v5q0 22 51 194q15 49 55 188.5t64 219.5q130 444 137 471l7 23l-332 -11h-60q-4 0 -7.5 1.5t-5.5 4t-4 5.5t-2.5 7.5t-1.5 7.5t-1 8.5z" />
<glyph unicode="U" horiz-adv-x="1069" d="M86 365q0 189 68.5 432t164.5 446q1 2 10.5 23.5t17.5 35t15 19.5q23 18 74 18q35 0 67 -17.5t32 -49.5q0 -18 -52 -148q-194 -492 -194 -770q0 -96 33 -123q25 -41 88 -41q11 0 20 3q92 19 192.5 120.5t151.5 202.5q126 248 172 549q1 7 2 22.5t2 22.5q4 55 4 141 q0 62 74 76q20 4 45 4q1 0 7 -1t7 -1q36 -11 46 -61q4 -19 5 -40q1 -14 1 -26q-1 -6 -1 -10q0 -16 -0.5 -44t-0.5 -48v-13q-15 -167 -62 -333q-29 -103 -70.5 -202.5t-106 -202.5t-140 -180t-176.5 -126t-211 -49q-73 0 -129.5 32.5t-89.5 87t-49.5 118.5t-16.5 133z" />
<glyph unicode="V" horiz-adv-x="1017" d="M168 1178q0 95 25 131q12 20 28 25t45 5q39 0 58 -16q27 -21 38.5 -52t11.5 -55.5t-3.5 -72t-3.5 -72.5q0 -311 14 -498q20 -261 30 -305q10 -49 31 -49q18 1 70 75q52 76 112 185t113 219q72 150 91.5 206.5t76.5 269.5q5 21 29 100q5 17 8 24t10.5 15.5t20.5 13.5 q12 4 18 4q107 0 107 -90q0 -128 -97 -371q-210 -523 -456 -802q-53 -60 -105 -78q-32 -11 -58 -10q-17 0 -32 4q-56 15 -68 24q-16 12 -32 45q-9 20 -21.5 92t-19.5 158q-12 139 -23 379q-2 49 -7 154t-8 188.5t-3 153.5z" />
<glyph unicode="W" horiz-adv-x="1558" d="M195 635q-2 48 -2 99q0 111 8 233q17 263 18 274q6 39 23 62q20 36 67 36q23 0 68 -22q11 -5 18.5 -11t11.5 -13t6.5 -12t2.5 -12.5v-11t-1 -11.5l-1 -7q-4 -56 -8 -86q-19 -215 -20 -379q0 -16 1 -31q7 -386 35 -444q0 -4 2 -4l49 104q4 12 76 156q35 63 61.5 107.5 t39 65t14.5 24.5q42 71 81.5 145.5t53.5 97.5q6 10 16 28t16.5 28t15.5 21.5t18 17t20 6.5q24 1 43.5 -13.5t27.5 -28t11 -24.5q10 -43 24 -162q7 -44 14 -125t11 -114q6 -58 10 -156q3 -58 25 -139q109 175 258 528q75 175 153 436q9 31 18 40t40 16h5q9 0 29 -2 q28 -2 31 -2q33 0 50 -28q14 -23 14 -58v-13q-4 -53 -43 -159t-74 -183q-28 -60 -81 -170t-75 -157q-11 -23 -58.5 -123t-74.5 -152q-50 -93 -184 -297q-19 -30 -43 -30q-55 0 -78 30q-31 36 -43 154q-5 45 -15 131.5t-15.5 136t-10.5 123t-6 139.5q-2 -5 -3 16q-1 29 1 42 q-18 -35 -51 -101q-2 -4 -51.5 -91.5t-93 -170t-77.5 -156.5q-39 -85 -94 -178q-19 -33 -33 -48.5t-21 -17t-24 -1.5q-51 0 -75 24q-25 36 -46 85.5t-30 81.5l-8 32q-27 127 -35.5 198.5t-11.5 225.5z" />
<glyph unicode="X" horiz-adv-x="1034" d="M-41 49q-2 1 -2 5q-1 14 25 60q32 60 49 83q272 401 360 501q17 20 37 45t33 39q-7 20 -24 61.5t-25 65.5q-6 18 -23.5 58.5t-23.5 58.5q-19 59 -58 141q-26 54 -26 82q0 38 45.5 67.5t85.5 29.5q11 0 16 -5q20 -7 53 -77t54 -128t36 -104q5 -19 22 -53t25 -53 q13 12 89.5 87t137.5 133.5t126.5 115t89.5 65.5q22 9 40 -11t25.5 -50.5t9.5 -58.5q1 -6 1 -11q0 -19 -7 -25q-59 -62 -172 -159q-38 -31 -152 -149.5t-134 -147.5q7 -17 39.5 -114t56.5 -177q6 -19 34 -114.5t46 -145.5q1 -4 6.5 -20t9.5 -30t4 -20q0 -39 -49 -66.5 t-96 -27.5q-14 0 -23 4t-13.5 13t-6.5 17.5t-4.5 22.5t-5.5 23q-15 46 -27 96q-2 6 -45 152q-3 10 -19.5 55t-19.5 55q-6 22 -19.5 63.5t-17.5 55.5q-68 -68 -170.5 -210.5t-195.5 -297.5q-33 -55 -68 -55q-37 0 -79 15t-50 40z" />
<glyph unicode="Y" horiz-adv-x="1001" d="M137 1239q0 12 10 35q27 33 53 50q26 16 45 16h2q20 -1 32 -5.5t20 -11.5q130 -347 156 -422q3 -7 18.5 -42t18.5 -42q6 -15 10 -23t12.5 -18t18.5 -10.5t26.5 7.5t36.5 28q90 95 248 327q15 23 63.5 88.5t63.5 88.5q24 34 43 34q32 0 64 -19.5t36 -57.5q0 -36 -16 -72 q-44 -86 -200 -293t-271 -346q-66 -234 -119 -438q-11 -48 -21 -78q-4 -19 -20 -35q-22 -16 -68 -16q-20 4 -37 9.5t-28 12t-19.5 13t-13.5 13.5t-8 13t-4 12.5t-1 10.5v9l1 5q0 22 51 194q14 46 80 275q-106 186 -129 268q-3 10 -16.5 36t-16.5 36q-100 289 -108 307 q-13 29 -13 41z" />
<glyph unicode="Z" horiz-adv-x="972" d="M6 115q0 59 74 151q51 67 97 123.5t108.5 130t99.5 117.5q121 148 201 248q15 20 83.5 109.5t84.5 109.5q3 4 10 11t10 11q0 1 9.5 13t15.5 20l-15 6q-65 -5 -167 -5h-52q-80 0 -168 2q-118 2 -139 1q-44 0 -53 15q-3 10 -6 26v41q0 6 -1 17t-0.5 18t3.5 14 q13 32 22.5 38.5t42.5 6.5q23 0 79 1t77 1h479q50 0 65.5 -12t39.5 -65q3 -7 12.5 -25.5t13.5 -32t4 -28.5q0 -30 -32 -76q-10 -14 -113.5 -144t-108.5 -137q-62 -79 -210.5 -255.5t-204.5 -246.5q-68 -85 -88 -120q33 6 83 6q24 0 107.5 1t110.5 1q139 0 229 -10 q72 -5 96 -13q45 -17 45 -73q0 -54 -18 -74q-2 -4 -4.5 -7.5t-5.5 -7.5t-4 -6q-15 -18 -41 -18q-38 0 -119 11t-119 11q-32 0 -87.5 7t-64.5 8q-11 2 -39.5 0.5t-43 -3t-46.5 -4.5t-49 -5q-34 -4 -67 -7q-70 -6 -127 -14q-10 -1 -31 -7.5t-33 -6.5q-45 0 -45 127z" />
<glyph unicode="[" horiz-adv-x="751" d="M62.5 -150.5q0.5 7.5 3 18t4 15.5t4.5 13l2 8q2 7 14 53t31 111q179 604 186 628q130 444 137 471q18 67 39 138q10 34 35 48t92 15h41h117q94 0 94 -35q0 -14 -1 -21t-2 -8.5t-3.5 -9t-5.5 -20.5q-6 -27 -99 -27h-6h-88q-14 0 -24.5 -8t-17.5 -26t-11.5 -34t-11.5 -45.5 t-12 -46.5q-15 -52 -44 -158.5t-44 -160.5l-230 -813q-10 -36 2.5 -47.5t42.5 -11.5h70q94 0 94 -35q0 -18 -1 -23.5t-4.5 -13t-6.5 -23.5q-6 -27 -96 -26h-9h-133h-86q-16 0 -28.5 3t-20.5 7.5t-13 12.5t-7.5 15.5t-3 18t0 18z" />
<glyph unicode="\" horiz-adv-x="491" d="M2 1300q-3 15 0.5 33t9.5 23q0 10 25 35.5t43 25.5h2q22 0 31.5 -13t19.5 -50q7 -25 20.5 -75.5t20.5 -76.5q17 -64 143 -516q86 -317 123 -446q54 -198 54 -213q14 -82 -76 -113q-35 -4 -53 14q-16 16 -21 37q-7 33 -20 88q-7 27 -187 705q-12 44 -30 116t-32.5 129 t-29.5 105q-13 44 -21 80.5t-13.5 67.5t-8.5 44z" />
<glyph unicode="]" horiz-adv-x="784" d="M-27 -190q0 14 1 21t2.5 8.5t4 9t5.5 20.5q2 10 12 16t31 8t29 2.5t32 0.5h88q14 0 24.5 8t18 26t12 33.5t11.5 45t12 46.5q15 51 43.5 158.5t44.5 161.5l229 813q10 36 -2.5 47.5t-42.5 11.5h-69q-94 0 -94 35q0 14 1 21t2 8.5t3.5 9t5.5 20.5q2 10 12 16t31 8t29 2.5 t32 0.5h133h86q102 2 61 -124q-1 -4 -1 -5q-2 -7 -14 -53t-31 -111q-135 -455 -187 -629q-130 -444 -137 -471q-15 -58 -39 -137q-10 -34 -35 -48t-92 -15h-41h-116q-95 0 -95 35z" />
<glyph unicode="^" horiz-adv-x="997" d="M125 809q57 118 172.5 254t237.5 240q64 57 86 57q36 0 63 -22.5t29 -45.5q7 -29 13 -73t9 -78.5t5.5 -67.5t2.5 -35q2 -31 2 -241q0 -4 0.5 -20.5t0.5 -24.5t-3 -22t-8 -21t-15.5 -13t-25.5 -6q-14 0 -45.5 5t-34.5 10q-20 13 -20 43l2 188q0 14 -2 60t-2 59 q0 17 -5.5 54.5t-11.5 51.5q-18 -10 -86 -92q-120 -133 -233 -330q-14 -26 -35 -33t-40.5 1t-32.5 16.5t-19 15.5q-27 34 -4 70z" />
<glyph unicode="_" horiz-adv-x="1024" d="M-47 -184q0 14 2 14q6 0 9 9q0 1 1 3q9 37 109 37h915q74 0 74 -35q0 -14 -1 -21t-2 -8.5t-3.5 -9t-5.5 -20.5q-2 -10 -9 -16t-23.5 -8.5t-23 -2.5h-28.5h-932q-35 0 -60 2q-4 0 -7.5 1.5t-5.5 4t-4 5.5t-2.5 7.5t-1.5 7.5t-1 8.5v8v7.5v6z" />
<glyph unicode="`" horiz-adv-x="684" d="M232.5 1178q-20.5 34 0.5 43q59 24 125 36q35 6 113 -83l92 -105q10 -11 23.5 -27.5t23.5 -27.5q19 -24 -32 -43q-10 -4 -16 -6t-9.5 -2t-11.5 -0.5t-17 -1.5q-41 -4 -131 69l-112 90q-28 24 -48.5 58z" />
<glyph unicode="a" horiz-adv-x="872" d="M35 283q0 28 8 90q22 149 115 262q10 12 35 37q97 97 256 162q51 20 104 28q13 2 26 2q29 0 59 -10q44 -16 60 -37q2 -3 4.5 -5.5t5 -4t3.5 -2.5q11 11 34 45q19 31 41 31q15 0 38.5 -11.5t35.5 -23.5q27 -24 27 -62q-9 -36 -27 -75q-52 -113 -88 -232q-60 -204 -76 -381 q-4 -62 -6 -69q-4 -26 -17 -35.5t-40 -9.5q-54 0 -84 24q-38 23 -38 91q0 10 1 20q-7 -1 -57.5 -29.5t-61.5 -28.5q-3 0 -14 -8q-72 -35 -135 -35q-25 0 -58 11q-29 5 -59 32q-78 68 -90 183q-2 14 -2 41zM221 289q0 -34 8 -53q8 -41 68 -41q15 0 55 8q43 14 92 41 q5 3 15.5 8t15.5 8q26 15 53.5 50t38.5 83q35 140 80 260q3 9 8 29q0 2 -2 2q-62 -5 -84 -14q-109 -20 -209 -95q-12 -10 -34 -32q-74 -74 -97 -189q-8 -50 -8 -65z" />
<glyph unicode="b" horiz-adv-x="864" d="M-8 88q14 109 55 229q69 196 103 314.5t79 300.5q6 24 32.5 129.5t41.5 161.5q7 21 21 71q5 23 17.5 35.5t41.5 13.5q27 0 70 -32q2 -1 6.5 -5t6 -5t5 -4t4.5 -4.5t4 -4.5t3.5 -5t1.5 -5.5t1.5 -6.5t0.5 -7t-1 -9l-6 -38q-4 -32 -18.5 -99.5t-22.5 -107.5 q-56 -254 -57 -258q118 77 268 77h6q51 -6 97 -49q79 -76 79 -211q0 -115 -61 -229.5t-174 -212.5q-78 -68 -153.5 -107.5t-129.5 -39.5q-98 0 -151 61q-8 -20 -21 -36t-24 -17q-4 -2 -13 -2q-6 0 -26 4q-27 8 -47 28q-39 36 -39 70zM211 184q60 -6 61 -6q13 0 19 2 q109 17 203 96q6 2 18 14.5t14 14.5q100 94 125 219q6 35 6 60q0 12 -4 28q-13 41 -73 41q-61 0 -174 -55q-52 -25 -82 -53q-82 -259 -105 -322q-2 -6 -8 -39z" />
<glyph unicode="c" horiz-adv-x="776" d="M20 240q0 97 43 204t112.5 195.5t168 146.5t199.5 58q48 0 99.5 -14t93.5 -49.5t42 -84.5q0 -42 -32 -78t-74 -36q-24 0 -39 18.5t-22.5 40t-30.5 35.5t-62 6q-24 -3 -67 -25q-96 -52 -172 -170t-76 -223q0 -51 28.5 -79.5t79.5 -28.5q52 0 95 14t96 42t84 40 q26 -2 48.5 -22.5t22.5 -45.5q0 -47 -45.5 -89t-110.5 -67t-128.5 -39t-106.5 -14q-99 0 -172.5 82t-73.5 183z" />
<glyph unicode="d" horiz-adv-x="878" d="M35 262q0 28 8 90q22 149 115 262q10 12 35 37q97 97 256 162q55 21 104 29q15 2 29 2q27 0 53 -8q40 -13 55 -33q2 -2 8 17q3 10 11 36l10 31q48 148 94 313q13 33 27 76q10 30 26 43q16 16 39 16q19 0 50 -33.5t36 -56.5q2 -6 2 -16q0 -11 -6 -29q-89 -267 -147 -481 q-5 -19 -18 -72.5t-26 -103.5t-24 -86q-60 -204 -76 -381q-4 -63 -6 -70q-4 -26 -17 -35.5t-40 -9.5q-53 0 -84 25q-38 23 -38 90q0 9 1 20q-7 -1 -57.5 -29t-61.5 -28q-3 0 -14 -8q-72 -35 -135 -35q-28 0 -58 10q-27 5 -59 33q-78 68 -90 182q-2 14 -2 41zM221 268 q0 -34 8 -53q8 -41 68 -41q15 0 55 8q43 14 92 41q5 3 15.5 8.5t15.5 8.5q23 13 48.5 48.5t43.5 84.5q23 61 44.5 142t35.5 118q3 9 8 29q0 2 -28 2q-49 0 -72 -11q-36 -5 -74 -22t-60.5 -32t-60.5 -44q-6 -5 -34 -33q-74 -74 -97 -188q-8 -50 -8 -66z" />
<glyph unicode="e" horiz-adv-x="815" d="M29 250q0 80 26 165t74.5 160.5t111.5 135.5t143.5 95.5t164.5 35.5q89 0 164 -56.5t75 -138.5q0 -45 -17 -83.5t-52 -71.5t-63.5 -53t-75.5 -48q-85 -53 -127 -72q-1 0 -16 -7t-31 -14t-41 -17t-48 -18t-49.5 -15t-48.5 -10v-27q0 -35 43 -61q40 -21 86 -21q53 0 99 17 t101.5 47.5t90.5 44.5q29 0 43 -20t14 -50q0 -42 -47 -81t-112.5 -62.5t-128.5 -37.5t-103 -14q-132 0 -204 72t-72 205zM242 401q46 1 135.5 40.5t166.5 99.5t77 106q0 43 -66 43q-64 0 -138 -43.5t-124.5 -112t-50.5 -133.5z" />
<glyph unicode="f" horiz-adv-x="737" d="M94 70q0 15 17 86q31 140 79 309q30 97 35 117q4 20 4 34q4 12 7 27l-27 -2q-18 -1 -59 2q-23 0 -23 53q0 28 12 68q9 35 109 41l31 2q6 12 11 27t10.5 33t8.5 28q42 118 97.5 208t140.5 152q102 76 194 76q36 0 69 -25t56 -71q25 -55 25 -81q0 -6 -2 -11 q-6 -28 -40 -57.5t-48 -18.5q-13 10 -41 47q-20 33 -47 33q-52 0 -105 -61.5t-84.5 -134t-40.5 -126.5q-1 -1 -2 -4.5t-2 -5.5l111 4h16q25 0 48 -5q30 -6 30 -28q0 -51 -12 -100q-1 -6 -5.5 -10.5t-12 -7.5t-15 -5t-18.5 -3t-18.5 -1.5t-19 -1t-16.5 -0.5l-131 -6 q-18 -23 -51.5 -147t-70 -281.5t-42.5 -179.5q-12 -45 -32 -59q-20 -13 -41 -13q-8 0 -16 3.5t-18 10.5t-15 9t-14.5 7.5t-12.5 7t-9.5 5.5t-8 7t-5 8t-4 10.5t-1.5 13t-1 17.5z" />
<glyph unicode="g" horiz-adv-x="872" d="M-106 -286q-1 10 -1 20q0 13 1 23q2 18 10 40q13 39 80 39q31 0 59.5 -13t28.5 -40q0 -17 -7.5 -39t-7.5 -41q0 -28 11.5 -58.5t35.5 -31.5h14q62 0 114 23q59 26 93 58.5t65.5 92t42 89t27.5 84.5l3 9q5 19 12.5 40t16.5 46t14 39q-59 -36 -87.5 -51t-77.5 -31t-97 -16 q-97 0 -153 82.5t-56 183.5q0 196 111 336t303 215q82 31 133 31q53 0 88 -25q3 -2 9.5 -9t10.5 -7q5 0 8 15.5t14.5 30.5t35.5 15q40 0 69 -33t29 -73q0 -21 -6 -39q-20 -71 -61.5 -248.5t-69.5 -271.5q-11 -38 -23 -80.5t-22 -76t-25 -75.5q-54 -156 -98 -235 q-160 -283 -461 -283h-19q-73 1 -123 67q-44 60 -44 140v16q1 16 0 42zM221 268q0 -46 16.5 -70t59.5 -24q63 0 147 49q41 23 70.5 58.5t48.5 81t31 86t26.5 96t26.5 88.5q4 11 8 29q-16 2 -45 2q-18 0 -55 -11q-64 -20 -105 -40t-90 -58q-62 -50 -100.5 -129.5 t-38.5 -157.5z" />
<glyph unicode="h" horiz-adv-x="847" d="M-2 78q31 184 111 454q33 115 89.5 347t92.5 352q17 55 41 77.5t61 22.5q21 0 32.5 -4.5t25.5 -21.5q30 -35 30 -63v-7q-14 -45 -14 -47q-19 -70 -67.5 -245t-73.5 -269q12 21 14 19q1 0 0 -3q37 58 142 104q99 43 172 42h10q44 -2 78 -43.5t49.5 -91.5t15.5 -93 q0 -20 -4 -42.5t-7 -35t-12.5 -41t-11.5 -36.5q-21 -68 -59 -213q-7 -24 -24 -91.5t-30 -107.5q-1 -2 -3 -8.5t-2.5 -9t-3 -9t-4 -9t-4 -7.5t-5 -8t-6 -6.5t-7.5 -5.5t-8 -3q-3 -1 -7 -1t-9 1q-10 2 -21 5t-16 4q-48 8 -66 21.5t-18 51.5q0 52 74 259t74 259q0 17 -0.5 24 t-3 23.5t-10.5 24t-21 8.5h-10q-40 0 -84 -21q-49 -24 -89.5 -63.5t-76.5 -87t-60 -92.5t-34 -80q-2 -7 -9.5 -30.5t-9.5 -36.5q-10 -43 -47 -209q-5 -24 -29 -38.5t-61 -6.5q-1 0 -12 2.5t-23.5 8t-25.5 13.5q-13 10 -19 26q-4 11 -5 25q0 6 1 13z" />
<glyph unicode="i" horiz-adv-x="444" d="M14 86q7 39 12 63t8 35t12 41t17 56q33 113 60.5 224.5t64.5 233.5q17 55 41.5 78t61.5 23q21 0 32 -4.5t25 -22.5q28 -32 31 -47q2 -10 0 -23q-14 -45 -14 -47q-33 -117 -59.5 -208t-35.5 -123t-26 -104.5t-51 -229.5q-5 -25 -29 -39q-16 -9 -37 -9q-12 0 -25 3l-12 4 q-12 4 -25 10.5t-27 17.5q-13 10 -20 28q-5 12 -5 27q0 6 1 13zM274 1042q0 12 4.5 32t10.5 28q3 9 8.5 28t7.5 25t8.5 17t15 14t23 6.5t35.5 3.5q22 0 32 -5t25 -22q31 -31 31 -57q0 -11 -0.5 -16.5t-1 -7t-2.5 -8.5t-4 -17q0 -20 -12 -62q-4 -22 -23 -34.5t-43 -12.5 q-39 0 -77 25.5t-38 62.5z" />
<glyph unicode="j" horiz-adv-x="415" d="M-420 -463q-1 8 -1 16q0 17 5 35q9 26 31 21q35 -8 68 -8q27 0 53 6q35 7 73.5 39t61.5 67q69 105 141 379q23 85 56 212.5t61 230t59 204.5q17 55 41.5 78t61.5 23q21 0 32 -4.5t25 -22.5q28 -32 31 -47q2 -10 0 -23q-14 -45 -14 -47q-34 -147 -54.5 -224t-45.5 -160 t-52 -183q0 -3 -29.5 -104.5t-31.5 -104.5q-27 -91 -56 -153.5t-82 -149.5q-24 -40 -67.5 -76.5t-93 -61t-98.5 -37.5q-36 -10 -69 -10q-11 0 -22 2q-41 4 -63 27q-6 6 -9.5 16t-5 18.5t-3.5 22.5t-3 19zM274 1042q0 12 4.5 32t10.5 28q3 9 8.5 28t7.5 25t8.5 17t15 14 t23 6.5t35.5 3.5q22 0 32 -5t25 -22q31 -31 31 -57q0 -11 -0.5 -16.5t-1 -7t-2.5 -8.5t-4 -17q0 -20 -12 -62q-4 -22 -23 -34.5t-43 -12.5q-39 0 -77 25.5t-38 62.5z" />
<glyph unicode="k" horiz-adv-x="819" d="M18 78q31 184 111 454q33 115 89.5 347t92.5 352q17 55 41.5 77.5t61.5 22.5q21 0 32 -4.5t25 -21.5q28 -32 31 -47q2 -10 0 -23q-2 -7 -7 -20t-8 -27q-27 -101 -78 -287t-75 -276q38 17 61 28q70 34 101 54q35 21 135 94q77 56 88 65q17 13 37 21.5t26 5.5 q20 -9 28.5 -22t14.5 -40q1 -4 5 -19t4 -21q0 -23 -5.5 -34.5t-27.5 -33.5q-41 -44 -107 -92q-68 -54 -139 -92q-54 -30 -104 -52q6 -9 18 -26.5t18 -26.5q18 -28 108 -157t103 -148q6 -9 20 -29t23.5 -34.5t10.5 -18.5q1 -5 1 -9q0 -26 -36 -38h-53q-26 0 -53.5 8.5 t-35.5 14.5q-3 2 -8 6t-8.5 7.5t-14.5 17.5t-28 40q-10 14 -28.5 37t-34.5 47q-97 147 -168 250q-28 -106 -92 -393q-5 -25 -29 -39q-16 -9 -37 -9q-12 0 -25 3q-1 0 -12 2.5t-23.5 8t-25.5 13.5q-13 10 -19 26q-4 11 -5 25q0 6 1 13z" />
<glyph unicode="l" horiz-adv-x="417" d="M18 78q31 184 111 454q33 115 89.5 347t92.5 352q17 55 41.5 77.5t61.5 22.5q21 0 32 -4.5t25 -21.5q28 -32 31 -47q1 -5 1 -10.5t-1 -12.5q-2 -7 -7 -20t-8 -27q-70 -253 -108.5 -394.5t-91 -351.5t-94.5 -407q-5 -25 -29 -39q-16 -9 -37 -9q-12 0 -25 3q-1 0 -12 2.5 t-23.5 8t-25.5 13.5q-13 10 -19 26q-4 11 -5 25q0 6 1 13z" />
<glyph unicode="m" horiz-adv-x="1255" d="M-10 57q0 70 84 326q17 51 33.5 108.5t36.5 131.5t30 110q3 11 7 28.5t6.5 27t8.5 24t15 29.5q3 9 23.5 19.5t31.5 10.5q21 0 57.5 -22t36.5 -41q0 -16 -3 -34t-8.5 -42.5t-8.5 -42.5q38 60 124 104q81 42 150 42h9q52 -3 88.5 -57t50.5 -122q10 14 29 33q37 60 123 104 q80 42 150 42h9q44 -2 78.5 -43.5t50 -91.5t15.5 -93q0 -20 -4 -42.5t-7 -35t-12.5 -41t-11.5 -36.5q-29 -94 -60 -213q-7 -26 -23.5 -93t-29.5 -106q-1 -2 -3 -8.5t-2.5 -9t-3 -9t-4 -9t-4 -7.5t-5 -8t-6 -6.5t-7.5 -5.5t-8 -3q-3 -1 -7 -1t-9 1q-10 2 -21 5t-16 4 q-48 8 -66 21.5t-18 51.5q0 52 73.5 259t73.5 259q0 17 -0.5 24t-3 23.5t-10.5 24t-21 8.5h-9q-44 1 -88 -25q-48 -28 -86.5 -75.5t-66.5 -98t-46 -100.5q-7 -19 -33 -116q-7 -24 -24 -91.5t-30 -107.5q-1 -2 -3 -8.5t-2.5 -9t-3 -9t-4 -9t-4 -7.5t-5 -8t-6 -6.5t-7.5 -5.5 t-8 -3q-3 -1 -7 -1t-9 1q-10 2 -21 5t-16 4q-48 8 -66 21.5t-18 51.5q0 52 74 259t74 259q0 17 -0.5 24t-3 23.5t-10.5 24t-21 8.5h-10l-80 -21q-45 -24 -79.5 -63t-64.5 -87.5t-49 -92t-30 -80.5q-6 -20 -66 -256q-14 -63 -68 -63q-31 0 -59 8q-4 1 -14.5 4t-14 4.5 t-10 5.5t-9.5 9t-5 13.5t-2 20.5z" />
<glyph unicode="n" horiz-adv-x="841" d="M-10 57q0 70 84 326q17 51 33.5 108.5t36.5 131.5t30 110q3 11 7 28.5t6.5 27t8.5 24t15 29.5q3 9 23.5 19.5t31.5 10.5q21 0 57.5 -22t36.5 -41q0 -16 -3 -34t-8.5 -42.5t-8.5 -42.5q37 58 142 104q99 43 172 42h10q44 -2 78 -43.5t49.5 -91.5t15.5 -93q0 -20 -4 -42.5 t-7 -35t-12.5 -41t-11.5 -36.5q-21 -68 -59 -213q-7 -24 -24 -91.5t-30 -107.5q-1 -2 -3 -8.5t-2.5 -9t-3 -9t-4 -9t-4 -7.5t-5 -8t-6 -6.5t-7.5 -5.5t-8 -3q-3 -1 -7 -1t-9 1q-10 2 -21 5t-16 4q-48 8 -66 21.5t-18 51.5q0 52 74 259t74 259q0 17 -0.5 24t-3 23.5t-10.5 24 t-21 8.5h-10q-40 0 -84 -21q-49 -24 -89.5 -63.5t-76.5 -87t-60 -92.5t-34 -80q-6 -20 -66 -256q-14 -63 -68 -63q-31 0 -59 8q-4 1 -14.5 4t-14 4.5t-10 5.5t-9.5 9t-5 13.5t-2 20.5z" />
<glyph unicode="o" horiz-adv-x="825" d="M27 313q3 236 204 418q49 44 135 85.5t144 41.5q37 0 77 -8.5t75.5 -33t37.5 -60.5q0 -20 -10 -33q39 -19 66.5 -79.5t27.5 -127.5q0 -94 -44 -195.5t-111 -170.5q-4 -4 -13.5 -11.5t-13.5 -11.5q-155 -131 -319 -131q-57 0 -102 17.5t-74 47t-47 71.5t-26 86 q-7 39 -7 83v12zM209 291q0 -56 18 -87.5t70 -31.5q28 0 68 14q55 19 85 39t66 62q3 4 17.5 24.5t17.5 24.5q59 94 59 194q0 52 -20 89.5t-68 37.5q-28 0 -78 -16q-108 -37 -171.5 -135t-63.5 -215z" />
<glyph unicode="p" horiz-adv-x="892" d="M-150 -459q15 89 209 742q37 126 94.5 311.5t77.5 253.5q17 58 96 61h9q50 0 79 -21q12 -9 9 -18q-2 -14 -11.5 -49.5t-11.5 -48.5q119 78 269 78h6q49 -6 96 -49q80 -77 80 -211q0 -114 -61 -229.5t-175 -213.5q-79 -68 -153.5 -107.5t-128.5 -39.5q-99 0 -152 61 q-17 -69 -75.5 -265t-81.5 -298q-5 -24 -29 -38q-16 -10 -37 -10q-12 0 -25 3q-1 0 -12 2.5t-23.5 8t-25.5 14t-19 24.5q-5 12 -5 26q0 6 1 13zM231 205q60 -6 62 -6q12 0 18 2q109 17 203 96q6 2 18.5 14.5l14.5 14.5q100 94 125 219q6 34 6 59q0 13 -4 29q-6 19 -26 30 t-48 11q-59 0 -174 -56q-52 -25 -82 -53q-87 -274 -104 -321q-4 -10 -9 -39z" />
<glyph unicode="q" horiz-adv-x="813" d="M14 262q0 20 9 90q22 150 114 262q10 12 35 37q97 97 256 162q55 21 104 29q15 2 29 2q27 0 53 -8q41 -13 56 -33q46 25 77 25q14 0 25 -5q34 -16 46 -51q7 -18 7 -31t-6 -22q-8 -27 -16.5 -71t-22.5 -89q-5 -18 -16 -45q-57 -166 -98 -299q-2 -8 -21 -69.5t-22 -77.5 q-85 -318 -99 -541q0 -17 -12 -41l-12 -15q-12 -15 -28 -25q-10 -6 -22 -6q-5 0 -10 1q-23 0 -69 22q-12 13 -17.5 27t-6 23t1 27.5t1.5 27.5q0 75 27 227q18 98 47 205l27 90q-35 -20 -93 -59q-72 -35 -135 -35q-27 0 -57 10q-28 5 -60 33q-78 68 -90 182q-2 14 -2 41z M201 268q0 -34 8 -53q8 -41 67 -41q16 0 56 8q43 14 92 41q5 3 15.5 8.5t15.5 8.5q23 13 48.5 48.5t43.5 84.5q23 61 44.5 142t35.5 118q3 9 8 29q0 2 -29 2q-48 0 -71 -11q-36 -5 -74 -22t-60.5 -32t-60.5 -44q-12 -10 -35 -33q-73 -73 -96 -188q-8 -50 -8 -66z" />
<glyph unicode="r" horiz-adv-x="694" d="M-14 100q6 38 12.5 67t11 44.5t15.5 50t18 60.5q76 261 125 458q8 36 26 53t33 19q9 1 23 0h20q9 -1 16.5 -1t14 -0.5t16.5 -2.5q30 -5 30 -36q0 -10 -3 -24q-1 -7 -18 -77l-13 -58q40 56 82 92q44 38 84 56l60 26q50 15 93 15q50 0 89 -21q28 -14 38 -27q6 -8 6 -20 q0 -9 -3 -20q-4 -16 -26 -44.5t-42 -47.5q-14 -5 -20 -6t-9.5 -0.5t-14.5 3.5t-25 5q-12 2 -25 2q-22 0 -44 -6q-36 -10 -54.5 -20t-52.5 -32q-76 -47 -109 -88q-34 -42 -72.5 -105t-46.5 -104l-7 -28q-7 -28 -22 -91.5t-30 -132.5q-6 -27 -29 -47q-16 -14 -39 -14 q-9 0 -20 2l-12 4q-12 4 -25 10.5t-27 17.5q-13 10 -20 28q-5 12 -5 27q0 6 1 13z" />
<glyph unicode="s" horiz-adv-x="696" d="M-16 102q0 32 26 72.5t56 40.5q18 0 40.5 -16t54 -32t70.5 -17h7q48 0 84 12q38 14 55 36.5t24 42.5t7 40q0 27 -30.5 50t-73.5 44t-86.5 46t-74 66t-30.5 93q0 69 36.5 122.5t95 82.5t122 43t127.5 14q31 0 72.5 -13.5t77.5 -43t36 -64.5q0 -47 -22 -77t-68 -30 q-9 0 -17.5 5t-20 17t-13.5 13t-11 11t-15 13.5t-23 8t-41 4.5q-51 -1 -86 -11t-49.5 -25.5t-19.5 -27.5t-5 -22q0 -25 30.5 -44.5t74 -38t87.5 -42t74.5 -68t30.5 -104.5q0 -225 -230 -293q-82 -24 -176 -24q-73 0 -112 20q-84 46 -84 96z" />
<glyph unicode="t" horiz-adv-x="577" d="M66 675v7.5v7.5v6q0 28 12 68q9 35 108 41l58 2q10 33 10 35q11 43 32.5 122t30.5 111q17 61 64 64q1 0 12 3q6 2 12 2q7 0 13 -2q14 -3 33.5 -16t27 -29.5t4.5 -47.5q-1 -4 -22.5 -87.5t-22.5 -87.5q-1 -3 -3 -11t-6 -22t-7 -26l106 4q8 0 16 1q24 0 48 -6q30 -6 31 -28 q0 -47 -13 -100q-1 -6 -5.5 -10.5t-12 -7.5t-14.5 -5t-18.5 -3t-18.5 -1.5t-18.5 -1t-16.5 -0.5l-127 -6q-66 -226 -86 -301q-8 -29 -18 -65q-9 -34 -10.5 -42t-0.5 -32v-10q3 -20 11.5 -34.5t21.5 -20.5t26 -8.5t29 -0.5t26.5 4t22.5 5.5t13 3.5q7 1 13.5 -9.5t9 -22.5 t1.5 -16q0 -2 1.5 -15t2 -23t-4 -22t-15.5 -19q-10 -6 -51 -16.5t-62 -10.5q-5 1 -31 6.5t-34 7.5t-31 9.5t-33 14.5t-27 20.5t-26 29.5t-18.5 39t-14.5 51q-3 16 -3 35q0 54 22 133q33 113 77 283q0 1 1 3t2 6.5t2 8.5l-48 -2q-18 -1 -59 2q-4 0 -7.5 1t-5.5 3.5t-4 5.5 t-2.5 7t-1.5 7t-1 8z" />
<glyph unicode="u" horiz-adv-x="870" d="M33 227v9q0 64 27 162q29 104 53.5 166.5t66.5 160.5q34 77 57 103q27 30 58 30q39 0 77 -30q28 -22 28 -47q0 -8 -3 -17q-5 -15 -41 -90q-46 -99 -87 -222q-40 -120 -40 -191q0 -38 15.5 -65.5t48.5 -27.5q58 0 137 49q25 15 55 45q44 48 58 92q37 125 119 338 q3 6 20.5 49.5t26.5 65.5q13 33 49 33q32 0 65.5 -27.5t34.5 -60.5q0 -19 -23 -90.5t-55.5 -160.5t-36.5 -102q-42 -125 -45 -262q-1 -20 -1 -41.5t1 -42.5q0 -26 -12 -37.5t-43 -19.5q-14 -4 -36 -7q-16 -2 -33 -2h-11q-22 1 -26 9q-8 7 -13.5 49t-5.5 70 q-12 -15 -42.5 -40.5t-49.5 -33.5q-104 -53 -180 -53q-90 0 -150.5 73.5t-62.5 165.5z" />
<glyph unicode="v" horiz-adv-x="772" d="M96 731v15v12q0 10 1 25.5t5 25t10 19.5t17 15t25 5t50 -7t40 -14q22 -15 22 -55l-2 -246q0 -18 2 -77t2 -76q0 -25 6 -73t13 -67q13 8 96 119q138 180 258 430q16 33 40 42.5t45 -0.5t36 -22t20 -20q18 -21 18 -45q0 -21 -14 -45q-62 -154 -190 -330.5t-264 -312.5 q-3 -3 -14.5 -15t-20 -20.5t-20.5 -19t-22.5 -16t-18.5 -5.5q-38 0 -69.5 30t-33.5 58q-8 38 -14.5 96t-10 101.5t-6.5 89.5l-2 45q-4 84 -4 316v22z" />
<glyph unicode="w" horiz-adv-x="1298" d="M116 757.5q0 9.5 1 25.5t5 25.5t10 19.5t17 15t25 5t50 -7t40 -14q23 -15 23 -55l-2 -246q0 -18 2 -77t2 -76q0 -26 5.5 -73.5t12.5 -66.5q10 6 49 61.5t54 78.5q46 67 86 135.5t59 106.5t70 143q13 27 29 40t32 11.5t29 -6.5t27.5 -13t19.5 -10q25 -6 25 -63 q0 -11 -1 -25q-2 -41 -2 -76v-34q2 -48 5.5 -103t3.5 -63q1 -32 9 -103t11 -80q5 5 52 75t53 77q4 7 49.5 82t94 157.5t66.5 120.5q31 67 50 85q18 16 36 16q7 -2 23 -5t26.5 -8t18.5 -16q4 -5 12.5 -12.5t14 -14t9.5 -16.5q4 -8 4 -18q0 -16 -9 -37q-49 -117 -174 -303 q-64 -100 -99 -148q-10 -13 -44 -57t-60 -82q-67 -95 -105 -131.5t-67 -36.5q-30 0 -64 31q-31 27 -47 121q-3 21 -35 319q-7 -11 -58.5 -94.5t-72.5 -115t-61.5 -86t-73.5 -87.5q-3 -3 -14.5 -15t-20 -20.5t-20.5 -19t-22.5 -16t-18.5 -5.5q-38 0 -69 30t-33 58 q-8 38 -14.5 96t-10 101.5t-5.5 89.5l-3 45q-4 84 -4 316q0 6 -0.5 22.5t-0.5 26z" />
<glyph unicode="x" horiz-adv-x="718" d="M-37 84q0 37 93.5 153.5t156.5 182.5q50 59 55 65q-118 258 -118 279q0 28 34 62q31 32 56 32h4q13 -1 25.5 -10t21 -18.5t19 -28.5t14.5 -28.5t13 -31.5t11 -26q35 -70 35 -76q3 -5 9 -15.5t9 -15.5q9 8 42 40.5t64 61.5t67.5 60.5t66.5 50.5t47 19q13 0 19 -4 q5 1 9.5 -5t8.5 -17.5t6.5 -20t6.5 -21.5l3 -12q9 -36 9 -39q0 -32 -66 -84q-33 -29 -98.5 -86.5t-98.5 -85.5q-15 -15 -22 -27q22 -54 73.5 -201t51.5 -167q0 -43 -33 -56q-52 -22 -82 -24q-13 -1 -24.5 15.5t-18.5 35.5q-4 10 -20 46t-21 56q-6 24 -21.5 63t-21.5 62 q0 1 -7 21.5t-9 32.5q-47 -38 -213 -289q-1 -1 -6 -9t-7.5 -10.5t-7.5 -9.5t-9 -10t-9.5 -7t-11 -5.5t-11.5 -1.5q-30 0 -62 37.5t-32 66.5z" />
<glyph unicode="y" horiz-adv-x="821" d="M-16 -430q0 20 18 45q8 11 123.5 160t157.5 225v2q-37 154 -76 350q-7 38 -27.5 103.5t-27.5 103.5q-7 36 -21.5 93.5t-19.5 80.5q-1 5 -6 19.5t-5 23.5v8q0 28 37 49t68 21q68 0 78 -72q3 -18 7 -51.5t7 -50.5q33 -195 78 -387q2 -8 5.5 -28t7 -35.5t7.5 -24.5 q18 26 46 79t34 64q42 72 77.5 140.5t91.5 182.5t71 144q3 9 10 16q18 25 43 25q30 0 61 -29t31 -59q0 -11 -8 -31q-51 -145 -117 -272q-82 -161 -270 -465q-16 -25 -60.5 -97.5t-78 -124.5t-64.5 -95l-35 -52.5t-46.5 -68t-37.5 -49.5q-45 -50 -82 -50q-25 0 -51 40t-26 67 z" />
<glyph unicode="z" horiz-adv-x="800" d="M-16 72q0 36 53 94q103 113 256 266q19 19 53 50t57 55q11 11 50 49.5t51 50.5l31 31l-7 2q-104 -6 -344 -6q-33 0 -50 30.5t-17 67.5q0 29 4 39q10 20 18 24t33 4q16 0 57 1t58 1h393q37 0 49.5 -8t30.5 -41q2 -3 9 -15t10 -20.5t3 -17.5t-6.5 -22t-12.5 -21t-18 -22.5 t-14 -16.5q-25 -32 -69.5 -72t-63.5 -61q-49 -52 -158 -165t-131 -136q-40 -40 -45 -47q16 2 41 2h131q88 0 168 -6q4 0 20 -1t22 -2t19 -3.5t19 -6t13.5 -9t10.5 -14.5t3 -20q0 -19 -4.5 -47t-12.5 -36q-2 -2 -5.5 -6t-4.5 -5.5t-3.5 -4t-4.5 -3.5t-4.5 -2.5t-5.5 -2 t-6.5 -1t-8.5 -0.5q-27 0 -93 5t-93 5q-149 0 -219 -6q-31 -3 -170 -16q-4 -1 -21 -5t-26 -4q-21 0 -33 33t-12 62z" />
<glyph unicode="{" horiz-adv-x="698" d="M80 -88q-11 45 2 104q7 40 23.5 102t19.5 77q4 17 13.5 49.5t11.5 38.5q37 136 22 190q-16 66 -66 82q-20 9 -12.5 29t23.5 22q35 8 57 21t29 22t18 27q12 17 22 37t18 44.5t13 40t12 42t9 32.5q3 10 16 74q4 19 15.5 76t23.5 96q18 64 47 103q32 44 80 82q105 81 215 81 h82q25 0 29 -35q4 -41 -22 -67q-15 -13 -33 -14h-60q-13 2 -38.5 -3t-51.5 -20q-46 -35 -66 -108q-40 -158 -47 -193q-4 -16 -9 -49t-9 -49q-34 -126 -51 -154q-60 -88 -144 -119q71 -35 86 -124q3 -27 -24 -154q-3 -18 -15.5 -58t-15.5 -53q-32 -116 -47 -194 q-17 -72 12 -111q18 -15 41.5 -20.5t36.5 -3.5q43 -4 60 -2q29 -3 31 -33t-17.5 -58.5t-42.5 -27.5q-38 3 -84 4q-110 5 -172 90q-30 42 -41 84z" />
<glyph unicode="|" horiz-adv-x="845" d="M150.5 -274.5q0.5 10.5 3 21t2.5 11.5q0 23 51 195q20 68 68.5 225.5t66.5 218.5q4 13 104.5 349.5t126.5 431.5q15 58 39 137q10 34 21 46.5t39 12.5h4q16 0 28.5 -12t16.5 -21.5t6 -17.5q8 -5 14.5 -20.5t3.5 -28.5q-2 -11 -5.5 -39.5t-10.5 -61.5t-20 -75 q-10 -30 -61 -187.5t-98.5 -305.5t-62.5 -199q-30 -111 -88 -311t-86 -306q-13 -57 -20 -78q-4 -18 -21 -35q-22 -16 -67 -16q-22 6 -35.5 17.5t-16.5 24.5t-2.5 23.5z" />
<glyph unicode="}" horiz-adv-x="698" d="M-1 -231q-4 41 23 67q14 13 33 14h60q13 -2 38.5 3t51.5 20q44 35 65 109q15 53 45 192q4 16 9.5 49t9.5 49q35 129 51 154q58 88 143 119q-30 16 -53.5 49t-30.5 76q-2 11 0.5 33.5t6.5 41t10 45.5t8 35q4 18 16 61t13 48q34 126 49 194q15 70 -15 111q-29 27 -77 27 q-37 0 -60 2q-34 1 -30 42q4 39 33 63q13 12 26 11q21 0 84 -2q109 -5 174 -90q29 -43 39 -86q8 -42 -2 -104q-7 -40 -23 -101t-20 -77q-4 -19 -23 -88q-34 -146 -24 -191q7 -20 11 -30.5t18.5 -28t35.5 -23.5q20 -9 13.5 -29t-21.5 -22q-35 -8 -58 -21.5t-28.5 -21 t-19.5 -27.5q-9 -14 -18 -32.5t-15 -33t-13.5 -37t-10.5 -33.5t-9.5 -33t-7.5 -27q-4 -14 -8.5 -37t-8.5 -37q-5 -23 -14 -78t-22 -94q-18 -63 -47 -102q-37 -45 -82 -82q-101 -82 -213 -82h-84q-25 0 -28 35z" />
<glyph unicode="~" horiz-adv-x="1181" d="M90 767q-5 16 0 28t9 18.5t13 21t23 39.5q58 106 168 148q47 18 96 18q35 0 93 -28q19 -10 129 -76q24 -15 44.5 -28.5t35 -22.5t44.5 -25q58 -32 107 -14q24 13 40 34t21 35q29 47 33 58q10 17 25 21.5t28 -2.5t24.5 -18.5t15 -27t-0.5 -28.5q-11 -25 -43 -80 q-63 -109 -170 -148q-47 -18 -96 -18q-38 0 -92 26q-32 16 -115 68q-31 19 -68.5 42.5t-70.5 43.5q-58 32 -109 12q-42 -24 -61 -69q-3 -5 -14.5 -25t-16.5 -33q-10 -17 -24.5 -21t-28 3.5t-24 19.5t-15.5 28z" />
<glyph unicode="&#xa1;" horiz-adv-x="491" d="M37 -96q18 106 78 313q33 115 56.5 213.5t59.5 218.5q17 55 41.5 78t61.5 23q48 0 78 -33q13 -16 14 -29t-4 -35q-14 -45 -14 -47q-25 -89 -53.5 -189t-37.5 -133t-26 -100.5t-32.5 -137.5t-43.5 -198q-5 -24 -29 -38.5t-61 -6.5l-12 4q-12 4 -25 11t-26.5 17.5 t-20.5 28.5t-4 40zM326 979q0 38 14 59q3 9 8 28t7.5 25t9 17.5t15 14.5t23 6.5t35.5 3.5t30.5 -4.5t27.5 -22.5q30 -35 30 -57q0 -14 -0.5 -18.5t-3 -12t-4.5 -19.5q0 -8 -5.5 -31.5t-6.5 -29.5q-6 -21 -24 -34t-42 -13q-39 0 -76.5 25.5t-37.5 62.5z" />
<glyph unicode="&#xa2;" horiz-adv-x="901" d="M113 324q-7 82 27 173t97 166t157 124t196 49h26l9 18q12 25 28.5 61t28.5 60q16 36 25 48.5t22 12.5h2q10 -1 17 -27.5t4 -35.5q8 -12 -9 -55q-5 -13 -10 -25t-13.5 -31t-17.5 -41q128 -34 136 -110q3 -36 -27 -66.5t-72 -30.5q-22 0 -36.5 12.5t-27.5 32.5t-26 29 q-29 -67 -61 -141t-68.5 -159.5t-56.5 -131.5q37 4 71 16.5t75 32t71 29.5q26 -2 50.5 -19.5t25.5 -38.5q4 -39 -35 -73.5t-99 -55.5t-120 -34t-107 -15l-2 -4q-8 -16 -15 -32.5t-13.5 -31.5t-8.5 -20q-6 -19 -20 -37q-13 -16 -35 -12q-42 31 -14 115q1 3 6 15t8 20 q-75 25 -128.5 85.5t-59.5 127.5zM293 344q3 -32 22 -54.5t50 -31.5l10 25l182 411q-6 -2 -23.5 -8t-21.5 -8q-92 -43 -159 -144t-60 -190z" />
<glyph unicode="&#xa3;" horiz-adv-x="1062" d="M129 158q0 133 98 454h-10q-34 0 -59 2q-23 0 -23 56q0 26 12 67q9 37 109 37h27q113 284 255 422.5t306 138.5q92 0 151.5 -42t59.5 -130q0 -71 -21 -108t-84 -41q-74 -4 -82 106q-12 43 -51 43q-93 0 -180 -109.5t-152 -279.5h195q94 0 94 -35q0 -39 -12 -100 q-6 -27 -99 -27h-6h-227q-90 -287 -90 -395q0 -25 13.5 -36t33.5 -10t41 1q164 4 248 4q109 0 188 -8q6 0 23 -1t24.5 -2t21.5 -3t21.5 -5.5t15.5 -9t11.5 -14.5t3.5 -20q0 -20 -5 -49.5t-13 -38.5q-3 -3 -7.5 -7t-6.5 -6t-5 -4.5t-5.5 -3.5t-6.5 -2t-8 -1.5t-10 -0.5 q-30 0 -104 5t-105 5q-168 0 -246 -6q-181 -12 -257.5 25t-76.5 129z" />
<glyph unicode="&#xa4;" horiz-adv-x="3352" d="M168 389v649h299v-170h156v170h579l27 -26v-144h155v144l27 26h453v-170h155v127h84q90 0 140 29q3 2 9 7t9 7h322q3 -62 34 -98q39 -43 90 -59q62 -19 142 -19q78 0 139 23q59 22 86 59q29 40 29 94h114v-649h-3049zM307 737h78v-291h53v291h76v60h-207v-60zM309 1126 v84h471v-84h-157v-88h-156v88h-158zM649 446h53v154h103v-154h53v351h-53v-138h-103v138h-53v-351zM1012 446h198v60h-145v94h129v59h-129v78h139v60h-192v-351zM1034 1210h172l101 -114l102 114h170l-168 -172h-209zM1337 737h78v-291h51v291h78v60h-207v-60zM1677 446h52 v351h-52v-351zM1864 1038v172h256q85 0 127 -26q41 -27 41 -78q0 -41 -27 -68h-397zM1870 618q0 -81 35 -131q35 -47 86 -47q41 0 67 29q29 29 41 86l-51 20q-10 -41 -23 -57q-16 -16 -36 -16q-31 0 -45 26q-19 32 -19 97q0 61 19 90q19 28 47 28q18 0 34 -16q15 -15 21 -43 l51 16q-9 43 -26 66q-30 37 -78 37q-55 0 -88 -47q-35 -50 -35 -138zM2019 1065h37q49 0 64 10q18 9 18 27q0 15 -16 28q-18 11 -60 11h-43v-76zM2204 446h55l22 80h105l22 -80h56l-105 351h-55zM2298 586l35 129l34 -129h-69zM2580 446h185v60h-131v289h-54v-349z M2583 1038q0 83 69 131q70 48 191 48q125 0 192 -46q68 -47 68 -129v-4h-154v4q0 49 -29 72q-33 23 -77 23q-46 0 -76 -23q-29 -26 -29 -76h-155zM2738 1038h211q-3 -56 -29 -73q-26 -23 -75 -23q-52 0 -78 23q-29 23 -29 73zM2882 561q6 -61 32 -90q25 -31 76 -31 q32 0 55 13q23 12 37 39q13 29 13 57q0 29 -11 55q-12 23 -28 37q-19 12 -58 25q-37 12 -47 22q-8 8 -8 23q0 14 8 22q12 12 35 12q24 0 33 -12q11 -11 14 -39l53 2q0 49 -26 78q-23 29 -74 29q-31 0 -49 -12q-25 -14 -33 -35q-12 -24 -12 -49q0 -45 24 -72q14 -19 60 -35 q9 -3 17.5 -6t15 -5t8.5 -3q14 -6 18 -17q6 -9 6 -20q0 -20 -12 -35q-14 -14 -39 -14q-23 0 -39 16q-12 19 -18 51z" />
<glyph unicode="&#xa5;" horiz-adv-x="1001" d="M74 198v7.5v7.5v6q0 28 12 68q9 37 109 37h159q46 160 47 165h-184q-21 0 -59 3q-23 0 -23 55q0 27 12 67q9 37 109 37h109q-62 124 -74 168q-3 10 -21.5 58.5t-21.5 58.5q-55 158 -98 262q-12 28 -12.5 40t9.5 36q27 33 53.5 50t46.5 16t32 -5.5t20 -11.5 q130 -347 156 -422q3 -7 18.5 -42t18.5 -42q6 -15 10 -23t12.5 -18t18.5 -10.5t26.5 7.5t36.5 28q90 95 248 327q15 23 63.5 88.5t63.5 88.5q24 34 43 34q32 0 64 -19.5t36 -57.5q0 -36 -16 -72q-70 -137 -389 -539h135q94 0 94 -35q0 -38 -12 -100q-6 -27 -99 -27h-6h-211 q-25 -83 -47 -165h219q95 0 95 -35q0 -34 -13 -101q-6 -27 -95 -26h-3h-3h-3h-240l-12 -49q-11 -48 -21 -78q-4 -19 -20 -35q-22 -16 -68 -16q-20 4 -37 9.5t-28 12t-19.5 13t-13.5 13.5t-8 13t-4 12.5t-1 10.5v9l1 5q0 16 18 80h-151q-35 0 -60 2q-4 0 -7.5 1.5t-5.5 4 l-4 5t-2.5 7t-1.5 8t-1 8.5z" />
<glyph unicode="&#xa6;" horiz-adv-x="845" />
<glyph unicode="&#xa7;" horiz-adv-x="944" d="M49 -8q0 46 24 75t68 33q54 5 76.5 -16t34.5 -61q3 -9 10 -13.5t12 -5t17 -0.5t57 10q33 9 55.5 18t46.5 25t36 40.5t12 58.5q0 28 -18.5 63t-43.5 60q-18 17 -50 51.5t-44 46.5q-79 81 -115.5 146t-36.5 159q-1 117 57 182.5t146 85.5q-30 51 -39 76q-3 10 -5.5 15.5 t-3 7.5t-1 5t-0.5 13q0 65 26 119.5t68 90t96.5 60t110 35t109.5 10.5q46 0 85 -10t71 -40.5t32 -78.5q0 -46 -24 -75t-68 -33q-36 -4 -60.5 8.5t-34 28.5t-16.5 41q-3 9 -10 13.5t-10.5 4.5h-16.5q-19 0 -59 -8q-68 -16 -107.5 -47.5t-39.5 -93.5q0 -28 18.5 -64t42.5 -59 q17 -17 47.5 -51t46.5 -50q79 -81 115.5 -146t36.5 -159q1 -117 -56 -183t-145 -91q28 -43 37 -70q3 -7 5 -12.5t3 -6.5t1.5 -4t0.5 -6v-12q0 -65 -26 -119.5t-68 -90t-96.5 -60t-109.5 -35t-109 -10.5q-46 0 -86 10t-72.5 40.5t-32.5 78.5zM340 655q0 -34 14.5 -66 t30 -51.5t45.5 -50.5l59 -59h21q57 2 99.5 50t41.5 114q0 47 -22 83.5t-66 82.5q-36 36 -59 61h-23q-55 -3 -98 -51t-43 -113z" />
<glyph unicode="&#xa8;" horiz-adv-x="813" d="M152 1167q0 39 14 60q4 11 10.5 33t10 28t13.5 17t25.5 13.5t40.5 2.5h3q3 0 6 -0.5t8 -1t10 -2t11 -3t11.5 -3.5t11 -4.5t10.5 -6.5t9 -8q6 -6 7.5 -13t0 -21t-1.5 -21q0 -16 -6 -49q0 -8 -5.5 -33t-6.5 -29q-6 -23 -24 -35t-42 -12q-39 0 -77.5 25.5t-38.5 62.5z M459 1167q0 39 14 60q4 11 10.5 33t10 28t13.5 17t25.5 13.5t40.5 2.5h3q3 0 6 -0.5t8 -1t10 -2t11 -3t11.5 -3.5t11 -4.5t10.5 -6.5t9 -8q5 -5 7.5 -11.5t2.5 -11t-0.5 -16t-0.5 -16.5h-3q0 -16 -6 -49q0 -8 -5.5 -33t-6.5 -29q-6 -23 -24 -35t-42 -12q-39 0 -77.5 25.5 t-38.5 62.5z" />
<glyph unicode="&#xa9;" horiz-adv-x="1368" d="M274 786q1 22 15 97q32 147 126.5 259t243.5 185q26 14 76 22t118 8t147.5 -27.5t144.5 -80.5q136 -112 127 -291q-5 -106 -59 -207.5t-137.5 -176.5t-194.5 -120.5t-224 -45.5q-83 0 -162 32t-135 88q-93 93 -86 258zM385 813q-5 -116 49.5 -194t171.5 -99q40 -8 62 -8 q30 0 92 12q161 28 278.5 152t124.5 276q4 92 -54 169t-151 112q-44 17 -96 22.5t-85 3t-50 -7.5q-94 -32 -178 -106q-155 -139 -164 -332zM528 754v14q11 128 101 248q101 135 215 135q38 0 64 -18t26 -58q0 -20 -2.5 -32.5t-14 -23t-32.5 -11.5t-30 12.5t-11 36.5 q-3 8 -10 8q-30 0 -69.5 -37t-66.5 -76q-82 -116 -77 -198q0 -24 14 -41q15 -19 43 -19q16 0 32 3.5t26.5 6.5t27.5 12t23.5 13t26 17t24.5 16q12 7 22 -2t10 -19q8 -24 0 -34q-14 -27 -51 -50q-71 -51 -155 -51h-9q-60 6 -93.5 47t-33.5 101z" />
<glyph unicode="&#xaa;" horiz-adv-x="573" />
<glyph unicode="&#xab;" horiz-adv-x="1009" d="M55 440q0 61 215 232q188 147 242 147q23 0 41 -18t18 -43q0 -14 -27.5 -37t-97.5 -70q-101 -69 -155.5 -119.5t-54.5 -70.5q0 -22 42.5 -84.5t108.5 -126.5q11 -10 24.5 -23t21.5 -20.5t18 -17t16 -15.5t12.5 -13t10 -11.5l7 -9t4.5 -8.5t1 -7q0 -29 -37 -47 q-45 -23 -70 -23q-26 0 -65 32.5t-121 121.5q-66 72 -110 139t-44 92zM424 440q0 61 215 232q188 147 242 147q23 0 41 -18t18 -43q0 -14 -27.5 -37t-97.5 -70q-101 -69 -156 -119.5t-55 -70.5q0 -22 43 -84t109 -127q92 -88 104 -103q10 -13 10 -22q0 -30 -36 -47 q-45 -23 -70 -23q-26 0 -65 32.5t-121 121.5q-66 72 -110 139t-44 92z" />
<glyph unicode="&#xac;" horiz-adv-x="1032" d="M115 566.5v8v7.5v6q0 26 12 67q9 37 109 37h649q16 0 29 -1t30.5 -4t26.5 -10.5t8 -19.5q-1 -7 -12 -63q-1 -2 -4.5 -20.5t-6.5 -30.5q-7 -27 -29 -124.5t-44 -174.5q-7 -25 -30 -39t-60 -6l-12 4q-12 4 -25 10.5t-26.5 17.5t-20.5 28.5t-4 39.5q6 34 14 66.5t14 52.5 t17.5 56t17.5 56h-571q-35 0 -60 2q-4 0 -7.5 1.5t-5.5 4t-4 5.5t-2.5 7.5t-1.5 7.5t-1 8.5z" />
<glyph unicode="&#xad;" horiz-adv-x="604" d="M74 464v7.5v7.5v6q0 27 12 68q9 37 109 37h280q94 0 94 -35q0 -39 -12 -100q-2 -10 -12 -16t-31 -8t-29 -2.5t-32 -0.5h-297q-35 0 -60 2q-4 0 -7.5 1.5t-5.5 4l-4 5t-2.5 7t-1.5 8t-1 8.5z" />
<glyph unicode="&#xae;" horiz-adv-x="1368" d="M272 786q0 48 9 97q24 153 113.5 271.5t234.5 172.5q32 12 78 19t115 8.5t149 -25t149 -80.5q140 -110 140 -291q0 -142 -81.5 -269.5t-216.5 -204t-286 -76.5q-84 0 -165 32t-140 88q-99 94 -99 258zM381 813q0 -116 58.5 -194t178.5 -99q40 -8 62 -8q28 0 90 12 q160 28 270.5 152t110.5 276q0 92 -61.5 169t-155.5 112q-99 37 -234 18q-94 -17 -176 -92q-70 -66 -106.5 -157t-36.5 -189zM537 657l2 7q0 16 18 77q3 10 19.5 68t25.5 90q6 21 20.5 66.5t20.5 70.5q-26 -13 -41 -10q-13 3 -22 20.5t-9 32.5q0 6 2 11.5t4 9t7 7.5t8 6 t10.5 5t10 3.5t11 3.5t9.5 3q52 18 86 25q44 10 100 10q40 0 76 -12t63 -42.5t27 -74.5q0 -69 -74 -131q-31 -27 -69 -45q3 -5 14 -27q23 -45 66 -114q8 -16 18 -41q10 -26 -10 -43q-8 -8 -31 -8q-12 2 -16 -4q-25 7 -31 22l-4 6q-23 53 -47 99q-4 7 -12 22t-21 37.5 t-33 52.5l-4 6l-2 4q-7 14 2 26t27 17q58 18 95.5 53t37.5 68q0 37 -86 37q-17 0 -57 -4q-1 -4 -3.5 -11.5t-3.5 -11.5q-7 -22 -17 -63t-15 -59q-57 -206 -68 -248q-2 -7 -8 -31q-2 -10 -10 -18q-15 -9 -35 -9q-49 10 -51 41z" />
<glyph unicode="&#xaf;" horiz-adv-x="1024" d="M-47 1474v7.5v7.5v6q1 14 3 14q4 0 6 6q2 3 3 7q9 37 109 37h915q74 0 74 -35q0 -18 -1 -23.5t-4.5 -13t-6.5 -23.5q-2 -9 -8.5 -15t-19.5 -8t-21 -2.5t-26 -0.5h-3h-3h-3h-932q-35 0 -60 2q-4 0 -7.5 1.5t-5.5 4l-4 5t-2.5 7t-1.5 8t-1 8.5z" />
<glyph unicode="&#xb1;" horiz-adv-x="1032" d="M53 55q0 24 13 68q9 37 108 37h588q94 0 94 -35q0 -39 -12 -100q-6 -27 -99 -27h-6h-604q-34 0 -59 2q-23 0 -23 55zM115 566.5v8v7.5v6q0 26 12 67q9 37 109 37h206l27 199q11 97 51 108q51 15 68 15q55 0 53 -23q-3 -43 -6 -59l-31 -240h219q95 0 95 -35 q0 -33 -13 -100q-2 -10 -12 -16t-31 -8t-29 -2.5t-32 -0.5h-217l-27 -202q-11 -99 -41 -105q-49 -11 -102 -14q-35 0 -23 94l31 227h-225q-35 0 -60 2q-4 0 -7.5 1.5t-5.5 4t-4 5.5t-2.5 7.5t-1.5 7.5t-1 8.5z" />
<glyph unicode="&#xb2;" horiz-adv-x="559" d="M12 618q4 19 10 35t18.5 39t16.5 31q31 58 121 158q111 128 123 147q4 5 15.5 20t16.5 22.5t14.5 21.5t14.5 24t11 24t9 27t3 27q1 20 -7 26.5t-32 8.5q-29 3 -58.5 -8t-49 -26t-37 -27.5t-25.5 -12.5q-23 0 -40.5 19.5t-22.5 42.5q-7 29 35 65.5t75 48.5q43 18 137 25 q28 4 84 -21q48 -23 65 -59.5t9 -95.5q-16 -120 -176 -293q-133 -144 -164 -209q53 6 98 6q25 2 95 -6.5t102 -20.5q1 0 10 -3.5t12 -5t9.5 -5.5t8.5 -8t4 -10.5t1 -14.5q-11 -44 -18 -53q-14 -14 -37 -14q-10 0 -28.5 3.5t-24.5 4.5q-82 14 -107 14q-57 0 -119 -6 q-16 -1 -61 -7.5t-64 -6.5q-21 0 -36 28.5t-11 44.5z" />
<glyph unicode="&#xb3;" horiz-adv-x="559" d="M-16 641q0 42 14 65.5t57 26.5q30 3 44 -16.5t16 -48.5q6 -17 20 -17q77 0 149 71.5t72 145.5q0 15 -5.5 27t-13 19.5t-21.5 13.5t-24 9t-28.5 5t-27 2.5t-28 1t-22.5 0.5q-49 0 -49 70q0 5 1.5 9t5 7.5t6 5.5t8.5 5l8 4t9 3l7 3q24 6 29 8q32 10 56 21t35.5 19t35.5 27 q22 18 33.5 45.5t11.5 45.5q0 11 -10 14q-3 4 -16.5 7t-44.5 -1t-68 -20q-20 -5 -44.5 -17t-25.5 -12q-27 -10 -49 39q-4 12 -4 20q0 21 5.5 30.5t25.5 18.5q91 54 174 54h39q27 0 61 -15q80 -36 80 -125q0 -72 -80 -149q-23 -23 -35 -33q98 -50 98 -176q0 -131 -127 -229 q-116 -90 -231 -90q-62 0 -104.5 25.5t-42.5 80.5z" />
<glyph unicode="&#xb4;" horiz-adv-x="444" d="M205 1212q13 9 30.5 22.5t30.5 22.5l123 89q91 63 123 65q8 0 14 -2q68 -25 115 -59q18 -12 -13 -44.5t-65 -48.5l-137 -69q-116 -57 -152 -45q-9 3 -17 5t-11 3t-8.5 3.5t-14.5 8.5q-48 27 -18 49z" />
<glyph unicode="&#xb5;" horiz-adv-x="952" d="M-74 -348q7 39 12 62.5t8 35t12 40.5t17 56q101 349 152 516q39 130 113 351q0 1 5.5 16.5t7 20t7 19.5t9.5 21.5t10.5 18.5t12.5 18t14 13.5t17 11t19 4.5q39 3 79 -23.5t32 -60.5q-5 -19 -17.5 -51.5t-15.5 -42.5q-7 -18 -35 -90.5t-45.5 -120.5t-33.5 -110t-15 -99 q0 -36 15 -63t48 -27q59 0 138 49q25 15 55 45q43 46 57 92q37 125 119 338q3 6 20.5 49.5t26.5 65.5q13 33 49 33q32 0 66 -27.5t35 -60.5q0 -19 -23 -90.5t-55.5 -160.5t-36.5 -102q-42 -125 -45 -262q-2 -41 0 -84q0 -26 -12 -37.5t-43 -19.5q-14 -4 -36 -7t-44.5 -2 t-26.5 9q-8 7 -13 48.5t-5 70.5q-11 -15 -42.5 -40.5t-50.5 -33.5q-104 -53 -180 -53q-55 0 -100 28q-2 -8 -9.5 -31.5t-9 -29t-7.5 -25.5t-8 -28.5t-7.5 -29t-9 -36.5t-9.5 -42t-12 -54t-14 -63.5t-17 -79.5q-5 -25 -29 -39.5t-61 -6.5l-12 4q-12 4 -25 11t-26.5 17.5 t-20.5 28.5t-4 40z" />
<glyph unicode="&#xb6;" horiz-adv-x="1103" d="M98 938q3 178 217 315q87 53 187 76q21 7 48 11.5t51 6.5t51.5 3t45 1t36 -0.5t20.5 -0.5h4h145h2h68q94 0 94 -35q0 -39 -12 -101q-4 -26 -78 -26q-5 -34 -27 -111q-10 -33 -86 -315q-36 -128 -115.5 -431t-99.5 -376q-4 -17 -11 -42t-9 -34q-5 -21 -19 -35 q-19 -16 -53 -16q-18 5 -32.5 11.5t-23 13t-15 15t-9 15t-4 14.5t-1.5 13t0.5 10t0.5 6q5 38 51 191q13 47 75 271.5t85 303.5q14 50 42 144t50 172t39 147l8 33h-137q-12 -60 -27 -111q-10 -33 -86 -315q-106 -383 -217 -807q-14 -59 -20 -76q-4 -18 -17 -35 q-19 -16 -55 -16q-97 25 -82 98q0 19 49 191q20 66 80.5 288.5t79.5 286.5l2 4h-22q-145 0 -210 69t-63 173zM293 920q0 -42 18.5 -66.5t73.5 -24.5q23 0 47 7q7 24 29.5 96.5t37 123t25.5 99.5l6 27q-110 -30 -173.5 -102.5t-63.5 -159.5z" />
<glyph unicode="&#xb7;" horiz-adv-x="309" d="M82 559q0 38 14 59q3 8 8.5 28t7.5 25.5t9 17t15.5 14.5t23 6.5t35.5 3.5q22 0 32 -5t25 -22q31 -31 31 -57q0 -14 -1 -18.5t-3.5 -11t-4.5 -19.5q0 -20 -12 -62q-4 -22 -22.5 -34.5t-42.5 -12.5q-39 0 -77 25.5t-38 62.5z" />
<glyph unicode="&#xb8;" horiz-adv-x="962" d="M233 -319q0 18 14 36.5t32 18.5q11 0 39.5 -18.5t66 -37t68.5 -18.5q49 0 94 25.5t45 70.5q0 20 -25 45q-8 8 -18.5 13.5t-19.5 8t-21 4t-18.5 2t-17 0t-11.5 -0.5q-20 0 -28 1t-14.5 6.5t-6.5 17.5q0 39 123 172l6.5 6.5t14.5 4t34 -0.5q21 -2 32.5 -9t-1.5 -20 q-4 -15 -82 -104q2 2 8 1.5t13 -1.5l7 -2q54 -5 92 -23q70 -34 70 -96q0 -51 -29 -91.5t-74.5 -64t-95 -35.5t-96.5 -12q-32 0 -76 10t-84.5 34.5t-40.5 56.5z" />
<glyph unicode="&#xb9;" horiz-adv-x="444" d="M70 614q0 16 28 117q37 127 115 377q2 8 8.5 31.5t9.5 34.5l-18 -11q-29 -18 -43 -18q-19 0 -23 2q-13 4 -25.5 26.5t-12.5 36.5q0 8 4.5 17t14.5 17.5t18 15.5t23 15.5t22 12.5t22 11t16 8q5 2 25.5 12.5t33.5 17t31 12.5t29 7q25 2 38 -21t3 -65q-4 -13 -9 -37t-9 -37 q-15 -52 -33 -125q-7 -29 -16 -61.5t-20 -71.5t-17 -61l-54 -183q-1 -2 -10 -39.5t-17 -63t-16 -36.5q-15 -18 -41 -18q-6 0 -18 4q-27 3 -43 24.5t-16 48.5z" />
<glyph unicode="&#xbb;" horiz-adv-x="1009" d="M55 117q0 14 27 36t98 70q101 69 156 120t55 71q0 22 -42.5 84.5t-108.5 126.5q-11 10 -24.5 23t-21.5 20.5t-18 17t-16 15.5t-12.5 13t-10 11.5l-7 9t-4.5 8.5t-1 7q0 29 37 47q43 22 69 22q27 0 66.5 -32.5t120.5 -120.5q65 -71 109 -138.5t44 -93.5q0 -60 -215 -231 q-189 -148 -241 -148q-23 0 -41.5 18.5t-18.5 43.5zM424 117q0 14 27 36t98 70q101 69 156 120t55 71q0 22 -43 84t-109 127q-92 88 -104 103q-10 13 -10 22q0 30 36 47q43 22 70 22q26 0 65.5 -32t120.5 -121q66 -71 110 -138.5t44 -93.5q0 -60 -215 -231 q-189 -148 -242 -148q-23 0 -41 18.5t-18 43.5z" />
<glyph unicode="&#xbc;" horiz-adv-x="1366" d="M117 614q0 16 28 117q37 127 115 377q2 8 9 31t10 35l-19 -11q-29 -18 -43 -18q-18 0 -22 2q-13 4 -26 26.5t-13 36.5q0 8 4.5 17t14.5 17.5t18 15.5t23 15.5t22 12.5t22 11t16 8q5 2 25.5 12.5t33.5 17t31 12.5t29 7q25 2 38 -21t3 -65q-4 -13 -9 -37t-9 -37 q-15 -52 -33 -125q-7 -29 -16 -61.5t-20 -71.5t-17 -61l-53 -183q-1 -2 -10 -39.5t-17 -63t-16 -36.5q-15 -18 -41 -18q-7 0 -19 4q-27 3 -43 24.5t-16 48.5zM260 115q4 17 92 211q29 62 81.5 167.5t90.5 188.5q90 192 224 487q10 21 31.5 71.5t35.5 78.5q16 35 28.5 48 t35.5 13h2q18 0 37.5 -26.5t17.5 -36.5q5 -5 5.5 -22.5t-5.5 -32.5q-6 -13 -16.5 -43t-25.5 -67t-36 -81q-30 -62 -79 -177t-62 -146q-46 -101 -137.5 -295.5t-145.5 -317.5l-21 -49t-16 -37q-9 -20 -26 -37q-19 -16 -56 -12q-83 32 -55 115zM752 334q37 78 73 180 q8 23 19 49t14 35q10 26 18.5 56.5t17 67.5t13.5 56q5 17 8 24t12 14.5t25 10.5q9 3 31 -4.5t31 -17.5q14 -8 14 -29q0 -38 -25 -121t-45 -133l-36 -88t-27 -65q-1 -6 -1 -9t6 -3.5t10.5 -0.5t12 1t11.5 1q41 6 104 11q29 121 56 202q23 67 69 70q25 3 41 -18q15 -18 10 -43 q-2 -7 -4 -18t-4 -17q-11 -39 -24 -94.5t-19 -75.5h47q15 0 26 -2t20 -11.5t6 -25.5q-8 -46 -19 -57l-8 -9q-15 -12 -29 -12q-32 -4 -76 -4q-3 -12 -51 -207q-5 -19 -22.5 -30.5t-44.5 -8.5l-8 4q-56 15 -48 64q4 23 15 61q5 18 35 111q-42 -7 -114.5 -6.5t-107.5 12.5 q-59 21 -32 80z" />
<glyph unicode="&#xbd;" horiz-adv-x="1366" d="M117 614q0 16 28 117q37 127 115 377q2 8 9 31t10 35l-19 -11q-29 -18 -43 -18q-18 0 -22 2q-13 4 -26 26.5t-13 36.5q0 8 4.5 17t14.5 17.5t18 15.5t23 15.5t22 12.5t22 11t16 8q5 2 25.5 12.5t33.5 17t31 12.5t29 7q25 2 38 -21t3 -65q-4 -13 -9 -37t-9 -37 q-15 -52 -33 -125q-7 -29 -16 -61.5t-20 -71.5t-17 -61l-53 -183q-1 -2 -10 -39.5t-17 -63t-16 -36.5q-15 -18 -41 -18q-7 0 -19 4q-27 3 -43 24.5t-16 48.5zM260 115q4 17 92 211q29 62 81.5 167.5t90.5 188.5q90 192 224 487q10 21 31.5 71.5t35.5 78.5q16 35 28.5 48 t35.5 13h2q18 0 37.5 -26.5t17.5 -36.5q5 -5 5.5 -22.5t-5.5 -32.5q-6 -13 -16.5 -43t-25.5 -67t-36 -81q-30 -62 -79 -177t-62 -146q-46 -101 -137.5 -295.5t-145.5 -317.5l-21 -49t-16 -37q-9 -20 -26 -37q-19 -16 -56 -12q-83 32 -55 115zM729 76q4 19 10 35t18.5 38 t16.5 31q31 58 121 158q111 128 123 147q4 5 15.5 20t16.5 22.5t14.5 21.5t14.5 24t11 24t9 27t3 27q1 20 -7 26.5t-32 8.5q-29 3 -58.5 -8t-49 -26t-37 -27.5t-25.5 -12.5q-23 0 -41 19.5t-23 42.5q-7 29 35.5 65.5t75.5 48.5q43 18 137 25q30 4 84 -20q48 -23 65 -60 t9 -96q-16 -120 -176 -293q-133 -144 -164 -209q53 6 98 6q25 2 95 -6t102 -20q1 0 10 -3.5t12 -5t9.5 -5.5t8.5 -8t4 -10.5t1 -14.5q-11 -45 -18 -54q-14 -14 -37 -14q-10 0 -29 3.5t-25 4.5q-88 15 -106 15q-47 0 -119 -7q-16 -1 -61 -7.5t-64 -6.5q-21 0 -36 28.5 t-11 45.5z" />
<glyph unicode="&#xbe;" horiz-adv-x="1466" d="M45 641q0 42 14.5 65.5t57.5 26.5q29 3 43 -16.5t16 -48.5q6 -17 21 -17q77 0 149 71.5t72 145.5q0 15 -5.5 27t-13 19.5t-21.5 13.5t-24 9t-28.5 5t-27 2.5t-28 1t-22.5 0.5q-49 0 -49 70q0 5 1.5 9t5 7.5t6 5.5t8.5 5l8 4t9 3l7 3q21 5 28 8q32 10 56 21t35.5 19 t35.5 27q22 18 33.5 45.5t11.5 45.5q0 11 -10 14q-3 4 -16.5 7t-44.5 -1t-68 -20q-20 -5 -44 -17t-25 -12q-28 -10 -50 39q-4 12 -4 20q0 21 5.5 30.5t25.5 18.5q91 54 174 54h39q27 0 61 -15q80 -36 80 -125q0 -72 -80 -149q-28 -28 -34 -33q98 -50 98 -176 q0 -131 -127 -229q-116 -90 -231 -90q-62 0 -105 25.5t-43 80.5zM383 115q4 17 92 211q29 62 81.5 167.5t90.5 188.5q62 131 223 487q9 20 31.5 71t36.5 79q16 35 28.5 48t34.5 13h3q18 0 37.5 -26.5t17.5 -36.5q5 -5 5.5 -22.5t-5.5 -32.5q-6 -13 -16.5 -43t-25.5 -67 t-36 -81q-30 -62 -79 -177t-62 -146q-46 -101 -137.5 -295.5t-145.5 -317.5l-21 -49t-16 -37q-9 -20 -26 -37q-19 -16 -56 -12q-83 32 -55 115zM874 334q41 86 74 180q8 23 19 49t14 35q10 26 18.5 56.5t17 67.5t13.5 56q5 17 8 24t12 14.5t25 10.5q9 3 31 -4.5t31 -17.5 q14 -8 14 -29q0 -38 -25 -121t-45 -133l-36 -88t-27 -65q-1 -6 -1 -9t6 -3.5t10.5 -0.5t12 1t11.5 1q41 6 104 11q29 121 56 202q23 67 69 70q25 3 41 -18q15 -18 10 -43q-2 -7 -4 -18t-4 -17q-11 -39 -24 -94.5t-19 -75.5h47q15 0 25.5 -2t19.5 -11.5t6 -25.5 q-8 -47 -18 -57l-8 -9q-15 -12 -29 -12q-32 -4 -76 -4q-3 -12 -51 -207q-5 -19 -22.5 -30.5t-44.5 -8.5l-9 4q-25 6 -38 22.5t-9 41.5q4 23 15 61q10 37 34 111q-42 -7 -114 -6.5t-107 12.5q-60 22 -33 80z" />
<glyph unicode="&#xbf;" horiz-adv-x="735" d="M117 115q0 69 33.5 131t83.5 108t101 86.5t93 83.5t53 82q0 1 4.5 12t9.5 25l10 28t7.5 23.5t1.5 10.5q6 79 59 88q21 3 50 -5.5t43 -25.5q5 -6 10 -10.5t7 -5.5t3 -5t0.5 -8t-2.5 -14q-4 -12 -9.5 -37t-6.5 -31q-15 -65 -44.5 -123t-64.5 -99t-73.5 -78.5t-73 -68 t-61.5 -60t-41 -62.5t-9 -68q6 -40 21 -65q18 -30 39 -41t59 -13q53 -1 102.5 15t79.5 36t57 37t39 17q15 0 21.5 -1t13 -6t12.5 -16q19 -13 19 -47q0 -29 -3 -40t-16 -36q-16 -31 -90 -69q-121 -62 -249 -62q-124 0 -206.5 93.5t-82.5 220.5zM580 1024q0 38 14 59q3 9 8 28 t7.5 25t9 17.5t15 14.5t23 6.5t35.5 3.5q22 0 32.5 -5t25.5 -22q30 -30 30 -57q0 -14 -0.5 -18.5t-3 -12t-4.5 -19.5q0 -19 -12 -61q-4 -22 -23 -34.5t-43 -12.5q-39 0 -76.5 25.5t-37.5 62.5z" />
<glyph unicode="&#xc0;" horiz-adv-x="1091" d="M-25 74q0 49 80 229q89 200 154 303q5 9 16.5 26.5t16.5 26.5q130 242 295 428q45 52 68.5 78.5t80 83.5t104 86t84.5 29q28 0 57.5 -16.5t49.5 -40.5q22 -26 44 -84t22 -90q0 -1 5.5 -55t4.5 -58q4 -63 4 -182q0 -359 -74 -787q-3 -14 -14 -28.5t-34 -28.5t-57 -13.5 t-81 17.5q-11 6 -22 17.5t-11 23.5q0 17 5.5 44t6.5 36q14 40 29 188q17 120 27 213l-459 -14q-8 -15 -25 -46.5t-26 -49.5q-53 -99 -129 -318q-8 -23 -13 -38.5t-10 -28.5q-11 -30 -44 -35t-67 8.5t-61 35.5t-27 40zM473 670l381 14l2 18q2 27 2 78q0 30 4 92t4 93 q0 88 -10 149q-4 8 -14 8q-16 0 -53.5 -36.5t-83.5 -93t-73 -92t-50 -66.5q-56 -77 -109 -164zM826 1675.5q-20 33.5 1 42.5q64 26 125 37q34 6 113 -84l92 -104q10 -11 23.5 -27.5t23.5 -28.5q19 -24 -33 -43q-12 -6 -17.5 -7t-15 -1.5t-20.5 -1.5q-40 -4 -131 70l-113 90 q-28 24 -48 57.5z" />
<glyph unicode="&#xc1;" horiz-adv-x="1091" d="M-25 74q0 49 80 229q89 200 154 303q5 9 16.5 26.5t16.5 26.5q130 242 295 428q45 52 68.5 78.5t80 83.5t104 86t84.5 29q28 0 57.5 -16.5t49.5 -40.5q22 -26 44 -84t22 -90q0 -1 5.5 -55t4.5 -58q4 -63 4 -182q0 -359 -74 -787q-3 -14 -14 -28.5t-34 -28.5t-57 -13.5 t-81 17.5q-11 6 -22 17.5t-11 23.5q0 17 5.5 44t6.5 36q14 40 29 188q17 120 27 213l-459 -14q-8 -15 -25 -46.5t-26 -49.5q-53 -99 -129 -318q-8 -23 -13 -38.5t-10 -28.5q-11 -30 -44 -35t-67 8.5t-61 35.5t-27 40zM473 670l381 14l2 18q2 27 2 78q0 30 4 92t4 93 q0 88 -10 149q-4 8 -14 8q-16 0 -53.5 -36.5t-83.5 -93t-73 -92t-50 -66.5q-56 -77 -109 -164zM842 1534q14 9 31 22.5t30 22.5l123 88q85 59 116 65q13 2 21 -1q65 -24 115 -60q18 -12 -13 -44t-65 -48l-137 -70q-116 -57 -152 -45q-9 3 -17 5t-11 3t-8.5 4t-14.5 9 q-48 27 -18 49z" />
<glyph unicode="&#xc2;" horiz-adv-x="1091" d="M-25 74q0 49 80 229q89 200 154 303q5 9 16.5 26.5t16.5 26.5q130 242 295 428q45 52 68.5 78.5t80 83.5t104 86t84.5 29q28 0 57.5 -16.5t49.5 -40.5q22 -26 44 -84t22 -90q0 -1 5.5 -55t4.5 -58q4 -63 4 -182q0 -359 -74 -787q-3 -14 -14 -28.5t-34 -28.5t-57 -13.5 t-81 17.5q-11 6 -22 17.5t-11 23.5q0 17 5.5 44t6.5 36q14 40 29 188q17 120 27 213l-459 -14q-8 -15 -25 -46.5t-26 -49.5q-53 -99 -129 -318q-8 -23 -13 -38.5t-10 -28.5q-11 -30 -44 -35t-67 8.5t-61 35.5t-27 40zM473 670l381 14l2 18q2 27 2 78q0 30 4 92t4 93 q0 88 -10 149q-4 8 -14 8q-16 0 -53.5 -36.5t-83.5 -93t-73 -92t-50 -66.5q-56 -77 -109 -164zM610 1548q14 9 32.5 22.5t31.5 22.5l123 88q9 7 73 48q0 1 18.5 8.5t20.5 7.5q64 18 88 22q5 1 11 0t13 -5t13 -7.5t14 -10.5t13.5 -11t14 -13t12 -13t12 -13t10.5 -11l92 -104 q10 -12 23.5 -27.5t23.5 -27.5q19 -24 -32 -43q-10 -4 -16 -6t-9 -2.5t-11.5 -1t-17.5 -1.5q-46 -5 -131 70l-74 64l-127 -80q-35 -22 -79.5 -37.5t-69.5 -7.5q-9 3 -17.5 4.5t-11.5 2.5t-9 4t-15 9q-45 30 -19 49z" />
<glyph unicode="&#xc3;" horiz-adv-x="1091" d="M-25 74q0 49 80 229q89 200 154 303q5 9 16.5 26.5t16.5 26.5q130 242 295 428q45 52 68.5 78.5t80 83.5t104 86t84.5 29q28 0 57.5 -16.5t49.5 -40.5q22 -26 44 -84t22 -90q0 -1 5.5 -55t4.5 -58q4 -63 4 -182q0 -359 -74 -787q-3 -14 -14 -28.5t-34 -28.5t-57 -13.5 t-81 17.5q-11 6 -22 17.5t-11 23.5q0 17 5.5 44t6.5 36q14 40 29 188q17 120 27 213l-459 -14q-8 -15 -25 -46.5t-26 -49.5q-53 -99 -129 -318q-8 -23 -13 -38.5t-10 -28.5q-11 -30 -44 -35t-67 8.5t-61 35.5t-27 40zM473 670l381 14l2 18q2 27 2 78q0 30 4 92t4 93 q0 88 -10 149q-4 8 -14 8q-16 0 -53.5 -36.5t-83.5 -93t-73 -92t-50 -66.5q-56 -77 -109 -164zM690 1565q1 3 2.5 13t2 12.5t3 10.5t5.5 13.5t8 15t12 21.5q11 17 23 29.5t28 22t26 14.5t31.5 13.5t30.5 12.5q32 14 72 14q25 0 65 -20q18 -9 30.5 -17t29 -20.5t28.5 -20.5 q54 -37 87 -57q40 -24 77 -10q22 13 52 53q4 7 13 21.5t13 23.5q22 33 49.5 10t14.5 -51q-13 -25 -37 -63q-52 -82 -135 -115q-40 -14 -72 -14q-36 0 -66 20q-27 14 -79 49q-59 43 -97 66q-15 10 -35.5 13t-42.5 -5q-25 -13 -49 -53q-21 -33 -26 -45q-17 -20 -32.5 -17 t-25.5 22.5t-6 37.5z" />
<glyph unicode="&#xc4;" horiz-adv-x="1091" d="M-25 74q0 49 80 229q89 200 154 303q5 9 16.5 26.5t16.5 26.5q130 242 295 428q45 52 68.5 78.5t80 83.5t104 86t84.5 29q28 0 57.5 -16.5t49.5 -40.5q22 -26 44 -84t22 -90q0 -1 5.5 -55t4.5 -58q4 -63 4 -182q0 -359 -74 -787q-3 -14 -14 -28.5t-34 -28.5t-57 -13.5 t-81 17.5q-11 6 -22 17.5t-11 23.5q0 17 5.5 44t6.5 36q14 40 29 188q17 120 27 213l-459 -14q-8 -15 -25 -46.5t-26 -49.5q-53 -99 -129 -318q-8 -23 -13 -38.5t-10 -28.5q-11 -30 -44 -35t-67 8.5t-61 35.5t-27 40zM473 670l381 14l2 18q2 27 2 78q0 30 4 92t4 93 q0 88 -10 149q-4 8 -14 8q-16 0 -53.5 -36.5t-83.5 -93t-73 -92t-50 -66.5q-56 -77 -109 -164zM729 1599q0 39 14 60q4 11 9.5 28.5t8 24.5t9 17t15 14t23.5 7t36 3h3q3 0 6 -0.5t8 -1t10 -2t11 -3t11.5 -3.5t11 -4.5t10.5 -6.5t9 -8q6 -6 7.5 -13t0 -21t-1.5 -21 q0 -16 -6 -49q0 -8 -6 -32t-7 -29q-6 -23 -23.5 -35.5t-41.5 -12.5q-39 0 -78 25.5t-39 62.5zM1036 1599q0 37 15 60q4 11 10.5 33t10 28t13.5 17t25.5 13.5t40.5 2.5h3q3 0 6 -0.5t8 -1t10 -2t11 -3t11.5 -3.5t11 -4.5t10.5 -6.5t9 -8q5 -5 7 -11.5t2 -11.5t-0.5 -15.5 t-0.5 -16.5h-2q0 -16 -6 -49q0 -8 -5.5 -32.5t-6.5 -28.5q-6 -23 -24 -35.5t-42 -12.5q-39 0 -78 25.5t-39 62.5z" />
<glyph unicode="&#xc5;" horiz-adv-x="1091" d="M-25 74q0 49 80 229q89 200 154 303q5 9 16.5 26.5t16.5 26.5q130 242 295 428q45 52 68.5 78.5t80 83.5t104 86t84.5 29q28 0 57.5 -16.5t49.5 -40.5q22 -26 44 -84t22 -90q0 -1 5.5 -55t4.5 -58q4 -63 4 -182q0 -359 -74 -787q-3 -14 -14 -28.5t-34 -28.5t-57 -13.5 t-81 17.5q-11 6 -22 17.5t-11 23.5q0 17 5.5 44t6.5 36q14 40 29 188q17 120 27 213l-459 -14q-8 -15 -25 -46.5t-26 -49.5q-53 -99 -129 -318q-8 -23 -13 -38.5t-10 -28.5q-11 -30 -44 -35t-67 8.5t-61 35.5t-27 40zM473 670l381 14l2 18q2 27 2 78q0 30 4 92t4 93 q0 88 -10 149q-4 8 -14 8q-16 0 -53.5 -36.5t-83.5 -93t-73 -92t-50 -66.5q-56 -77 -109 -164zM739 1616q0 62 51 123t130.5 96.5t156.5 26.5q22 -3 37 -9t19.5 -13t6.5 -13.5t0 -10.5l-1 -4q17 0 45.5 -15.5t42.5 -29.5q33 -29 33 -86q0 -69 -50.5 -127.5t-123 -89 t-144.5 -30.5q-83 0 -143 53t-60 129zM854 1610q0 -30 23.5 -57.5t56.5 -30.5q88 -6 147.5 45t59.5 121q0 40 -26.5 63t-70.5 23q-8 0 -28 -5q-159 -36 -162 -159z" />
<glyph unicode="&#xc6;" horiz-adv-x="1566" d="M-20 74q2 49 94 229q111 209 174 303q4 6 17.5 24.5t19.5 28.5q145 239 325 428q6 7 29.5 34.5t38 42t44 40t61 40.5t75 32t99.5 25.5t122 9.5l527 10q94 0 94 -33q0 -38 -12 -100q-6 -29 -105 -29l-360 -8q-17 -64 -21 -76q-14 -48 -40 -145.5t-40 -145.5l262 9h5 q90 0 90 -31q0 -33 -13 -103q-2 -8 -9 -13.5t-21 -8.5t-23 -4t-28.5 -1.5t-22.5 -0.5l-291 -10q-96 -292 -96 -404q0 -25 13.5 -36t33.5 -10t41 1q33 1 62.5 2t46.5 1.5t36 0.5q110 0 189 -8q6 0 23 -1t24.5 -2t21.5 -3t21.5 -5.5t15.5 -9t11.5 -14.5t3.5 -20 q0 -19 -5.5 -49t-13.5 -39q-3 -3 -7.5 -7t-6.5 -6t-5 -4.5t-5.5 -3.5t-6.5 -2t-8 -1.5t-10 -0.5q-30 0 -104 5t-105 5q-65 0 -143 -6q-181 -12 -257.5 25t-76.5 129q0 118 70 360l-424 -12l-58 -96q-57 -97 -151 -318q-25 -63 -27 -67q-13 -30 -46.5 -35t-66 8.5t-57.5 35.5 t-24 40zM518 670l367 14q134 444 139 463q-4 0 -18.5 1.5t-24.5 0.5q-39 -2 -84.5 -30t-87.5 -72.5t-73.5 -83t-63 -81.5t-35.5 -48q-69 -86 -119 -164z" />
<glyph unicode="&#xc7;" horiz-adv-x="989" d="M39 352q0 5 1 15.5t1 15.5q15 181 77.5 330.5t180.5 302.5q262 340 545 340q92 0 151.5 -42t59.5 -130q0 -71 -21 -108.5t-84 -41.5q-74 -4 -82 107q-12 43 -51 43q-47 0 -104.5 -32.5t-110 -84t-92.5 -97.5t-72 -91q-215 -306 -205 -533q3 -74 39 -117q21 -27 60.5 -44 t77.5 -17q42 0 84 8.5t72.5 18.5t73 32t64.5 35t69.5 43.5t66.5 42.5q13 10 31 -3.5t18 -31.5q2 -6 3.5 -14.5t3.5 -30.5t-5 -28q-36 -60 -127 -121q-164 -111 -340 -125q-10 -16 -39.5 -51t-32.5 -39q3 1 8.5 0.5t13.5 -1.5l7 -1q44 0 92 -23q70 -34 70 -96 q0 -51 -29 -91.5t-74.5 -64t-95 -35.5t-96.5 -12q-33 0 -77.5 10t-85 34.5t-40.5 56.5q0 18 14 36.5t31 18.5q12 0 41 -18.5t66.5 -37t68.5 -18.5q49 0 93 25.5t44 70.5q0 23 -22 45q-8 8 -18.5 14t-20 8.5t-21.5 4t-19.5 1.5t-17 -0.5t-10.5 -0.5q-20 0 -28 1t-14.5 6.5 t-6.5 17.5q0 31 97 143q-134 21 -208.5 116.5t-74.5 237.5z" />
<glyph unicode="&#xc8;" horiz-adv-x="993" d="M47 158q0 37 7 85.5t13.5 83t24.5 100.5t23.5 86t29 95t23.5 76q117 385 139 463q-7 0 -20 1t-23 1q-4 0 -7.5 1.5t-5.5 4l-4 5t-2.5 7t-1.5 8t-1 8.5v7.5v7.5v6q0 28 12 68q9 39 108 39l629 10q94 0 94 -33q0 -38 -12 -100q-6 -29 -104 -29l-463 -8q-17 -64 -21 -76 q-14 -48 -39 -145.5t-40 -145.5l262 9h5q18 0 28.5 -0.5t27 -3t25 -9.5t8.5 -18q0 -38 -12 -103q-2 -8 -9 -13.5t-21.5 -8.5t-23.5 -4t-28.5 -1.5t-22.5 -0.5l-291 -10q-96 -292 -96 -404q0 -25 13.5 -36t33.5 -10t41 1q164 4 248 4q109 0 188 -8q6 0 23 -1t24.5 -2t21.5 -3 t21.5 -5.5t15.5 -9t11.5 -14.5t3.5 -20q0 -20 -5 -49.5t-13 -38.5q-3 -3 -7.5 -7t-6.5 -6t-5 -4.5t-5.5 -3.5t-6.5 -2t-8 -1.5t-10 -0.5q-30 0 -104 5t-105 5q-168 0 -246 -6q-181 -12 -257.5 25t-76.5 129zM601 1675.5q-20 33.5 1 42.5q64 26 125 37q34 6 113 -84l92 -104 q10 -11 23.5 -27.5t23.5 -28.5q19 -24 -33 -43q-12 -6 -17.5 -7t-15 -1.5t-20.5 -1.5q-40 -4 -131 70l-113 90q-28 24 -48 57.5z" />
<glyph unicode="&#xc9;" horiz-adv-x="993" d="M47 158q0 37 7 85.5t13.5 83t24.5 100.5t23.5 86t29 95t23.5 76q117 385 139 463q-7 0 -20 1t-23 1q-4 0 -7.5 1.5t-5.5 4l-4 5t-2.5 7t-1.5 8t-1 8.5v7.5v7.5v6q0 28 12 68q9 39 108 39l629 10q94 0 94 -33q0 -38 -12 -100q-6 -29 -104 -29l-463 -8q-17 -64 -21 -76 q-14 -48 -39 -145.5t-40 -145.5l262 9h5q18 0 28.5 -0.5t27 -3t25 -9.5t8.5 -18q0 -38 -12 -103q-2 -8 -9 -13.5t-21.5 -8.5t-23.5 -4t-28.5 -1.5t-22.5 -0.5l-291 -10q-96 -292 -96 -404q0 -25 13.5 -36t33.5 -10t41 1q164 4 248 4q109 0 188 -8q6 0 23 -1t24.5 -2t21.5 -3 t21.5 -5.5t15.5 -9t11.5 -14.5t3.5 -20q0 -20 -5 -49.5t-13 -38.5q-3 -3 -7.5 -7t-6.5 -6t-5 -4.5t-5.5 -3.5t-6.5 -2t-8 -1.5t-10 -0.5q-30 0 -104 5t-105 5q-168 0 -246 -6q-181 -12 -257.5 25t-76.5 129zM555 1534q13 9 30.5 22.5t30.5 22.5l123 88q90 62 122 66 q10 1 16 -2q63 -23 114 -60q18 -12 -13 -44t-65 -48l-137 -70q-116 -56 -151 -45q-39 12 -52 21q-48 27 -18 49z" />
<glyph unicode="&#xca;" horiz-adv-x="993" d="M47 158q0 37 7 85.5t13.5 83t24.5 100.5t23.5 86t29 95t23.5 76q117 385 139 463q-7 0 -20 1t-23 1q-4 0 -7.5 1.5t-5.5 4l-4 5t-2.5 7t-1.5 8t-1 8.5v7.5v7.5v6q0 28 12 68q9 39 108 39l629 10q94 0 94 -33q0 -38 -12 -100q-6 -29 -104 -29l-463 -8q-17 -64 -21 -76 q-14 -48 -39 -145.5t-40 -145.5l262 9h5q18 0 28.5 -0.5t27 -3t25 -9.5t8.5 -18q0 -38 -12 -103q-2 -8 -9 -13.5t-21.5 -8.5t-23.5 -4t-28.5 -1.5t-22.5 -0.5l-291 -10q-96 -292 -96 -404q0 -25 13.5 -36t33.5 -10t41 1q164 4 248 4q109 0 188 -8q6 0 23 -1t24.5 -2t21.5 -3 t21.5 -5.5t15.5 -9t11.5 -14.5t3.5 -20q0 -20 -5 -49.5t-13 -38.5q-3 -3 -7.5 -7t-6.5 -6t-5 -4.5t-5.5 -3.5t-6.5 -2t-8 -1.5t-10 -0.5q-30 0 -104 5t-105 5q-168 0 -246 -6q-181 -12 -257.5 25t-76.5 129zM426 1548q13 9 31 22.5t32 22.5l123 88q5 4 74 48q0 1 18.5 8.5 t20.5 7.5q64 18 88 22q5 1 11 0t13 -5t13 -7.5t14 -10.5t13.5 -11t14 -13t12 -13t12 -13t10.5 -11l92 -104q10 -12 23.5 -27.5t23.5 -27.5q19 -24 -33 -43q-13 -6 -17.5 -7.5t-15 -2t-20.5 -1.5q-46 -5 -131 70l-74 64l-127 -80q-35 -22 -79.5 -37.5t-69.5 -7.5 q-10 3 -18 4.5t-11.5 2.5t-9.5 4t-15 9q-44 30 -18 49z" />
<glyph unicode="&#xcb;" horiz-adv-x="993" d="M47 158q0 37 7 85.5t13.5 83t24.5 100.5t23.5 86t29 95t23.5 76q117 385 139 463q-7 0 -20 1t-23 1q-4 0 -7.5 1.5t-5.5 4l-4 5t-2.5 7t-1.5 8t-1 8.5v7.5v7.5v6q0 28 12 68q9 39 108 39l629 10q94 0 94 -33q0 -38 -12 -100q-6 -29 -104 -29l-463 -8q-17 -64 -21 -76 q-14 -48 -39 -145.5t-40 -145.5l262 9h5q18 0 28.5 -0.5t27 -3t25 -9.5t8.5 -18q0 -38 -12 -103q-2 -8 -9 -13.5t-21.5 -8.5t-23.5 -4t-28.5 -1.5t-22.5 -0.5l-291 -10q-96 -292 -96 -404q0 -25 13.5 -36t33.5 -10t41 1q164 4 248 4q109 0 188 -8q6 0 23 -1t24.5 -2t21.5 -3 t21.5 -5.5t15.5 -9t11.5 -14.5t3.5 -20q0 -20 -5 -49.5t-13 -38.5q-3 -3 -7.5 -7t-6.5 -6t-5 -4.5t-5.5 -3.5t-6.5 -2t-8 -1.5t-10 -0.5q-30 0 -104 5t-105 5q-168 0 -246 -6q-181 -12 -257.5 25t-76.5 129zM524 1599q0 37 15 60q4 11 10.5 33t10 28t13.5 17t25.5 13.5 t40.5 2.5h3q3 0 6 -0.5t8 -1t10 -2t11 -3t11.5 -3.5t11 -4.5t10.5 -6.5t9 -8q6 -6 7.5 -13t0 -21t-1.5 -21q0 -16 -6 -49q0 -8 -5.5 -32.5t-6.5 -28.5q-6 -23 -24 -35.5t-42 -12.5q-39 0 -78 25.5t-39 62.5zM831 1599q0 37 15 60q4 11 10.5 33t10 28t13.5 17t25.5 13.5 t40.5 2.5h3q3 0 6 -0.5t8 -1t10 -2t11 -3t11.5 -3.5t11 -4.5t10.5 -6.5t9 -8q5 -5 7 -11.5t2 -11.5t-0.5 -15.5t-0.5 -16.5h-2q0 -16 -6 -49q0 -8 -5.5 -32.5t-6.5 -28.5q-6 -23 -24 -35.5t-42 -12.5q-39 0 -78 25.5t-39 62.5z" />
<glyph unicode="&#xcc;" horiz-adv-x="522" d="M42 77l1 5q0 22 51 194q15 49 55 188.5t64 219.5q130 444 137 471q15 58 39 137q10 35 21 47.5t39 12.5h4q23 0 56.5 -22t35.5 -30q8 -5 14.5 -20.5t3.5 -28.5q-2 -10 -6 -39.5t-11 -62t-20 -74.5q-17 -55 -46 -165t-42 -154q-20 -74 -82 -299.5t-94 -343.5 q-13 -57 -20 -78q-4 -18 -21 -35q-22 -16 -67 -16q-20 4 -37 9.5t-28.5 12t-20 13t-13 13.5t-8 13t-4 13t-1 10.5t-0.5 8.5zM437 1675.5q-20 33.5 1 42.5q64 26 125 37q34 6 113 -84l92 -104q10 -11 23.5 -27.5t23.5 -28.5q19 -24 -33 -43q-12 -6 -17.5 -7t-15 -1.5 t-20.5 -1.5q-40 -4 -131 70l-113 90q-28 24 -48 57.5z" />
<glyph unicode="&#xcd;" horiz-adv-x="522" d="M42 77l1 5q0 22 51 194q15 49 55 188.5t64 219.5q130 444 137 471q15 58 39 137q10 35 21 47.5t39 12.5h4q23 0 56.5 -22t35.5 -30q8 -5 14.5 -20.5t3.5 -28.5q-2 -10 -6 -39.5t-11 -62t-20 -74.5q-17 -55 -46 -165t-42 -154q-20 -74 -82 -299.5t-94 -343.5 q-13 -57 -20 -78q-4 -18 -21 -35q-22 -16 -67 -16q-20 4 -37 9.5t-28.5 12t-20 13t-13 13.5t-8 13t-4 13t-1 10.5t-0.5 8.5zM391 1534q14 9 31 22.5t31 22.5l122 88q90 62 122 66q10 1 16 -2q63 -23 114 -60q18 -12 -12.5 -44t-64.5 -48l-138 -70q-116 -56 -151 -45 q-9 3 -17 5t-11 3t-8.5 4t-14.5 9q-48 27 -19 49z" />
<glyph unicode="&#xce;" horiz-adv-x="522" d="M42 77l1 5q0 22 51 194q15 49 55 188.5t64 219.5q130 444 137 471q15 58 39 137q10 35 21 47.5t39 12.5h4q23 0 56.5 -22t35.5 -30q8 -5 14.5 -20.5t3.5 -28.5q-2 -10 -6 -39.5t-11 -62t-20 -74.5q-17 -55 -46 -165t-42 -154q-20 -74 -82 -299.5t-94 -343.5 q-13 -57 -20 -78q-4 -18 -21 -35q-22 -16 -67 -16q-20 4 -37 9.5t-28.5 12t-20 13t-13 13.5t-8 13t-4 13t-1 10.5t-0.5 8.5zM221 1548q14 9 32 22.5t32 22.5l123 88q9 7 73 48q0 1 18.5 8.5t20.5 7.5q64 18 88 22q5 1 11 0t13 -5t13 -7.5t14 -10.5t13.5 -11t14 -13t12 -13 t12 -13t10.5 -11l92 -104q10 -12 23.5 -27.5t23.5 -27.5q19 -24 -33 -43q-13 -6 -17.5 -7.5t-15 -2t-20.5 -1.5q-46 -5 -131 70l-74 64l-127 -80q-35 -22 -79.5 -37.5t-69.5 -7.5q-9 3 -17.5 4.5t-11.5 2.5t-9 4t-15 9q-45 30 -19 49z" />
<glyph unicode="&#xcf;" horiz-adv-x="522" d="M42 77l1 5q0 22 51 194q15 49 55 188.5t64 219.5q130 444 137 471q15 58 39 137q10 35 21 47.5t39 12.5h4q23 0 56.5 -22t35.5 -30q8 -5 14.5 -20.5t3.5 -28.5q-2 -10 -6 -39.5t-11 -62t-20 -74.5q-17 -55 -46 -165t-42 -154q-20 -74 -82 -299.5t-94 -343.5 q-13 -57 -20 -78q-4 -18 -21 -35q-22 -16 -67 -16q-20 4 -37 9.5t-28.5 12t-20 13t-13 13.5t-8 13t-4 13t-1 10.5t-0.5 8.5zM299 1599q0 39 14 60q4 11 9.5 28.5t8 24.5t9 17t15 14t23.5 7t36 3h3q3 0 6 -0.5t8 -1t10 -2t11 -3t11.5 -3.5t11 -4.5t10.5 -6.5t9 -8 q6 -6 7.5 -13t0 -21t-1.5 -21q0 -16 -6 -49q0 -8 -6 -32t-7 -29q-6 -23 -23.5 -35.5t-41.5 -12.5q-39 0 -78 25.5t-39 62.5zM606 1599q0 37 15 60q4 11 10.5 33t10 28t13.5 17t25.5 13.5t40.5 2.5h3q3 0 6 -0.5t8 -1t10 -2t11 -3t11.5 -3.5t11 -4.5t10.5 -6.5t9 -8 q5 -5 7 -11.5t2 -11.5t-0.5 -15.5t-0.5 -16.5h-2q0 -16 -6 -49q0 -8 -6 -32t-7 -29q-6 -23 -23.5 -35.5t-41.5 -12.5q-39 0 -78 25.5t-39 62.5z" />
<glyph unicode="&#xd0;" horiz-adv-x="1146" d="M83.5 47.5q-0.5 3.5 0.5 8.5v5q0 45 51 195q63 190 113 356h-31q-34 0 -59 2q-23 0 -23 56q0 26 12 67q9 37 109 37h39q20 67 49 180t43 164q-20 -5 -60 -16t-68 -18t-44 -7q-25 0 -35 14.5t-14 41.5q-6 42 -6 43q0 12 4 32q4 26 14.5 35t38.5 19q2 1 34 14.5t64 23.5 t86 23t131.5 21t169.5 10q230 5 364 -122t134 -358q0 -136 -50 -261.5t-137.5 -225t-193.5 -177t-231 -134.5q-153 -70 -244 -70q-11 0 -61 12q-17 -34 -21 -38q-24 -17 -67 -17q-20 4 -37 9.5t-28.5 12t-20 13t-13 13.5t-8 13t-4 13t-1 10.5zM315 197q83 9 183 45 q85 33 173 94.5t162.5 139.5t124.5 173.5t56 186.5q3 51 -5 96.5t-42 126.5q-29 52 -110 80t-150 28q-49 0 -113 -6q-5 -31 -27 -106q-12 -39 -30.5 -124t-38.5 -157h120q95 0 95 -35q0 -33 -13 -100q-2 -10 -12 -16t-31 -8t-29 -2.5t-32 -0.5h-145q-24 -79 -69.5 -211.5 t-66.5 -203.5z" />
<glyph unicode="&#xd1;" horiz-adv-x="1175" d="M-1 57.5q0 7.5 1 16.5l2 8q0 22 51 194q15 49 55 188.5t64 219.5q130 444 137 471q15 58 39 137q10 35 21 47.5t39 12.5h4l80 -2q28 0 38.5 -12.5t20.5 -47.5q24 -79 39 -137q48 -177 125 -442q21 -69 51 -209t39 -211q11 38 47 186t45 180q55 207 83.5 322.5t45.5 175.5 q15 58 39 137q10 35 20.5 47.5t38.5 12.5h4q23 0 57 -22t36 -30q8 -5 14.5 -20.5t3.5 -28.5q-2 -10 -6 -39.5t-11 -62t-20 -74.5q-17 -55 -46 -165t-42 -154q-20 -74 -82 -299.5t-94 -343.5q-13 -57 -20 -78q-4 -18 -21 -35q-17 -12 -68 -16q-23 1 -36.5 -1t-26 2t-18.5 5 t-13 6.5t-9 8t-7 10t-8 10.5q-17 17 -21 34q-7 21 -20 78q-149 554 -150 559q-9 35 -32 173t-31 167q-4 -18 -20 -83.5t-30.5 -125t-21.5 -86.5q-23 -87 -88.5 -317.5t-87.5 -310.5q-11 -48 -21 -78q-4 -19 -20 -35q-22 -16 -68 -16q-30 6 -51 15.5t-31 18.5t-14.5 20.5 t-4.5 19zM526 1565q1 3 2.5 13t2 12.5t3 10.5t5.5 13.5t8 15t12 21.5q11 17 23 29.5t28 22t26 14.5t31.5 13.5t30.5 12.5q32 14 72 14q26 0 66 -20q18 -9 30.5 -17t29 -20.5t28.5 -20.5q61 -42 86 -57q40 -24 77 -10q22 13 52 53q4 7 13 21.5t13 23.5q22 33 49.5 10 t14.5 -51q-13 -25 -37 -63q-52 -82 -135 -115q-40 -14 -72 -14q-35 0 -65 20q-31 16 -80 49q-58 43 -97 66q-38 25 -77 8q-26 -14 -50 -53q-21 -33 -26 -45q-17 -20 -32.5 -17t-25.5 22.5t-6 37.5z" />
<glyph unicode="&#xd2;" horiz-adv-x="1046" d="M80 467q0 332 176 592q60 89 115 144.5t139 109.5q35 22 83 41.5t81 19.5q126 0 203 -69q20 -17 20 -76q10 11 36 9.5t44 -15.5q100 -84 100 -375q0 -281 -162 -547q-41 -66 -89.5 -123t-109 -106.5t-133.5 -78t-149 -28.5q-67 0 -127.5 30.5t-103.5 80.5t-72 111.5 t-39 125.5q-12 82 -12 154zM281 436q0 -57 18 -149q16 -47 46.5 -76.5t64.5 -38.5t62.5 -9t49.5 7q79 26 149 109.5t115 187.5t71 211t26 188q0 42 -10 89.5t-29.5 94.5t-56 78t-82.5 31q-12 0 -53 -5t-44 -9q-10 -4 -21 -9.5t-19 -10.5t-18.5 -14t-16.5 -14t-17.5 -16.5 t-15.5 -16l-16 -18t-15 -16.5q-97 -108 -142.5 -263.5t-45.5 -330.5zM744 1676q-20 33 1 42q64 26 125 37q34 6 113 -84l92 -104q10 -11 23.5 -27.5t23.5 -28.5q19 -24 -32 -43q-10 -4 -16 -6t-9.5 -2t-11.5 -0.5t-17 -1.5q-40 -4 -131 70l-112 90q-29 25 -49 58z" />
<glyph unicode="&#xd3;" horiz-adv-x="1046" d="M80 467q0 332 176 592q60 89 115 144.5t139 109.5q35 22 83 41.5t81 19.5q126 0 203 -69q20 -17 20 -76q10 11 36 9.5t44 -15.5q100 -84 100 -375q0 -281 -162 -547q-41 -66 -89.5 -123t-109 -106.5t-133.5 -78t-149 -28.5q-67 0 -127.5 30.5t-103.5 80.5t-72 111.5 t-39 125.5q-12 82 -12 154zM281 436q0 -57 18 -149q16 -47 46.5 -76.5t64.5 -38.5t62.5 -9t49.5 7q79 26 149 109.5t115 187.5t71 211t26 188q0 42 -10 89.5t-29.5 94.5t-56 78t-82.5 31q-12 0 -53 -5t-44 -9q-10 -4 -21 -9.5t-19 -10.5t-18.5 -14t-16.5 -14t-17.5 -16.5 t-15.5 -16l-16 -18t-15 -16.5q-97 -108 -142.5 -263.5t-45.5 -330.5zM637 1534q14 9 31 22.5t30 22.5l123 88q85 59 116 65q13 2 21 -1q65 -24 115 -60q18 -12 -13 -44t-65 -48l-137 -70q-116 -56 -151 -45q-39 12 -52 21q-48 27 -18 49z" />
<glyph unicode="&#xd4;" horiz-adv-x="1046" d="M80 467q0 332 176 592q60 89 115 144.5t139 109.5q35 22 83 41.5t81 19.5q126 0 203 -69q20 -17 20 -76q10 11 36 9.5t44 -15.5q100 -84 100 -375q0 -281 -162 -547q-41 -66 -89.5 -123t-109 -106.5t-133.5 -78t-149 -28.5q-67 0 -127.5 30.5t-103.5 80.5t-72 111.5 t-39 125.5q-12 82 -12 154zM281 436q0 -57 18 -149q16 -47 46.5 -76.5t64.5 -38.5t62.5 -9t49.5 7q79 26 149 109.5t115 187.5t71 211t26 188q0 42 -10 89.5t-29.5 94.5t-56 78t-82.5 31q-12 0 -53 -5t-44 -9q-10 -4 -21 -9.5t-19 -10.5t-18.5 -14t-16.5 -14t-17.5 -16.5 t-15.5 -16l-16 -18t-15 -16.5q-97 -108 -142.5 -263.5t-45.5 -330.5zM487 1548q14 9 32.5 22.5t31.5 22.5l123 88q5 4 74 48q0 1 18 8.5t20 7.5q64 18 88 22q5 1 11 0t13 -5t13 -7.5t14 -10.5t13.5 -11t14 -13t12 -13t12 -13t10.5 -11l92 -104q10 -12 23.5 -27.5t23.5 -27.5 q19 -24 -32 -43q-10 -4 -16 -6t-9 -2.5t-11.5 -1t-17.5 -1.5q-46 -5 -131 70l-73 64l-127 -80q-35 -22 -80 -37.5t-70 -7.5q-9 3 -17.5 4.5t-11.5 2.5t-9 4t-15 9q-45 30 -19 49z" />
<glyph unicode="&#xd5;" horiz-adv-x="1046" d="M80 467q0 332 176 592q60 89 115 144.5t139 109.5q35 22 83 41.5t81 19.5q126 0 203 -69q20 -17 20 -76q10 11 36 9.5t44 -15.5q100 -84 100 -375q0 -281 -162 -547q-41 -66 -89.5 -123t-109 -106.5t-133.5 -78t-149 -28.5q-67 0 -127.5 30.5t-103.5 80.5t-72 111.5 t-39 125.5q-12 82 -12 154zM281 436q0 -57 18 -149q16 -47 46.5 -76.5t64.5 -38.5t62.5 -9t49.5 7q79 26 149 109.5t115 187.5t71 211t26 188q0 42 -10 89.5t-29.5 94.5t-56 78t-82.5 31q-12 0 -53 -5t-44 -9q-10 -4 -21 -9.5t-19 -10.5t-18.5 -14t-16.5 -14t-17.5 -16.5 t-15.5 -16l-16 -18t-15 -16.5q-97 -108 -142.5 -263.5t-45.5 -330.5zM465 1565q1 3 2.5 13t2 12.5t3 10.5t5.5 13.5t8 15t12 21.5q11 17 23 29.5t28 22t26 14.5t31.5 13.5t30.5 12.5q32 14 72 14q25 0 65 -20q18 -9 30.5 -17t29 -20.5t28.5 -20.5q61 -42 86 -57 q40 -24 78 -10q20 12 51 53q4 8 13.5 22t13.5 23q22 33 49 10t14 -51q-13 -25 -37 -63q-52 -82 -135 -115q-40 -14 -71 -14q-36 0 -66 20q-31 16 -80 49q-63 46 -96 66q-15 10 -35.5 13t-42.5 -5q-25 -13 -49 -53q-24 -39 -27 -45q-17 -20 -32 -17t-25 22.5t-6 37.5z" />
<glyph unicode="&#xd6;" horiz-adv-x="1046" d="M80 467q0 332 176 592q60 89 115 144.5t139 109.5q35 22 83 41.5t81 19.5q126 0 203 -69q20 -17 20 -76q10 11 36 9.5t44 -15.5q100 -84 100 -375q0 -281 -162 -547q-41 -66 -89.5 -123t-109 -106.5t-133.5 -78t-149 -28.5q-67 0 -127.5 30.5t-103.5 80.5t-72 111.5 t-39 125.5q-12 82 -12 154zM281 436q0 -57 18 -149q16 -47 46.5 -76.5t64.5 -38.5t62.5 -9t49.5 7q79 26 149 109.5t115 187.5t71 211t26 188q0 42 -10 89.5t-29.5 94.5t-56 78t-82.5 31q-12 0 -53 -5t-44 -9q-10 -4 -21 -9.5t-19 -10.5t-18.5 -14t-16.5 -14t-17.5 -16.5 t-15.5 -16l-16 -18t-15 -16.5q-97 -108 -142.5 -263.5t-45.5 -330.5zM586 1599q0 39 14 60q4 11 10.5 33t10 28t13.5 17t25.5 13.5t40.5 2.5h3q3 0 6 -0.5t8 -1t10 -2t11 -3t11.5 -3.5t11 -4.5t10.5 -6.5t9 -8q6 -6 7.5 -13t0 -21t-1.5 -21q0 -16 -6 -49q0 -8 -5.5 -32.5 t-6.5 -28.5q-6 -23 -24 -35.5t-42 -12.5q-39 0 -77.5 25.5t-38.5 62.5zM893 1599q0 39 14 60q4 11 9.5 28.5t8 24.5t9 17t15 14t23.5 7t36 3h3q3 0 6 -0.5t8 -1t10 -2t10.5 -3t11 -3.5t11 -4.5t10.5 -6.5t9 -8q5 -5 7.5 -11.5t2.5 -11t-0.5 -16t-0.5 -16.5h-2 q0 -11 -0.5 -16t-1 -7t-2 -9t-3.5 -17q0 -8 -5.5 -32.5t-6.5 -28.5q-6 -23 -23.5 -35.5t-41.5 -12.5q-39 0 -78 25.5t-39 62.5z" />
<glyph unicode="&#xd7;" horiz-adv-x="1032" d="M133 311q-14 41 62 111l202 190l-151 203q-56 76 -31 107q3 4 11 14.5t11.5 14.5t10.5 11t16 13q1 1 4.5 3.5t5.5 4t6 4t7 4l7 3.5t7 3t6.5 2t6.5 0.5t5.5 -2t4.5 -4.5q5 -6 34 -43l162 -215l223 211q56 51 77 53q10 -1 16 -8q22 -29 45 -86q10 -26 -64 -100l-207 -193 l158 -211q2 -2 7.5 -9.5t8 -11t7.5 -11t7.5 -12t6 -11t4.5 -11.5t1.5 -10.5t-1 -10.5t-4.5 -9q-38 -43 -78 -74q-31 -26 -82 48l-158 213l-233 -222q-10 -9 -23.5 -22.5t-23.5 -22.5q-4 -3 -8 -4t-8 0.5t-7.5 3.5t-8 6.5t-6.5 7l-6 7.5t-5 6q-11 16 -25 59z" />
<glyph unicode="&#xd8;" horiz-adv-x="1046" d="M-51 -72q-39 49 31 133q35 46 135 162q-19 59 -23 90q-12 82 -12 154q0 332 176 592q60 89 115 144.5t139 109.5q35 22 83 41.5t81 19.5q126 0 203 -69q20 -17 20 -76q10 11 36 9.5t44 -15.5l4 -4q87 102 106 124q32 37 49 50t31 10h2q12 -5 9 -35t-9 -41 q0 -6 -10.5 -26.5t-21.5 -34.5q-16 -18 -49.5 -60.5t-53.5 -66.5q43 -105 43 -291q0 -281 -162 -547q-41 -66 -89.5 -123t-109 -106.5t-133.5 -78t-149 -28.5q-82 0 -151.5 44.5t-118.5 117.5l-53 -66q-15 -19 -41.5 -48.5t-34.5 -41.5q-13 -15 -41 -37q-20 -14 -45 -6z M281 416l284 327q47 54 136.5 155.5t138.5 158.5q-48 102 -135 102q-12 0 -53 -5t-44 -9q-10 -4 -21 -9.5t-19 -10.5t-18.5 -14t-16.5 -14t-17.5 -16.5t-15.5 -16l-16 -18t-15 -16.5q-97 -108 -142.5 -263.5t-45.5 -330.5v-20zM299 285q17 -46 47.5 -75t64 -38t62 -9t49.5 7 q79 26 149 109.5t115 187.5t71 211t26 188q0 40 -9 86q-64 -71 -139 -161q-184 -213 -436 -506z" />
<glyph unicode="&#xd9;" horiz-adv-x="1069" d="M86 365q0 189 68.5 432t164.5 446q1 2 10.5 23.5t17.5 35t15 19.5q23 18 74 18q35 0 67 -17.5t32 -49.5q0 -18 -52 -148q-194 -492 -194 -770q0 -96 33 -123q25 -41 88 -41q11 0 20 3q92 19 192.5 120.5t151.5 202.5q126 248 172 549q1 7 2 22.5t2 22.5q4 55 4 141 q0 62 74 76q20 4 45 4q1 0 7 -1t7 -1q36 -11 46 -61q4 -19 5 -40t0.5 -36.5t-1 -43.5t-0.5 -48v-13q-15 -167 -62 -333q-29 -103 -70.5 -202.5t-106 -202.5t-140 -180t-176.5 -126t-211 -49q-73 0 -129.5 32.5t-89.5 87t-49.5 118.5t-16.5 133zM642 1675.5q-20 33.5 1 42.5 q64 26 125 37q34 6 113 -84l92 -104q10 -11 23.5 -27.5t23.5 -28.5q19 -24 -33 -43q-12 -6 -17.5 -7t-15 -1.5t-20.5 -1.5q-40 -4 -131 70l-113 90q-28 24 -48 57.5z" />
<glyph unicode="&#xda;" horiz-adv-x="1069" d="M86 365q0 189 68.5 432t164.5 446q1 2 10.5 23.5t17.5 35t15 19.5q23 18 74 18q35 0 67 -17.5t32 -49.5q0 -18 -52 -148q-194 -492 -194 -770q0 -96 33 -123q25 -41 88 -41q11 0 20 3q92 19 192.5 120.5t151.5 202.5q126 248 172 549q1 7 2 22.5t2 22.5q4 55 4 141 q0 62 74 76q20 4 45 4q1 0 7 -1t7 -1q36 -11 46 -61q4 -19 5 -40t0.5 -36.5t-1 -43.5t-0.5 -48v-13q-15 -167 -62 -333q-29 -103 -70.5 -202.5t-106 -202.5t-140 -180t-176.5 -126t-211 -49q-73 0 -129.5 32.5t-89.5 87t-49.5 118.5t-16.5 133zM575 1534q14 9 31.5 22.5 t30.5 22.5l123 88q85 59 116 65q13 2 21 -1q65 -24 115 -60q18 -12 -13 -44t-65 -48l-137 -70q-116 -57 -152 -45q-9 3 -17 5t-11 3t-8.5 4t-14.5 9q-48 27 -19 49z" />
<glyph unicode="&#xdb;" horiz-adv-x="1069" d="M86 365q0 189 68.5 432t164.5 446q1 2 10.5 23.5t17.5 35t15 19.5q23 18 74 18q35 0 67 -17.5t32 -49.5q0 -18 -52 -148q-194 -492 -194 -770q0 -96 33 -123q25 -41 88 -41q11 0 20 3q92 19 192.5 120.5t151.5 202.5q126 248 172 549q1 7 2 22.5t2 22.5q4 55 4 141 q0 62 74 76q20 4 45 4q1 0 7 -1t7 -1q36 -11 46 -61q4 -19 5 -40t0.5 -36.5t-1 -43.5t-0.5 -48v-13q-15 -167 -62 -333q-29 -103 -70.5 -202.5t-106 -202.5t-140 -180t-176.5 -126t-211 -49q-73 0 -129.5 32.5t-89.5 87t-49.5 118.5t-16.5 133zM487 1548q14 9 32.5 22.5 t31.5 22.5l123 88q5 4 74 48q0 1 18 8.5t20 7.5q64 18 88 22q5 1 11 0t13 -5t13 -7.5t14 -10.5t13.5 -11t14 -13t12 -13t12 -13t10.5 -11l92 -104q10 -12 23.5 -27.5t23.5 -27.5q19 -24 -32 -43q-10 -4 -16 -6t-9 -2.5t-11.5 -1t-17.5 -1.5q-46 -5 -131 70l-73 64l-127 -80 q-35 -22 -80 -37.5t-70 -7.5q-9 3 -17.5 4.5t-11.5 2.5t-9 4t-15 9q-45 30 -19 49z" />
<glyph unicode="&#xdc;" horiz-adv-x="1069" d="M86 365q0 189 68.5 432t164.5 446q1 2 10.5 23.5t17.5 35t15 19.5q23 18 74 18q35 0 67 -17.5t32 -49.5q0 -18 -52 -148q-194 -492 -194 -770q0 -96 33 -123q25 -41 88 -41q11 0 20 3q92 19 192.5 120.5t151.5 202.5q126 248 172 549q1 7 2 22.5t2 22.5q4 55 4 141 q0 62 74 76q20 4 45 4q1 0 7 -1t7 -1q36 -11 46 -61q4 -19 5 -40t0.5 -36.5t-1 -43.5t-0.5 -48v-13q-15 -167 -62 -333q-29 -103 -70.5 -202.5t-106 -202.5t-140 -180t-176.5 -126t-211 -49q-73 0 -129.5 32.5t-89.5 87t-49.5 118.5t-16.5 133zM565 1599q0 37 15 60 q4 11 10.5 33t10 28t13.5 17t25.5 13.5t40.5 2.5h3q3 0 6 -0.5t8 -1t10 -2t11 -3t11.5 -3.5t11 -4.5t10.5 -6.5t9 -8q6 -6 7.5 -13t0 -21t-1.5 -21q0 -16 -6 -49q0 -8 -5.5 -32.5t-6.5 -28.5q-6 -23 -24 -35.5t-42 -12.5q-39 0 -78 25.5t-39 62.5zM872 1599q0 37 15 60 q4 11 10.5 33t10 28t13.5 17t25.5 13.5t40.5 2.5h3q3 0 6 -0.5t8 -1t10 -2t11 -3t11.5 -3.5t11 -4.5t10.5 -6.5t9 -8q5 -5 7 -11.5t2 -11.5t-0.5 -15.5t-0.5 -16.5h-2q0 -16 -6 -49q0 -8 -5.5 -32.5t-6.5 -28.5q-6 -23 -24 -35.5t-42 -12.5q-39 0 -78 25.5t-39 62.5z" />
<glyph unicode="&#xdd;" horiz-adv-x="1001" d="M137.5 1238q-0.5 12 9.5 36q27 33 53.5 50t46.5 16t32 -5.5t20 -11.5q130 -347 156 -422q3 -7 18.5 -42t18.5 -42q6 -15 10 -23t12.5 -18t18.5 -10.5t26.5 7.5t36.5 28q90 95 248 327q15 23 63.5 88.5t63.5 88.5q24 34 43 34q32 0 64 -19.5t36 -57.5q0 -36 -16 -72 q-44 -86 -200 -293t-271 -346q-66 -234 -119 -438q-11 -48 -21 -78q-4 -19 -20 -35q-22 -16 -68 -16q-20 4 -37 9.5t-28 12t-19.5 13t-13.5 13.5t-8 13t-4 12.5t-1 10.5v9l1 5q0 22 51 194q14 46 80 275q-106 186 -129 268q-3 10 -16.5 36t-16.5 36q-100 289 -108 307 q-12 28 -12.5 40zM453 1534q13 9 30.5 22.5t30.5 22.5l123 88q85 59 116 65q13 2 21 -1q65 -24 115 -60q18 -12 -13 -44t-65 -48l-137 -70q-116 -57 -152 -45q-9 3 -17 5t-11 3t-8.5 4t-14.5 9q-48 27 -18 49z" />
<glyph unicode="&#xde;" horiz-adv-x="1163" d="M96 918q0 16 2 22q8 27 41 39q27 12 59 20.5t73.5 17t60.5 13.5q4 2 11.5 3.5t18 3.5t17.5 3q21 68 33 115q15 58 39 137q10 35 20.5 47.5t38.5 12.5h4q23 0 56.5 -22t35.5 -30q8 -5 15 -20.5t4 -28.5q-2 -10 -5.5 -39.5t-10.5 -62t-21 -74.5l-4 -12q27 0 125 -8 q74 -6 144.5 -30t132 -64.5t101 -105.5t43.5 -144q10 -163 -163 -305q-58 -50 -166 -98.5t-248 -61.5q-21 -2 -36.5 12t-21.5 36.5t-5.5 46t12.5 43t33 24.5q171 26 291 121.5t114 199.5q-1 34 -30 62t-72.5 43.5t-82 24t-71.5 11.5q-59 5 -154 2q-5 -19 -15 -57.5 t-15 -58.5q-20 -74 -82 -299.5t-94 -343.5q-11 -48 -21 -78q-4 -19 -20 -35q-22 -16 -68 -16q-20 4 -37 9.5t-28.5 12t-20 13t-13 13.5t-8 13t-4 13t-1 10.5t0.5 8.5v5q0 19 52 194q16 53 55 191.5t63 216.5q2 8 48 154l-109 -33q-5 -1 -20.5 -5t-21 -3t-18 6t-23.5 22 t-24 45q-10 27 -10 48z" />
<glyph unicode="&#xdf;" horiz-adv-x="925" d="M-14 29q3 23 10 55q3 13 23 94.5t26 108.5q26 128 152 577q10 33 51 180q29 95 94 154q48 42 132.5 78.5t191.5 36.5h65q44 0 103 -23q127 -56 127 -198q0 -111 -134 -242q-30 -30 -36 -35q-7 -6 -23 -18.5t-23 -18.5q92 -38 138.5 -117.5t46.5 -179.5q0 -215 -213 -379 q-121 -91 -246 -129q-14 -4 -33 7.5t-33.5 31.5t-22.5 43t2.5 44.5t39.5 31.5q123 42 217 152.5t94 220.5q0 42 -10.5 71t-26.5 44t-44 22.5t-52.5 9t-61.5 2.5h-6.5h-5.5h-6h-14q-70 0 -70 103q0 50 33 61q83 27 128 52t97 67q41 33 62.5 83.5t21.5 82.5q0 33 -24 41 q-6 6 -27 12t-74 2.5t-114 -27.5q-32 -12 -54.5 -29.5t-35 -39.5t-17 -33t-10.5 -31q-146 -484 -223 -829q-19 -81 -35 -131q-11 -31 -37 -37q-9 -3 -31 -5.5t-48.5 -3t-45.5 9t-18 28.5z" />
<glyph unicode="&#xe0;" horiz-adv-x="872" d="M35 283q0 28 8 90q22 149 115 262q10 12 35 37q97 97 256 162q51 20 104 28q41 7 85.5 -8.5t59.5 -36.5q2 -3 4.5 -5.5t5 -4t3.5 -2.5q11 11 34 45q19 31 41 31q15 0 38.5 -11.5t35.5 -23.5q27 -24 27 -62q-9 -36 -27 -75q-52 -113 -88 -232q-60 -204 -76 -381 q-4 -62 -6 -69q-4 -26 -17 -35.5t-40 -9.5q-54 0 -84 24q-43 26 -37 111q-7 -1 -57.5 -29.5t-61.5 -28.5q-3 0 -14 -8q-72 -35 -135 -35q-25 0 -58 11q-29 5 -59 32q-78 68 -90 183q-2 14 -2 41zM221 289q0 -34 8 -53q8 -41 68 -41q15 0 55 8q43 14 92 41q5 3 15.5 8t15.5 8 q26 15 53.5 50t38.5 83q35 140 80 260q3 9 8 29q0 2 -2 2q-62 -5 -84 -14q-109 -20 -209 -95q-12 -10 -34 -32q-74 -74 -97 -189q-8 -50 -8 -65zM458 1178q-20 34 1 43q59 24 125 36q34 6 112 -83l92 -105q10 -12 24 -27.5t24 -27.5q19 -24 -33 -43q-12 -6 -17.5 -7 t-15 -1.5t-20.5 -1.5q-42 -4 -132 69l-112 90q-28 24 -48 58z" />
<glyph unicode="&#xe1;" horiz-adv-x="872" d="M35 283q0 28 8 90q22 149 115 262q10 12 35 37q97 97 256 162q51 20 104 28q41 7 85.5 -8.5t59.5 -36.5q2 -3 4.5 -5.5t5 -4t3.5 -2.5q11 11 34 45q19 31 41 31q15 0 38.5 -11.5t35.5 -23.5q27 -24 27 -62q-9 -36 -27 -75q-52 -113 -88 -232q-60 -204 -76 -381 q-4 -62 -6 -69q-4 -26 -17 -35.5t-40 -9.5q-54 0 -84 24q-43 26 -37 111q-7 -1 -57.5 -29.5t-61.5 -28.5q-3 0 -14 -8q-72 -35 -135 -35q-25 0 -58 11q-29 5 -59 32q-78 68 -90 183q-2 14 -2 41zM221 289q0 -34 8 -53q8 -41 68 -41q15 0 55 8q43 14 92 41q5 3 15.5 8t15.5 8 q26 15 53.5 50t38.5 83q35 140 80 260q3 9 8 29q0 2 -2 2q-62 -5 -84 -14q-109 -20 -209 -95q-12 -10 -34 -32q-74 -74 -97 -189q-8 -50 -8 -65zM430 1069q14 9 31 22.5t31 22.5l122 88q90 62 122 66q10 1 16 -2q63 -23 114 -60q18 -12 -13 -44t-65 -48l-137 -70 q-116 -56 -151 -45q-9 3 -17 5t-11 3t-8.5 4t-14.5 9q-48 27 -19 49z" />
<glyph unicode="&#xe2;" horiz-adv-x="872" d="M35 283q0 28 8 90q22 149 115 262q10 12 35 37q97 97 256 162q51 20 104 28q41 7 85.5 -8.5t59.5 -36.5q2 -3 4.5 -5.5t5 -4t3.5 -2.5q11 11 34 45q19 31 41 31q15 0 38.5 -11.5t35.5 -23.5q27 -24 27 -62q-9 -36 -27 -75q-52 -113 -88 -232q-60 -204 -76 -381 q-4 -62 -6 -69q-4 -26 -17 -35.5t-40 -9.5q-54 0 -84 24q-43 26 -37 111q-7 -1 -57.5 -29.5t-61.5 -28.5q-3 0 -14 -8q-72 -35 -135 -35q-25 0 -58 11q-29 5 -59 32q-78 68 -90 183q-2 14 -2 41zM221 289q0 -34 8 -53q8 -41 68 -41q15 0 55 8q43 14 92 41q5 3 15.5 8t15.5 8 q26 15 53.5 50t38.5 83q35 140 80 260q3 9 8 29q0 2 -2 2q-62 -5 -84 -14q-109 -20 -209 -95q-12 -10 -34 -32q-74 -74 -97 -189q-8 -50 -8 -65zM315 1067q13 9 32 22.5t32 22.5l123 88q2 2 73 47q0 1 18.5 9t20.5 8q64 18 88 22q5 1 11 0t13 -5t13 -7.5t14 -10.5t13.5 -11 t14 -13t12 -13t12 -13t10.5 -11l92 -104q10 -12 23.5 -28.5t23.5 -27.5q19 -24 -32 -43q-10 -4 -16 -6t-9.5 -2t-11.5 -0.5t-17 -1.5q-46 -5 -131 70l-73 63l-127 -80q-35 -22 -80 -37.5t-70 -7.5q-9 3 -17.5 5t-11.5 2.5t-9 4t-15 9.5q-45 30 -19 49z" />
<glyph unicode="&#xe3;" horiz-adv-x="872" d="M35 283q0 28 8 90q22 149 115 262q10 12 35 37q97 97 256 162q51 20 104 28q41 7 85.5 -8.5t59.5 -36.5q2 -3 4.5 -5.5t5 -4t3.5 -2.5q11 11 34 45q19 31 41 31q15 0 38.5 -11.5t35.5 -23.5q27 -24 27 -62q-9 -36 -27 -75q-52 -113 -88 -232q-60 -204 -76 -381 q-4 -62 -6 -69q-4 -26 -17 -35.5t-40 -9.5q-54 0 -84 24q-43 26 -37 111q-7 -1 -57.5 -29.5t-61.5 -28.5q-3 0 -14 -8q-72 -35 -135 -35q-25 0 -58 11q-29 5 -59 32q-78 68 -90 183q-2 14 -2 41zM221 289q0 -34 8 -53q8 -41 68 -41q15 0 55 8q43 14 92 41q5 3 15.5 8t15.5 8 q26 15 53.5 50t38.5 83q35 140 80 260q3 9 8 29q0 2 -2 2q-62 -5 -84 -14q-109 -20 -209 -95q-12 -10 -34 -32q-74 -74 -97 -189q-8 -50 -8 -65zM281 1069q4 10 7 14.5t11 17.5t20 32q48 77 134 114q35 15 71 15q24 0 66 -21q18 -9 30 -16.5t29.5 -20.5t28.5 -20 q72 -50 86 -58q40 -24 78 -10q20 12 51 53q4 8 13.5 22t13.5 23q22 33 49 10.5t14 -50.5q-16 -31 -37 -64q-52 -82 -135 -115q-40 -14 -72 -14q-35 0 -65 20q-25 13 -80 50q-56 41 -96 65q-15 10 -35.5 13t-42.5 -5q-25 -13 -49 -53q-24 -39 -27 -45q-17 -20 -33.5 -16 t-27 23.5t-2.5 35.5z" />
<glyph unicode="&#xe4;" horiz-adv-x="872" d="M35 283q0 28 8 90q22 149 115 262q10 12 35 37q97 97 256 162q51 20 104 28q41 7 85.5 -8.5t59.5 -36.5q2 -3 4.5 -5.5t5 -4t3.5 -2.5q11 11 34 45q19 31 41 31q15 0 38.5 -11.5t35.5 -23.5q27 -24 27 -62q-9 -36 -27 -75q-52 -113 -88 -232q-60 -204 -76 -381 q-4 -62 -6 -69q-4 -26 -17 -35.5t-40 -9.5q-54 0 -84 24q-43 26 -37 111q-7 -1 -57.5 -29.5t-61.5 -28.5q-3 0 -14 -8q-72 -35 -135 -35q-25 0 -58 11q-29 5 -59 32q-78 68 -90 183q-2 14 -2 41zM221 289q0 -34 8 -53q8 -41 68 -41q15 0 55 8q43 14 92 41q5 3 15.5 8t15.5 8 q26 15 53.5 50t38.5 83q35 140 80 260q3 9 8 29q0 2 -2 2q-62 -5 -84 -14q-109 -20 -209 -95q-12 -10 -34 -32q-74 -74 -97 -189q-8 -50 -8 -65zM336 1065q0 38 14 59q4 11 9.5 28.5t8 24.5t9 17.5t15 14.5t23.5 7t36 3h3q3 0 6 -0.5t8 -1t10 -2t10.5 -3t11 -3.5t11 -4.5 t10.5 -6.5t9 -8q6 -6 8 -13t0.5 -21.5t-1.5 -20.5q0 -11 -0.5 -16.5t-1 -7.5t-2 -9t-3.5 -17q0 -8 -5.5 -32.5t-6.5 -28.5q-12 -47 -65 -47q-39 0 -78 25.5t-39 62.5zM643 1065q0 38 14 59q4 11 9.5 28.5t8 24.5t9 17.5t15 14.5t23.5 7t36 3h3q3 0 6 -0.5t8 -1t10 -2t11 -3 t11.5 -3.5t11 -4.5t10.5 -6.5t9 -8q5 -5 7 -11.5t2 -11.5t-0.5 -15.5t-0.5 -16.5h-2q0 -17 -6 -50q0 -8 -6 -32t-7 -29q-12 -47 -65 -47q-39 0 -78 25.5t-39 62.5z" />
<glyph unicode="&#xe5;" horiz-adv-x="872" d="M35 283q0 28 8 90q22 149 115 262q10 12 35 37q97 97 256 162q51 20 104 28q41 7 85.5 -8.5t59.5 -36.5q2 -3 4.5 -5.5t5 -4t3.5 -2.5q11 11 34 45q19 31 41 31q15 0 38.5 -11.5t35.5 -23.5q27 -24 27 -62q-9 -36 -27 -75q-52 -113 -88 -232q-60 -204 -76 -381 q-4 -62 -6 -69q-4 -26 -17 -35.5t-40 -9.5q-54 0 -84 24q-43 26 -37 111q-7 -1 -57.5 -29.5t-61.5 -28.5q-3 0 -14 -8q-72 -35 -135 -35q-25 0 -58 11q-29 5 -59 32q-78 68 -90 183q-2 14 -2 41zM221 289q0 -34 8 -53q8 -41 68 -41q15 0 55 8q43 14 92 41q5 3 15.5 8t15.5 8 q26 15 53.5 50t38.5 83q35 140 80 260q3 9 8 29q0 2 -2 2q-62 -5 -84 -14q-109 -20 -209 -95q-12 -10 -34 -32q-74 -74 -97 -189q-8 -50 -8 -65zM332 1104q-4 62 42.5 123.5t123.5 97.5t153 27q36 -4 52.5 -16.5t14.5 -22.5l-1 -10q17 0 46.5 -16t45.5 -30q33 -29 37 -86 q5 -69 -41 -127.5t-116 -89.5t-142 -32q-82 0 -145.5 53t-69.5 129zM446 1098q2 -30 27.5 -57.5t58.5 -30.5q88 -6 144 46t51 122q-3 41 -30.5 63.5t-71.5 22.5q-4 0 -14.5 -2t-14.5 -2q-157 -40 -150 -162z" />
<glyph unicode="&#xe6;" horiz-adv-x="1320" d="M23 170q-2 20 2 57q12 96 94 172q22 18 33 25q84 61 223 102q56 16 98 19q27 3 49.5 -20.5t17 -54.5t-47.5 -46q-126 -35 -177 -64q-7 -3 -16.5 -10.5t-13.5 -9.5l-30 -22.5t-16.5 -16t-13.5 -21t-6 -26.5q-7 -27 -4 -43q0 -22 10 -35q9 -26 66 -26q13 0 53 4 q10 3 21 5.5t20 5.5l21 7q67 30 118 110.5t62 131.5q0 6 8 30q2 7 8 37q22 111 -18 169t-142 55q-39 -1 -79 -17.5t-72 -35t-47 -21.5q-29 -5 -42.5 36t-4.5 74q4 15 23 30t36 24t45.5 21t34.5 15q47 23 119 23h20.5h18.5h15t15.5 -1t14 -2t16 -2.5t15 -3.5t18.5 -5 q92 -27 145 -109q141 131 309 131q89 0 164.5 -56t75.5 -138q0 -86 -56 -149t-147 -118q-30 -18 -114 -57q-8 -6 -42.5 -20.5t-64.5 -22.5q-32 -9 -60.5 21t-28 67.5t39.5 48.5q67 19 134 52.5t119 82.5t52 95q0 25 -28 41.5t-52 13.5q-59 -6 -107.5 -25.5t-82 -45 t-59 -60.5t-40.5 -66.5t-25 -70t-14 -65t-5 -57t-0.5 -39.5t1.5 -19v-1q7 -33 15.5 -51.5t32.5 -44.5q12 -12 41.5 -20t50.5 -8q53 0 99 16.5t101.5 47t90.5 44.5q29 0 43 -20t14 -50q0 -42 -47 -80.5t-112.5 -62t-128.5 -37.5t-103 -14q-186 0 -244 127q-96 -62 -147 -84 q-10 0 -48 -19q-68 -22 -124 -22q-29 0 -56 6q-26 4 -59 23q-76 44 -94 118q-4 16 -4 27z" />
<glyph unicode="&#xe7;" horiz-adv-x="776" d="M-37 -319q0 18 14 36.5t31 18.5q12 0 41 -18.5t66.5 -37t68.5 -18.5q49 0 93.5 25.5t44.5 70.5q0 22 -23 45q-8 8 -18.5 14t-20 8.5t-21 4t-19 1.5t-16.5 -0.5t-11 -0.5q-20 0 -28.5 1t-15 6.5t-6.5 17.5q0 30 82 125q-87 19 -146 95t-59 165q0 97 43 204t112.5 195.5 t168 146.5t199.5 58q48 0 99.5 -14t93.5 -49.5t42 -84.5q0 -42 -32 -78t-74 -36q-24 0 -39 18.5t-22.5 40t-30.5 35.5t-62 6q-24 -3 -67 -25q-96 -52 -172 -170t-76 -223q0 -51 28.5 -79.5t79.5 -28.5q52 0 95 14t96 42t84 40q26 -2 48.5 -22.5t22.5 -45.5q0 -40 -32 -76 t-82.5 -60.5t-103.5 -41t-105 -24.5q-8 -11 -64 -78q3 1 8.5 0.5t13.5 -1.5l7 -1q44 0 92 -23q70 -34 70 -96q0 -51 -29 -91.5t-74.5 -64t-95 -35.5t-96.5 -12q-33 0 -77.5 10t-85 34.5t-40.5 56.5z" />
<glyph unicode="&#xe8;" horiz-adv-x="815" d="M29 250q0 80 26 165t74.5 160.5t111.5 135.5t143.5 95.5t164.5 35.5q89 0 164 -56.5t75 -138.5q0 -45 -17 -83.5t-52 -71.5t-63.5 -53t-75.5 -48q-85 -53 -127 -72q-1 0 -16 -7t-31 -14t-41 -17t-48 -18t-49.5 -15t-48.5 -10v-27q0 -35 43 -61q40 -21 86 -21q53 0 99 17 t101.5 47.5t90.5 44.5q29 0 43 -20t14 -50q0 -42 -47 -81t-112.5 -62.5t-128.5 -37.5t-103 -14q-132 0 -204 72t-72 205zM242 401q46 1 135.5 40.5t166.5 99.5t77 106q0 43 -66 43q-64 0 -138 -43.5t-124.5 -112t-50.5 -133.5zM396 1178q-20 34 1 43q59 24 125 36 q35 6 113 -83l92 -105q10 -11 23.5 -27.5t23.5 -27.5q19 -24 -33 -43q-12 -6 -17.5 -7t-15 -1.5t-20.5 -1.5q-41 -4 -131 69l-113 90q-28 24 -48 58z" />
<glyph unicode="&#xe9;" horiz-adv-x="815" d="M29 250q0 80 26 165t74.5 160.5t111.5 135.5t143.5 95.5t164.5 35.5q89 0 164 -56.5t75 -138.5q0 -45 -17 -83.5t-52 -71.5t-63.5 -53t-75.5 -48q-85 -53 -127 -72q-1 0 -16 -7t-31 -14t-41 -17t-48 -18t-49.5 -15t-48.5 -10v-27q0 -35 43 -61q40 -21 86 -21q53 0 99 17 t101.5 47.5t90.5 44.5q29 0 43 -20t14 -50q0 -42 -47 -81t-112.5 -62.5t-128.5 -37.5t-103 -14q-132 0 -204 72t-72 205zM242 401q46 1 135.5 40.5t166.5 99.5t77 106q0 43 -66 43q-64 0 -138 -43.5t-124.5 -112t-50.5 -133.5zM348 1069q13 9 31 22.5t31 22.5l122 88 q90 62 122 66q10 1 16 -2q63 -23 114 -60q18 -12 -12.5 -44t-64.5 -48l-138 -70q-116 -56 -151 -45q-9 3 -17 5t-11 3t-8.5 4t-14.5 9q-48 27 -19 49z" />
<glyph unicode="&#xea;" horiz-adv-x="815" d="M29 250q0 80 26 165t74.5 160.5t111.5 135.5t143.5 95.5t164.5 35.5q89 0 164 -56.5t75 -138.5q0 -45 -17 -83.5t-52 -71.5t-63.5 -53t-75.5 -48q-85 -53 -127 -72q-1 0 -16 -7t-31 -14t-41 -17t-48 -18t-49.5 -15t-48.5 -10v-27q0 -35 43 -61q40 -21 86 -21q53 0 99 17 t101.5 47.5t90.5 44.5q29 0 43 -20t14 -50q0 -42 -47 -81t-112.5 -62.5t-128.5 -37.5t-103 -14q-132 0 -204 72t-72 205zM242 401q46 1 135.5 40.5t166.5 99.5t77 106q0 43 -66 43q-64 0 -138 -43.5t-124.5 -112t-50.5 -133.5zM254 1067q14 9 32 22.5t31 22.5l123 88 q8 6 20.5 14t28.5 17.5t25 15.5q0 1 18.5 9t20.5 8q64 18 88 22q5 1 11 0t13 -5t13 -7.5t14 -10.5t13.5 -11t14 -13t12 -13t12 -13t10.5 -11l92 -104q10 -12 23.5 -28.5t23.5 -27.5q19 -24 -33 -43q-12 -6 -17.5 -7t-15 -1.5t-20.5 -1.5q-46 -5 -131 70l-74 63l-127 -80 q-35 -22 -79.5 -37.5t-69.5 -7.5q-9 3 -17.5 5t-12 2.5t-9.5 4t-15 9.5q-44 30 -18 49z" />
<glyph unicode="&#xeb;" horiz-adv-x="815" d="M29 250q0 80 26 165t74.5 160.5t111.5 135.5t143.5 95.5t164.5 35.5q89 0 164 -56.5t75 -138.5q0 -45 -17 -83.5t-52 -71.5t-63.5 -53t-75.5 -48q-85 -53 -127 -72q-1 0 -16 -7t-31 -14t-41 -17t-48 -18t-49.5 -15t-48.5 -10v-27q0 -35 43 -61q40 -21 86 -21q53 0 99 17 t101.5 47.5t90.5 44.5q29 0 43 -20t14 -50q0 -42 -47 -81t-112.5 -62.5t-128.5 -37.5t-103 -14q-132 0 -204 72t-72 205zM242 401q46 1 135.5 40.5t166.5 99.5t77 106q0 43 -66 43q-64 0 -138 -43.5t-124.5 -112t-50.5 -133.5zM315 1065q0 37 15 59q4 11 10.5 33t10 28.5 t13.5 17t25.5 13.5t40.5 3h3q3 0 6 -0.5t8 -1t10 -2t11 -3t11.5 -3.5t11 -4.5t10.5 -6.5t9 -8q6 -6 7.5 -13t0 -21t-1.5 -21q0 -17 -6 -50q0 -8 -5.5 -32.5t-6.5 -28.5q-6 -23 -24 -35t-42 -12q-39 0 -78 25.5t-39 62.5zM623 1065q0 38 14 59q4 11 10.5 33t10 28.5t13.5 17 t25.5 13.5t40.5 3h3q3 0 6 -0.5t8 -1t10 -2t11 -3t11.5 -3.5t11 -4.5t10.5 -6.5t9 -8q5 -5 7 -11.5t2 -11.5t-0.5 -15.5t-0.5 -16.5h-2q0 -17 -6 -50q0 -8 -5.5 -32.5t-6.5 -28.5q-6 -23 -24 -35t-42 -12q-39 0 -77.5 25.5t-38.5 62.5z" />
<glyph unicode="&#xec;" horiz-adv-x="444" d="M14 86q7 39 12 63t8 35t12 41t17 56q33 113 60.5 224.5t64.5 233.5q17 55 41.5 78t61.5 23q21 0 32 -4.5t25 -22.5q28 -32 31 -47q2 -10 0 -23q-14 -45 -14 -47q-33 -117 -59.5 -208t-35.5 -123t-26 -104.5t-51 -229.5q-5 -24 -29.5 -38.5t-61.5 -6.5l-12 4 q-12 4 -25 10.5t-26.5 17.5t-20.5 28.5t-4 39.5zM212 1178q-20 34 1 43q59 24 125 36q35 6 113 -83l92 -105q10 -11 23.5 -27.5t23.5 -27.5q19 -24 -33 -43q-12 -6 -17.5 -7t-15 -1.5t-20.5 -1.5q-41 -4 -131 69l-113 90q-28 24 -48 58z" />
<glyph unicode="&#xed;" horiz-adv-x="444" d="M14 86q7 39 12 63t8 35t12 41t17 56q33 113 60.5 224.5t64.5 233.5q17 55 41.5 78t61.5 23q21 0 32 -4.5t25 -22.5q28 -32 31 -47q2 -10 0 -23q-14 -45 -14 -47q-33 -117 -59.5 -208t-35.5 -123t-26 -104.5t-51 -229.5q-5 -24 -29.5 -38.5t-61.5 -6.5l-12 4 q-12 4 -25 10.5t-26.5 17.5t-20.5 28.5t-4 39.5zM123 1069q13 9 30.5 22.5t30.5 22.5l123 88q85 59 116 65q13 2 21 -1q65 -24 115 -60q18 -12 -13 -44t-65 -48l-137 -70q-116 -56 -151 -45q-39 12 -52 21q-48 27 -18 49z" />
<glyph unicode="&#xee;" horiz-adv-x="444" d="M14 86q7 39 12 63t8 35t12 41t17 56q33 113 60.5 224.5t64.5 233.5q17 55 41.5 78t61.5 23q21 0 32 -4.5t25 -22.5q28 -32 31 -47q2 -10 0 -23q-14 -45 -14 -47q-33 -117 -59.5 -208t-35.5 -123t-26 -104.5t-51 -229.5q-5 -24 -29.5 -38.5t-61.5 -6.5l-12 4 q-12 4 -25 10.5t-26.5 17.5t-20.5 28.5t-4 39.5zM29 1067q14 9 32 22.5t31 22.5l123 88q8 6 20.5 14t28.5 17.5t25 15.5q0 1 18.5 9t20.5 8q64 18 88 22q7 1 14.5 -1t17.5 -8.5t16.5 -11t18 -16l16 -16t16.5 -17.5t13 -14l93 -104q10 -12 23.5 -28.5t23.5 -27.5 q19 -24 -33 -43q-12 -6 -17.5 -7t-15 -1.5t-20.5 -1.5q-46 -5 -131 70l-74 63l-127 -80q-35 -22 -80 -37.5t-70 -7.5q-9 3 -17.5 5t-11.5 2.5t-9 4t-15 9.5q-44 30 -18 49z" />
<glyph unicode="&#xef;" horiz-adv-x="444" d="M14 86q7 39 12 63t8 35t12 41t17 56q33 113 60.5 224.5t64.5 233.5q17 55 41.5 78t61.5 23q21 0 32 -4.5t25 -22.5q28 -32 31 -47q2 -10 0 -23q-14 -45 -14 -47q-33 -117 -59.5 -208t-35.5 -123t-26 -104.5t-51 -229.5q-5 -24 -29.5 -38.5t-61.5 -6.5l-12 4 q-12 4 -25 10.5t-26.5 17.5t-20.5 28.5t-4 39.5zM90 1065q0 38 14 59q4 11 9.5 28.5t8 24.5t9 17.5t15 14.5t23.5 7t36 3h3q3 0 6 -0.5t8 -1t10 -2t11 -3t11.5 -3.5t11 -4.5t10.5 -6.5t9 -8q6 -6 7.5 -13t0 -21t-1.5 -21q0 -17 -6 -50q0 -8 -6 -32t-7 -29q-12 -47 -65 -47 q-39 0 -78 25.5t-39 62.5zM397 1065q0 37 15 59q4 11 10.5 33t10 28.5t13.5 17t25.5 13.5t40.5 3h3q3 0 6 -0.5t8 -1t10 -2t11 -3t11.5 -3.5t11 -4.5t10.5 -6.5t9 -8q5 -5 7 -11.5t2 -11.5t-0.5 -15.5t-0.5 -16.5h-2q0 -17 -6 -50q0 -8 -5.5 -32.5t-6.5 -28.5 q-6 -23 -24 -35t-42 -12q-39 0 -78 25.5t-39 62.5z" />
<glyph unicode="&#xf0;" horiz-adv-x="980" d="M39 262q20 124 133 227q9 9 29 25q85 65 219 102q66 18 96 21q16 2 35 -8t31 -28t16.5 -37.5t-9 -38t-44.5 -27.5t-68 -21q-77 -23 -117 -51l-14 -10q-106 -76 -110 -158q-3 -37 20 -70q9 -22 57 -22q8 0 26 2.5t23 3.5q61 14 99 39q103 74 162 162q38 53 75 149 q26 60 34.5 139t-1.5 148l-92 -51q-21 -12 -59 -27q-18 -7 -18 18q0 5 3 27q2 16 21 74q16 38 106 84q-60 107 -176 82q-88 -21 -154 -70l-30 -24q-20 -15 -44 5t-31.5 50.5t1.5 52.5q39 57 127 105q51 26 94 32q39 6 68 9q87 10 168 -31q73 -38 125 -127l67 37q75 41 87 22 q2 -4 1 -10q-8 -54 -24 -106q-9 -27 -84 -66q39 -165 -29 -393q-72 -242 -260 -379q-28 -22 -92 -53q-56 -27 -72 -33q-35 -14 -45 -19q-68 -22 -125 -22q-30 0 -57 6q-27 5 -60 23q-131 76 -108 237z" />
<glyph unicode="&#xf1;" horiz-adv-x="841" d="M-10 57q0 70 84 326q17 51 33.5 108.5t36.5 131.5t30 110q3 11 7 28.5t6.5 27t8.5 24t15 29.5q3 9 23.5 19.5t31.5 10.5q21 0 57.5 -22t36.5 -41q0 -16 -3 -34t-8.5 -42.5t-8.5 -42.5q37 58 142 103.5t182 42.5q44 -2 78 -43.5t49.5 -91.5t15.5 -93q0 -20 -4 -42.5 t-7 -35t-12.5 -41t-11.5 -36.5q-21 -68 -59 -213q-7 -24 -24 -91.5t-30 -107.5q-1 -2 -3 -8.5t-2.5 -9t-3 -9t-4 -9t-4 -7.5t-5 -8t-6 -6.5t-7.5 -5.5t-8 -3q-6 -2 -16 0t-21 5t-16 4q-48 8 -66 21.5t-18 51.5q0 52 74 259t74 259q0 17 -0.5 24t-3 23.5t-10.5 24t-21 8.5 q-45 3 -94 -21t-89.5 -63.5t-76.5 -87t-60 -92.5t-34 -80q-6 -20 -66 -256q-14 -63 -68 -63q-31 0 -59 8q-4 1 -14.5 4t-14 4.5t-10 5.5t-9.5 9t-5 13.5t-2 20.5zM260 1069q4 10 7.5 15t11.5 17t20 32q48 77 133 114q34 15 72 15q23 0 65 -21q18 -9 30 -16.5t29.5 -20.5 t28.5 -20q72 -50 86 -58q40 -24 78 -10q20 12 51 53q4 8 13.5 22t13.5 23q22 33 49.5 10.5t14.5 -50.5q-16 -31 -37 -64q-52 -82 -135 -115q-40 -14 -72 -14q-36 0 -66 20q-25 13 -80 50q-55 41 -96 65q-15 10 -35.5 13t-42.5 -5q-25 -13 -49 -53q-21 -33 -26 -45 q-17 -20 -34 -16t-27.5 23.5t-2.5 35.5z" />
<glyph unicode="&#xf2;" horiz-adv-x="825" d="M27 313q3 236 204 418q49 44 135 85.5t144 41.5q37 0 77 -8.5t75.5 -33t37.5 -60.5q0 -20 -10 -33q40 -19 67 -79t27 -128q0 -94 -44 -195.5t-111 -170.5q-4 -4 -13.5 -11.5t-13.5 -11.5q-155 -131 -319 -131q-57 0 -102 17.5t-74 47t-47.5 71t-26 86t-6.5 95.5zM209 291 q0 -56 18 -87.5t70 -31.5q28 0 68 14q56 21 86 40.5t65 60.5q3 4 17.5 24.5t17.5 24.5q59 94 59 194q0 52 -20 89.5t-68 37.5q-28 0 -78 -16q-108 -37 -171.5 -135t-63.5 -215zM417 1178q-20 34 1 43q59 24 125 36q34 6 112 -83l93 -105q10 -11 23.5 -27.5t23.5 -27.5 q19 -24 -33 -43q-12 -6 -17.5 -7t-15 -1.5t-20.5 -1.5q-41 -4 -131 69l-113 90q-28 24 -48 58z" />
<glyph unicode="&#xf3;" horiz-adv-x="825" d="M27 313q3 236 204 418q49 44 135 85.5t144 41.5q37 0 77 -8.5t75.5 -33t37.5 -60.5q0 -20 -10 -33q40 -19 67 -79t27 -128q0 -94 -44 -195.5t-111 -170.5q-4 -4 -13.5 -11.5t-13.5 -11.5q-155 -131 -319 -131q-57 0 -102 17.5t-74 47t-47.5 71t-26 86t-6.5 95.5zM209 291 q0 -56 18 -87.5t70 -31.5q28 0 68 14q56 21 86 40.5t65 60.5q3 4 17.5 24.5t17.5 24.5q59 94 59 194q0 52 -20 89.5t-68 37.5q-28 0 -78 -16q-108 -37 -171.5 -135t-63.5 -215zM348 1069q13 9 31 22.5t31 22.5l122 88q90 62 122 66q10 1 16 -2q63 -23 114 -60 q18 -12 -12.5 -44t-64.5 -48l-138 -70q-116 -56 -151 -45q-9 3 -17 5t-11 3t-8.5 4t-14.5 9q-48 27 -19 49z" />
<glyph unicode="&#xf4;" horiz-adv-x="825" d="M27 313q3 236 204 418q49 44 135 85.5t144 41.5q37 0 77 -8.5t75.5 -33t37.5 -60.5q0 -20 -10 -33q40 -19 67 -79t27 -128q0 -94 -44 -195.5t-111 -170.5q-4 -4 -13.5 -11.5t-13.5 -11.5q-155 -131 -319 -131q-57 0 -102 17.5t-74 47t-47.5 71t-26 86t-6.5 95.5zM209 291 q0 -56 18 -87.5t70 -31.5q28 0 68 14q56 21 86 40.5t65 60.5q3 4 17.5 24.5t17.5 24.5q59 94 59 194q0 52 -20 89.5t-68 37.5q-28 0 -78 -16q-108 -37 -171.5 -135t-63.5 -215zM233 1067q14 9 32.5 22.5t31.5 22.5l123 88q8 6 20.5 14t28.5 17.5t25 15.5q0 1 18 9t20 8 q62 17 89 22q7 1 14.5 -1t17.5 -8.5t16.5 -11t18 -16l16 -16t16.5 -17.5t13 -14l92 -104q10 -12 23.5 -28.5t23.5 -27.5q19 -24 -32 -43q-10 -4 -16 -6t-9.5 -2t-11.5 -0.5t-17 -1.5q-46 -5 -131 70l-73 63l-127 -80q-35 -22 -80 -37.5t-70 -7.5q-9 3 -17.5 5t-11.5 2.5 t-9 4t-15 9.5q-45 30 -19 49z" />
<glyph unicode="&#xf5;" horiz-adv-x="825" d="M27 313q3 236 204 418q49 44 135 85.5t144 41.5q37 0 77 -8.5t75.5 -33t37.5 -60.5q0 -20 -10 -33q40 -19 67 -79t27 -128q0 -94 -44 -195.5t-111 -170.5q-4 -4 -13.5 -11.5t-13.5 -11.5q-155 -131 -319 -131q-57 0 -102 17.5t-74 47t-47.5 71t-26 86t-6.5 95.5zM209 291 q0 -56 18 -87.5t70 -31.5q28 0 68 14q56 21 86 40.5t65 60.5q3 4 17.5 24.5t17.5 24.5q59 94 59 194q0 52 -20 89.5t-68 37.5q-28 0 -78 -16q-108 -37 -171.5 -135t-63.5 -215zM240 1069q4 10 7.5 15t11.5 17t20 32q48 77 133 114q35 15 71 15q24 0 66 -21q18 -9 30 -16.5 t29.5 -20.5t28.5 -20q72 -50 86 -58q40 -24 78 -10q20 12 51 53q4 8 13.5 22t13.5 23q22 33 49 10.5t14 -50.5q-16 -31 -37 -64q-52 -82 -135 -115q-40 -14 -72 -14q-35 0 -65 20q-25 13 -80 50q-56 41 -96 65q-15 10 -35.5 13t-42.5 -5q-25 -13 -49 -53q-24 -39 -27 -45 q-17 -20 -33.5 -16t-27 23.5t-2.5 35.5z" />
<glyph unicode="&#xf6;" horiz-adv-x="825" d="M27 313q3 236 204 418q49 44 135 85.5t144 41.5q37 0 77 -8.5t75.5 -33t37.5 -60.5q0 -20 -10 -33q40 -19 67 -79t27 -128q0 -94 -44 -195.5t-111 -170.5q-4 -4 -13.5 -11.5t-13.5 -11.5q-155 -131 -319 -131q-57 0 -102 17.5t-74 47t-47.5 71t-26 86t-6.5 95.5zM209 291 q0 -56 18 -87.5t70 -31.5q28 0 68 14q56 21 86 40.5t65 60.5q3 4 17.5 24.5t17.5 24.5q59 94 59 194q0 52 -20 89.5t-68 37.5q-28 0 -78 -16q-108 -37 -171.5 -135t-63.5 -215zM315 1065q0 37 15 59q4 11 10.5 33t10 28.5t13.5 17t25.5 13.5t40.5 3h3q3 0 6 -0.5t8 -1t10 -2 t11 -3t11.5 -3.5t11 -4.5t10.5 -6.5t9 -8q6 -6 7.5 -13t0 -21t-1.5 -21q0 -17 -6 -50q0 -8 -5.5 -32.5t-6.5 -28.5q-6 -23 -24 -35t-42 -12q-39 0 -78 25.5t-39 62.5zM623 1065q0 38 14 59q4 11 10.5 33t10 28.5t13.5 17t25.5 13.5t40.5 3h3q3 0 6 -0.5t8 -1t10 -2t11 -3 t11.5 -3.5t11 -4.5t10.5 -6.5t9 -8q5 -5 7 -11.5t2 -11.5t-0.5 -15.5t-0.5 -16.5h-2q0 -17 -6 -50q0 -8 -5.5 -32.5t-6.5 -28.5q-6 -23 -24 -35t-42 -12q-39 0 -77.5 25.5t-38.5 62.5z" />
<glyph unicode="&#xf7;" horiz-adv-x="1032" d="M115 566.5v8v7.5v6q0 26 12 67q9 37 109 37h587q95 0 95 -35q0 -33 -13 -100q-2 -10 -12 -16t-31 -8t-29 -2.5t-32 -0.5h-604q-35 0 -60 2q-4 0 -7.5 1.5t-5.5 4t-4 5.5t-2.5 7.5t-1.5 7.5t-1 8.5zM354 313q0 37 15 60q3 9 8.5 28t7.5 25t8.5 17t15 14t23 6.5t35.5 3.5 q22 0 32 -5t25 -22q31 -31 31 -57q0 -11 -0.5 -16.5t-1 -7t-2.5 -8.5t-4 -17q0 -20 -12 -62q-4 -22 -23 -34.5t-43 -12.5q-39 0 -77 25.5t-38 62.5zM477 846q0 36 15 59q3 9 8.5 28t7.5 25t8.5 17t15 14t23 6.5t35.5 3.5q22 0 32 -4.5t25 -21.5q31 -31 31 -58 q0 -11 -0.5 -16.5t-1 -7t-2.5 -8.5t-4 -17q0 -16 -13 -61q-4 -22 -22.5 -34.5t-42.5 -12.5q-39 0 -77 25.5t-38 62.5z" />
<glyph unicode="&#xf8;" horiz-adv-x="825" d="M10 -113q-39 49 31 133q2 2 8 9.5t13.5 17.5t15.5 21q-55 79 -55 227q3 242 206 426q49 44 136.5 86.5t144.5 42.5q52 0 108 -18.5t76 -55.5q11 13 42 48t48 55q33 37 48.5 49.5t29.5 9.5h2q12 -3 9.5 -35t-9.5 -41q0 -7 -10.5 -27t-22.5 -34q-11 -14 -42 -53.5 t-56 -69.5q53 -74 53 -176q0 -97 -44 -201t-113 -174q-4 -4 -13.5 -11.5t-13.5 -11.5q-156 -135 -321 -135q-75 0 -129 31q-44 -54 -56 -70q-10 -11 -41 -36q-21 -15 -45 -7zM207 270q0 -33 4 -49l18 21l338 391q-18 12 -45 12q-28 0 -78 -16q-110 -39 -173.5 -139 t-63.5 -220zM281 150h14q27 0 67 14q57 21 87.5 40.5t66.5 61.5q3 4 17.5 25.5t17.5 25.5q59 94 59 199v19q-41 -47 -125.5 -146.5t-128.5 -150.5z" />
<glyph unicode="&#xf9;" horiz-adv-x="839" d="M12 227q-2 66 27.5 171.5t53.5 165.5t67 161q1 2 7 16t8.5 19t9 19t11 20.5t12 17.5t14.5 16.5t15.5 12.5t17.5 9.5t19 2.5q39 0 77.5 -30t25.5 -64q-5 -15 -41 -90q-46 -99 -87 -222t-40 -194q0 -36 15 -63t48 -27q59 0 138 49q25 15 55 45q43 46 57 92q37 125 119 338 q3 6 20.5 49.5t26.5 65.5q13 33 49 33q32 0 66 -27.5t35 -60.5q0 -19 -23 -90.5t-55.5 -160.5t-36.5 -102q-42 -125 -45 -262q-2 -41 0 -84q0 -26 -12 -37.5t-43 -19.5q-14 -4 -36 -7t-44.5 -2t-26.5 9q-8 7 -13 48.5t-5 70.5q-12 -15 -42.5 -40.5t-49.5 -33.5 q-104 -53 -181 -53q-90 0 -150.5 73.5t-62.5 165.5zM396 1178q-20 34 1 43q59 24 125 36q35 6 113 -83l92 -105q10 -11 23.5 -27.5t23.5 -27.5q19 -24 -33 -43q-12 -6 -17.5 -7t-15 -1.5t-20.5 -1.5q-41 -4 -131 69l-113 90q-28 24 -48 58z" />
<glyph unicode="&#xfa;" horiz-adv-x="839" d="M12 227q-2 66 27.5 171.5t53.5 165.5t67 161q1 2 7 16t8.5 19t9 19t11 20.5t12 17.5t14.5 16.5t15.5 12.5t17.5 9.5t19 2.5q39 0 77.5 -30t25.5 -64q-5 -15 -41 -90q-46 -99 -87 -222t-40 -194q0 -36 15 -63t48 -27q59 0 138 49q25 15 55 45q43 46 57 92q37 125 119 338 q3 6 20.5 49.5t26.5 65.5q13 33 49 33q32 0 66 -27.5t35 -60.5q0 -19 -23 -90.5t-55.5 -160.5t-36.5 -102q-42 -125 -45 -262q-2 -41 0 -84q0 -26 -12 -37.5t-43 -19.5q-14 -4 -36 -7t-44.5 -2t-26.5 9q-8 7 -13 48.5t-5 70.5q-12 -15 -42.5 -40.5t-49.5 -33.5 q-104 -53 -181 -53q-90 0 -150.5 73.5t-62.5 165.5zM348 1069q13 9 31 22.5t31 22.5l122 88q90 62 122 66q10 1 16 -2q63 -23 114 -60q18 -12 -12.5 -44t-64.5 -48l-138 -70q-116 -56 -151 -45q-9 3 -17 5t-11 3t-8.5 4t-14.5 9q-48 27 -19 49z" />
<glyph unicode="&#xfb;" horiz-adv-x="839" d="M12 227q-2 66 27.5 171.5t53.5 165.5t67 161q1 2 7 16t8.5 19t9 19t11 20.5t12 17.5t14.5 16.5t15.5 12.5t17.5 9.5t19 2.5q39 0 77.5 -30t25.5 -64q-5 -15 -41 -90q-46 -99 -87 -222t-40 -194q0 -36 15 -63t48 -27q59 0 138 49q25 15 55 45q43 46 57 92q37 125 119 338 q3 6 20.5 49.5t26.5 65.5q13 33 49 33q32 0 66 -27.5t35 -60.5q0 -19 -23 -90.5t-55.5 -160.5t-36.5 -102q-42 -125 -45 -262q-2 -41 0 -84q0 -26 -12 -37.5t-43 -19.5q-14 -4 -36 -7t-44.5 -2t-26.5 9q-8 7 -13 48.5t-5 70.5q-12 -15 -42.5 -40.5t-49.5 -33.5 q-104 -53 -181 -53q-90 0 -150.5 73.5t-62.5 165.5zM274 1067q14 9 32.5 22.5t31.5 22.5l123 88q8 6 20.5 14t28.5 17.5t25 15.5q0 1 18 9t20 8q62 17 89 22q7 1 14.5 -1t17.5 -8.5t16.5 -11t18 -16l16 -16t16.5 -17.5t13 -14l92 -104q10 -12 23.5 -28.5t23.5 -27.5 q19 -24 -32 -43q-10 -4 -16 -6t-9.5 -2t-11.5 -0.5t-17 -1.5q-46 -5 -131 70l-73 63l-127 -80q-35 -22 -80 -37.5t-70 -7.5q-9 3 -17.5 5t-11.5 2.5t-9 4t-15 9.5q-45 30 -19 49z" />
<glyph unicode="&#xfc;" horiz-adv-x="839" d="M12 227q-2 66 27.5 171.5t53.5 165.5t67 161q1 2 7 16t8.5 19t9 19t11 20.5t12 17.5t14.5 16.5t15.5 12.5t17.5 9.5t19 2.5q39 0 77.5 -30t25.5 -64q-5 -15 -41 -90q-46 -99 -87 -222t-40 -194q0 -36 15 -63t48 -27q59 0 138 49q25 15 55 45q43 46 57 92q37 125 119 338 q3 6 20.5 49.5t26.5 65.5q13 33 49 33q32 0 66 -27.5t35 -60.5q0 -19 -23 -90.5t-55.5 -160.5t-36.5 -102q-42 -125 -45 -262q-2 -41 0 -84q0 -26 -12 -37.5t-43 -19.5q-14 -4 -36 -7t-44.5 -2t-26.5 9q-8 7 -13 48.5t-5 70.5q-12 -15 -42.5 -40.5t-49.5 -33.5 q-104 -53 -181 -53q-90 0 -150.5 73.5t-62.5 165.5zM336 1065q0 38 14 59q4 11 9.5 28.5t8 24.5t9 17.5t15 14.5t23.5 7t36 3h3q3 0 6 -0.5t8 -1t10 -2t10.5 -3t11 -3.5t11 -4.5t10.5 -6.5t9 -8q6 -6 8 -13t0.5 -21.5t-1.5 -20.5q0 -11 -0.5 -16.5t-1 -7.5t-2 -9t-3.5 -17 q0 -8 -5.5 -32.5t-6.5 -28.5q-12 -47 -65 -47q-39 0 -78 25.5t-39 62.5zM643 1065q0 38 14 59q4 11 9.5 28.5t8 24.5t9 17.5t15 14.5t23.5 7t36 3h3q3 0 6 -0.5t8 -1t10 -2t11 -3t11.5 -3.5t11 -4.5t10.5 -6.5t9 -8q5 -5 7 -11.5t2 -11.5t-0.5 -15.5t-0.5 -16.5h-2 q0 -17 -6 -50q0 -8 -6 -32t-7 -29q-12 -47 -65 -47q-39 0 -78 25.5t-39 62.5z" />
<glyph unicode="&#xfd;" horiz-adv-x="821" d="M-16 -430q0 20 18 45q8 11 123.5 160t157.5 225v2q-37 154 -76 350q-7 38 -27.5 103.5t-27.5 103.5q-7 36 -21.5 93.5t-19.5 80.5q-1 5 -6 19.5t-5 23.5v8q0 28 37 49t68 21q68 0 78 -72q3 -18 7 -51.5t7 -50.5q33 -195 78 -387q2 -8 5.5 -28t7 -35.5t7.5 -24.5 q18 26 46 79t34 64q42 72 77.5 140.5t91.5 182.5t71 144q3 9 10 16q18 25 43 25q30 0 61 -29t31 -59q0 -11 -8 -31q-51 -145 -117 -272q-82 -161 -270 -465q-16 -25 -60.5 -97.5t-78 -124.5t-64.5 -95l-35 -52.5t-46.5 -68t-37.5 -49.5q-45 -50 -82 -50q-25 0 -51 40t-26 67 zM328 1069q14 9 31 22.5t30 22.5l123 88q85 59 116 65q13 2 21 -1q65 -24 115 -60q18 -12 -13 -44t-65 -48l-137 -70q-116 -57 -152 -45q-9 3 -17 5t-11 3t-8.5 4t-14.5 9q-48 27 -18 49z" />
<glyph unicode="&#xfe;" horiz-adv-x="892" d="M-150 -459q15 89 209 742q39 131 149 496.5t126 418.5q17 57 95 61q57 3 88 -20q12 -9 9 -18q-2 -14 -62.5 -225t-62.5 -224q119 78 269 78h6q49 -6 96 -49q80 -77 80 -211q0 -114 -61 -229.5t-175 -213.5q-73 -63 -152.5 -99t-137.5 -38q-52 -1 -79 36.5t-16.5 83 t52.5 65.5q10 0 28 6q44 9 65.5 15t55.5 22.5t64 42.5q6 2 27.5 23t23.5 22q100 94 125 219q6 34 6 59q0 13 -4 29q-6 19 -26 30t-48 11q-59 0 -174 -56q-52 -25 -82 -53q-12 -37 -46 -137t-58 -184q-14 -48 -64 -212t-91.5 -307.5t-59.5 -226.5q-5 -24 -29.5 -38.5 t-61.5 -6.5q-1 0 -12 2.5t-23.5 8t-25.5 14t-19.5 25t-3.5 38.5z" />
<glyph unicode="&#xff;" horiz-adv-x="821" d="M-16 -430q0 20 18 45q8 11 123.5 160t157.5 225v2q-37 154 -76 350q-7 38 -27.5 103.5t-27.5 103.5q-7 36 -21.5 93.5t-19.5 80.5q-1 5 -6 19.5t-5 23.5v8q0 28 37 49t68 21q68 0 78 -72q3 -18 7 -51.5t7 -50.5q33 -195 78 -387q2 -8 5.5 -28t7 -35.5t7.5 -24.5 q18 26 46 79t34 64q42 72 77.5 140.5t91.5 182.5t71 144q3 9 10 16q18 25 43 25q30 0 61 -29t31 -59q0 -11 -8 -31q-51 -145 -117 -272q-82 -161 -270 -465q-16 -25 -60.5 -97.5t-78 -124.5t-64.5 -95l-35 -52.5t-46.5 -68t-37.5 -49.5q-45 -50 -82 -50q-25 0 -51 40t-26 67 zM274 1065q0 37 15 59q4 11 10.5 33t10 28.5t13.5 17t25.5 13.5t40.5 3h3q3 0 6 -0.5t8 -1t10 -2t11 -3t11.5 -3.5t11 -4.5t10.5 -6.5t9 -8q6 -6 7.5 -13t0 -21t-1.5 -21q0 -17 -6 -50q0 -8 -5.5 -32.5t-6.5 -28.5q-6 -23 -24 -35t-42 -12q-39 0 -78 25.5t-39 62.5z M582 1065q0 38 14 59q4 11 10.5 33t10 28.5t13.5 17t25.5 13.5t40.5 3h3q3 0 6 -0.5t8 -1t10 -2t11 -3t11.5 -3.5t11 -4.5t10.5 -6.5t9 -8q5 -5 7 -11.5t2 -11.5t-0.5 -15.5t-0.5 -16.5h-2q0 -17 -6 -50q0 -8 -5.5 -32.5t-6.5 -28.5q-6 -23 -24 -35t-42 -12 q-39 0 -77.5 25.5t-38.5 62.5z" />
<glyph unicode="&#x152;" horiz-adv-x="1603" d="M86 504q-2 110 29 210.5t86 180.5t132 149t163 119.5t184 87.5q51 20 163 39t175 21l567 10q94 0 94 -33q0 -38 -12 -100q-6 -29 -104 -29l-402 -8q-19 -73 -20 -76q-14 -48 -39.5 -145.5t-40.5 -145.5l262 9h5q89 0 89 -31q0 -38 -12 -103q-2 -8 -9 -13.5t-21.5 -8.5 t-23.5 -4t-28.5 -1.5t-22.5 -0.5l-290 -10q-97 -295 -97 -404q0 -25 13.5 -36t33.5 -10t41 1q164 4 187 4q109 0 188 -8q6 0 23 -1t24.5 -2t21.5 -3t21.5 -5.5t15.5 -9t11.5 -14.5t3.5 -20q0 -20 -5 -49.5t-13 -38.5q-3 -3 -7.5 -7t-6.5 -6t-5 -4.5t-5.5 -3.5t-6.5 -2 t-8 -1.5t-10 -0.5q-30 0 -104 5t-105 5q-107 0 -185 -6q-23 -2 -65 -2q-34 -2 -77.5 -5.5t-63 -3.5t-76 2t-164.5 9q-231 14 -364.5 142.5t-139.5 357.5zM272 526q-2 -51 7.5 -97.5t44.5 -129.5q31 -54 112.5 -88.5t151.5 -40.5q54 -4 112 -4q2 25 23 104q12 39 35.5 151.5 t58.5 237.5q29 100 80.5 248t71.5 213q-44 -5 -119 -19t-115 -26q-83 -26 -164 -80t-146.5 -125.5t-107 -162t-45.5 -181.5z" />
<glyph unicode="&#x153;" horiz-adv-x="1320" d="M23 295q3 242 206 426q49 44 136.5 86.5t144.5 42.5q26 0 56.5 -5.5t61.5 -16.5t52 -33t22 -50q0 -19 -10 -32q10 -4 27 -21q147 150 325 150q89 0 164.5 -56.5t75.5 -138.5q0 -45 -17 -83.5t-52.5 -71.5t-63.5 -52.5t-76 -48.5q-85 -53 -127 -72q-1 0 -15.5 -7 t-30.5 -14t-41 -17t-48 -18t-49.5 -15t-48.5 -10v-27q0 -35 43 -61q40 -21 86 -21q53 0 99 17t101.5 47.5t90.5 44.5q29 0 43 -20t14 -50q0 -42 -47 -81t-112.5 -62.5t-128.5 -37.5t-103 -14q-163 0 -232 105q-145 -109 -288 -109q-72 0 -124 27t-80.5 74.5t-41.5 103 t-12 121.5zM207 270q0 -56 18 -88t70 -32q27 0 67 14q51 19 89 50t81 81q3 4 9.5 11t9.5 11q59 94 59 199q0 32 -7 59t-27.5 48.5t-53.5 21.5q-28 0 -78 -16q-110 -39 -173.5 -139t-63.5 -220zM758 401q46 1 135.5 40.5t166.5 99.5t77 106q0 43 -66 43q-64 0 -138 -43.5 t-124.5 -112t-50.5 -133.5z" />
<glyph unicode="&#x178;" horiz-adv-x="1001" d="M137.5 1238q-0.5 12 9.5 36q27 33 53.5 50t46.5 16t32 -5.5t20 -11.5q130 -347 156 -422q3 -7 18.5 -42t18.5 -42q6 -15 10 -23t12.5 -18t18.5 -10.5t26.5 7.5t36.5 28q90 95 248 327q15 23 63.5 88.5t63.5 88.5q24 34 43 34q32 0 64 -19.5t36 -57.5q0 -36 -16 -72 q-44 -86 -200 -293t-271 -346q-66 -234 -119 -438q-11 -48 -21 -78q-4 -19 -20 -35q-22 -16 -68 -16q-20 4 -37 9.5t-28 12t-19.5 13t-13.5 13.5t-8 13t-4 12.5t-1 10.5v9l1 5q0 22 51 194q14 46 80 275q-106 186 -129 268q-3 10 -16.5 36t-16.5 36q-100 289 -108 307 q-12 28 -12.5 40zM422 1599q0 39 14 60q4 11 9.5 28.5t8 24.5t9 17t15 14t23.5 7t36 3h3q3 0 6 -0.5t8 -1t10 -2t10.5 -3t11 -3.5t11 -4.5t10.5 -6.5t9 -8q6 -6 8 -13t0.5 -21.5t-1.5 -20.5q0 -11 -0.5 -16t-1 -7t-2 -9t-3.5 -17q0 -8 -5.5 -32.5t-6.5 -28.5 q-6 -23 -23.5 -35.5t-41.5 -12.5q-39 0 -78 25.5t-39 62.5zM729 1599q0 39 14 60q4 11 9.5 28.5t8 24.5t9 17t15 14t23.5 7t36 3h3q3 0 6 -0.5t8 -1t10 -2t11 -3t11.5 -3.5t11 -4.5t10.5 -6.5t9 -8q5 -5 7 -11.5t2 -11.5t-0.5 -15.5t-0.5 -16.5h-2q0 -16 -6 -49q0 -8 -6 -32 t-7 -29q-6 -23 -23.5 -35.5t-41.5 -12.5q-39 0 -78 25.5t-39 62.5z" />
<glyph unicode="&#x2c6;" horiz-adv-x="813" d="M152 1128q14 9 32 23t31 23l123 88q8 6 20.5 14t28.5 17.5t25 15.5q0 1 18.5 8.5t20.5 7.5q74 21 88 23q7 1 14.5 -1t17.5 -8.5t16.5 -11t18 -16l16 -16t16.5 -17.5t13 -14l92 -105q10 -12 24 -28t24 -27q19 -24 -33 -43q-12 -6 -17.5 -7t-15 -1.5t-20.5 -1.5 q-48 -5 -132 69l-73 64l-127 -80q-35 -22 -80 -37.5t-70 -7.5q-9 3 -17.5 4.5t-11.5 2.5t-9 4t-15 9q-44 30 -18 49z" />
<glyph unicode="&#x2dc;" horiz-adv-x="813" d="M55 1151q4 10 7.5 14.5t11.5 16.5t20 32q49 79 133 115q32 14 72 14q26 0 66 -20q18 -9 30 -16.5t29.5 -20.5t28.5 -20q72 -50 86 -58q40 -24 77 -10q22 13 52 53q4 7 13 21.5t13 23.5q22 33 49.5 10t14.5 -51q-13 -25 -37 -63q-52 -82 -135 -115q-40 -14 -72 -14 q-35 0 -65 20q-25 13 -80 50q-51 37 -97 65q-38 25 -77 8q-26 -14 -50 -53q-21 -33 -26 -45q-17 -20 -34 -16t-27.5 23.5t-2.5 35.5z" />
<glyph unicode="&#x2000;" />
<glyph unicode="&#x2001;" horiz-adv-x="1863" />
<glyph unicode="&#x2002;" />
<glyph unicode="&#x2003;" horiz-adv-x="1863" />
<glyph unicode="&#x2004;" horiz-adv-x="621" />
<glyph unicode="&#x2005;" horiz-adv-x="465" />
<glyph unicode="&#x2006;" horiz-adv-x="310" />
<glyph unicode="&#x2007;" horiz-adv-x="310" />
<glyph unicode="&#x2008;" horiz-adv-x="232" />
<glyph unicode="&#x2009;" horiz-adv-x="372" />
<glyph unicode="&#x200a;" horiz-adv-x="103" />
<glyph unicode="&#x2010;" horiz-adv-x="604" d="M74 464v7.5v7.5v6q0 27 12 68q9 37 109 37h280q94 0 94 -35q0 -39 -12 -100q-2 -10 -12 -16t-31 -8t-29 -2.5t-32 -0.5h-297q-35 0 -60 2q-4 0 -7.5 1.5t-5.5 4l-4 5t-2.5 7t-1.5 8t-1 8.5z" />
<glyph unicode="&#x2011;" horiz-adv-x="604" d="M74 464v7.5v7.5v6q0 27 12 68q9 37 109 37h280q94 0 94 -35q0 -39 -12 -100q-2 -10 -12 -16t-31 -8t-29 -2.5t-32 -0.5h-297q-35 0 -60 2q-4 0 -7.5 1.5t-5.5 4l-4 5t-2.5 7t-1.5 8t-1 8.5z" />
<glyph unicode="&#x2012;" horiz-adv-x="604" d="M74 464v7.5v7.5v6q0 27 12 68q9 37 109 37h280q94 0 94 -35q0 -39 -12 -100q-2 -10 -12 -16t-31 -8t-29 -2.5t-32 -0.5h-297q-35 0 -60 2q-4 0 -7.5 1.5t-5.5 4l-4 5t-2.5 7t-1.5 8t-1 8.5z" />
<glyph unicode="&#x2013;" horiz-adv-x="1415" d="M115 566.5v8v7.5v6q0 26 12 67q9 37 109 37h976q95 0 95 -35q0 -33 -13 -100q-2 -10 -12 -16t-31 -8t-29 -2.5t-32 -0.5h-993q-35 0 -60 2q-4 0 -7.5 1.5t-5.5 4t-4 5.5t-2.5 7.5t-1.5 7.5t-1 8.5z" />
<glyph unicode="&#x2014;" horiz-adv-x="1888" d="M115 566.5v8v7.5v6q0 26 12 67q9 37 109 37h1488q95 0 95 -35q0 -33 -13 -100q-2 -10 -12 -16t-31 -8t-29 -2.5t-32 -0.5h-1505q-35 0 -60 2q-4 0 -7.5 1.5t-5.5 4t-4 5.5t-2.5 7.5t-1.5 7.5t-1 8.5z" />
<glyph unicode="&#x2018;" horiz-adv-x="346" d="M86 979q-1 10 4 49q1 7 4 31t4 31q1 2 2 7t2 7q0 1 13 33q14 36 29 58t44 48q26 25 50.5 38t64.5 26q46 15 64 16q4 0 10.5 2t12 2t9.5 -4q9 -5 9 -8q1 -2 0 -4t-2 -3l-2.5 -2.5l-2.5 -2.5q-4 -6 -8 -10.5t-11 -9t-11 -7.5q-10 -8 -30 -18.5t-30 -18.5 q-28 -23 -42.5 -40.5t-22.5 -43.5q-10 -31 2 -49q32 -25 35 -57q0 -38 -11 -60q-2 -9 -6 -28t-6 -25t-8 -17t-14.5 -14t-22.5 -6.5t-35 -3.5t-31 4.5t-28 22.5q-33 33 -35 57z" />
<glyph unicode="&#x2019;" horiz-adv-x="346" d="M86 903q0 4 8 12q4 6 8.5 10.5t11.5 9t11 7.5q10 8 28.5 18.5t28.5 18.5q56 45 66 84q11 33 0 49q-32 22 -35 57q-2 11 1 31.5t9 28.5q2 8 5.5 28t5.5 25t7.5 16.5t14 14.5t22.5 6.5t35 3.5q22 0 32.5 -5t27.5 -22q33 -29 35 -57q1 -9 1 -13.5t-0.5 -7.5t-1.5 -5t-2 -8 t-2 -15q1 -6 -0.5 -17.5t-4.5 -26.5t-3 -18q0 -2 -4 -14q-5 -21 -10 -33q-13 -34 -29 -56t-45 -50q-47 -42 -114 -64q-45 -14 -66 -16q-4 0 -10.5 -2t-12 -2t-10.5 4q-8 4 -8 8z" />
<glyph unicode="&#x201a;" horiz-adv-x="299" d="M-12.5 -169.5q0.5 3.5 0.5 7.5q2 9 4 20t4 20t6 20l68 225q23 79 43 95q7 6 14 7q73 7 123 2q15 -2 18.5 -21t-1 -39.5t-11.5 -37.5l-86 -188q-51 -119 -84 -125q-8 -2 -15.5 -4t-10.5 -2.5t-8.5 -0.5t-16.5 1q-2 0 -6 0.5t-7 1t-8 1t-7.5 1.5t-7 2.5t-6 3.5t-4 4.5t-2 6 z" />
<glyph unicode="&#x201c;" horiz-adv-x="667" d="M86 979q-1 10 4 49q1 7 4 31t4 31q1 2 2 7t2 7q0 1 13 33q14 36 29 58t44 48q26 25 50.5 38t64.5 26q46 15 64 16q4 0 10.5 2t12 2t9.5 -4q9 -5 9 -8q1 -2 0 -4t-2 -3l-2.5 -2.5l-2.5 -2.5q-4 -6 -8 -10.5t-11 -9t-11 -7.5q-10 -8 -30 -18.5t-30 -18.5 q-28 -23 -42.5 -40.5t-22.5 -43.5q-10 -31 2 -49q32 -25 35 -57q0 -38 -11 -60q-2 -9 -6 -28t-6 -25t-8 -17t-14.5 -14t-22.5 -6.5t-35 -3.5t-31 4.5t-28 22.5q-33 33 -35 57zM393 979q-1 10 4 49q1 7 4.5 31t4.5 31q1 2 2 7t2 7q2 8 12 33q13 35 29 57.5t45 48.5 q43 41 114 64q46 15 64 16q4 0 11 2t12.5 2t9.5 -4q8 -4 8 -8q1 -4 -3 -8q-2 -3 -3 -4q-4 -6 -8.5 -10.5t-11.5 -9t-11 -7.5q-10 -8 -30 -18.5t-30 -18.5q-28 -23 -42.5 -40.5t-22.5 -43.5q-11 -31 2 -49q32 -25 35 -57q0 -40 -10 -60q-2 -8 -6.5 -28t-6.5 -25t-8 -17 t-14.5 -14.5t-22.5 -6t-35 -3.5t-31 4.5t-28 22.5q-33 33 -35 57z" />
<glyph unicode="&#x201d;" horiz-adv-x="667" d="M86 903q0 4 8 12q4 6 8.5 10.5t11.5 9t11 7.5q10 8 28.5 18.5t28.5 18.5q56 45 66 84q11 33 0 49q-32 22 -35 57q-2 11 1 31.5t9 28.5q2 8 5.5 28t5.5 25t7.5 16.5t14 14.5t22.5 6.5t35 3.5q22 0 32.5 -5t27.5 -22q35 -31 35 -57q1 -9 1 -13.5t-0.5 -7.5t-1.5 -5t-2 -8 t-2 -15q1 -6 -0.5 -17.5t-4.5 -26.5t-3 -18q0 -2 -4 -14q-5 -21 -10 -33q-13 -34 -29 -56t-45 -50q-47 -42 -114 -64q-45 -14 -66 -16q-4 0 -10.5 -2t-12 -2t-10.5 4q-8 4 -8 8zM393 903q0 4 8 12q4 6 8.5 10.5t11.5 9t11 7.5q10 8 28.5 18.5t28.5 18.5q56 45 66 84 q11 33 0 49q-32 22 -35 57q-2 11 1 31.5t9 28.5q2 8 5 24.5t4.5 22t5.5 16.5t9.5 14.5t14.5 8.5t21.5 6.5t30.5 1.5q21 0 31 -4.5t28 -22.5q35 -31 35 -57q1 -10 -4 -49q1 -6 -1 -18t-4.5 -26t-3.5 -18q0 -2 -4 -14q-5 -21 -10 -33q-13 -34 -29 -56t-45 -50 q-47 -42 -114 -64q-45 -14 -66 -16q-4 0 -10.5 -2t-12 -2t-10.5 4q-8 4 -8 8z" />
<glyph unicode="&#x201e;" horiz-adv-x="622" d="M-12.5 -169.5q0.5 3.5 0.5 7.5q2 9 4 20t4 20t6 20l68 225q23 79 43 95q7 6 14 7q73 7 123 2q15 -2 18.5 -21t-1 -39.5t-11.5 -37.5l-86 -188q-51 -119 -84 -125q-8 -2 -15.5 -4t-10.5 -2.5t-8.5 -0.5t-16.5 1q-2 0 -6 0.5t-7 1t-8 1t-7.5 1.5t-7 2.5t-6 3.5t-4 4.5t-2 6 zM314.5 -169.5q0.5 3.5 0.5 7.5l15 60l67 225q28 98 58 102q73 7 123 2q15 -2 18.5 -21t-1 -39.5t-11.5 -37.5l-86 -188q-51 -119 -84 -125q-7 -1 -13.5 -3t-9 -2.5t-7 -1t-9 -0.5t-13.5 1q-2 0 -6 0.5t-7 1t-8 1t-7.5 1.5t-7 2.5t-6 3.5t-4 4.5t-2 6z" />
<glyph unicode="&#x2022;" horiz-adv-x="1042" d="M248 651q12 110 104 189q77 62 178 59q95 0 158 -63q74 -77 62 -189t-105 -186q-81 -65 -174 -62q-94 0 -160 66q-75 75 -63 186z" />
<glyph unicode="&#x2026;" horiz-adv-x="1024" d="M61 88q0 36 15 59q3 9 8 28t7.5 25t9 17.5t15 14.5t23 6.5t35.5 3.5q22 0 32 -5t25 -22q31 -31 31 -57q0 -11 -0.5 -16.5t-1 -7t-2.5 -8.5t-4 -17q0 -20 -12 -62q-4 -22 -23 -34.5t-43 -12.5q-39 0 -77 25.5t-38 62.5zM410 88q0 38 14 59q3 9 8 28t7.5 25t9 17.5t15 14.5 t23 6.5t35.5 3.5q22 0 32.5 -5t25.5 -22q30 -30 30 -57q0 -11 -0.5 -16.5t-1 -7t-2.5 -8.5t-4 -17q0 -20 -12 -62q-4 -22 -23 -34.5t-43 -12.5q-39 0 -76.5 25.5t-37.5 62.5zM758 88q0 38 14 59q3 9 8 28t7.5 25t9 17.5t15 14.5t23 6.5t35.5 3.5q22 0 32.5 -5t25.5 -22 q30 -30 30 -57q0 -11 -0.5 -16.5t-1 -7t-2.5 -8.5t-4 -17q0 -20 -12 -62q-4 -22 -23 -34.5t-43 -12.5q-39 0 -76.5 25.5t-37.5 62.5z" />
<glyph unicode="&#x202f;" horiz-adv-x="372" />
<glyph unicode="&#x2039;" horiz-adv-x="557" d="M55 440q0 61 215 232q188 147 242 147q23 0 41 -18t18 -43q0 -14 -27.5 -37t-97.5 -70q-101 -69 -155.5 -119.5t-54.5 -70.5q0 -22 42.5 -84.5t108.5 -126.5q11 -10 24.5 -23t21.5 -20.5t18 -17t16 -15.5t12.5 -13t10 -11.5l7 -9t4.5 -8.5t1 -7q0 -29 -37 -47 q-45 -23 -70 -23q-26 0 -65 32.5t-121 121.5q-66 72 -110 139t-44 92z" />
<glyph unicode="&#x203a;" horiz-adv-x="557" d="M55 117q0 14 27 36t98 70q101 69 156 120t55 71q0 22 -42.5 84.5t-108.5 126.5q-11 10 -24.5 23t-21.5 20.5t-18 17t-16 15.5t-12.5 13t-10 11.5l-7 9t-4.5 8.5t-1 7q0 29 37 47q43 22 69 22q27 0 66.5 -32.5t120.5 -120.5q65 -71 109 -138.5t44 -93.5q0 -60 -215 -231 q-189 -148 -241 -148q-23 0 -41.5 18.5t-18.5 43.5z" />
<glyph unicode="&#x205f;" horiz-adv-x="465" />
<glyph unicode="&#x20ac;" horiz-adv-x="1083" d="M35 460v7.5v7.5v6q0 27 12 68q9 37 109 37h4q25 91 61 166h-43q-34 0 -59 2q-23 0 -23 55q0 24 13 68q9 36 108 36h94q51 73 74 103q262 340 545 340q92 0 151.5 -42t59.5 -130q0 -71 -21 -108.5t-84 -41.5q-74 -4 -82 107q-12 43 -51 43q-56 0 -128 -48.5t-124 -103.5 t-102 -119h274q95 0 95 -34t-13 -101q-6 -27 -95 -26h-3h-3h-3h-359q-50 -91 -80 -166h400q94 0 94 -35q0 -39 -12 -100q-6 -27 -99 -27h-6h-417q-4 -60 -3 -78q3 -74 39 -117q21 -27 60.5 -44t77.5 -17q42 0 84 8.5t72.5 18.5t73 32t64.5 35t69.5 43.5t66.5 42.5 q13 10 31 -3.5t18 -31.5q2 -6 3.5 -14.5t3.5 -30.5t-5 -28q-36 -60 -127 -121q-97 -65 -190.5 -96t-204.5 -31q-3 0 -10.5 1t-10.5 1q-146 13 -227.5 111t-81.5 247q0 5 1 15.5t1 15.5q0 13 4 41h-14q-35 0 -60 2q-4 0 -7.5 1.5t-5.5 4l-4 5t-2.5 7t-1.5 8t-1 8.5z" />
<glyph unicode="&#x2122;" horiz-adv-x="1308" d="M88 1231q0 35 16.5 48t53.5 15l379 13q57 0 57 -27t-6 -51q-6 -21 -62 -21l-118 -6q-2 -7 -6.5 -22.5t-6.5 -22.5q-1 -4 -43 -156q-5 -19 -36.5 -135t-49.5 -176q-2 -6 -5 -19.5t-5 -19.5q-10 -30 -55 -30q-23 0 -43.5 15.5t-20.5 37.5q0 10 5 29t12.5 41.5t9.5 29.5 q10 33 28.5 99.5t28.5 99.5q63 209 68 227q-177 -6 -178 -6q-23 0 -23 37zM457 672v6q0 18 8 46.5t18 54.5t28 65.5t28.5 60.5t30 59t22.5 44q10 19 31 64.5t34 68.5q16 30 52 83.5t41 61.5q13 19 28 19q29 0 45 -19q21 -26 25 -80q3 -27 8.5 -73t9.5 -84.5t6 -73.5v2 q19 37 48 79.5t49 68.5t59 73q82 102 105 102q32 0 53.5 -20.5t21.5 -52.5q0 -8 -4.5 -35.5t-10.5 -59t-7 -42.5q-23 -182 -23 -336q0 -18 6.5 -53t6.5 -52q0 -26 -46 -26q-21 0 -35.5 6.5t-22 16t-11.5 26t-5 29.5t-1 34q0 55 14 256q4 70 8 109q-118 -162 -186 -303 q-2 -5 -7.5 -18t-8.5 -18.5t-11 -12t-20 -7.5h-10q-20 0 -34 16.5t-12 35.5q-3 5 -9.5 70.5t-14 145.5t-8.5 87q-47 -83 -113 -234q-14 -31 -26 -65.5t-26 -78.5t-22 -67q-6 -19 -15.5 -26t-29.5 -7q-33 0 -50 11.5t-17 42.5z" />
<glyph unicode="&#x25fc;" horiz-adv-x="860" d="M0 0v860h860v-860h-860z" />
<glyph unicode="&#xfb01;" horiz-adv-x="1157" d="M-320 -244.5q1 12.5 9 23t25.5 14t45.5 -3.5q45 -18 66 -18q31 -4 61 4q53 13 95 75t81 179q1 1 4.5 11t4.5 11q66 213 112 436q44 209 45 213h-77q-35 0 -60 2q-4 0 -7.5 1.5t-6 4t-4.5 5.5t-3.5 7.5l-2.5 7.5t-2 8.5t-1.5 8t-1 7.5t-0.5 6q-1 16 -0.5 19t3 10.5 t4.5 17.5q4 37 104 37h98q43 145 64 190q43 94 94 160q68 96 143 143q71 43 127 45q1 0 10 0.5l18 1t24.5 -1.5t31.5 -6q66 -22 97 -49q39 -34 49 -63q11 -25 14 -52v-2q5 -41 -21 -70.5t-67 -29.5q-43 0 -77 29.5t-38 70.5q-3 10 0 21q-4 31 -32 31q-23 -1 -27 -3 q-52 -9 -92 -68.5t-80 -178.5q-6 -6 -6 -23q-18 -58 -41 -145l504 -2q21 0 32 -4.5t25 -22.5q28 -32 31 -47q2 -10 0 -23q-2 -7 -7 -20t-8 -27q-33 -117 -59.5 -208t-35.5 -123t-26 -104.5t-51 -229.5q-5 -24 -29 -38.5t-61 -6.5l-12 4q-12 4 -25 10.5t-26.5 17.5 t-20.5 28.5t-4 39.5q7 39 12 63t8 35t12 41t17 56q35 119 61 223.5t52 193.5l-426 2q-23 -86 -35 -149q-9 -45 -27.5 -124.5t-21.5 -94.5q-50 -209 -102 -326q-42 -90 -95 -160q-72 -97 -145 -143q-61 -38 -131 -41q-43 0 -88 12q-55 12 -86 39q-8 6 -12 18t-3 24.5z M231 700zM950 1042q0 12 4.5 32t10.5 28q3 9 8.5 28t7.5 25t8.5 17t15 14t23 6.5t35.5 3.5q22 0 32 -5t25 -22q31 -31 31 -57q0 -11 -0.5 -16.5t-1 -7t-2.5 -8.5t-4 -17q0 -17 -13 -62q-4 -22 -22.5 -34.5t-42.5 -12.5q-39 0 -77 25.5t-38 62.5z" />
<glyph unicode="&#xfb02;" horiz-adv-x="1157" d="M-320 -244.5q1 12.5 9 23t25.5 14t45.5 -3.5q45 -18 66 -18q31 -4 61 4q53 13 95 75t81 179q1 1 4.5 11t4.5 11q66 213 112 436q32 152 49 220h-77q-35 0 -60 2q-5 0 -9 2t-7 6.5t-5 8t-3 10t-1.5 10l-1.5 10.5t-1 8q-1 17 -1 19.5t3 10t4 17.5q4 37 104 37h98 q45 152 60 184q43 94 94 160q68 96 143 143q71 43 127 45q1 0 10 0.5l18 1t24.5 -1.5t31.5 -6q66 -22 97 -49q39 -34 49 -63q11 -25 14 -52v-2q5 -41 -21 -70.5t-67 -29.5q-43 0 -77 29.5t-38 70.5q-3 10 0 21q-4 31 -32 31q-23 -1 -27 -3q-52 -9 -92 -68.5t-80 -178.5 q-6 -6 -6 -23q-6 -18 -37 -139l438 -8q74 293 103 391q17 55 41 77.5t61 22.5q21 0 32 -4.5t25 -21.5q28 -32 31 -47q2 -10 0 -23q-14 -45 -14 -47q-207 -743 -295 -1153q-5 -24 -29 -38.5t-61 -6.5q-1 0 -12 2.5t-23.5 8t-25.5 14t-19.5 25t-3.5 38.5q12 69 19.5 109 t30.5 130.5t60 214.5q24 86 45 168l-440 7q-33 -123 -39 -156q-9 -45 -27.5 -124.5t-21.5 -94.5q-50 -209 -102 -326q-42 -90 -95 -160q-72 -97 -145 -143q-61 -38 -131 -41q-43 0 -88 12q-55 12 -86 39q-8 6 -12 18t-3 24.5zM236 707z" />
</font>
</defs>
</svg>
