<?xml version="1.0" standalone="no"?>
<!DOCTYPE svg PUBLIC "-//W3C//DTD SVG 1.1//EN" "http://www.w3.org/Graphics/SVG/1.1/DTD/svg11.dtd" >
<svg xmlns="http://www.w3.org/2000/svg">
<metadata></metadata>
<defs>
<font id="sweetmix_2italic" horiz-adv-x="802" >
<font-face units-per-em="2048" ascent="1638" descent="-410" />
<missing-glyph horiz-adv-x="700" />
<glyph horiz-adv-x="0" />
<glyph horiz-adv-x="682" />
<glyph unicode=" "  horiz-adv-x="700" />
<glyph unicode="&#x09;" horiz-adv-x="700" />
<glyph unicode="&#xa0;" horiz-adv-x="700" />
<glyph unicode="!" horiz-adv-x="376" d="M150 -2l14 76h86l-14 -76h-86zM193 248l245 1399h92l-245 -1399h-92z" />
<glyph unicode="&#x22;" horiz-adv-x="657" d="M383 1313l70 395h104l-70 -395h-104zM651 1313l70 395h102l-69 -395h-103z" />
<glyph unicode="#" horiz-adv-x="1153" d="M152 483l26 72h201l92 256h-199l25 70h201l157 438h95l-160 -438h284l160 438h96l-159 -438h200l-24 -70h-203l-90 -256h199l-27 -72h-199l-159 -438h-95l160 438h-287l-159 -438h-92l159 438h-202zM473 555h285l92 256h-287z" />
<glyph unicode="$" horiz-adv-x="776" d="M121 233l8 56h94l-10 -60q-27 -164 123 -182l153 873q-133 67 -163 100q-58 58 -37 166l39 227q20 116 91.5 177.5t198.5 68.5l17 92h80l-17 -92q233 -18 193 -246l-12 -67h-88l14 71q27 164 -117 182l-113 -645q216 -103 195 -233l-86 -488q-43 -229 -281 -247l-20 -117 h-80l21 117q-246 15 -203 247zM381 1180q-14 -76 18 -123q29 -33 103 -68l106 610q-157 -15 -184 -182zM416 47q151 18 178 182l84 469q18 109 -117 183z" />
<glyph unicode="%" horiz-adv-x="1634" d="M246 -16l1224 1677h86l-1222 -1677h-88zM262 1075l57 328q46 248 326 248q288 0 242 -248l-58 -328q-44 -252 -331 -252q-280 0 -236 252zM354 1069q-18 -95 6 -135q30 -55 148 -55q191 0 225 190l60 338q34 190 -158 190q-187 0 -221 -190zM975 242l59 327 q43 248 324 248q287 0 244 -248l-60 -327q-44 -252 -330 -252q-280 0 -237 252zM1067 236q-17 -91 6 -136q30 -55 148 -55q190 0 225 191l59 337q35 191 -157 191q-187 0 -222 -191z" />
<glyph unicode="&#x26;" horiz-adv-x="933" d="M115 233l82 474q30 161 194 196q-153 42 -123 201l54 309q43 248 327 248l-10 -53q-193 0 -223 -191l-56 -307q-18 -102 17 -137q41 -41 172 -41h135l41 231h88l-41 -231h57l-10 -53h-57l-182 -1031q-30 -190 159 -190l-8 -51q-280 0 -237 248l28 163q-67 -34 -170 -34 q-284 0 -237 249zM205 229q-35 -194 155 -194q166 0 193 158l121 686h-135q-124 0 -178 -41t-72 -140z" />
<glyph unicode="'" horiz-adv-x="389" d="M383 1313l70 395h104l-70 -395h-104z" />
<glyph unicode="(" horiz-adv-x="479" d="M74 70l266 1505q44 250 328 250l-11 -53q-188 0 -225 -193l-266 -1513q-35 -195 156 -195l-9 -51q-283 0 -239 250z" />
<glyph unicode=")" horiz-adv-x="479" d="M31 -180l8 51q190 0 225 195l266 1513q37 193 -155 193l10 53q282 0 238 -250l-267 -1505q-44 -250 -325 -250z" />
<glyph unicode="*" horiz-adv-x="997" d="M307 1176l299 118l-258 121l64 70l260 -121l43 242h102l-43 -242l301 121l37 -70l-297 -121l256 -118l-61 -70l-260 123l-43 -244h-103l43 244l-301 -123z" />
<glyph unicode="+" horiz-adv-x="1081" d="M172 664l10 63h402l53 301h88l-53 -301h403l-10 -63h-403l-56 -306h-88l55 306h-401z" />
<glyph unicode="," horiz-adv-x="421" d="M84 -162l84 162h-51l63 104h125l-160 -266h-61z" />
<glyph unicode="-" horiz-adv-x="761" d="M215 623l12 63h523l-13 -63h-522z" />
<glyph unicode="." horiz-adv-x="385" d="M135 0l17 96h114l-16 -96h-115z" />
<glyph unicode="/" horiz-adv-x="915" d="M16 0l969 1661h90l-969 -1661h-90z" />
<glyph unicode="0" d="M139 193l223 1261q20 113 92.5 160t225.5 47q155 0 210.5 -46t35.5 -161l-224 -1261q-20 -115 -92.5 -162t-226.5 -47q-150 0 -207 48.5t-37 160.5zM229 188q-15 -86 19.5 -119.5t142.5 -33.5q107 0 155.5 34t63.5 119l224 1270q15 85 -21 117.5t-143 32.5 q-108 0 -155 -32.5t-62 -117.5z" />
<glyph unicode="1" horiz-adv-x="415" d="M188 -4l269 1517l-131 -49l14 84l231 99l-290 -1651h-93z" />
<glyph unicode="2" d="M106 0l23 137q92 515 330 658q105 41 235 104q49 43 64 127l69 391q30 191 -157 191q-143 0 -201 -113q-27 -70 -45 -201h-90l20 119q43 248 326 248q281 0 238 -248l-70 -391q-18 -109 -84 -160q-33 -26 -148 -74q-109 -47 -163 -98q-163 -153 -234 -555l-14 -80h473 l-8 -55h-564z" />
<glyph unicode="3" horiz-adv-x="770" d="M115 233l22 127h90l-24 -131q-35 -194 155 -194q191 0 226 194l84 469q15 98 -19 138q-40 43 -168 43h-90l10 53h91q129 0 182 41q47 35 65 137l56 307q30 191 -158 191q-193 0 -223 -191l-23 -123h-90l21 119q43 248 325 248q281 0 238 -248l-54 -309 q-30 -161 -196 -201q155 -35 125 -196l-82 -474q-46 -249 -328 -249t-235 249z" />
<glyph unicode="4" horiz-adv-x="890" d="M186 827q1 1 37 33q242 233 352 596q44 156 46 191h88q-34 -146 -50 -205q-99 -304 -305 -551h308l133 756h94l-133 -756h157l-10 -64h-158l-145 -827h-94l145 827h-465z" />
<glyph unicode="5" d="M147 233l23 127h90l-24 -131q-35 -194 155 -194t225 194l95 531q18 108 -11 141q-39 45 -139 45q-109 0 -272 -69l-29 4l135 766h563l-10 -58h-473l-108 -614q46 16 69 22q86 25 158 25q142 0 194 -94q36 -56 11 -187l-88 -508q-47 -249 -328 -249q-283 0 -236 249z" />
<glyph unicode="6" d="M147 233l207 1180q43 248 326 248q281 0 238 -248l-13 -67h-92l14 71q30 191 -157 191q-194 0 -224 -191l-90 -504q103 62 211 62q273 0 230 -248l-86 -494q-47 -249 -328 -249q-283 0 -236 249zM236 229q-35 -194 155 -194t225 194l89 500q34 193 -146 193 q-201 0 -235 -193z" />
<glyph unicode="7" horiz-adv-x="784" d="M250 0q-10 99 35 340q75 428 178 698q133 338 313 551h-438l10 58h592q-224 -184 -391 -615q-106 -272 -176 -676q-49 -275 -25 -356h-98z" />
<glyph unicode="8" d="M147 233l84 482q30 175 164 221q-116 43 -86 223l45 254q43 248 326 248q281 0 238 -248l-46 -254q-30 -177 -163 -223q116 -46 86 -221l-84 -482q-47 -249 -328 -249q-283 0 -236 249zM236 229q-35 -194 155 -194t225 194l86 488q34 192 -155 192q-191 0 -225 -192z M399 1155q-17 -97 21 -144.5t135 -47.5q191 0 225 192l47 262q30 191 -157 191q-194 0 -224 -191z" />
<glyph unicode="9" d="M147 233l11 66h90l-12 -70q-35 -194 155 -194t225 194l129 727q-94 -61 -223 -61q-258 0 -215 246l47 272q43 248 326 248q281 0 238 -248l-207 -1180q-47 -249 -328 -249q-283 0 -236 249zM397 1141q-35 -191 148 -191q198 0 233 191l49 276q30 191 -157 191 q-194 0 -224 -191z" />
<glyph unicode=":" horiz-adv-x="385" d="M135 0l17 96h114l-16 -96h-115zM250 655l16 97h115l-16 -97h-115z" />
<glyph unicode=";" horiz-adv-x="395" d="M55 -162l86 162h-51l62 104h127l-160 -266h-64zM250 655l16 97h115l-16 -97h-115z" />
<glyph unicode="&#x3c;" horiz-adv-x="1210" d="M266 659l8 48l990 370l-15 -80l-815 -313l705 -317l-15 -78z" />
<glyph unicode="=" horiz-adv-x="1525" d="M279 504l12 71h1202l-12 -71h-1202zM330 791l12 69h1202l-12 -69h-1202z" />
<glyph unicode="&#x3e;" horiz-adv-x="1210" d="M201 289l14 78l817 317l-706 313l14 80l858 -370l-8 -48z" />
<glyph unicode="?" horiz-adv-x="710" d="M236 1294l20 119q43 248 332 248q280 0 237 -248l-43 -244q-18 -109 -71 -165l-125 -82q-98 -70 -113 -162l-90 -512h-92l94 540q16 77 111 148l122 82q55 42 72 149l45 250q30 191 -157 191q-194 0 -224 -191l-22 -123h-96zM248 8l14 76h88l-14 -76h-88z" />
<glyph unicode="@" horiz-adv-x="1839" d="M180 555q59 321 281 561q321 348 772 348q302 0 469 -164q197 -194 145 -497q-40 -222 -96 -334q-108 -217 -188 -279q-135 -102 -308 -102q-132 0 -153 111q-107 -110 -293 -113q-120 -2 -173 44t-36 138q3 31 18 68l66 174q101 247 373 250q124 0 170 -58l88 244 q7 18 16 58q12 68 -22.5 101t-116.5 32q-185 -3 -258 -193l-27 -63h-88l23 59q104 247 372 250q123 1 175.5 -44.5t35.5 -137.5q-9 -46 -18 -66l-223 -604q-6 -14 -10 -41q-11 -63 20.5 -103.5t89.5 -39.5q220 6 340 243q105 203 141 410q43 248 -86 412q-144 182 -465 182 q-296 0 -538 -184q-337 -260 -410 -676q-51 -284 82 -484q155 -227 522 -227q305 0 603 193l16 -39q-296 -215 -617 -215q-409 0 -589 247q-158 217 -103 539zM692 274q-24 -140 137 -137q190 3 261 197l67 182q10 24 17 57q12 67 -23 101.5t-115 32.5q-190 -3 -260 -193 l-67 -182q-16 -53 -17 -58z" />
<glyph unicode="A" horiz-adv-x="868" d="M27 0l606 1647h76l26 -1647h-90l-8 776h-244l-284 -776h-82zM418 840h219l4 645z" />
<glyph unicode="B" horiz-adv-x="798" d="M104 0l289 1647h275q143 1 205 -57q47 -43 47 -120q0 -25 -5 -53l-49 -268q-27 -159 -190 -199q125 -32 125 -153q0 -22 -4 -47l-86 -494q-27 -144 -82 -193q-72 -63 -250 -63h-275zM205 53h157q129 0 183 39.5t73 140.5l91 512q5 31 5 57q0 58 -28 84q-40 38 -170 38 h-158zM367 975h157q134 0 185.5 38t70.5 144l45 254q6 34 6 61q0 55 -26 81q-39 38 -170 38h-158z" />
<glyph unicode="C" horiz-adv-x="776" d="M119 231l209 1180q44 250 325 250q244 0 244 -187q0 -29 -6 -63l-10 -53h-93l11 57q5 29 5 54q0 135 -161 135q-192 0 -227 -189l-209 -1188q-5 -29 -6 -53q0 -135 166 -135q188 0 223 188l12 64h92l-12 -60q-44 -249 -326 -249q-243 0 -243 187q0 29 6 62z" />
<glyph unicode="D" d="M106 0l289 1647h275q166 0 225 -68q27 -32 27 -100q0 -38 -9 -88l-204 -1164q-40 -227 -328 -227h-275zM205 53h164q133 0 186 41q45 36 63 139l207 1180q6 32 6 57q0 55 -27 81q-39 38 -165 38h-164z" />
<glyph unicode="E" horiz-adv-x="792" d="M104 0l289 1647h555l-8 -56h-463l-110 -616h381l-9 -51h-381l-153 -871h463l-9 -53h-555z" />
<glyph unicode="F" horiz-adv-x="806" d="M117 0l289 1647h557l-11 -58h-465l-106 -608h375l-11 -55h-374l-162 -926h-92z" />
<glyph unicode="G" d="M147 233l207 1180q43 248 326 248q244 0 244 -187q0 -28 -6 -61l-21 -119h-92l22 123q4 26 4 49q0 142 -161 142q-194 0 -224 -191l-210 -1188q-5 -30 -5 -56q0 -138 160 -138q190 0 225 194l121 686h-153l12 66h246l-131 -748q-47 -249 -328 -249q-243 0 -243 183 q0 31 7 66z" />
<glyph unicode="H" horiz-adv-x="808" d="M115 0l288 1647h93l-119 -672h381l119 672h88l-289 -1647h-88l162 924h-381l-162 -924h-92z" />
<glyph unicode="I" horiz-adv-x="331" d="M106 0l289 1647h92l-288 -1647h-93z" />
<glyph unicode="J" horiz-adv-x="749" d="M88 233l23 127h94l-25 -131q-6 -37 -6 -67q0 -45 14 -70q37 -57 148 -57q190 0 225 194l250 1418h94l-248 -1414q-47 -249 -329 -249q-247 0 -247 184q0 30 7 65z" />
<glyph unicode="K" horiz-adv-x="874" d="M133 0l289 1647h92l-127 -725l553 723h90l-631 -822l342 -821h-90l-299 721l-127 -723h-92z" />
<glyph unicode="L" d="M113 0l288 1647h93l-281 -1594h465l-8 -53h-557z" />
<glyph unicode="M" horiz-adv-x="1064" d="M115 0l288 1649h119l21 -1524l100 303l457 1221h121l-289 -1647h-88l256 1471l-86 -265l-453 -1206h-76l-34 1196l12 264l-256 -1462h-92z" />
<glyph unicode="N" horiz-adv-x="808" d="M115 0l288 1647h119v-2l4 2l101 -1416l250 1416h88l-289 -1647h-115v8l-104 1417l-250 -1425h-92z" />
<glyph unicode="O" d="M145 231l209 1180q44 250 326 250q244 0 243 -187q0 -29 -5 -63l-209 -1180q-43 -249 -326 -249q-244 0 -244 187q0 29 6 62zM236 227q-5 -29 -6 -54q0 -134 163 -134q188 0 223 188l209 1188q5 29 5 54q0 135 -160 135q-191 0 -226 -189z" />
<glyph unicode="P" horiz-adv-x="825" d="M131 0l289 1647h274q174 0 228 -66q25 -32 25 -95q0 -33 -7 -75l-49 -281q-37 -204 -324 -204h-182l-162 -926h-92zM395 981h158q133 0 188 37q49 37 64 121l51 295q3 20 3 37q1 53 -31 81q-42 37 -169 37h-157z" />
<glyph unicode="Q" horiz-adv-x="942" d="M135 -178q91 110 242 110q104 0 196 -51l43 -22l152 -82l-61 -58l-195 103q-83 45 -160 45q-81 0 -153 -78zM145 231l209 1180q44 250 326 250q244 0 244 -187q0 -29 -6 -63l-209 -1180q-43 -249 -326 -249q-244 0 -244 187q0 29 6 62zM236 227q-5 -29 -5 -54 q0 -134 162 -134q188 0 223 188l209 1188q5 29 5 54q0 135 -160 135q-191 0 -226 -189z" />
<glyph unicode="R" horiz-adv-x="815" d="M121 0l289 1647h274q173 0 227 -66q23 -30 23 -93q0 -41 -10 -97l-43 -250q-30 -165 -189 -199q120 -36 120 -159q0 -25 -5 -54l-127 -729h-86l127 721q5 28 5 51q0 59 -32 89q-44 42 -166 42h-157l-158 -903h-92zM383 967h158q130 0 182.5 38t71.5 142l47 266q5 29 5 53 q0 56 -29 84q-41 38 -169 39h-157z" />
<glyph unicode="S" horiz-adv-x="776" d="M121 233l8 56h94l-10 -60q-4 -25 -4 -46q0 -138 166 -138q189 0 219 184l84 469q2 13 2 26q0 65 -51 114q-15 13 -129 75q-147 78 -172 103q-44 44 -44 117q0 25 5 53l39 227q43 248 329 248q240 0 240 -186q0 -29 -6 -62l-12 -67h-88l14 71q4 25 4 47q0 138 -164 138 q-191 0 -221 -185l-43 -237q-4 -23 -4 -43q0 -61 37 -95q23 -25 133 -73q125 -58 168 -101q57 -53 57 -122q0 -12 -2 -25l-86 -488q-46 -249 -324 -249q-246 0 -246 184q0 30 7 65z" />
<glyph unicode="T" horiz-adv-x="856" d="M303 1589l10 58h697l-11 -58h-297l-278 -1589h-92l278 1589h-307z" />
<glyph unicode="U" d="M147 233l248 1414h90l-249 -1418q-5 -28 -5 -52q0 -134 162 -134q189 0 223 186l250 1418h92l-247 -1414q-47 -249 -328 -249q-243 0 -243 183q0 31 7 66z" />
<glyph unicode="V" horiz-adv-x="819" d="M315 1647h95l2 -1463l520 1463h92l-604 -1647h-76z" />
<glyph unicode="W" horiz-adv-x="1386" d="M340 0l2 45l2 1604l92 -2l-30 -1502l92 287l407 1215h76l-31 -1500l500 1500l92 2l-561 -1649h-92v47l29 1456l-76 -266l-406 -1237h-96z" />
<glyph unicode="X" horiz-adv-x="868" d="M27 0l452 842l-164 805h103l121 -746l393 746h92l-451 -820l162 -827h-102l-121 756l-391 -756h-94z" />
<glyph unicode="Y" horiz-adv-x="856" d="M303 1647h100l132 -705l383 705h92l-451 -803l-147 -844h-93l148 848z" />
<glyph unicode="Z" horiz-adv-x="798" d="M51 0l780 1589h-489l10 58h602l-780 -1594h492l-9 -53h-606z" />
<glyph unicode="[" horiz-adv-x="487" d="M49 -193l359 2030h270l-10 -53h-179l-339 -1925h178l-9 -52h-270z" />
<glyph unicode="\" horiz-adv-x="915" d="M309 1661h90l383 -1661h-90z" />
<glyph unicode="]" horiz-adv-x="487" d="M49 -193l8 52h179l339 1925h-178l11 53h270l-359 -2030h-270z" />
<glyph unicode="^" horiz-adv-x="759" d="M471 1098l229 528h76l43 -528h-90l-18 377l-150 -377h-90z" />
<glyph unicode="_" horiz-adv-x="1525" d="M-37 -205l12 68h1522l-12 -68h-1522z" />
<glyph unicode="`" horiz-adv-x="610" d="M356 1661h142l231 -227h-141z" />
<glyph unicode="a" d="M147 233l31 175q44 249 324 249q127 0 180 -59l43 244q5 29 5 54q0 138 -161 138q-191 0 -225 -192l-10 -64h-90l10 60q44 249 324 249q245 0 245 -187q0 -29 -6 -62l-106 -605q-47 -249 -328 -249q-243 0 -243 183q0 31 7 66zM236 229q-5 -30 -6 -56q0 -138 161 -138 q190 0 225 194l33 183q5 29 5 54q0 138 -160 138q-192 0 -226 -192z" />
<glyph unicode="b" horiz-adv-x="808" d="M147 231l246 1389h96l-106 -600q67 76 205 76q242 0 242 -184q0 -31 -7 -66l-108 -615q-43 -249 -326 -249q-248 0 -248 188q0 28 6 61zM240 227q-5 -28 -6 -53q0 -135 167 -135q189 0 224 188l108 623q3 22 3 41q0 147 -161 147q-195 0 -225 -188z" />
<glyph unicode="c" d="M147 233l107 605q44 249 324 249q245 0 245 -187q0 -29 -6 -62l-20 -117h-92l20 121q5 29 5 54q0 138 -161 138q-191 0 -225 -192l-108 -613q-5 -30 -6 -56q0 -138 161 -138q190 0 225 194l25 131h92l-22 -127q-47 -249 -328 -249q-243 0 -243 183q0 31 7 66z" />
<glyph unicode="d" horiz-adv-x="808" d="M147 231l109 615q47 250 326 250q142 0 176 -76l106 600h97l-246 -1389q-43 -249 -326 -249q-248 0 -248 188q0 28 6 61zM238 227q-5 -29 -6 -54q0 -134 163 -134q193 0 228 188l110 623q4 26 4 48q0 140 -162 140q-187 0 -225 -188z" />
<glyph unicode="e" horiz-adv-x="794" d="M139 233l107 605q44 249 325 249q244 0 243 -187q0 -29 -5 -62l-39 -220h-471l-70 -389q-5 -29 -5 -53q0 -139 163 -139q189 0 223 192l13 64h90l-11 -60q-46 -249 -325 -249q-245 0 -245 183q0 31 7 66zM305 672h383l31 170q5 30 5 55q0 139 -161 139q-187 0 -225 -194z " />
<glyph unicode="f" horiz-adv-x="718" d="M121 0l178 1014h-90l10 61h90l58 320q43 252 325 252h223l-8 -56h-223q-191 0 -225 -190l-58 -326h371l-10 -61h-371l-178 -1014h-92z" />
<glyph unicode="g" horiz-adv-x="790" d="M45 -266l10 65h92l-12 -69q-4 -24 -4 -45q0 -136 168 -136q192 0 219 181l53 319q-64 -76 -204 -76q-243 0 -243 184q0 30 7 66l109 615q44 249 323 249q248 0 248 -188q0 -28 -6 -61l-195 -1104q-47 -250 -325 -250q-141 0 -202 63q-44 46 -44 124q0 29 6 63zM219 219 q-4 -26 -4 -48q0 -140 162 -140q193 0 223 188l111 623q5 29 5 53q0 135 -163 135q-188 0 -223 -188z" />
<glyph unicode="h" d="M98 0l289 1647h92l-106 -607q80 47 205 47q245 0 244 -187q0 -29 -5 -62l-147 -838h-92l147 842q5 30 5 55q0 139 -161 139q-190 0 -225 -194l-147 -842h-99z" />
<glyph unicode="i" horiz-adv-x="337" d="M113 0l188 1073h92l-188 -1073h-92zM340 1298l22 127h93l-23 -127h-92z" />
<glyph unicode="j" horiz-adv-x="354" d="M-150 -473l9 51q190 0 225 191l229 1304h88l-229 -1298q-43 -248 -322 -248zM358 1300l23 127h90l-22 -127h-91z" />
<glyph unicode="k" horiz-adv-x="897" d="M106 0l289 1647h92l-178 -1016l492 442h98l-555 -512l418 -559h-94l-383 490l-86 -492h-93z" />
<glyph unicode="l" horiz-adv-x="337" d="M113 0l276 1579l105 68l-289 -1647h-92z" />
<glyph unicode="m" horiz-adv-x="1273" d="M106 0l148 840q44 250 324 250q167 0 223 -89q83 89 248 89q245 0 245 -187q0 -29 -6 -63l-147 -840h-92l147 844q5 30 5 55q0 139 -161 139q-191 0 -215 -153l-155 -885h-92l147 844q5 30 5 55q0 139 -161 139q-190 0 -225 -194l-147 -844h-91z" />
<glyph unicode="n" horiz-adv-x="806" d="M109 0l147 840q44 250 324 250q247 0 246 -188q0 -29 -5 -62l-147 -840h-94l147 844q5 30 5 55q0 139 -161 139q-190 0 -225 -194l-147 -844h-90z" />
<glyph unicode="o" horiz-adv-x="776" d="M119 223l108 615q43 249 324 249q246 0 245 -188q0 -29 -5 -61l-109 -615q-47 -250 -328 -250q-242 0 -242 184q0 30 7 66zM205 219q-4 -26 -4 -48q0 -140 164 -140q193 0 223 188l110 623q5 29 5 54q0 134 -162 134q-191 0 -226 -188z" />
<glyph unicode="p" horiz-adv-x="790" d="M2 -502l238 1340q44 249 327 249q244 0 244 -187q0 -29 -6 -62l-109 -615q-47 -250 -325 -250q-138 0 -178 76l-99 -551h-92zM221 219q-4 -26 -4 -48q0 -140 164 -140q193 0 223 188l111 623q5 29 5 53q0 135 -163 135q-190 0 -225 -188z" />
<glyph unicode="q" horiz-adv-x="790" d="M131 223l109 615q44 249 323 249q248 0 248 -188q0 -28 -6 -61l-238 -1340h-94l98 551q-64 -76 -204 -76q-243 0 -243 184q0 30 7 66zM219 219q-4 -26 -4 -48q0 -140 162 -140q193 0 223 188l111 623q5 29 5 53q0 135 -163 135q-188 0 -223 -188z" />
<glyph unicode="r" horiz-adv-x="712" d="M106 0l148 838q44 249 324 249q211 0 217 -174l-93 -14q-6 127 -143 127q-181 0 -215 -184l-151 -842h-87z" />
<glyph unicode="s" horiz-adv-x="784" d="M129 233l8 56h94l-10 -60q-4 -25 -4 -46q0 -138 166 -138q189 0 219 184l14 80q3 16 3 30q0 63 -52 110q-12 11 -127 75q-148 77 -174 103q-43 45 -43 121q0 23 4 49l9 43q43 247 327 247q242 0 242 -185q0 -29 -6 -62l-8 -47h-89l9 51q5 28 5 51q0 133 -163 133 q-189 0 -223 -184l-8 -53q-5 -25 -5 -47q0 -58 37 -91q19 -25 131 -73q123 -57 170 -101q57 -54 57 -119q0 -14 -3 -28l-17 -99q-46 -249 -323 -249q-247 0 -247 184q0 30 7 65z" />
<glyph unicode="t" horiz-adv-x="686" d="M213 229l139 785h-82l11 61h81l64 357h88l-63 -357h274l-10 -61h-275l-137 -789q-9 -54 -8 -88q0 -25 4 -39q20 -57 127 -57q65 0 106 27l21 -68q-50 -20 -129 -20q-144 0 -190 56q-30 36 -29 108q0 37 8 85z" />
<glyph unicode="u" d="M147 233l148 840h90l-149 -844q-5 -30 -6 -56q0 -138 161 -138q190 0 225 194l150 844h92l-147 -840q-47 -249 -328 -249q-243 0 -243 183q0 31 7 66z" />
<glyph unicode="v" horiz-adv-x="645" d="M207 1073h94l18 -559l-2 -405l140 391l217 573h92l-430 -1073h-74z" />
<glyph unicode="w" horiz-adv-x="1273" d="M147 233l148 840h90l-149 -844q-5 -30 -6 -56q0 -138 161 -138q190 0 225 194l150 844h92l-147 -840l-6 -28q-1 -14 -1 -26q0 -144 158 -144q190 0 225 194l150 844h92l-147 -840q-46 -249 -328 -249q-85 0 -143.5 36t-67.5 93q-33 -56 -105.5 -92.5t-154.5 -36.5 q-243 0 -243 183q0 31 7 66z" />
<glyph unicode="x" horiz-adv-x="778" d="M39 0l342 561l-125 512h90l103 -444l266 444h94l-305 -495l141 -578h-90l-125 520l-295 -520h-96z" />
<glyph unicode="y" d="M59 -266l11 65h92l-12 -69q-4 -24 -4 -45q0 -136 167 -136q193 0 217 181l56 319q-64 -76 -205 -76q-243 0 -243 184q0 30 7 66l150 850h90l-152 -854q-4 -26 -4 -48q0 -140 162 -140q193 0 223 188l152 854h92l-235 -1339q-47 -250 -326 -250q-245 0 -245 184q0 31 7 66 z" />
<glyph unicode="z" horiz-adv-x="784" d="M18 0l699 1016h-490l11 57h602l-703 -1020h490l-9 -53h-600z" />
<glyph unicode="{" horiz-adv-x="710" d="M244 782l10 56q189 0 223 192l94 539q44 250 326 250l-10 -54q-193 0 -223 -192l-13 -78l-80 -461q-30 -169 -172 -225q123 -53 93 -223l-97 -539q-37 -192 156 -192l-10 -54q-282 0 -238 250l12 72l84 467q34 192 -155 192z" />
<glyph unicode="|" horiz-adv-x="923" d="M655 -295l361 2046h82l-361 -2046h-82z" />
<glyph unicode="}" horiz-adv-x="710" d="M70 -199l10 54q98 0 153 47.5t72 144.5l10 78l82 461q30 170 168 223q-118 55 -88 225l96 539q34 192 -157 192l10 54q284 0 240 -250l-15 -72l-84 -467q-34 -192 158 -192l-10 -56q-192 0 -226 -192l-92 -539q-44 -250 -327 -250z" />
<glyph unicode="~" horiz-adv-x="1363" d="M244 868q88 149 274 152q60 0 152 -21l86 -20l268 -66q74 -18 125 -18q133 0 188 98l66 -16q-89 -150 -277 -150q-65 0 -147 21l-354 86q-77 18 -127 18q-133 0 -191 -98z" />
<glyph unicode="&#xa1;" horiz-adv-x="376" d="M115 -186l247 1398h93l-248 -1398h-92zM399 1386l13 76h84l-13 -76h-84z" />
<glyph unicode="&#xa2;" d="M82 -82l86 148q-42 57 -21 167l89 502q44 250 323 250q64 0 123 -16l68 112h90l-88 -149q71 -62 47 -197l-11 -55h-92l11 59q11 59 -5 109l-440 -770q40 -43 129 -43q190 0 225 194l13 70h92l-10 -66q-47 -249 -328 -249q-101 0 -156 30l-55 -96h-90zM229 176l420 735 q-35 21 -98 21q-191 0 -225 -193l-90 -510q-7 -44 -7 -53z" />
<glyph unicode="&#xa3;" horiz-adv-x="811" d="M113 0l151 864h-119l13 70h118l84 479q43 248 328 248q281 0 238 -248l-21 -119h-92l23 123q30 191 -158 191q-193 0 -223 -191l-86 -483h364l-12 -70h-365l-143 -811h465l-8 -53h-557z" />
<glyph unicode="&#xa4;" horiz-adv-x="1105" d="M274 565l93 62q-76 76 -58 196q21 116 127 193l-71 59l69 45l72 -61q122 67 260 67q146 0 246 -71l100 65l49 -45l-100 -67q68 -76 49 -185q-18 -112 -117 -186l78 -72l-65 -43l-80 70q-116 -70 -273 -70q-131 0 -231 62l-94 -62zM385 823q-19 -106 62.5 -177t222.5 -71 q137 0 241 71.5t123 176.5q20 106 -58.5 175t-219.5 69q-138 0 -245 -70t-126 -174z" />
<glyph unicode="&#xa5;" horiz-adv-x="849" d="M152 449l12 71h239l29 158h-239l12 72h239l17 98l-164 799h100l131 -705l385 705h93l-453 -803l-16 -94h245l-12 -72h-246l-28 -158h245l-12 -71h-246l-77 -449h-93l78 449h-239z" />
<glyph unicode="&#xa6;" horiz-adv-x="518" d="M219 -309l150 846h110l-149 -846h-111zM408 756l147 846h111l-148 -846h-110z" />
<glyph unicode="&#xa7;" d="M115 47l8 47h86l-10 -51q-30 -184 159 -184q194 0 224 184l10 53q15 89 -33 137q-27 27 -133 74q-123 57 -170 101q-65 62 -53 147l6 37q37 196 217 239q-85 46 -115 87q-33 50 -18 145l8 43q43 248 330 248q276 0 233 -248l-8 -47h-86l8 51q34 184 -157 184 q-192 0 -226 -184l-10 -53q-15 -90 35 -137q23 -26 131 -74q121 -56 172 -101q66 -66 51 -147l-6 -37q-34 -196 -217 -239q83 -41 115 -84q36 -54 18 -148l-6 -43q-46 -248 -330 -248q-279 0 -233 248zM293 578q-12 -82 47 -136q29 -26 121 -73l2 4q187 0 217 184l4 18 q15 82 -45 136q-38 30 -123 73v-4q-189 0 -219 -184z" />
<glyph unicode="&#xa8;" horiz-adv-x="563" d="M309 1520l19 96h114l-18 -96h-115zM582 1520l18 96h115l-19 -96h-114z" />
<glyph unicode="&#xa9;" horiz-adv-x="1552" d="M307 1094q47 262 219 403q198 162 533 162q652 0 553 -565q-47 -263 -221 -406q-198 -162 -531 -162q-332 0 -473 164q-127 148 -80 404zM393 1094q-40 -221 68 -357q123 -147 409 -147q569 0 658 504q86 501 -479 501q-570 0 -656 -501zM700 879l80 454q34 193 254 193 q219 0 185 -193l-9 -45h-80l11 49q24 140 -115 140q-134 0 -158 -140l-82 -463q-24 -139 109 -139q140 0 164 139l10 58h80l-10 -53q-34 -193 -252 -193q-221 0 -187 193z" />
<glyph unicode="&#xaa;" horiz-adv-x="806" d="M268 911l17 93q43 249 323 249q124 0 183 -47l34 191q34 192 -157 192q-190 0 -224 -192l-4 -23h-90l2 19q47 249 326 249q286 0 240 -249l-84 -482q-44 -249 -330 -249q-280 0 -236 249zM358 907q-35 -194 156 -194q190 0 225 194l17 101q17 97 -21 144.5t-135 47.5 q-191 0 -225 -192z" />
<glyph unicode="&#xab;" horiz-adv-x="909" d="M266 659l8 48l388 350l-13 -80l-260 -293l156 -297l-15 -78zM567 659l8 48l386 350l-13 -80l-260 -293l156 -297l-15 -78z" />
<glyph unicode="&#xac;" horiz-adv-x="1388" d="M225 729l13 70h1157l-56 -320h-86l43 250h-1071z" />
<glyph unicode="&#xad;" horiz-adv-x="761" d="M223 664l10 63h523l-11 -63h-522z" />
<glyph unicode="&#xae;" horiz-adv-x="1552" d="M305 1087q102 568 752 568q655 0 553 -568q-47 -261 -226 -403q-192 -162 -528 -162q-333 0 -473 162q-124 146 -78 403zM389 1087q-40 -223 70 -354q120 -147 409 -147q566 0 654 501q89 502 -478 502q-566 0 -655 -502zM684 688l145 823h191q164 0 216 -49.5t28 -175.5 l-4 -22q-12 -72 -59.5 -117t-125.5 -60q145 -41 121 -188l-37 -211h-88l35 203q17 90 -26.5 126t-166.5 36h-71l-64 -365h-94zM852 1110h72q134 0 183.5 31t66.5 129l6 35q15 92 -26.5 124.5t-168.5 32.5h-72z" />
<glyph unicode="&#xaf;" horiz-adv-x="729" d="M451 1825l12 69h467l-12 -69h-467z" />
<glyph unicode="&#xb0;" horiz-adv-x="1034" d="M332 1319q23 130 152.5 215.5t303.5 85.5q171 0 265 -88q101 -85 80 -213t-154 -215q-137 -88 -299 -88q-173 0 -272 86t-76 217zM408 1319q-19 -106 62 -176t222 -70t244.5 70t122.5 176q18 100 -64 172q-83 74 -217 74q-141 0 -246 -70t-124 -176z" />
<glyph unicode="&#xb1;" horiz-adv-x="1132" d="M141 205l13 63h893l-13 -63h-893zM223 664l10 63h404l53 301h86l-53 -301h403l-10 -63h-403l-56 -306h-86l56 306h-404z" />
<glyph unicode="&#xb2;" horiz-adv-x="702" d="M319 649l80 447q21 123 185 135q43 3 106 20q22 14 31 72l33 184q9 42 -2 78q-21 27 -82 27q-54 0 -88 -27q-22 -25 -31 -78l-14 -82h-80l14 80q27 156 209 156q181 0 154 -156l-33 -186q-12 -74 -49.5 -103t-133.5 -36q-38 -3 -110 -23q-23 -14 -29 -61l-69 -398h282 l-10 -49h-363z" />
<glyph unicode="&#xb3;" horiz-adv-x="702" d="M346 793l14 86h80l-14 -88q-18 -105 82 -105q103 0 121 105l53 307q11 58 -9.5 78t-92.5 20h-66l10 47h66q70 0 106 25q23 33 29 78l29 159q7 48 -2 76q-26 29 -82 29q-101 0 -119 -105l-14 -82h-80l14 76q27 160 207 160q183 0 156 -160l-29 -158q-15 -89 -96 -120 q71 -27 53 -121l-53 -307q-27 -158 -211 -158q-179 0 -152 158z" />
<glyph unicode="&#xb4;" horiz-adv-x="610" d="M315 1434l314 227h141l-313 -227h-142z" />
<glyph unicode="&#xb5;" horiz-adv-x="858" d="M27 -434l268 1507h90l-149 -844q-35 -194 155 -194t225 194l150 844h92l-147 -840q-27 -151 -142 -210l119 -222h-115l-102 189q-44 -6 -88 -6q-120 0 -182 47l-82 -465h-92z" />
<glyph unicode="&#xb6;" horiz-adv-x="1071" d="M262 1151l41 240q24 138 88 190q75 66 250 66h586l-10 -66h-82l-301 -1704h-95l301 1704h-135l-301 -1704h-92l184 1049h-182q-292 0 -252 225z" />
<glyph unicode="&#xb7;" horiz-adv-x="360" d="M250 637l18 96h86l-18 -96h-86z" />
<glyph unicode="&#xb8;" horiz-adv-x="694" d="M201 -399l8 43h147q71 0 80 61l15 78q4 26 -9.5 38.5t-44.5 12.5h-82l35 191h66l-27 -150h53q94 0 82 -82l-16 -88q-18 -104 -160 -104h-147z" />
<glyph unicode="&#xb9;" horiz-adv-x="600" d="M412 645l10 55h45l154 875l-60 -16l10 57l142 37l-168 -953h43l-10 -55h-166z" />
<glyph unicode="&#xba;" horiz-adv-x="585" d="M254 1124l68 383q27 156 227 156q98 0 140 -39t28 -117l-68 -383q-27 -159 -223 -159q-100 0 -143 39.5t-29 119.5zM338 1120q-18 -106 96 -106q113 0 131 106l68 387q18 109 -92 109q-117 0 -135 -109z" />
<glyph unicode="&#xbb;" horiz-adv-x="909" d="M205 309l14 78l260 297l-155 293l12 80l264 -350l-8 -48zM506 309l14 78l258 297l-153 293l12 80l262 -350l-8 -48z" />
<glyph unicode="&#xbc;" horiz-adv-x="1265" d="M-35 657l10 58h37l154 872l-62 -18l11 57l143 41l-168 -952h45l-10 -58h-160zM16 0l969 1661h90l-969 -1661h-90zM762 553l387 451h78l-72 -406h82l-8 -45h-82l-96 -553h-78l96 553h-307zM895 598h182l49 274z" />
<glyph unicode="&#xbd;" horiz-adv-x="1249" d="M-35 657l10 58h37l154 872l-62 -18l11 57l143 41l-168 -952h45l-10 -58h-160zM16 0l969 1661h90l-969 -1661h-90zM760 0l78 444q22 129 180 138q50 3 108 20q21 15 33 72l31 184q21 107 -82 107q-57 0 -94 -29q-23 -40 -31 -78l-14 -82h-74l14 78q27 160 207 160 q177 0 150 -160l-33 -186q-13 -80 -53 -105q-26 -16 -127 -31q-97 -15 -117 -28q-16 -9 -25 -60l-69 -393h282l-8 -51h-356z" />
<glyph unicode="&#xbe;" horiz-adv-x="1265" d="M-98 793l14 86h80l-14 -88q-9 -48 2 -76q23 -29 79 -29q101 0 119 105l54 307q11 58 -9.5 78t-93.5 20h-67l10 47h67q69 0 105 25q22 13 31 78l28 159q9 54 -2 76q-23 29 -80 29q-58 0 -90 -29q-21 -27 -31 -76l-14 -82h-80l15 76q27 160 208 160t154 -160l-29 -158 q-15 -89 -96 -120q71 -27 53 -121l-53 -307q-27 -158 -209 -158q-178 0 -151 158zM16 0l969 1661h90l-969 -1661h-90zM762 553l387 451h78l-72 -406h82l-8 -45h-82l-96 -553h-78l96 553h-307zM895 598h182l49 274z" />
<glyph unicode="&#xbf;" horiz-adv-x="710" d="M20 72l43 243q18 108 72 166l123 82q97 66 115 162l90 512h92l-96 -541q-12 -75 -109 -147l-125 -82q-51 -39 -69 -150l-45 -249q-35 -191 157 -191q189 0 224 191l22 122h96l-20 -118q-46 -248 -332 -248q-281 0 -238 248zM496 1401l14 76h88l-14 -76h-88z" />
<glyph unicode="&#xc0;" horiz-adv-x="868" d="M27 0h82l284 776h244l8 -776h90l-26 1647h-76zM418 840l223 645l-4 -645h-219zM532 2042h115l260 -227h-114z" />
<glyph unicode="&#xc1;" horiz-adv-x="868" d="M27 0l606 1647h76l26 -1647h-90l-8 776h-244l-284 -776h-82zM418 840h219l4 645zM494 1815l337 227h115l-338 -227h-114z" />
<glyph unicode="&#xc2;" horiz-adv-x="868" d="M27 0l606 1647h76l26 -1647h-90l-8 776h-244l-284 -776h-82zM418 840h219l4 645zM426 1815l244 227h141l166 -227h-115l-127 170l-194 -170h-115z" />
<glyph unicode="&#xc3;" horiz-adv-x="929" d="M27 0l606 1647h76l26 -1647h-90l-8 776h-244l-284 -776h-82zM319 1901q88 104 222 104q70 0 168 -31l73 -22q44 -15 123 -33q95 -9 156 61l78 -22q-84 -112 -262 -100q-47 3 -222 57q-66 18 -100 20q-102 9 -160 -55zM418 840h219l4 645z" />
<glyph unicode="&#xc4;" horiz-adv-x="868" d="M27 0l606 1647h76l26 -1647h-90l-8 776h-244l-284 -776h-82zM418 840h219l4 645zM518 1878l17 96h114l-16 -96h-115zM791 1878l16 96h115l-17 -96h-114z" />
<glyph unicode="&#xc5;" horiz-adv-x="868" d="M27 0l606 1647h76l26 -1647h-90l-8 776h-244l-284 -776h-82zM418 840h219l4 645zM514 1872l2 14q27 156 227 156q97 0 139 -39t29 -117l-2 -14q-30 -160 -223 -160q-101 0 -144 40t-28 120zM598 1868q-18 -107 96 -107q111 0 129 107l4 18q18 109 -92 109 q-115 0 -133 -109z" />
<glyph unicode="&#xc6;" horiz-adv-x="1329" d="M27 0l919 1647h539l-8 -56h-463l-111 -616h463l-8 -51h-463l-154 -871h463l-8 -53h-551l141 776h-245l-432 -776h-82zM575 840h224l104 583z" />
<glyph unicode="&#xc7;" horiz-adv-x="776" d="M119 231l209 1180q44 250 325 250q282 0 238 -250l-10 -53h-93l11 57q35 189 -156 189q-192 0 -227 -189l-209 -1188q-35 -188 160 -188q188 0 223 188l12 64h92l-12 -60q-40 -240 -301 -249l-19 -107h54q94 0 82 -82l-17 -88q-18 -104 -159 -104h-148l8 43h148 q71 0 80 61l14 78q4 26 -9.5 38.5t-43.5 12.5h-82l26 150q-237 15 -196 247z" />
<glyph unicode="&#xc8;" horiz-adv-x="792" d="M104 0h555l9 53h-463l153 871h381l9 51h-381l110 616h463l8 56h-555zM502 2042h114l263 -227h-115z" />
<glyph unicode="&#xc9;" horiz-adv-x="792" d="M104 0l289 1647h555l-8 -56h-463l-110 -616h381l-9 -51h-381l-153 -871h463l-9 -53h-555zM463 1815l340 227h115l-340 -227h-115z" />
<glyph unicode="&#xca;" horiz-adv-x="792" d="M104 0l289 1647h555l-8 -56h-463l-110 -616h381l-9 -51h-381l-153 -871h463l-9 -53h-555zM395 1815l244 227h141l166 -227h-115l-126 170l-195 -170h-115z" />
<glyph unicode="&#xcb;" horiz-adv-x="792" d="M104 0l289 1647h555l-8 -56h-463l-110 -616h381l-9 -51h-381l-153 -871h463l-9 -53h-555zM487 1878l17 96h114l-16 -96h-115zM760 1878l16 96h115l-17 -96h-114z" />
<glyph unicode="&#xcc;" horiz-adv-x="493" d="M106 0h93l288 1647h-92zM301 2042h117l262 -227h-115z" />
<glyph unicode="&#xcd;" horiz-adv-x="493" d="M106 0l289 1647h92l-288 -1647h-93zM262 1815l342 227h115l-340 -227h-117z" />
<glyph unicode="&#xce;" horiz-adv-x="561" d="M106 0l289 1647h92l-288 -1647h-93zM195 1815l245 227h142l166 -227h-115l-127 170l-197 -170h-114z" />
<glyph unicode="&#xcf;" horiz-adv-x="479" d="M106 0l289 1647h92l-288 -1647h-93zM287 1878l16 96h117l-17 -96h-116zM561 1878l17 96h114l-16 -96h-115z" />
<glyph unicode="&#xd0;" d="M106 0l289 1647h275q166 0 225 -68q42 -51 18 -188l-204 -1164q-40 -227 -328 -227h-275zM205 53h164q133 0 186 41q45 36 63 139l207 1180q18 100 -21 138t-165 38h-164l-119 -678h215l-12 -63h-215z" />
<glyph unicode="&#xd1;" horiz-adv-x="921" d="M115 0l288 1647h119v-2l4 2l101 -1416l250 1416h88l-289 -1647h-115v8l-104 1417l-250 -1425h-92zM311 1901q88 104 221 104q70 0 168 -31l74 -22q44 -15 123 -33q98 -9 156 61l77 -22q-84 -112 -262 -100q-46 3 -221 57q-66 18 -100 20q-102 9 -160 -55z" />
<glyph unicode="&#xd2;" d="M145 231q-43 -249 238 -249q283 0 326 249l209 1180q44 250 -238 250t-326 -250zM236 227l208 1188q35 189 226 189q190 0 155 -189l-209 -1188q-35 -188 -223 -188q-192 0 -157 188zM541 2042h114l260 -227h-114z" />
<glyph unicode="&#xd3;" d="M145 231l209 1180q44 250 326 250t238 -250l-209 -1180q-43 -249 -326 -249q-281 0 -238 249zM236 227q-35 -188 157 -188q188 0 223 188l209 1188q35 189 -155 189q-191 0 -226 -189zM502 1815l338 227h114l-338 -227h-114z" />
<glyph unicode="&#xd4;" d="M145 231l209 1180q44 250 326 250t238 -250l-209 -1180q-43 -249 -326 -249q-281 0 -238 249zM236 227q-35 -188 157 -188q188 0 223 188l209 1188q35 189 -155 189q-191 0 -226 -189zM434 1815l244 227h141l166 -227h-115l-127 170l-194 -170h-115z" />
<glyph unicode="&#xd5;" horiz-adv-x="925" d="M145 231l209 1180q44 250 326 250t238 -250l-209 -1180q-43 -249 -326 -249q-281 0 -238 249zM236 227q-35 -188 157 -188q188 0 223 188l209 1188q35 189 -155 189q-191 0 -226 -189zM317 1901q88 104 220 104q68 0 170 -31l73 -22q34 -12 121 -33q97 -9 158 61l78 -22 q-87 -112 -265 -100q-43 3 -221 57q-61 17 -98 20q-105 9 -160 -55z" />
<glyph unicode="&#xd6;" d="M145 231l209 1180q44 250 326 250t238 -250l-209 -1180q-43 -249 -326 -249q-281 0 -238 249zM236 227q-35 -188 157 -188q188 0 223 188l209 1188q35 189 -155 189q-191 0 -226 -189zM526 1878l17 96h114l-16 -96h-115zM799 1878l16 96h115l-17 -96h-114z" />
<glyph unicode="&#xd7;" horiz-adv-x="909" d="M168 481l324 213l-248 215l71 45l246 -215l326 215l49 -45l-326 -215l250 -213l-65 -47l-250 215l-322 -215z" />
<glyph unicode="&#xd8;" horiz-adv-x="905" d="M6 0l144 248l204 1163q44 250 326 250q182 0 229 -109l64 109h90l-145 -250l-209 -1180q-43 -249 -326 -249q-191 0 -231 114l-56 -96h-90zM236 227q-35 -188 157 -188q188 0 223 188l170 959zM279 469l546 946q35 189 -155 189q-191 0 -226 -189z" />
<glyph unicode="&#xd9;" d="M147 233q-47 -249 236 -249q281 0 328 249l247 1414h-92l-250 -1418q-34 -186 -223 -186q-191 0 -157 186l249 1418h-90zM541 2042h114l260 -227h-114z" />
<glyph unicode="&#xda;" d="M147 233l248 1414h90l-249 -1418q-34 -186 157 -186q189 0 223 186l250 1418h92l-247 -1414q-47 -249 -328 -249q-283 0 -236 249zM502 1815l338 227h114l-338 -227h-114z" />
<glyph unicode="&#xdb;" d="M147 233l248 1414h90l-249 -1418q-34 -186 157 -186q189 0 223 186l250 1418h92l-247 -1414q-47 -249 -328 -249q-283 0 -236 249zM434 1815l244 227h141l166 -227h-115l-127 170l-194 -170h-115z" />
<glyph unicode="&#xdc;" d="M147 233l248 1414h90l-249 -1418q-34 -186 157 -186q189 0 223 186l250 1418h92l-247 -1414q-47 -249 -328 -249q-283 0 -236 249zM526 1878l17 96h114l-16 -96h-115zM799 1878l16 96h115l-17 -96h-114z" />
<glyph unicode="&#xdd;" horiz-adv-x="856" d="M303 1647h100l132 -705l383 705h92l-451 -803l-147 -844h-93l148 848zM477 1815l338 227h115l-338 -227h-115z" />
<glyph unicode="&#xde;" horiz-adv-x="825" d="M113 0l288 1647h93l-74 -426h196q177 0 228 -66q41 -49 16 -192l-41 -236q-41 -225 -330 -225h-196l-88 -502h-92zM301 553h176q127 0 180.5 39t71.5 139l45 256q19 101 -20 139.5t-168 38.5h-176z" />
<glyph unicode="&#xdf;" horiz-adv-x="868" d="M106 -8l248 1411q46 248 326 248q184 0 227 -101q26 -70 0 -221q-19 -105 -89 -170t-224 -121q-88 -30 -94 -67t69 -74q8 -3 131 -41q76 -29 115 -74q46 -55 31 -151l-90 -504q-20 -117 -122.5 -183.5t-258.5 -66.5l8 55q112 0 189 53t92 138l90 512q18 107 -76 156 q-119 40 -182 61q-98 42 -84 121q12 66 168 119q158 53 206 145q17 26 39 168q38 194 -155 194q-188 0 -226 -194l-245 -1413h-93z" />
<glyph unicode="&#xe0;" d="M147 233q-47 -249 236 -249q281 0 328 249l106 605q43 249 -239 249q-280 0 -324 -249l-10 -60h90l10 64q34 192 225 192q190 0 156 -192l-43 -244q-53 59 -180 59q-280 0 -324 -249zM236 229l32 183q34 192 226 192q189 0 155 -192l-33 -183q-35 -194 -225 -194 t-155 194zM438 1456h115l258 -227h-115z" />
<glyph unicode="&#xe1;" d="M147 233l31 175q44 249 324 249q127 0 180 -59l43 244q34 192 -156 192q-191 0 -225 -192l-10 -64h-90l10 60q44 249 324 249q282 0 239 -249l-106 -605q-47 -249 -328 -249q-283 0 -236 249zM236 229q-35 -194 155 -194t225 194l33 183q34 192 -155 192 q-192 0 -226 -192zM397 1229l340 227h115l-340 -227h-115z" />
<glyph unicode="&#xe2;" d="M147 233l31 175q44 249 324 249q127 0 180 -59l43 244q34 192 -156 192q-191 0 -225 -192l-10 -64h-90l10 60q44 249 324 249q282 0 239 -249l-106 -605q-47 -249 -328 -249q-283 0 -236 249zM236 229q-35 -194 155 -194t225 194l33 183q34 192 -155 192 q-192 0 -226 -192zM330 1229l245 227h142l164 -227h-115l-125 170l-197 -170h-114z" />
<glyph unicode="&#xe3;" horiz-adv-x="925" d="M147 233l31 175q44 249 324 249q127 0 180 -59l43 244q34 192 -156 192q-191 0 -225 -192l-10 -64h-90l10 60q44 249 324 249q282 0 239 -249l-106 -605q-47 -249 -328 -249q-283 0 -236 249zM215 1315q88 104 219 104q71 0 170 -30l72 -23q34 -12 121 -33q97 -9 159 62 l78 -23q-90 -112 -264 -100q-42 3 -221 57q-66 19 -98 21q-104 9 -160 -56zM236 229q-35 -194 155 -194t225 194l33 183q34 192 -155 192q-192 0 -226 -192z" />
<glyph unicode="&#xe4;" d="M147 233l31 175q44 249 324 249q127 0 180 -59l43 244q34 192 -156 192q-191 0 -225 -192l-10 -64h-90l10 60q44 249 324 249q282 0 239 -249l-106 -605q-47 -249 -328 -249q-283 0 -236 249zM236 229q-35 -194 155 -194t225 194l33 183q34 192 -155 192 q-192 0 -226 -192zM424 1290l16 96h115l-16 -96h-115zM696 1290l17 96h114l-16 -96h-115z" />
<glyph unicode="&#xe5;" d="M147 233l31 175q44 249 324 249q127 0 180 -59l43 244q34 192 -156 192q-191 0 -225 -192l-10 -64h-90l10 60q44 249 324 249q282 0 239 -249l-106 -605q-47 -249 -328 -249q-283 0 -236 249zM236 229q-35 -194 155 -194t225 194l33 183q34 192 -155 192 q-192 0 -226 -192zM420 1307l2 14q27 156 227 156q98 0 140 -39t28 -117l-2 -14q-27 -160 -225 -160q-99 0 -141.5 40t-28.5 120zM504 1303q-21 -107 94 -107q112 0 133 107l2 18q18 109 -92 109q-117 0 -135 -109z" />
<glyph unicode="&#xe6;" horiz-adv-x="1277" d="M147 227l17 92q44 250 330 250h186l45 267q37 192 -156 192q-188 0 -225 -192l-10 -64h-90l10 59q46 252 326 252q161 0 221 -84q85 91 254 91q281 0 237 -250l-16 -92q-41 -232 -326 -232h-186l-51 -285q-34 -192 157 -192q190 0 224 192l12 64h90l-10 -59 q-46 -252 -326 -252q-161 0 -221 84q-85 -91 -254 -91q-282 0 -238 250zM238 223q-35 -194 155 -194t225 194l52 293h-187q-195 0 -229 -192zM774 569h187q191 0 225 174l16 101q35 194 -155 194q-191 0 -226 -194z" />
<glyph unicode="&#xe7;" d="M147 233l107 605q44 249 324 249q282 0 239 -249l-20 -117h-92l20 121q34 192 -156 192q-191 0 -225 -192l-108 -613q-35 -194 155 -194t225 194l25 131h92l-22 -127q-44 -240 -303 -249l-19 -109h53q94 0 82 -82l-16 -88q-18 -104 -160 -104h-147l8 43h147q71 0 80 61 l15 78q4 26 -9.5 38.5t-44.5 12.5h-82l27 152q-239 15 -195 247z" />
<glyph unicode="&#xe8;" horiz-adv-x="794" d="M139 233q-47 -249 238 -249q279 0 325 249l11 60h-90l-13 -64q-34 -192 -223 -192q-192 0 -158 192l70 389h471l39 220q43 249 -238 249t-325 -249zM305 672l33 170q38 194 225 194q191 0 156 -194l-31 -170h-383zM428 1456h115l258 -227h-115z" />
<glyph unicode="&#xe9;" horiz-adv-x="794" d="M139 233l107 605q44 249 325 249t238 -249l-39 -220h-471l-70 -389q-34 -192 158 -192q189 0 223 192l13 64h90l-11 -60q-46 -249 -325 -249q-285 0 -238 249zM305 672h383l31 170q35 194 -156 194q-187 0 -225 -194zM387 1229l340 227h115l-340 -227h-115z" />
<glyph unicode="&#xea;" horiz-adv-x="794" d="M139 233l107 605q44 249 325 249t238 -249l-39 -220h-471l-70 -389q-34 -192 158 -192q189 0 223 192l13 64h90l-11 -60q-46 -249 -325 -249q-285 0 -238 249zM305 672h383l31 170q35 194 -156 194q-187 0 -225 -194zM319 1229l244 227h142l163 -227h-114l-123 170 l-199 -170h-113z" />
<glyph unicode="&#xeb;" horiz-adv-x="794" d="M139 233l107 605q44 249 325 249t238 -249l-39 -220h-471l-70 -389q-34 -192 158 -192q189 0 223 192l13 64h90l-11 -60q-46 -249 -325 -249q-285 0 -238 249zM305 672h383l31 170q35 194 -156 194q-187 0 -225 -194zM412 1290l16 96h115l-17 -96h-114zM684 1290l16 96 h115l-16 -96h-115z" />
<glyph unicode="&#xec;" horiz-adv-x="497" d="M113 0h92l188 1073h-92zM207 1456h115l258 -227h-115z" />
<glyph unicode="&#xed;" horiz-adv-x="497" d="M113 0l188 1073h92l-188 -1073h-92zM166 1229l340 227h115l-340 -227h-115z" />
<glyph unicode="&#xee;" horiz-adv-x="567" d="M98 1229l246 227h141l162 -227h-112l-125 170l-197 -170h-115zM113 0l188 1073h92l-188 -1073h-92z" />
<glyph unicode="&#xef;" horiz-adv-x="485" d="M113 0l188 1073h92l-188 -1073h-92zM193 1290l16 96h115l-17 -96h-114zM465 1290l16 96h115l-16 -96h-115z" />
<glyph unicode="&#xf0;" horiz-adv-x="798" d="M145 223l86 492q44 250 326 250q128 0 178 -68l60 340h-336l10 63h336l12 60q18 107 -40 171t-165 62l9 54q157 5 234 -73.5t52 -217.5l-198 -1133q-47 -250 -328 -250q-283 0 -236 250zM233 219q-30 -188 158 -188q193 0 223 188l88 500q35 188 -155 188t-225 -188z" />
<glyph unicode="&#xf1;" horiz-adv-x="925" d="M109 0l147 840q44 250 324 250q285 0 241 -250l-147 -840h-94l147 844q35 194 -156 194q-190 0 -225 -194l-147 -844h-90zM215 1315q88 104 219 104q71 0 170 -30l72 -23q34 -12 121 -33q97 -9 159 62l78 -23q-90 -112 -264 -100q-42 3 -221 57q-66 19 -98 21 q-104 9 -160 -56z" />
<glyph unicode="&#xf2;" horiz-adv-x="776" d="M119 223q-47 -250 235 -250q281 0 328 250l109 615q43 249 -240 249q-281 0 -324 -249zM205 219l110 623q35 188 226 188q192 0 157 -188l-110 -623q-30 -188 -223 -188q-190 0 -160 188zM436 1456h115l258 -227h-115z" />
<glyph unicode="&#xf3;" horiz-adv-x="776" d="M119 223l108 615q43 249 324 249q283 0 240 -249l-109 -615q-47 -250 -328 -250q-282 0 -235 250zM205 219q-30 -188 160 -188q193 0 223 188l110 623q35 188 -157 188q-191 0 -226 -188zM395 1229l340 227h115l-340 -227h-115z" />
<glyph unicode="&#xf4;" horiz-adv-x="794" d="M119 223l108 615q43 249 324 249q283 0 240 -249l-109 -615q-47 -250 -328 -250q-282 0 -235 250zM205 219q-30 -188 160 -188q193 0 223 188l110 623q35 188 -157 188q-191 0 -226 -188zM328 1229l243 227h142l164 -227h-115l-123 170l-199 -170h-112z" />
<glyph unicode="&#xf5;" horiz-adv-x="923" d="M119 223l108 615q43 249 324 249q283 0 240 -249l-109 -615q-47 -250 -328 -250q-282 0 -235 250zM205 219q-30 -188 160 -188q193 0 223 188l110 623q35 188 -157 188q-191 0 -226 -188zM213 1315q85 104 219 104q73 0 168 -30l72 -23q44 -15 123 -33q97 -9 159 62 l78 -23q-90 -112 -264 -100q-46 3 -221 57q-70 19 -101 21q-100 9 -159 -56z" />
<glyph unicode="&#xf6;" horiz-adv-x="776" d="M119 223l108 615q43 249 324 249q283 0 240 -249l-109 -615q-47 -250 -328 -250q-282 0 -235 250zM205 219q-30 -188 160 -188q193 0 223 188l110 623q35 188 -157 188q-191 0 -226 -188zM420 1290l16 96h115l-16 -96h-115zM692 1290l17 96h114l-16 -96h-115z" />
<glyph unicode="&#xf7;" horiz-adv-x="1087" d="M217 717l12 69h861l-13 -69h-860zM545 457l16 96h115l-17 -96h-114zM631 950l18 97h115l-19 -97h-114z" />
<glyph unicode="&#xf8;" horiz-adv-x="860" d="M39 -20l84 114q-19 54 -4 129l108 615q43 249 324 249q161 0 217 -83l59 83h91l-123 -172q3 -29 -4 -77l-109 -615q-47 -250 -328 -250q-129 0 -192 54l-33 -47h-90zM205 213l497 698q-9 119 -161 119q-191 0 -226 -188zM215 98q34 -67 150 -67q193 0 223 188l96 539z " />
<glyph unicode="&#xf9;" d="M147 233q-47 -249 236 -249q281 0 328 249l147 840h-92l-150 -844q-35 -194 -225 -194t-155 194l149 844h-90zM438 1456h115l258 -227h-115z" />
<glyph unicode="&#xfa;" d="M147 233l148 840h90l-149 -844q-35 -194 155 -194t225 194l150 844h92l-147 -840q-47 -249 -328 -249q-283 0 -236 249zM397 1229l340 227h115l-340 -227h-115z" />
<glyph unicode="&#xfb;" d="M147 233l148 840h90l-149 -844q-35 -194 155 -194t225 194l150 844h92l-147 -840q-47 -249 -328 -249q-283 0 -236 249zM330 1229l245 227h142l164 -227h-115l-125 170l-197 -170h-114z" />
<glyph unicode="&#xfc;" d="M147 233l148 840h90l-149 -844q-35 -194 155 -194t225 194l150 844h92l-147 -840q-47 -249 -328 -249q-283 0 -236 249zM424 1290l16 96h115l-16 -96h-115zM696 1290l17 96h114l-16 -96h-115z" />
<glyph unicode="&#xfd;" d="M59 -266l11 65h92l-12 -69q-30 -181 163 -181t217 181l56 319q-64 -76 -205 -76q-283 0 -236 250l150 850h90l-152 -854q-30 -188 158 -188q193 0 223 188l152 854h92l-235 -1339q-47 -250 -326 -250q-285 0 -238 250zM397 1229l340 227h115l-340 -227h-115z" />
<glyph unicode="&#xfe;" horiz-adv-x="790" d="M2 -502l367 2075h92l-99 -553q67 67 205 67q281 0 238 -249l-109 -615q-47 -250 -325 -250q-138 0 -178 76l-99 -551h-92zM221 219q-30 -188 160 -188q193 0 223 188l111 623q35 188 -158 188q-190 0 -225 -188z" />
<glyph unicode="&#xff;" d="M59 -266l11 65h92l-12 -69q-30 -181 163 -181t217 181l56 319q-64 -76 -205 -76q-283 0 -236 250l150 850h90l-152 -854q-30 -188 158 -188q193 0 223 188l152 854h92l-235 -1339q-47 -250 -326 -250q-285 0 -238 250zM424 1290l16 96h115l-16 -96h-115zM696 1290l17 96 h114l-16 -96h-115z" />
<glyph unicode="&#x152;" horiz-adv-x="1255" d="M137 227l205 1164q24 137 84 188q83 68 250 68h735l-8 -56h-461l-111 -616h379l-8 -51h-379l-153 -871h460l-8 -53h-735q-146 0 -208 56.5t-42 170.5zM231 233q-17 -102 15 -139q35 -41 170 -41h164l270 1536h-164q-126 0 -178.5 -38t-69.5 -138z" />
<glyph unicode="&#x153;" horiz-adv-x="1277" d="M150 236l106 604q44 250 324 250q164 0 221 -91q85 91 254 91q281 0 237 -250l-16 -92q-44 -250 -330 -250h-186l-47 -267q-34 -192 157 -192q190 0 224 192l12 64h90l-10 -59q-46 -252 -326 -252q-161 0 -221 84q-69 -84 -227 -84q-308 0 -262 252zM238 231 q-17 -96 29.5 -145t154.5 -49q83 0 131 48t65 146l109 613q17 97 -21 144.5t-135 47.5q-191 0 -225 -192zM770 551h186q193 0 230 192l16 101q35 194 -155 194q-191 0 -226 -194z" />
<glyph unicode="&#x178;" horiz-adv-x="856" d="M303 1647h100l132 -705l383 705h92l-451 -803l-147 -844h-93l148 848zM502 1878l16 96h115l-17 -96h-114zM774 1878l17 96h114l-16 -96h-115z" />
<glyph unicode="&#x2c6;" horiz-adv-x="860" d="M428 1434l246 227h141l164 -227h-141l-103 149l-164 -149h-143z" />
<glyph unicode="&#x2dc;" horiz-adv-x="1046" d="M373 1528q85 104 219 104q74 0 168 -30l71 -23q49 -16 125 -33q96 -9 158 62l78 -23q-90 -112 -264 -100q-47 4 -221 57q-70 19 -101 21q-101 9 -160 -56z" />
<glyph unicode="&#x2000;" horiz-adv-x="1021" />
<glyph unicode="&#x2001;" horiz-adv-x="2042" />
<glyph unicode="&#x2002;" horiz-adv-x="1021" />
<glyph unicode="&#x2003;" horiz-adv-x="2042" />
<glyph unicode="&#x2004;" horiz-adv-x="680" />
<glyph unicode="&#x2005;" horiz-adv-x="510" />
<glyph unicode="&#x2006;" horiz-adv-x="340" />
<glyph unicode="&#x2007;" horiz-adv-x="340" />
<glyph unicode="&#x2008;" horiz-adv-x="255" />
<glyph unicode="&#x2009;" horiz-adv-x="408" />
<glyph unicode="&#x200a;" horiz-adv-x="113" />
<glyph unicode="&#x2010;" horiz-adv-x="761" d="M215 623l12 63h523l-13 -63h-522z" />
<glyph unicode="&#x2011;" horiz-adv-x="761" d="M215 623l12 63h523l-13 -63h-522z" />
<glyph unicode="&#x2012;" horiz-adv-x="761" d="M215 623l12 63h523l-13 -63h-522z" />
<glyph unicode="&#x2013;" horiz-adv-x="1519" d="M115 670l8 49h1388l-8 -49h-1388z" />
<glyph unicode="&#x2014;" horiz-adv-x="2549" d="M115 670l8 49h2419l-9 -49h-2418z" />
<glyph unicode="&#x2018;" horiz-adv-x="436" d="M346 1321l172 328h62l-97 -224h70l-51 -104h-156z" />
<glyph unicode="&#x2019;" horiz-adv-x="436" d="M356 1321l97 223h-68l51 105h156l-172 -328h-64z" />
<glyph unicode="&#x201a;" horiz-adv-x="421" d="M84 -162l84 162h-51l63 104h125l-160 -266h-61z" />
<glyph unicode="&#x201c;" horiz-adv-x="735" d="M346 1321l172 328h62l-97 -224h70l-51 -104h-156zM645 1321l172 328h64l-97 -224h68l-51 -104h-156z" />
<glyph unicode="&#x201d;" horiz-adv-x="735" d="M356 1321l97 223h-68l51 105h156l-172 -328h-64zM655 1321l97 223h-68l51 105h156l-172 -328h-64z" />
<glyph unicode="&#x201e;" horiz-adv-x="694" d="M84 -162l84 162h-51l63 104h125l-160 -266h-61zM356 -162l84 162h-51l64 104h125l-160 -266h-62z" />
<glyph unicode="&#x2022;" horiz-adv-x="528" d="M233 598l37 209h267l-37 -209h-267z" />
<glyph unicode="&#x2026;" horiz-adv-x="1038" d="M135 0l17 96h114l-16 -96h-115zM463 0l16 96h115l-16 -96h-115zM791 0l16 96h115l-17 -96h-114z" />
<glyph unicode="&#x202f;" horiz-adv-x="408" />
<glyph unicode="&#x2039;" horiz-adv-x="610" d="M266 659l8 48l388 350l-13 -80l-260 -293l156 -297l-15 -78z" />
<glyph unicode="&#x203a;" horiz-adv-x="610" d="M205 309l14 78l260 297l-155 293l12 80l264 -350l-8 -48z" />
<glyph unicode="&#x205f;" horiz-adv-x="510" />
<glyph unicode="&#x20ac;" horiz-adv-x="872" d="M127 678l39 72h137l37 213h-88l43 71h59l66 379q43 248 328 248q280 0 237 -248l-6 -37l-100 -41l16 82q30 191 -158 191q-193 0 -223 -191l-68 -383h328l-43 -71h-299l-37 -213h226l-39 -72h-199l-80 -449q-35 -194 156 -194q190 0 225 194l16 90l84 -40l-6 -46 q-46 -249 -327 -249q-285 0 -238 249l78 445h-164z" />
<glyph unicode="&#x2122;" horiz-adv-x="1089" d="M360 1599l9 48h364l-8 -48h-145l-138 -776h-69l137 776h-150zM678 823l145 824h92l9 -564l-17 -145l37 145l205 564h96l-145 -824h-68l115 670l-217 -670h-86l18 645l-114 -645h-70z" />
<glyph unicode="&#x25fc;" horiz-adv-x="1075" d="M0 0v1075h1075v-1075h-1075z" />
<glyph unicode="&#xfb01;" horiz-adv-x="937" d="M121 0l178 1014h-90l10 61h90l58 320q43 252 325 252h223l-8 -56h-223q-191 0 -225 -190l-58 -326l590 -2l-188 -1073h-92l178 1012l-498 2l-178 -1014h-92zM938 1298l23 127h92l-23 -127h-92z" />
<glyph unicode="&#xfb02;" horiz-adv-x="964" d="M121 0l178 1014h-90l10 61h90l58 320q43 252 325 252h223l-8 -56h-223q-191 0 -225 -190l-58 -326h525l88 504l106 68l-289 -1647h-94l178 1014h-524l-178 -1014h-92z" />
</font>
</defs>
</svg>
