<?xml version="1.0" standalone="no"?>
<!DOCTYPE svg PUBLIC "-//W3C//DTD SVG 1.1//EN" "http://www.w3.org/Graphics/SVG/1.1/DTD/svg11.dtd" >
<svg xmlns="http://www.w3.org/2000/svg">
<metadata></metadata>
<defs>
<font id="sweetmix_1bold_italic" horiz-adv-x="604" >
<font-face units-per-em="2048" ascent="1638" descent="-410" />
<missing-glyph horiz-adv-x="526" />
<glyph horiz-adv-x="0" />
<glyph horiz-adv-x="682" />
<glyph unicode=" "  horiz-adv-x="526" />
<glyph unicode="&#x09;" horiz-adv-x="526" />
<glyph unicode="&#xa0;" horiz-adv-x="526" />
<glyph unicode="!" horiz-adv-x="282" d="M92 -2l21 113h100l-20 -113h-101zM133 240l246 1386h106l-245 -1386h-107z" />
<glyph unicode="&#x22;" horiz-adv-x="493" d="M317 1264l76 422h113l-76 -422h-113zM510 1264l76 422h114l-75 -422h-115z" />
<glyph unicode="#" horiz-adv-x="866" d="M117 465l33 108h145q60 183 67 207h-145l33 107h145q30 90 131 424h109l-133 -424h168q30 90 131 424h110l-133 -424h146l-33 -107h-148q-9 -29 -31.5 -98.5t-33.5 -108.5h143l-30 -108h-148q-12 -38 -59.5 -191t-73.5 -231h-109l134 422h-168q-21 -68 -65 -211.5 t-66 -210.5h-107l131 422h-143zM401 573h168l68 207h-168q-59 -174 -68 -207z" />
<glyph unicode="$" horiz-adv-x="583" d="M84 244l14 73h109l-14 -75q-21 -121 43 -152l143 805q-97 72 -109 96q-43 57 -24 170l39 219q44 233 223 256l16 90h101l-17 -90q163 -36 123 -256l-14 -84h-103l17 88q21 126 -41 148l-103 -582q151 -102 127 -235l-84 -471q-20 -118 -71.5 -180.5t-141.5 -75.5 l-18 -115h-100l18 115q-173 24 -133 256zM336 90q71 25 92 152l80 450q15 78 -41 137zM354 1155q-12 -69 6 -106q14 -21 37 -41l95 528q-35 -12 -61 -52t-36 -100z" />
<glyph unicode="%" horiz-adv-x="1228" d="M158 -16l981 1654h106l-981 -1654h-106zM229 1055l56 315q46 260 270 260t178 -260l-55 -315q-47 -262 -270 -262q-226 0 -179 262zM334 930q16 -45 90 -45q115 0 145 164l58 325q27 164 -88 164q-119 0 -146 -164l-57 -325q-15 -82 -2 -119zM711 252l55 315 q46 260 270 260q227 0 181 -260l-56 -315q-47 -262 -272 -262t-178 262zM815 127q16 -45 90 -45q118 0 148 164l57 325q27 164 -90 164q-119 0 -146 -164l-57 -325q-15 -82 -2 -119z" />
<glyph unicode="&#x26;" horiz-adv-x="702" d="M80 244l82 456q24 140 121 191q-78 57 -54 192l52 297q46 258 292 258l-16 -90q-141 0 -168 -164l-53 -294q-16 -96 4 -121q22 -31 109 -31h77l39 221h103l-39 -221h43l-17 -92h-43l-170 -973q-30 -164 111 -164l-14 -88q-245 0 -199 258l22 125q-44 -20 -102 -20 q-224 0 -180 260zM186 242q-27 -168 90 -168q100 0 121 131l113 641h-78q-77 0 -114 -35t-52 -119z" />
<glyph unicode="'" horiz-adv-x="292" d="M315 1264l76 422h115l-76 -422h-115z" />
<glyph unicode="(" horiz-adv-x="360" d="M43 86l256 1450q47 262 289 262l-17 -92q-135 0 -165 -166l-256 -1458q-30 -166 106 -166l-14 -90q-246 0 -199 260z" />
<glyph unicode=")" horiz-adv-x="360" d="M0 -174l12 90q138 0 168 166l256 1458q30 166 -108 166l16 92q246 0 199 -262l-256 -1450q-47 -260 -287 -260z" />
<glyph unicode="*" horiz-adv-x="749" d="M254 1159l207 107q-65 45 -168 108l76 103l172 -109l39 217h112l-39 -217q11 6 92.5 48.5t118.5 60.5l37 -103l-207 -108l168 -107l-74 -102l-170 110l-38 -219h-113l39 219q-204 -105 -213 -110z" />
<glyph unicode="+" horiz-adv-x="813" d="M139 639l17 100h293l51 291h102l-51 -291h291l-17 -100h-290l-54 -293h-102l53 293h-293z" />
<glyph unicode="," horiz-adv-x="317" d="M29 -156l69 156h-39l68 139h135l-145 -295h-88z" />
<glyph unicode="-" horiz-adv-x="573" d="M166 600l18 100h420l-18 -100h-420z" />
<glyph unicode="." horiz-adv-x="288" d="M82 0l22 133h123l-22 -133h-123z" />
<glyph unicode="/" horiz-adv-x="688" d="M-10 0l790 1638h109l-791 -1638h-108z" />
<glyph unicode="0" d="M98 205l215 1216q20 118 79 167.5t181 49.5q123 0 166 -48.5t21 -168.5l-215 -1216q-22 -121 -82 -171t-182 -50q-118 0 -160.5 51t-22.5 170zM203 201q-12 -71 8 -99t86 -28q67 0 98 28t43 99l215 1222q12 71 -8.5 98t-87.5 27q-66 0 -96.5 -27.5t-42.5 -97.5z" />
<glyph unicode="1" horiz-adv-x="313" d="M119 -4l256 1446q-17 -8 -51.5 -24t-44.5 -21l22 127l215 116l-291 -1644h-106z" />
<glyph unicode="2" d="M63 0l27 152q42 249 104 399t154 233q17 15 65.5 40t86 49t41.5 45q31 38 43 108l63 358q27 164 -90 164q-88 0 -127 -92q-24 -82 -43 -209h-104l22 133q46 258 268 258q114 0 158 -63.5t21 -194.5l-62 -354q-25 -132 -78 -188q-43 -37 -116 -76q-86 -49 -117 -90 q-118 -139 -186 -522l-11 -58h342l-14 -92h-447z" />
<glyph unicode="3" horiz-adv-x="579" d="M80 244l26 143h105l-27 -145q-27 -168 90 -168q119 0 146 168l80 450q16 92 -2 121l-2 -2q-24 35 -107 35h-84l17 92h84q82 0 118 31q30 27 45 121l54 294q27 164 -88 164q-121 0 -148 -164l-25 -137h-104l23 133q23 131 89.5 194.5t180.5 63.5q112 0 155.5 -63.5 t20.5 -194.5l-51 -297q-24 -135 -121 -192q77 -50 53 -191l-82 -456q-44 -260 -268 -260q-222 0 -178 260z" />
<glyph unicode="4" horiz-adv-x="669" d="M127 797q1 0 19.5 17.5t21.5 21.5q12 12 20 22q183 216 279 565q37 149 43 203h102q-6 -27 -8 -45q-1 -2 -37 -174q-81 -280 -229 -510h172l129 729h106l-129 -729h115l-18 -100h-115l-139 -797h-107l140 797h-365z" />
<glyph unicode="5" d="M104 244l27 143h105l-27 -145q-27 -168 88 -168q120 0 147 168l91 510q18 97 2 125q-21 34 -86 34q-77 0 -197 -69l-43 6l139 778h447l-19 -96h-342l-94 -539q2 1 5 2t7 2t6 2q68 27 127 27q114 0 152 -100q21 -60 0 -191l-88 -489q-44 -260 -270 -260q-221 0 -177 260z " />
<glyph unicode="6" d="M104 244l201 1136q46 258 268 258q114 0 158 -63.5t21 -194.5l-15 -84h-106l16 88q27 164 -90 164q-118 0 -145 -164l-80 -444q67 39 133 39q110 0 152 -64t20 -194l-86 -477q-44 -260 -270 -260q-221 0 -177 260zM209 242q-27 -168 88 -168q120 0 147 168l86 481 q27 164 -81 164q-127 0 -154 -164z" />
<glyph unicode="7" horiz-adv-x="589" d="M170 0q0 117 39 348q76 423 160 676q99 303 231 506h-303l18 96h490q-205 -211 -338 -616q-88 -268 -154 -648q-46 -259 -28 -362h-115z" />
<glyph unicode="8" d="M104 244l84 465q10 67 39.5 123t67.5 88q-27 30 -36 86.5t3 130.5l43 243q46 258 268 258q114 0 158 -63.5t21 -194.5l-43 -243q-27 -164 -109 -215q25 -32 35 -87.5t0 -125.5l-84 -465q-44 -260 -270 -260q-221 0 -177 260zM209 242q-27 -168 88 -168q120 0 147 168 l84 469q27 166 -90 166q-118 0 -145 -166zM367 1133q-30 -166 88 -166q117 0 147 166l45 251q27 164 -90 164q-118 0 -145 -164z" />
<glyph unicode="9" d="M104 244l17 84h104l-16 -86q-27 -168 88 -168q120 0 147 168l117 657q-63 -37 -139 -37q-208 0 -162 256l45 262q46 258 268 258q114 0 158 -63.5t21 -194.5l-201 -1136q-44 -260 -270 -260q-221 0 -177 260zM365 1118q-30 -164 81 -164q124 0 154 164l47 266 q27 164 -90 164q-118 0 -145 -164z" />
<glyph unicode=":" horiz-adv-x="288" d="M82 0l22 133h123l-22 -133h-123zM193 631l22 133h123l-23 -133h-122z" />
<glyph unicode=";" horiz-adv-x="296" d="M10 -156l68 156h-39l70 139h133l-146 -295h-86zM193 631l22 133h121l-23 -133h-120z" />
<glyph unicode="&#x3c;" horiz-adv-x="909" d="M211 643l12 70l774 379l-20 -123l-578 -291q64 -39 226 -140t249 -153l-22 -121z" />
<glyph unicode="=" horiz-adv-x="1146" d="M213 485l20 109h910l-21 -109h-909zM262 762l19 106h909l-19 -106h-909z" />
<glyph unicode="&#x3e;" horiz-adv-x="909" d="M143 264l23 121l579 293q-42 26 -213.5 131t-263.5 160l21 123l643 -379l-12 -70z" />
<glyph unicode="?" horiz-adv-x="534" d="M164 8l20 113h103l-21 -113h-102zM205 240l96 538q12 81 92 158l92 76q34 34 52 133l43 239q27 164 -91 164q-120 0 -147 -164l-25 -137h-108l22 133q46 258 275 258q224 0 178 -258l-41 -233q-18 -117 -63 -170l-99 -84q-65 -59 -80 -141l-90 -512h-106z" />
<glyph unicode="@" horiz-adv-x="1382" d="M150 555q55 316 231 549q251 346 592 346q229 0 346 -164q140 -193 88 -493q-44 -233 -84 -326q-85 -206 -154 -279q-113 -104 -243 -104q-96 0 -117 84q-83 -83 -207 -86q-197 -3 -162 197q2 10 9.5 35t9.5 34q37 107 55 164q85 257 303 260q73 0 109 -33q34 98 63 199 q9 26 12 49q10 54 -9.5 82.5t-65.5 26.5q-56 -1 -101 -45.5t-75 -124.5q-2 -6 -12.5 -37t-12.5 -41h-107l27 80q90 255 303 258q199 3 164 -195q-7 -39 -18 -67v2q-94 -292 -189 -582q-1 -4 -3 -18.5t-3 -20.5q-9 -51 7 -84.5t50 -32.5q142 3 232 218q82 188 119 391 q42 240 -41 385q-92 168 -314 168q-205 0 -383 -172q-249 -243 -319 -637q-49 -271 39 -457q99 -209 354 -209q214 0 455 203l14 -80q-238 -221 -479 -221q-308 0 -428 248q-110 214 -55 530zM549 285q-21 -116 76 -113q123 3 174 172l59 180q2 8 6.5 24.5t5.5 22.5 q18 112 -77 109q-117 -3 -175 -168q-9 -32 -29.5 -95t-27.5 -85q-8 -25 -12 -47z" />
<glyph unicode="A" horiz-adv-x="653" d="M0 0l526 1647h92l-51 -1647h-108l26 758h-141q-32 -102 -116.5 -364t-125.5 -394h-102zM375 860h119q9 264 18 451q-23 -78 -68.5 -226t-68.5 -225z" />
<glyph unicode="B" horiz-adv-x="600" d="M59 0l289 1647h221q196 0 196 -174q0 -32 -7 -70l-45 -262q-23 -128 -121 -193q57 -35 57 -128q0 -31 -6 -68l-84 -482q-27 -145 -76 -200q-64 -70 -202 -70h-222zM182 92h97q83 0 120 34t52 122l88 500q6 34 6 60q0 41 -15 61q-24 32 -108 32h-96zM342 991h96 q86 0 120.5 33t49.5 125l45 248q6 35 6 61q-1 42 -15 62q-24 32 -107 32h-97z" />
<glyph unicode="C" horiz-adv-x="583" d="M84 246l203 1151q47 264 272 264q190 0 190 -182q0 -37 -8 -82l-12 -72h-108l12 76q5 30 5 55q0 109 -97 109q-121 0 -148 -164l-205 -1159q-5 -31 -5 -55q0 -109 96 -109q122 0 149 164l14 82h109l-12 -78q-49 -264 -277 -264q-187 0 -187 178q0 39 9 86z" />
<glyph unicode="D" d="M61 0l289 1647h221q130 0 179 -74q18 -30 18 -90q0 -45 -10 -107l-201 -1134q-43 -242 -274 -242h-222zM182 92h101q80 0 120 31q33 33 48 125l202 1151q6 34 6 60q0 40 -14 59q-23 32 -104 32h-101z" />
<glyph unicode="E" horiz-adv-x="595" d="M59 0l289 1647h449l-17 -95h-340l-98 -561h279l-17 -90h-278l-144 -809h340l-14 -92h-449z" />
<glyph unicode="F" horiz-adv-x="606" d="M70 0l288 1647h449l-16 -97h-340l-99 -553h273l-17 -94h-272l-158 -903h-108z" />
<glyph unicode="G" d="M104 248l203 1151q46 262 273 262q190 0 190 -181q0 -37 -8 -81l-25 -135h-108l24 139q6 33 6 60q0 106 -96 106q-119 0 -149 -166l-205 -1159q-5 -32 -5 -58q0 -112 95 -112q123 0 150 170l114 649h-112l18 104h221l-131 -749q-47 -264 -276 -264q-187 0 -187 182 q0 37 8 82z" />
<glyph unicode="H" horiz-adv-x="608" d="M68 0l288 1647h109l-115 -656h240l115 656h102l-289 -1647h-102l157 901h-239l-158 -901h-108z" />
<glyph unicode="I" horiz-adv-x="249" d="M59 0l289 1647h109l-289 -1647h-109z" />
<glyph unicode="J" horiz-adv-x="563" d="M59 248l25 143h111l-27 -147q-6 -40 -6 -69q0 -35 8 -54q15 -47 90 -47q121 0 148 170l247 1403h109l-246 -1399q-46 -264 -274 -264q-193 0 -193 184q0 36 8 80z" />
<glyph unicode="K" horiz-adv-x="657" d="M82 0l289 1647h108l-110 -635q69 110 199 323.5t190 309.5h108l-510 -822q37 -132 111 -410.5t111 -410.5h-109l-168 631l-111 -633h-108z" />
<glyph unicode="L" d="M66 0l288 1647h109l-275 -1555h342l-14 -92h-450z" />
<glyph unicode="M" horiz-adv-x="800" d="M70 0l288 1649h125l-45 -1352q34 120 39 143l393 1209h127l-288 -1647h-105l197 1131l-367 -1131h-92l25 1079l-191 -1081h-106z" />
<glyph unicode="N" horiz-adv-x="608" d="M68 0l288 1647h127v-17l13 -1169l209 1186h102l-289 -1647l-112 10l-7 15q-10 746 -14 1165l-209 -1190h-108z" />
<glyph unicode="O" d="M104 246l203 1151q47 264 273 264q190 0 190 -183q0 -37 -8 -81l-203 -1151q-50 -264 -276 -264q-188 0 -188 178q0 39 9 86zM209 242q-5 -31 -5 -56q0 -108 95 -108q123 0 150 164l204 1159q5 30 5 55q0 109 -97 109q-120 0 -147 -164z" />
<glyph unicode="P" horiz-adv-x="620" d="M80 0l289 1647h221q137 0 178 -72q17 -31 17 -86q0 -40 -9 -92l-49 -275q-40 -219 -268 -219h-113l-158 -903h-108zM362 997h95q84 0 127 31q30 30 43 102l51 289q3 21 3 38q0 41 -18 62q-26 31 -108 31h-94z" />
<glyph unicode="Q" horiz-adv-x="708" d="M76 -160q84 133 209 133q80 0 153 -53v2q2 -2 12.5 -11.5t16.5 -12.5l125 -93l-78 -86l-152 109q-58 43 -106 43q-46 0 -109 -84zM104 246l203 1151q47 264 275 264q188 0 188 -182q0 -37 -8 -82l-203 -1151q-50 -264 -274 -264q-190 0 -190 178q0 39 9 86zM209 242 q-5 -30 -5 -55q0 -109 97 -109q121 0 148 164l204 1159q5 31 5 56q0 108 -95 108q-122 0 -149 -164z" />
<glyph unicode="R" horiz-adv-x="612" d="M72 0l288 1647h222q137 0 178 -72q15 -29 16 -84q0 -48 -12 -115l-43 -243q-24 -148 -119 -195q54 -48 54 -137q0 -32 -7 -70l-127 -731h-102l127 723q5 30 5 54q0 45 -17 68q-26 36 -107 36h-94l-154 -881h-108zM352 983h94q85 0 121 33.5t54 122.5l45 260q6 32 6 56 q0 43 -16 63q-26 32 -109 32h-94z" />
<glyph unicode="S" horiz-adv-x="583" d="M84 248l12 74h111l-14 -78q-5 -29 -5 -53q0 -107 99 -107q118 0 145 160l82 456q2 15 2 30q0 52 -31 93q-11 16 -86 72h2q-121 84 -131 102h2q-31 43 -31 111q0 32 7 70l39 221q46 262 276 262q113 0 157 -65q28 -43 29 -114q0 -38 -8 -83l-14 -86h-104l14 90q5 30 5 54 q0 106 -97 106q-121 0 -148 -160l-41 -232q-4 -24 -4 -45q0 -50 21 -77q8 -17 88 -66q90 -58 123 -102q42 -54 42 -120q0 -18 -3 -38l-84 -475q-46 -264 -273 -264q-190 0 -190 183q0 37 8 81z" />
<glyph unicode="T" horiz-adv-x="643" d="M227 0l273 1550h-226l17 97h551l-17 -97h-217l-272 -1550h-109z" />
<glyph unicode="U" d="M104 248l246 1399h107l-248 -1403q-5 -30 -5 -54q0 -108 97 -108q121 0 148 162l247 1403h109l-246 -1399q-47 -264 -276 -264q-187 0 -187 182q0 37 8 82z" />
<glyph unicode="V" horiz-adv-x="616" d="M238 0l51 1647h108l-55 -1301q79 251 217.5 701t185.5 600h111l-526 -1647h-92z" />
<glyph unicode="W" horiz-adv-x="1042" d="M236 0l6 61q15 299 40.5 886t30.5 702l107 -2l-72 -1297q6 32 25 94l356 1203h92l-76 -1301q326 1108 383 1301l107 2l-492 -1649h-104l2 63l72 1223q-9 -42 -15 -61l-354 -1225h-108z" />
<glyph unicode="X" horiz-adv-x="653" d="M-4 0l377 842q-22 211 -88 805h116l54 -668q58 131 163 371.5t130 296.5h112l-375 -820l86 -827h-120l-52 674q-13 -29 -125 -286.5t-168 -387.5h-110z" />
<glyph unicode="Y" horiz-adv-x="643" d="M217 0l148 842q-29 269 -91 805h117l60 -631q159 348 286 631h113l-377 -809l-147 -838h-109z" />
<glyph unicode="Z" horiz-adv-x="600" d="M14 0l641 1550h-354l16 97h488l-639 -1555h352l-14 -92h-490z" />
<glyph unicode="[" horiz-adv-x="366" d="M10 -186l352 1994h234l-16 -90h-127l-320 -1814h127l-16 -90h-234z" />
<glyph unicode="\" horiz-adv-x="688" d="M279 1638h108l213 -1638h-108z" />
<glyph unicode="]" horiz-adv-x="366" d="M10 -186l17 90h127l319 1814h-127l16 90h234l-352 -1994h-234z" />
<glyph unicode="^" horiz-adv-x="571" d="M369 1057l202 549h88l9 -549h-107l4 258q-15 -42 -45 -129t-45 -129h-106z" />
<glyph unicode="_" horiz-adv-x="1146" d="M-43 -197l18 105h1141l-18 -105h-1141z" />
<glyph unicode="`" horiz-adv-x="458" d="M295 1638h154l186 -258h-156z" />
<glyph unicode="a" d="M104 244l31 168q46 260 266 260q79 0 115 -31l33 190q5 31 5 56q0 108 -95 108q-119 0 -146 -164l-14 -81h-104l14 77q47 260 266 260q188 0 188 -178q0 -37 -8 -82l-104 -583q-44 -260 -270 -260q-184 0 -184 181q0 36 7 79zM209 242q-5 -32 -5 -58q0 -110 93 -110 q120 0 147 168l31 174q6 34 6 60q0 106 -94 106q-117 0 -147 -166z" />
<glyph unicode="b" horiz-adv-x="608" d="M106 242l240 1357h109l-95 -540q53 37 123 37q184 0 184 -179q0 -38 -8 -83l-104 -592q-47 -260 -270 -260q-187 0 -187 178q0 37 8 82zM213 240q-5 -31 -5 -56q0 -106 95 -106q120 0 148 162l104 598q4 28 4 51q0 110 -94 110q-119 0 -146 -161z" />
<glyph unicode="c" d="M104 244l105 583q47 260 266 260q188 0 188 -178q0 -37 -8 -82l-24 -133h-107l25 137q5 31 5 56q0 108 -95 108q-119 0 -146 -164l-104 -589q-5 -32 -5 -58q0 -110 93 -110q120 0 147 168l27 145h107l-27 -143q-44 -260 -270 -260q-184 0 -184 181q0 36 7 79z" />
<glyph unicode="d" horiz-adv-x="608" d="M106 242l105 592q47 262 268 262q76 0 113 -37l94 540h109l-240 -1357q-47 -260 -270 -260q-187 0 -187 178q0 37 8 82zM211 240q-5 -32 -5 -57q0 -105 93 -105q122 0 150 162l106 598q5 30 5 55q0 106 -95 106q-116 0 -146 -161z" />
<glyph unicode="e" horiz-adv-x="598" d="M98 244l105 583q47 260 268 260q186 0 186 -178q0 -37 -8 -82l-41 -231h-340l-63 -354q-5 -32 -5 -57q0 -109 93 -109q120 0 147 166l15 80h104l-14 -78q-44 -260 -269 -260q-185 0 -185 181q0 36 7 79zM283 686h237l25 145q5 31 5 56q0 110 -95 110q-116 0 -146 -166 q-4 -26 -13 -72.5t-13 -72.5z" />
<glyph unicode="f" horiz-adv-x="540" d="M72 0l172 977h-66l17 98h65l51 289q47 262 273 262h180l-19 -94h-180q-117 0 -147 -164l-51 -293h268l-17 -98h-268l-172 -977h-106z" />
<glyph unicode="g" horiz-adv-x="593" d="M10 -238l15 84h106l-14 -88q-5 -29 -5 -52q0 -101 95 -101q121 0 145 153l41 252q-45 -37 -125 -37q-182 0 -182 179q0 38 8 84l105 591q47 260 266 260q188 0 188 -178q0 -37 -8 -82l-188 -1065q-47 -260 -269 -260q-185 0 -185 181q0 36 7 79zM197 231q-5 -31 -5 -55 q0 -106 93 -106q120 0 147 161l107 600q5 31 5 56q0 106 -95 106q-118 0 -146 -162z" />
<glyph unicode="h" d="M57 0l287 1626h107l-101 -567q58 28 125 28q188 0 188 -178q0 -37 -8 -82l-145 -827h-107l146 831q5 31 5 56q0 110 -95 110q-119 0 -146 -166l-145 -831h-111z" />
<glyph unicode="i" horiz-adv-x="253" d="M63 0l189 1073h106l-188 -1073h-107zM283 1251l28 162h107l-29 -162h-106z" />
<glyph unicode="j" horiz-adv-x="266" d="M-147 -457l16 90q139 0 166 164l225 1276h102l-223 -1270q-46 -260 -286 -260zM295 1253l29 162h104l-29 -162h-104z" />
<glyph unicode="k" horiz-adv-x="673" d="M63 0l287 1626h107l-166 -936q55 64 169 191.5t169 191.5h119l-443 -512q177 -339 291 -559h-117l-233 430l-76 -432h-107z" />
<glyph unicode="l" horiz-adv-x="253" d="M63 0l273 1548l125 105l-291 -1653h-107z" />
<glyph unicode="m" horiz-adv-x="958" d="M66 0l145 829q47 261 268 261q119 0 160 -70q81 70 182 70q186 0 186 -179q0 -37 -8 -82l-145 -829h-106l145 831q6 35 6 62q0 106 -92 106q-118 0 -139 -127l-154 -872h-106l145 831q6 34 6 61q0 107 -94 107q-120 0 -150 -168l-145 -831h-104z" />
<glyph unicode="n" horiz-adv-x="606" d="M66 0l145 829q47 261 266 261q188 0 188 -179q0 -37 -8 -82l-145 -829h-106l145 831q6 34 6 61q0 107 -94 107q-118 0 -148 -168l-145 -831h-104z" />
<glyph unicode="o" horiz-adv-x="583" d="M84 236l104 591q47 260 269 260q186 0 186 -178q0 -37 -8 -82l-105 -591q-47 -263 -270 -263q-184 0 -184 179q0 38 8 84zM186 231q-5 -30 -5 -55q0 -106 95 -106q119 0 146 161l106 600q5 32 5 57q0 105 -93 105q-119 0 -147 -162z" />
<glyph unicode="p" horiz-adv-x="593" d="M-31 -483l230 1310q47 260 268 260q186 0 186 -178q0 -37 -8 -82l-104 -591q-47 -263 -271 -263q-70 0 -110 37l-86 -493h-105zM199 231q-5 -31 -5 -55q0 -106 93 -106q120 0 147 161l107 600q5 31 5 56q0 106 -95 106q-118 0 -146 -162z" />
<glyph unicode="q" horiz-adv-x="593" d="M94 236l105 591q47 260 266 260q188 0 188 -178q0 -37 -8 -82l-231 -1310h-107l86 493q-45 -37 -125 -37q-182 0 -182 179q0 38 8 84zM197 231q-5 -31 -5 -55q0 -106 93 -106q120 0 147 161l107 600q5 31 5 56q0 106 -95 106q-118 0 -146 -162z" />
<glyph unicode="r" horiz-adv-x="536" d="M61 0l146 827q47 260 268 260q170 0 170 -202l-110 -23v9q0 118 -82 118q-113 0 -140 -158l-147 -831h-105z" />
<glyph unicode="s" horiz-adv-x="589" d="M90 244l14 73h109l-14 -75q-5 -30 -5 -54q0 -106 97 -106q116 0 143 160l15 75q3 17 3 32q0 51 -30 89q-7 8 -88 72h2q-120 88 -125 100h2q-32 42 -32 114q0 29 5 62l9 43q47 258 270 258q184 0 184 -176q0 -37 -8 -82l-12 -65h-103l13 67q5 30 5 54q0 106 -95 106 q-119 0 -146 -160l-8 -51q-5 -28 -5 -50q0 -44 19 -68q17 -27 88 -66q77 -47 123 -100q38 -52 39 -116q0 -19 -4 -40l-18 -96q-44 -260 -267 -260q-187 0 -187 182q0 35 7 78z" />
<glyph unicode="t" horiz-adv-x="516" d="M152 242l131 735h-60l17 98h59l61 344h103l-62 -344h201l-16 -98h-201q-24 -131 -129 -739q-11 -61 -11 -93q0 -16 3 -24q6 -41 74 -41q44 0 90 41l18 -109q-51 -32 -121 -32q-115 0 -149 58q-19 34 -19 96q0 46 11 108z" />
<glyph unicode="u" d="M104 244l148 829h104l-147 -831q-5 -32 -5 -58q0 -110 93 -110q120 0 147 168l148 831h106l-147 -829q-44 -260 -270 -260q-184 0 -184 181q0 36 7 79z" />
<glyph unicode="v" horiz-adv-x="485" d="M176 0l6 1073h109l-10 -557l-11 -233q12 38 34 110.5t34 110.5l188 569h109l-371 -1073h-88z" />
<glyph unicode="w" horiz-adv-x="958" d="M106 244l148 829h104l-147 -831q-5 -32 -5 -57q0 -111 95 -111q121 0 148 168l147 831h106l-151 -854q-2 -18 -2 -33q0 -112 94 -112q118 0 145 168l148 831h106l-147 -829q-44 -260 -268 -260q-53 0 -95.5 26t-60.5 66q-82 -92 -186 -92q-186 0 -186 181q0 36 7 79z" />
<glyph unicode="x" horiz-adv-x="585" d="M6 0l281 559q-4 28 -31 223t-41 291h109l47 -381q144 295 188 381h111l-252 -498l82 -575h-109l-61 451q-153 -330 -211 -451h-113z" />
<glyph unicode="y" d="M20 -238l15 84h106l-14 -88q-5 -29 -5 -52q0 -101 95 -101q121 0 145 153l41 252q-45 -37 -124 -37q-183 0 -183 179q0 38 8 84l148 837h104l-149 -842q-5 -31 -5 -55q0 -106 93 -106q120 0 147 161l150 842h106l-231 -1311q-47 -260 -268 -260q-186 0 -186 181 q0 36 7 79z" />
<glyph unicode="z" horiz-adv-x="589" d="M-8 0l547 979h-346l16 94h483l-551 -983h346l-14 -90h-481z" />
<glyph unicode="{" horiz-adv-x="534" d="M193 754l16 92q140 0 170 166l88 518q47 262 291 262l-17 -92q-142 0 -166 -166l-12 -74l-78 -444q-28 -157 -116 -217q68 -60 41 -215l-95 -518q-27 -166 109 -166l-16 -90q-242 0 -199 260l12 67l82 451q30 166 -110 166z" />
<glyph unicode="|" horiz-adv-x="694" d="M453 -285l354 2011h98l-354 -2011h-98z" />
<glyph unicode="}" horiz-adv-x="534" d="M27 -190l16 90q144 0 168 166l10 73l80 445q27 155 113 215q-64 64 -37 217l94 518q27 166 -111 166l17 92q245 0 198 -262l-12 -68l-80 -450q-30 -166 107 -166l-17 -92q-135 0 -165 -166l-91 -518q-43 -260 -290 -260z" />
<glyph unicode="~" horiz-adv-x="1026" d="M199 842q82 177 235 180q43 0 115 -21q8 -3 29.5 -9t29.5 -9l195 -63q55 -19 82 -19q82 0 129 100l82 -26q-85 -178 -238 -178q-48 0 -110 22v-2q-22 7 -113 36.5t-141 45.5q-55 19 -84 19q-76 0 -129 -99z" />
<glyph unicode="&#xa1;" horiz-adv-x="282" d="M59 -180l244 1386h107l-244 -1386h-107zM330 1335l20 113h101l-21 -113h-100z" />
<glyph unicode="&#xa2;" d="M35 -80l76 160q-24 65 -9 164l86 483q47 262 271 262q42 0 76 -10q43 88 49 102h108l-78 -159q46 -64 23 -195l-12 -72h-107l12 76l5 14v5q-23 -49 -136 -285.5t-174 -366.5q16 -24 72 -24q120 0 147 168l17 86h106l-16 -84q-44 -260 -270 -260q-51 0 -99 20 q-5 -11 -20 -42t-19 -42h-108zM162 195l61 124l-14 -77q-6 -35 -6 -49zM223 319l269 570q-10 8 -50 8q-117 0 -147 -166z" />
<glyph unicode="&#xa3;" horiz-adv-x="610" d="M66 0l145 831h-84l18 107h84l78 442q46 258 273 258q224 0 178 -258l-23 -133h-106l24 137q27 164 -90 164q-120 0 -147 -164l-80 -446h264l-18 -107h-265l-131 -741h338l-14 -90h-444z" />
<glyph unicode="&#xa4;" horiz-adv-x="831" d="M207 563l69 60q-46 72 -24 190q18 107 90 182q-42 54 -49 60l84 71l51 -61q96 59 188 59q104 0 177 -63l75 65l56 -71l-76 -64q38 -80 22 -178q-18 -105 -88 -178l56 -72l-80 -67l-56 67q-82 -59 -198 -59q-103 0 -166 53l-72 -61zM346 813q-17 -93 34 -156t144 -63 q91 0 163 63t89 156q15 94 -34 154.5t-142 60.5t-166 -61.5t-88 -153.5z" />
<glyph unicode="&#xa5;" horiz-adv-x="638" d="M115 432l18 109h174l21 112h-174l18 109h174l12 69q-21 180 -88 795h117l57 -625q183 409 283 625h111l-373 -799l-12 -65h176l-19 -109h-176l-20 -112h176l-19 -109h-176l-76 -432h-106l76 432h-174z" />
<glyph unicode="&#xa6;" horiz-adv-x="389" d="M131 -297l150 854h118l-149 -854h-119zM311 727l152 856h119l-152 -856h-119z" />
<glyph unicode="&#xa7;" d="M74 66l12 65h102l-12 -70q-27 -157 88 -157q121 0 148 157l8 52q15 77 -14 120q-18 25 -89 64q-82 53 -122 102q-50 68 -35 156l6 35q18 93 52.5 150.5t94.5 86.5q-30 24 -57 64q-24 59 -10 153l8 41q23 131 89.5 194.5t180.5 63.5q112 0 155.5 -63.5t20.5 -194.5 l-12 -65h-102l12 70q27 157 -90 157q-119 0 -146 -157l-8 -52q-15 -82 15 -120q14 -22 88 -66q80 -49 121 -100q51 -66 36 -156l-6 -35q-31 -180 -143 -235q32 -27 53 -68q25 -58 10 -152l-8 -40q-23 -131 -90 -195t-182 -64q-220 0 -174 259zM266 575q-12 -69 23 -116 q35 -35 78 -60q110 3 137 158l4 16q12 69 -23 117q-37 37 -75 62q-113 0 -140 -158zM403 758l31 18l-24 -24q-5 5 -7 6z" />
<glyph unicode="&#xa8;" horiz-adv-x="423" d="M272 1464l23 131h123l-23 -131h-123zM471 1464l23 131h120l-22 -131h-121z" />
<glyph unicode="&#xa9;" horiz-adv-x="1167" d="M262 1073q46 254 182 402q154 161 410 161q492 0 393 -563q-45 -248 -184 -403q-159 -162 -408 -162q-251 0 -350 164q-88 152 -43 401zM365 1073q-36 -196 30 -332q84 -133 279 -133q390 0 473 465q80 463 -309 463q-393 0 -473 -463zM539 866l77 439q37 204 213 204 q181 0 144 -204l-12 -64h-99l12 68q21 112 -59 112q-77 0 -98 -112l-78 -447q-21 -114 57 -114q80 0 101 114l12 76h98l-12 -72q-19 -104 -71.5 -154t-143.5 -50q-178 0 -141 204z" />
<glyph unicode="&#xaa;" horiz-adv-x="606" d="M223 897l15 90q47 260 268 260q70 0 112 -28l27 147q27 164 -90 164q-118 0 -145 -164l-9 -43h-104l8 39q47 260 266 260q228 0 181 -260l-82 -465q-47 -260 -273 -260q-221 0 -174 260zM326 893q-27 -168 88 -168q120 0 147 168l19 98q27 164 -91 164t-145 -164z" />
<glyph unicode="&#xab;" horiz-adv-x="684" d="M209 649l10 58l344 393l-24 -146l-195 -276q15 -45 47.5 -139.5t48.5 -139.5l-26 -145zM426 649l10 58l344 393l-24 -146l-195 -276q15 -45 48 -139.5t48 -139.5l-26 -145z" />
<glyph unicode="&#xac;" horiz-adv-x="1044" d="M184 702l19 107h876l-61 -348h-103l43 241h-774z" />
<glyph unicode="&#xad;" horiz-adv-x="573" d="M174 639l16 100h420l-16 -100h-420z" />
<glyph unicode="&#xae;" horiz-adv-x="1167" d="M260 1067q102 567 592 567q495 0 393 -567q-42 -241 -184 -399q-156 -164 -408 -164q-251 0 -350 164q-86 148 -43 399zM360 1067q-34 -202 33 -330q84 -133 279 -133q391 0 471 463q83 463 -309 463q-391 0 -474 -463zM516 664l146 831h157q130 0 169.5 -52t15.5 -183 l-5 -23q-21 -127 -112 -172q72 -49 51 -180l-39 -221h-102l37 215q13 76 -13.5 105.5t-103.5 29.5h-33l-61 -350h-107zM700 1108h33q85 0 118 26t48 109l4 33q13 76 -12.5 104.5t-104.5 28.5h-32z" />
<glyph unicode="&#xaf;" horiz-adv-x="548" d="M387 1757l19 107h378l-18 -107h-379z" />
<glyph unicode="&#xb0;" horiz-adv-x="778" d="M287 1290q23 135 127 222t239 87q132 0 201 -90q74 -92 53 -219q-24 -130 -129 -221q-109 -90 -235 -90q-135 0 -208 88t-48 223zM383 1290q-17 -94 33.5 -155.5t144.5 -61.5q92 0 164.5 61.5t89.5 155.5q15 88 -37 152q-53 65 -141 65q-94 0 -166.5 -61.5t-87.5 -155.5z " />
<glyph unicode="&#xb1;" horiz-adv-x="851" d="M98 197l19 100h686l-19 -100h-686zM178 639l17 100h290l52 291h102l-51 -291h293l-17 -100h-293l-53 -293h-102l53 293h-291z" />
<glyph unicode="&#xb2;" horiz-adv-x="528" d="M244 625l80 450q24 135 161 150q34 4 66 16q7 9 16 53l31 179q2 12 4 35t2 26q-12 18 -47 18q-29 0 -47 -18q-11 -17 -21 -61l-16 -101h-96l16 98q30 168 180 168q153 0 123 -168l-30 -180q-15 -82 -47.5 -113t-114.5 -40q-27 -3 -70 -19q-6 -8 -14 -43l-64 -362h207 l-16 -88h-303zM510 1536l2 2zM602 1540l2 -6q-2 2 -2 6z" />
<glyph unicode="&#xb3;" horiz-adv-x="528" d="M272 782l19 103h96l-18 -105q-15 -80 39 -80t69 80l51 297q8 44 -1.5 60t-49.5 16h-67l14 84h68q45 0 63 18l-4 -6q11 26 20 66l27 155q4 20 4 60q-13 20 -45 20q-53 0 -68 -80l-18 -100h-96l18 94q29 172 178 172q154 0 125 -172l-26 -151q-16 -82 -64 -117 q36 -36 21 -117l-52 -297q-30 -170 -184 -170q-149 0 -119 170zM602 1530v6v-6z" />
<glyph unicode="&#xb4;" horiz-adv-x="458" d="M248 1380l278 258h156l-281 -258h-153z" />
<glyph unicode="&#xb5;" horiz-adv-x="645" d="M-10 -418l262 1491h104l-147 -831q-27 -168 90 -168q118 0 145 168l148 831h106l-147 -829q-25 -144 -102 -207q15 -42 46.5 -133t32.5 -94h-127l-67 176q-16 -2 -51 -2q-71 0 -113 28l-76 -430h-104z" />
<glyph unicode="&#xb6;" horiz-adv-x="804" d="M229 1128l41 232q20 131 74 194q66 72 205 72h442l-18 -102h-60l-290 -1643h-107l291 1643h-57l-291 -1643h-107l178 1010h-112q-232 0 -189 237z" />
<glyph unicode="&#xb7;" horiz-adv-x="270" d="M190 614l25 131h102l-24 -131h-103z" />
<glyph unicode="&#xb8;" horiz-adv-x="522" d="M115 -385l14 82h125q32 0 41 39l12 76q6 28 -20 28h-78l39 223h86l-25 -143h21q87 0 69 -100l-14 -84q-21 -121 -145 -121h-125z" />
<glyph unicode="&#xb9;" horiz-adv-x="450" d="M311 621l17 94h30l140 794q-10 -5 -43 -16l16 96l147 49l-163 -923h32l-16 -94h-160z" />
<glyph unicode="&#xba;" horiz-adv-x="440" d="M217 1102l66 371q30 167 194 167q161 0 131 -167l-65 -371q-30 -172 -191 -172q-165 0 -135 172zM317 1100q-15 -84 50 -84q60 0 75 84l66 373q15 83 -45 83q-65 0 -80 -83z" />
<glyph unicode="&#xbb;" horiz-adv-x="684" d="M139 254l27 145l196 279q-49 145 -98 276l25 146l205 -393l-11 -58zM356 254l27 145l197 279q-40 118 -99 276l25 146l205 -393l-11 -58z" />
<glyph unicode="&#xbc;" horiz-adv-x="952" d="M-10 633l14 94h29l139 793q-28 -11 -45 -19l16 98l148 54l-164 -926h35l-17 -94h-155zM-8 0l788 1638h109l-789 -1638h-108zM547 532l327 474h91l-68 -390h59l-16 -84h-59l-93 -532h-98l92 532h-235zM719 616h80l28 162q-17 -25 -52.5 -79t-55.5 -83z" />
<glyph unicode="&#xbd;" horiz-adv-x="940" d="M-10 0l790 1638h109l-791 -1638h-108zM-10 633l14 94h29l139 793q-28 -11 -45 -19l16 98l148 54l-164 -926h35l-17 -94h-155zM537 0l77 449q24 142 158 151q32 3 72 16q8 12 14 54l31 176q15 84 -39 84q-32 0 -53 -21q-14 -36 -19 -63l-16 -98h-94l16 94q30 174 180 174 q149 0 119 -174l-31 -178q-16 -88 -53 -115q-20 -20 -102 -37q-70 -12 -78 -20q0 -1 -1.5 -6t-4 -15.5t-4.5 -21.5l-64 -361h205l-14 -88h-299zM797 909l2 6q-2 -2 -2 -6z" />
<glyph unicode="&#xbe;" horiz-adv-x="952" d="M-47 782l18 103h95l-19 -105q-8 -37 -2 -59q13 -21 43 -21q53 0 68 80l51 297q8 44 -2.5 60t-50.5 16h-70l14 84h70q43 0 61 18q12 9 21 60l26 155q6 41 3 60q-13 20 -41 20q-32 0 -52 -20q-13 -30 -18 -60l-18 -100h-97l19 94q29 172 180 172q150 0 121 -172l-27 -151 q-16 -83 -61 -117q33 -36 18 -117l-51 -297q-30 -170 -180 -170q-149 0 -119 170zM-10 0l790 1638h109l-791 -1638h-108zM279 1530q-4 0 0 4v-4zM547 532l327 474h89l-68 -390h59l-16 -84h-59l-93 -532h-96l92 532h-235zM719 616h80l28 162q-17 -25 -52.5 -79t-55.5 -83z " />
<glyph unicode="&#xbf;" horiz-adv-x="534" d="M4 88l41 236q22 117 66 170l96 81q68 62 80 144l90 512h106l-94 -541q-11 -72 -94 -155l-90 -78q-36 -33 -51 -131l-43 -242q-30 -164 90 -164q117 0 147 164l25 139h108l-24 -135q-46 -258 -273 -258q-224 0 -180 258zM403 1350l19 112h102l-18 -112h-103z" />
<glyph unicode="&#xc0;" horiz-adv-x="653" d="M0 0l526 1647h92l-51 -1647h-108l26 758h-141q-32 -102 -116.5 -364t-125.5 -394h-102zM375 860h119q9 264 18 451q-23 -78 -68.5 -226t-68.5 -225zM440 2032h140l215 -263h-140z" />
<glyph unicode="&#xc1;" horiz-adv-x="653" d="M0 0l526 1647h92l-51 -1647h-108l26 758h-141q-32 -102 -116.5 -364t-125.5 -394h-102zM375 860h119q9 264 18 451q-23 -78 -68.5 -226t-68.5 -225zM395 1769l305 263h140l-305 -263h-140z" />
<glyph unicode="&#xc2;" horiz-adv-x="653" d="M0 0l526 1647h92l-51 -1647h-108l26 758h-141q-32 -102 -116.5 -364t-125.5 -394h-102zM354 1769l224 263h124l132 -263h-132l-77 156q-19 -22 -67.5 -76.5t-70.5 -79.5h-133zM375 860h119q9 264 18 451q-23 -78 -68.5 -226t-68.5 -225z" />
<glyph unicode="&#xc3;" horiz-adv-x="698" d="M0 0l526 1647h92l-51 -1647h-108l26 758h-141q-32 -102 -116.5 -364t-125.5 -394h-102zM293 1864q92 133 199 133q64 0 131 -33h-2q8 -3 27.5 -12.5t27.5 -12.5q56 -19 86 -26q51 -6 102 63l92 -32q-90 -147 -231 -132q-24 2 -168 58h2q-47 16 -67 18q-61 9 -109 -57z M375 860h119q9 264 18 451q-23 -78 -68.5 -226t-68.5 -225z" />
<glyph unicode="&#xc4;" horiz-adv-x="653" d="M0 0l526 1647h92l-51 -1647h-108l26 758h-141q-32 -102 -116.5 -364t-125.5 -394h-102zM375 860h119q9 264 18 451q-23 -78 -68.5 -226t-68.5 -225zM442 1833l25 133h125l-25 -133h-125zM643 1833l25 133h123l-25 -133h-123z" />
<glyph unicode="&#xc5;" horiz-adv-x="653" d="M0 0l526 1647h92l-51 -1647h-108l26 758h-141q-32 -102 -116.5 -364t-125.5 -394h-102zM375 860h119q9 264 18 451q-23 -78 -68.5 -226t-68.5 -225zM444 1847l2 13q29 172 195 172q83 0 116.5 -42t18.5 -130l-2 -13q-17 -90 -65 -133t-131 -43q-168 0 -134 176zM545 1843 q-15 -84 49 -84q63 0 78 84l4 17q15 86 -49 86q-63 0 -78 -86z" />
<glyph unicode="&#xc6;" horiz-adv-x="999" d="M-2 0l762 1647h432l-16 -95h-340l-99 -561h340l-16 -90h-340l-143 -809h340l-15 -92h-444l137 758h-143q-164 -348 -351 -758h-104zM500 860h114l72 404q-27 -59 -90 -195t-96 -209z" />
<glyph unicode="&#xc7;" horiz-adv-x="583" d="M84 246l203 1151q47 264 272 264q229 0 182 -264l-12 -72h-108l12 76q27 164 -92 164q-121 0 -148 -164l-205 -1159q-27 -164 91 -164q122 0 149 164l14 82h109l-12 -78q-44 -246 -238 -264l-12 -64h20q92 0 74 -100l-16 -86q-21 -121 -146 -121h-127l15 82h127 q32 0 38 39l15 75q6 31 -21 31h-80l25 148q-173 24 -129 260z" />
<glyph unicode="&#xc8;" horiz-adv-x="595" d="M59 0l289 1647h449l-17 -95h-340l-98 -561h279l-17 -90h-278l-144 -809h340l-14 -92h-449zM418 2032h139l215 -263h-139z" />
<glyph unicode="&#xc9;" horiz-adv-x="595" d="M59 0l289 1647h449l-17 -95h-340l-98 -561h279l-17 -90h-278l-144 -809h340l-14 -92h-449zM373 1769l305 263h139l-305 -263h-139z" />
<glyph unicode="&#xca;" horiz-adv-x="595" d="M59 0l289 1647h447l-17 -95h-338l-98 -561h279l-17 -90h-278l-144 -809h338l-14 -92h-447zM332 1769l223 263h125l133 -263h-133l-78 156q-9 -10 -61 -69t-76 -87h-133z" />
<glyph unicode="&#xcb;" horiz-adv-x="595" d="M59 0l289 1647h449l-17 -95h-340l-98 -561h279l-17 -90h-278l-144 -809h340l-14 -92h-449zM422 1833l24 133h123l-24 -133h-123zM621 1833l24 133h125l-25 -133h-124z" />
<glyph unicode="&#xcc;" horiz-adv-x="370" d="M59 0l289 1647h109l-289 -1647h-109zM268 2032h142l215 -263h-140z" />
<glyph unicode="&#xcd;" horiz-adv-x="370" d="M59 0l289 1647h109l-289 -1647h-109zM223 1769l307 263h140l-305 -263h-142z" />
<glyph unicode="&#xce;" horiz-adv-x="421" d="M59 0l289 1647h109l-289 -1647h-109zM182 1769l226 263h124l132 -263h-132l-77 154q-24 -28 -73.5 -81t-66.5 -73h-133z" />
<glyph unicode="&#xcf;" horiz-adv-x="360" d="M59 0l289 1647h109l-289 -1647h-109zM270 1833l25 133h127l-25 -133h-127zM473 1833l25 133h123l-25 -133h-123z" />
<glyph unicode="&#xd0;" d="M61 0l289 1647h221q130 0 179 -74q32 -52 8 -197l-201 -1134q-43 -242 -274 -242h-222zM182 92h101q80 0 120 31q33 33 48 125l202 1151q15 87 -8 119t-104 32h-101l-108 -620h157l-18 -103h-158z" />
<glyph unicode="&#xd1;" horiz-adv-x="692" d="M68 0l288 1647h127v-17l13 -1169l209 1186h102l-289 -1647l-112 10l-7 15q-10 746 -14 1165l-209 -1190h-108zM287 1864q92 133 198 133q64 0 131 -33h-2q8 -3 28 -12.5t28 -12.5q56 -19 86 -26q51 -6 104 63l90 -32q-90 -147 -231 -132q-24 2 -168 58h2q-47 16 -68 18 q-61 9 -108 -57z" />
<glyph unicode="&#xd2;" d="M104 246l203 1151q47 264 273 264q228 0 182 -264l-203 -1151q-50 -264 -276 -264q-229 0 -179 264zM209 242q-27 -164 90 -164q123 0 150 164l204 1159q27 164 -92 164q-120 0 -147 -164zM446 2032h140l215 -263h-139z" />
<glyph unicode="&#xd3;" d="M104 246l203 1151q47 264 273 264q228 0 182 -264l-203 -1151q-50 -264 -276 -264q-229 0 -179 264zM209 242q-27 -164 90 -164q123 0 150 164l204 1159q27 164 -92 164q-120 0 -147 -164zM401 1769l306 263h139l-305 -263h-140z" />
<glyph unicode="&#xd4;" d="M104 246l203 1151q47 264 273 264q228 0 182 -264l-203 -1151q-50 -264 -276 -264q-229 0 -179 264zM209 242q-27 -164 90 -164q123 0 150 164l204 1159q27 164 -92 164q-120 0 -147 -164zM360 1769l224 263h125l131 -263h-131l-78 156q-9 -10 -61 -69t-76 -87h-134z" />
<glyph unicode="&#xd5;" horiz-adv-x="696" d="M104 246l203 1151q47 264 273 264q228 0 182 -264l-203 -1151q-50 -264 -276 -264q-229 0 -179 264zM209 242q-27 -164 90 -164q123 0 150 164l204 1159q27 164 -92 164q-120 0 -147 -164zM291 1864q92 133 198 133q65 0 132 -33h-3q8 -3 28 -12.5t28 -12.5 q56 -19 86 -26q51 -6 104 63l90 -32q-90 -147 -231 -132q-24 2 -168 58h2q-47 16 -68 18q-61 9 -108 -57z" />
<glyph unicode="&#xd6;" d="M104 246l203 1151q47 264 273 264q228 0 182 -264l-203 -1151q-50 -264 -276 -264q-229 0 -179 264zM209 242q-27 -164 90 -164q123 0 150 164l204 1159q27 164 -92 164q-120 0 -147 -164zM449 1833l24 133h125l-25 -133h-124zM649 1833l25 133h123l-25 -133h-123z" />
<glyph unicode="&#xd7;" horiz-adv-x="684" d="M123 483l244 205l-170 207l86 72l170 -207l243 207l58 -72l-244 -207l170 -205l-82 -73l-170 206l-244 -206z" />
<glyph unicode="&#xd8;" horiz-adv-x="679" d="M-20 0l129 268l198 1129q47 264 273 264q116 0 161 -76q7 14 21.5 41.5t17.5 34.5h111l-131 -270l-201 -1145q-50 -264 -276 -264q-120 0 -166 81q-5 -11 -16 -34.5t-13 -28.5h-108zM209 236q-27 -158 90 -158q123 0 150 164l141 792q-259 -539 -381 -798zM276 618 q64 133 189.5 394.5t189.5 394.5q27 158 -94 158q-120 0 -147 -164z" />
<glyph unicode="&#xd9;" d="M104 248l246 1399h107l-248 -1403q-27 -162 92 -162q121 0 148 162l247 1403h109l-246 -1399q-47 -264 -276 -264q-225 0 -179 264zM446 2032h140l215 -263h-139z" />
<glyph unicode="&#xda;" d="M104 248l246 1399h107l-248 -1403q-27 -162 92 -162q121 0 148 162l247 1403h109l-246 -1399q-47 -264 -276 -264q-225 0 -179 264zM401 1769l306 263h139l-305 -263h-140z" />
<glyph unicode="&#xdb;" d="M104 248l246 1399h107l-248 -1403q-27 -162 92 -162q121 0 148 162l247 1403h109l-246 -1399q-47 -264 -276 -264q-225 0 -179 264zM360 1769l224 263h125l131 -263h-131l-78 156q-9 -10 -61 -69t-76 -87h-134z" />
<glyph unicode="&#xdc;" d="M104 248l246 1399h107l-248 -1403q-27 -162 92 -162q121 0 148 162l247 1403h109l-246 -1399q-47 -264 -276 -264q-225 0 -179 264zM449 1833l24 133h125l-25 -133h-124zM649 1833l25 133h123l-25 -133h-123z" />
<glyph unicode="&#xdd;" horiz-adv-x="643" d="M217 0l148 842q-29 269 -91 805h117l60 -631q159 348 286 631h113l-377 -809l-147 -838h-109zM383 1769l305 263h139l-305 -263h-139z" />
<glyph unicode="&#xde;" horiz-adv-x="620" d="M66 0l288 1647h109l-74 -416h123q137 0 180 -72q32 -51 6 -201l-41 -229q-41 -240 -274 -240h-123l-86 -489h-108zM274 580h109q83 0 120 33t52 120l43 250q15 89 -9 121.5t-108 32.5h-108z" />
<glyph unicode="&#xdf;" horiz-adv-x="653" d="M63 -8l242 1378q46 260 270 260q147 0 177 -108q16 -59 -13 -222q-19 -108 -75.5 -175t-176.5 -124q-52 -21 -55 -47q-6 -22 39 -53h-2q26 -15 43 -18q8 -3 27.5 -11.5t27.5 -11.5q61 -36 82 -76q37 -57 19 -157l-84 -486q-22 -121 -111.5 -190.5t-220.5 -69.5l14 92 q81 0 139 46t70 118l88 494q15 92 -43 135l2 -2q-28 12 -137 63q-47 20 -57 70l-158 -905h-107zM344 995q31 49 127 95q104 42 141 124q10 22 35 158q27 168 -88 168q-120 0 -147 -168z" />
<glyph unicode="&#xe0;" d="M104 244l31 168q46 260 266 260q79 0 115 -31l33 190q27 164 -90 164q-119 0 -146 -164l-14 -81h-104l14 77q47 260 266 260q227 0 180 -260l-104 -583q-44 -260 -270 -260q-221 0 -177 260zM209 242q-27 -168 88 -168q120 0 147 168l31 174q30 166 -88 166 q-117 0 -147 -166zM344 1442h137l211 -258h-139z" />
<glyph unicode="&#xe1;" d="M104 244l31 168q46 260 266 260q79 0 115 -31l33 190q27 164 -90 164q-119 0 -146 -164l-14 -81h-104l14 77q47 260 266 260q227 0 180 -260l-104 -583q-44 -260 -270 -260q-221 0 -177 260zM209 242q-27 -168 88 -168q120 0 147 168l31 174q30 166 -88 166 q-117 0 -147 -166zM297 1184l303 258h139l-305 -258h-137z" />
<glyph unicode="&#xe2;" d="M104 244l31 168q46 260 266 260q79 0 115 -31l33 190q27 164 -90 164q-119 0 -146 -164l-14 -81h-104l14 77q47 260 266 260q227 0 180 -260l-104 -583q-44 -260 -270 -260q-221 0 -177 260zM209 242q-27 -168 88 -168q120 0 147 168l31 174q30 166 -88 166 q-117 0 -147 -166zM258 1184l223 258h121l129 -258h-131l-76 151q-11 -12 -61.5 -68.5t-75.5 -82.5h-129z" />
<glyph unicode="&#xe3;" horiz-adv-x="696" d="M104 244l31 168q46 260 266 260q79 0 115 -31l33 190q27 164 -90 164q-119 0 -146 -164l-14 -81h-104l14 77q47 260 266 260q227 0 180 -260l-104 -583q-44 -260 -270 -260q-221 0 -177 260zM188 1276q91 131 199 131q62 0 129 -33h-2q38 -16 55 -22q16 -12 82 -29 q52 -6 103 63l90 -30q-90 -146 -230 -131q-22 2 -163 57h2q-39 15 -68 18q-62 10 -104 -57zM209 242q-27 -168 88 -168q120 0 147 168l31 174q30 166 -88 166q-117 0 -147 -166z" />
<glyph unicode="&#xe4;" d="M104 244l31 168q46 260 266 260q79 0 115 -31l33 190q27 164 -90 164q-119 0 -146 -164l-14 -81h-104l14 77q47 260 266 260q227 0 180 -260l-104 -583q-44 -260 -270 -260q-221 0 -177 260zM209 242q-27 -168 88 -168q120 0 147 168l31 174q30 166 -88 166 q-117 0 -147 -166zM346 1243l23 131h123l-23 -131h-123zM545 1243l22 131h121l-22 -131h-121z" />
<glyph unicode="&#xe5;" d="M104 244l31 168q46 260 266 260q79 0 115 -31l33 190q27 164 -90 164q-119 0 -146 -164l-14 -81h-104l14 77q47 260 266 260q227 0 180 -260l-104 -583q-44 -260 -270 -260q-221 0 -177 260zM209 242q-27 -168 88 -168q120 0 147 168l31 174q30 166 -88 166 q-117 0 -147 -166zM348 1278l2 14q15 86 62.5 128t130.5 42q163 0 133 -170l-2 -14q-34 -174 -193 -174q-167 0 -133 174zM449 1274q-15 -82 47 -82q60 0 75 82l4 18q15 84 -47 84q-60 0 -75 -84z" />
<glyph unicode="&#xe6;" horiz-adv-x="960" d="M109 240l16 88q46 260 270 260h117l43 237q27 166 -90 166q-121 0 -148 -166l-14 -82h-104l12 78q47 262 270 262q117 0 158 -67q71 74 186 74q223 0 176 -261l-16 -90q-43 -241 -266 -241h-117l-45 -256q-27 -164 90 -164q119 0 146 164l14 82h104l-12 -78 q-47 -262 -268 -262q-117 0 -158 67q-74 -74 -186 -74q-225 0 -178 263zM213 236q-30 -168 88 -168q120 0 150 168l45 262h-117q-120 0 -150 -166zM618 588h117q119 0 146 147l16 96q30 168 -86 168q-119 0 -149 -168z" />
<glyph unicode="&#xe7;" d="M104 244l105 583q47 260 266 260q227 0 180 -260l-24 -133h-107l25 137q27 164 -90 164q-119 0 -146 -164l-104 -589q-27 -168 88 -168q120 0 147 168l27 145h107l-27 -143q-40 -242 -232 -260l-10 -64h19q89 0 71 -100l-14 -84q-21 -121 -145 -121h-127l14 82h127 q30 0 39 39l12 76q6 28 -18 28h-80l24 148q-168 24 -127 256z" />
<glyph unicode="&#xe8;" horiz-adv-x="598" d="M98 244l105 583q47 260 268 260q225 0 178 -260l-41 -231h-340l-63 -354q-27 -166 88 -166q120 0 147 166l15 80h104l-14 -78q-44 -260 -269 -260q-222 0 -178 260zM283 686h237l25 145q27 166 -90 166q-116 0 -146 -166q-4 -26 -13 -72.5t-13 -72.5zM336 1442h139 l209 -258h-139z" />
<glyph unicode="&#xe9;" horiz-adv-x="598" d="M98 244l105 583q47 260 268 260q225 0 178 -260l-41 -231h-340l-63 -354q-27 -166 88 -166q120 0 147 166l15 80h104l-14 -78q-44 -260 -269 -260q-222 0 -178 260zM283 686h237l25 145q27 166 -90 166q-116 0 -146 -166q-4 -26 -13 -72.5t-13 -72.5zM289 1184l303 258 h139l-303 -258h-139z" />
<glyph unicode="&#xea;" horiz-adv-x="598" d="M98 244l105 583q47 260 268 260q225 0 178 -260l-41 -231h-340l-63 -354q-27 -166 88 -166q120 0 147 166l15 80h104l-14 -78q-44 -260 -269 -260q-222 0 -178 260zM250 1184l223 258h121l129 -258h-131l-76 151q-11 -12 -61.5 -68.5t-75.5 -82.5h-129zM283 686h237 l25 145q27 166 -90 166q-116 0 -146 -166q-4 -26 -13 -72.5t-13 -72.5z" />
<glyph unicode="&#xeb;" horiz-adv-x="598" d="M98 244l105 583q47 260 268 260q225 0 178 -260l-41 -231h-340l-63 -354q-27 -166 88 -166q120 0 147 166l15 80h104l-14 -78q-44 -260 -269 -260q-222 0 -178 260zM283 686h237l25 145q27 166 -90 166q-116 0 -146 -166q-4 -26 -13 -72.5t-13 -72.5zM338 1243l22 131 h123l-22 -131h-123zM537 1243l22 131h121l-23 -131h-120z" />
<glyph unicode="&#xec;" horiz-adv-x="374" d="M63 0l189 1073h106l-188 -1073h-107zM174 1442h137l209 -258h-137z" />
<glyph unicode="&#xed;" horiz-adv-x="374" d="M63 0l189 1073h106l-188 -1073h-107zM127 1184l303 258h137l-303 -258h-137z" />
<glyph unicode="&#xee;" horiz-adv-x="425" d="M63 0l189 1073h106l-188 -1073h-107zM86 1184l223 258h123l129 -258h-131l-76 151q-24 -26 -72 -79t-65 -72h-131z" />
<glyph unicode="&#xef;" horiz-adv-x="364" d="M63 0l189 1073h106l-188 -1073h-107zM176 1243l23 131h123l-23 -131h-123zM373 1243l22 131h123l-22 -131h-123z" />
<glyph unicode="&#xf0;" horiz-adv-x="600" d="M104 236l84 473q43 260 267 260q71 0 112 -35l45 258h-241l18 100h242l6 37q17 95 -22.5 151t-118.5 54l16 92q131 6 193.5 -74.5t37.5 -226.5l-192 -1089q-47 -263 -272 -263q-222 0 -175 263zM207 231q-27 -161 88 -161q120 0 147 161l86 482q27 161 -90 161 q-118 0 -145 -161z" />
<glyph unicode="&#xf1;" horiz-adv-x="696" d="M66 0l145 829q47 261 266 261q227 0 180 -261l-145 -829h-106l145 831q30 168 -88 168t-148 -168l-145 -831h-104zM188 1276q91 131 199 131q62 0 129 -33h-2q38 -16 55 -22q16 -12 82 -29q52 -6 103 63l90 -30q-90 -146 -230 -131q-22 2 -163 57h2q-39 15 -68 18 q-62 10 -104 -57z" />
<glyph unicode="&#xf2;" horiz-adv-x="583" d="M84 236l104 591q47 260 269 260q225 0 178 -260l-105 -591q-47 -263 -270 -263t-176 263zM186 231q-27 -161 90 -161q119 0 146 161l106 600q28 162 -88 162q-119 0 -147 -162zM342 1442h137l211 -258h-139z" />
<glyph unicode="&#xf3;" horiz-adv-x="583" d="M84 236l104 591q47 260 269 260q225 0 178 -260l-105 -591q-47 -263 -270 -263t-176 263zM186 231q-27 -161 90 -161q119 0 146 161l106 600q28 162 -88 162q-119 0 -147 -162zM295 1184l303 258h139l-305 -258h-137z" />
<glyph unicode="&#xf4;" horiz-adv-x="598" d="M84 236l104 591q47 260 269 260q227 0 180 -260l-105 -591q-47 -263 -272 -263q-223 0 -176 263zM186 231q-27 -161 90 -161q59 0 97 41t51 120l106 600q28 162 -90 162q-119 0 -147 -162zM256 1184l221 258h123l129 -258h-131l-76 151q-11 -12 -61.5 -68.5t-75.5 -82.5 h-129z" />
<glyph unicode="&#xf5;" horiz-adv-x="694" d="M84 236l104 591q47 260 269 260q227 0 180 -260l-105 -591q-47 -263 -272 -263q-223 0 -176 263zM186 231q-27 -161 90 -161q59 0 97 41t51 120l106 600q28 162 -90 162q-119 0 -147 -162zM186 1276q91 131 199 131q62 0 129 -33h-2q38 -16 55 -22q16 -12 82 -29 q52 -6 103 63l90 -30q-90 -146 -230 -131q-24 2 -161 57q-39 15 -68 18q-62 10 -104 -57z" />
<glyph unicode="&#xf6;" horiz-adv-x="583" d="M84 236l104 591q47 260 269 260q225 0 178 -260l-105 -591q-47 -263 -270 -263t-176 263zM186 231q-27 -161 90 -161q119 0 146 161l106 600q28 162 -88 162q-119 0 -147 -162zM344 1243l23 131h122l-22 -131h-123zM543 1243l22 131h121l-22 -131h-121z" />
<glyph unicode="&#xf7;" horiz-adv-x="817" d="M176 690l19 107h661l-18 -107h-662zM401 440l25 131h121l-25 -131h-121zM485 915l25 132h121l-25 -132h-121z" />
<glyph unicode="&#xf8;" horiz-adv-x="647" d="M4 -20l76 129q-10 44 4 127l104 591q47 260 269 260q102 0 151 -61q22 31 35 61h109l-109 -186q0 -31 -6 -74l-105 -591q-47 -263 -272 -263q-86 0 -133 41q-8 -14 -16 -34h-107zM190 115q13 -45 86 -45q59 0 97 41t51 120l74 418q-64 -112 -308 -534zM205 328 q156 264 332 571q-3 44 -28.5 69t-68.5 25q-119 0 -147 -162z" />
<glyph unicode="&#xf9;" d="M104 244l148 829h104l-147 -831q-27 -168 88 -168q120 0 147 168l148 831h106l-147 -829q-44 -260 -270 -260q-221 0 -177 260zM344 1442h137l211 -258h-139z" />
<glyph unicode="&#xfa;" d="M104 244l148 829h104l-147 -831q-27 -168 88 -168q120 0 147 168l148 831h106l-147 -829q-44 -260 -270 -260q-221 0 -177 260zM297 1184l303 258h139l-305 -258h-137z" />
<glyph unicode="&#xfb;" d="M104 244l148 829h104l-147 -831q-27 -168 88 -168q120 0 147 168l148 831h106l-147 -829q-44 -260 -270 -260q-221 0 -177 260zM258 1184l223 258h121l129 -258h-131l-76 151q-11 -12 -61.5 -68.5t-75.5 -82.5h-129z" />
<glyph unicode="&#xfc;" d="M104 244l148 829h104l-147 -831q-27 -168 88 -168q120 0 147 168l148 831h106l-147 -829q-44 -260 -270 -260q-221 0 -177 260zM346 1243l23 131h123l-23 -131h-123zM545 1243l22 131h121l-22 -131h-121z" />
<glyph unicode="&#xfd;" d="M20 -238l15 84h106l-14 -88q-27 -153 90 -153q121 0 145 153l41 252q-45 -37 -124 -37q-222 0 -175 263l148 837h104l-149 -842q-27 -161 88 -161q120 0 147 161l150 842h106l-231 -1311q-47 -260 -268 -260q-223 0 -179 260zM297 1184l303 258h139l-305 -258h-137z" />
<glyph unicode="&#xfe;" horiz-adv-x="593" d="M-31 -483l357 2037h106l-88 -499q42 32 123 32q225 0 178 -260l-104 -591q-47 -263 -271 -263q-70 0 -110 37l-86 -493h-105zM199 231q-27 -161 88 -161q120 0 147 161l107 600q28 162 -90 162t-146 -162z" />
<glyph unicode="&#xff;" d="M20 -238l15 84h106l-14 -88q-27 -153 90 -153q121 0 145 153l41 252q-45 -37 -124 -37q-222 0 -175 263l148 837h104l-149 -842q-27 -161 88 -161q120 0 147 161l150 842h106l-231 -1311q-47 -260 -268 -260q-223 0 -179 260zM346 1243l23 131h123l-23 -131h-123z M545 1243l22 131h121l-22 -131h-121z" />
<glyph unicode="&#x152;" horiz-adv-x="944" d="M98 242l201 1134q23 139 78 197q71 74 201 74h559l-17 -95h-336l-98 -561h277l-17 -90h-276l-144 -809h336l-14 -92h-559q-234 0 -191 242zM209 123q24 -31 110 -31h101l258 1458h-100q-82 0 -116.5 -32t-49.5 -119l-203 -1151q-15 -94 0 -125z" />
<glyph unicode="&#x153;" horiz-adv-x="960" d="M111 246l102 583q47 261 268 261q115 0 158 -72q88 72 186 72q223 0 176 -261l-16 -90q-46 -260 -268 -260h-117l-43 -237q-27 -164 90 -164q119 0 146 164l14 82h104l-12 -78q-47 -262 -268 -262q-116 0 -156 65q-68 -65 -168 -65q-243 0 -196 262zM213 242 q-27 -166 111 -166q48 0 81 42.5t46 123.5l104 589q30 166 -90 166q-118 0 -148 -166zM616 569h117q118 0 148 166l16 96q30 168 -86 168q-119 0 -149 -168z" />
<glyph unicode="&#x178;" horiz-adv-x="643" d="M217 0l148 842q-29 269 -91 805h117l60 -631q159 348 286 631h113l-377 -809l-147 -838h-109zM430 1833l25 133h125l-25 -133h-125zM631 1833l24 133h123l-24 -133h-123z" />
<glyph unicode="&#x2c6;" horiz-adv-x="647" d="M338 1380l223 258h123l129 -258h-151l-60 131q-20 -22 -57.5 -66.5t-55.5 -64.5h-151z" />
<glyph unicode="&#x2dc;" horiz-adv-x="786" d="M315 1481q88 131 195 131q55 0 131 -31h-2q7 -3 26 -12.5t29 -12.5q23 -14 82 -26q54 -6 103 61l92 -30q-91 -143 -232 -131q-24 2 -161 57h2q-52 17 -70 18q-62 10 -107 -57z" />
<glyph unicode="&#x2000;" horiz-adv-x="1016" />
<glyph unicode="&#x2001;" horiz-adv-x="2032" />
<glyph unicode="&#x2002;" horiz-adv-x="1016" />
<glyph unicode="&#x2003;" horiz-adv-x="2032" />
<glyph unicode="&#x2004;" horiz-adv-x="677" />
<glyph unicode="&#x2005;" horiz-adv-x="508" />
<glyph unicode="&#x2006;" horiz-adv-x="338" />
<glyph unicode="&#x2007;" horiz-adv-x="338" />
<glyph unicode="&#x2008;" horiz-adv-x="254" />
<glyph unicode="&#x2009;" horiz-adv-x="406" />
<glyph unicode="&#x200a;" horiz-adv-x="112" />
<glyph unicode="&#x2010;" horiz-adv-x="573" d="M166 600l18 100h420l-18 -100h-420z" />
<glyph unicode="&#x2011;" horiz-adv-x="573" d="M166 600l18 100h420l-18 -100h-420z" />
<glyph unicode="&#x2012;" horiz-adv-x="573" d="M166 600l18 100h420l-18 -100h-420z" />
<glyph unicode="&#x2013;" horiz-adv-x="1142" d="M100 645l15 86h1046l-14 -86h-1047z" />
<glyph unicode="&#x2014;" horiz-adv-x="1916" d="M109 645l14 86h1790l-15 -86h-1789z" />
<glyph unicode="&#x2018;" horiz-adv-x="327" d="M283 1272l157 356h84l-78 -215h50l-60 -141h-153z" />
<glyph unicode="&#x2019;" horiz-adv-x="327" d="M293 1272l78 215h-49l59 141h154l-156 -356h-86z" />
<glyph unicode="&#x201a;" horiz-adv-x="317" d="M29 -156l69 156h-39l68 139h135l-145 -295h-88z" />
<glyph unicode="&#x201c;" horiz-adv-x="552" d="M285 1272l157 356h84l-77 -215h49l-60 -141h-153zM502 1272l157 356h84l-77 -215h49l-60 -141h-153z" />
<glyph unicode="&#x201d;" horiz-adv-x="552" d="M295 1272l78 215h-49l59 141h154l-156 -356h-86zM512 1272l78 215h-49l59 141h154l-156 -356h-86z" />
<glyph unicode="&#x201e;" horiz-adv-x="522" d="M31 -156l69 156h-39l68 139h135l-145 -295h-88zM229 -156l68 156h-37l68 139h133l-146 -295h-86z" />
<glyph unicode="&#x2022;" horiz-adv-x="397" d="M176 575l43 242h234l-43 -242h-234z" />
<glyph unicode="&#x2026;" horiz-adv-x="780" d="M86 0l23 133h122l-22 -133h-123zM324 0l22 133h121l-23 -133h-120zM559 0l23 133h123l-23 -133h-123z" />
<glyph unicode="&#x202f;" horiz-adv-x="406" />
<glyph unicode="&#x2039;" horiz-adv-x="458" d="M207 649l10 58l344 393l-24 -146l-195 -276q15 -45 47.5 -139.5t48.5 -139.5l-26 -145z" />
<glyph unicode="&#x203a;" horiz-adv-x="458" d="M137 254l27 145l196 279q-49 145 -98 276l25 146l205 -393l-11 -58z" />
<glyph unicode="&#x205f;" horiz-adv-x="508" />
<glyph unicode="&#x20ac;" horiz-adv-x="655" d="M98 653l49 109h97l28 166h-71l51 108h41l59 344q46 258 271 258q114 0 157.5 -63.5t20.5 -194.5l-8 -47l-117 -61l20 112q27 164 -90 164q-118 0 -145 -164l-62 -348h244l-51 -108h-213l-29 -166h170l-49 -109h-139l-74 -411q-27 -168 88 -168q121 0 148 168l22 118 l94 -61l-10 -55q-44 -260 -270 -260q-222 0 -178 260l73 409h-127z" />
<glyph unicode="&#x2122;" horiz-adv-x="819" d="M293 793l131 747h-109l17 86h303l-17 -86h-104l-131 -747h-90zM514 793l148 833h104l-21 -477l154 477h107l-148 -833h-88l55 315q-10 -34 -41.5 -144.5t-48.5 -170.5h-100l20 294l-51 -294h-90z" />
<glyph unicode="&#x25fc;" horiz-adv-x="1075" d="M0 0v1075h1075v-1075h-1075z" />
<glyph unicode="&#xfb01;" horiz-adv-x="704" d="M74 0l172 977h-66l17 98h65l51 289q47 262 271 262h182l-18 -94h-183q-115 0 -145 -164l-51 -293q69 0 214 -1t214 -1l-189 -1073h-106l170 975q-59 0 -161 1t-159 1l-172 -977h-106zM721 1251l29 162h106l-29 -162h-106z" />
<glyph unicode="&#xfb02;" horiz-adv-x="724" d="M74 0l172 977h-66l17 98h65l51 289q47 262 271 262h182l-18 -94h-183q-115 0 -145 -164l-51 -293h340l84 473l125 105l-291 -1653h-107l172 977h-340l-172 -977h-106z" />
</font>
</defs>
</svg>
